<?xml version="1.0" encoding="utf-8" standalone="no"?>
<!DOCTYPE svg PUBLIC "-//W3C//DTD SVG 1.1//EN"
  "http://www.w3.org/Graphics/SVG/1.1/DTD/svg11.dtd">
<!-- Created with matplotlib (https://matplotlib.org/) -->
<svg height="345.6pt" version="1.1" viewBox="0 0 460.8 345.6" width="460.8pt" xmlns="http://www.w3.org/2000/svg" xmlns:xlink="http://www.w3.org/1999/xlink">
 <metadata>
  <rdf:RDF xmlns:cc="http://creativecommons.org/ns#" xmlns:dc="http://purl.org/dc/elements/1.1/" xmlns:rdf="http://www.w3.org/1999/02/22-rdf-syntax-ns#">
   <cc:Work>
    <dc:type rdf:resource="http://purl.org/dc/dcmitype/StillImage"/>
    <dc:date>2021-03-27T13:44:29.068477</dc:date>
    <dc:format>image/svg+xml</dc:format>
    <dc:creator>
     <cc:Agent>
      <dc:title>Matplotlib v3.3.2, https://matplotlib.org/</dc:title>
     </cc:Agent>
    </dc:creator>
   </cc:Work>
  </rdf:RDF>
 </metadata>
 <defs>
  <style type="text/css">*{stroke-linecap:butt;stroke-linejoin:round;}</style>
 </defs>
 <g id="figure_1">
  <g id="patch_1">
   <path d="M 0 345.6 
L 460.8 345.6 
L 460.8 0 
L 0 0 
z
" style="fill:none;"/>
  </g>
  <g id="axes_1">
   <g id="line2d_1">
    <path clip-path="url(#p07a1c9ca7f)" d="M 57.566933 206.468227 
L 58.096 205.918431 
L 58.955733 205.039555 
L 59.319467 204.944881 
L 59.6832 205.114699 
L 60.146133 205.639758 
L 61.435733 207.236212 
L 61.8656 207.406592 
L 62.2624 207.318688 
L 62.824533 206.915725 
L 63.8496 206.127778 
L 64.610133 205.825108 
L 65.4368 205.859462 
L 66.759467 206.207625 
L 67.090133 206.052424 
L 68.379733 205.014682 
L 68.875733 205.163035 
L 69.437867 205.918767 
L 70.330667 207.334715 
L 70.727467 207.402005 
L 71.0912 207.380394 
L 71.6864 207.279658 
L 71.917867 207.020285 
L 72.2816 206.299107 
L 73.438933 203.332073 
L 73.538133 203.251159 
L 73.835733 203.077818 
L 74.100267 203.245649 
L 74.3648 203.741939 
L 74.728533 205.068468 
L 76.0512 210.650981 
L 76.2496 210.632216 
L 76.414933 210.266062 
L 76.679467 209.172229 
L 77.869867 203.400398 
L 78.0352 203.360294 
L 78.2336 203.590669 
L 78.564267 204.42737 
L 79.490133 207.150854 
L 79.8208 207.460676 
L 80.085333 207.405222 
L 81.374933 206.545509 
L 82.234667 206.522742 
L 82.730667 206.317664 
L 83.358933 206.138957 
L 84.317867 206.235626 
L 85.0784 206.461976 
L 85.706667 206.214424 
L 86.235733 205.97768 
L 86.7648 205.953976 
L 87.426133 206.119653 
L 88.1536 206.415118 
L 88.583467 206.410097 
L 89.344 206.353977 
L 90.0384 206.547058 
L 90.369067 206.709225 
L 90.402133 204.894956 
L 90.501333 204.973468 
L 91.0304 205.637466 
L 92.154667 207.210811 
L 94.436267 209.107581 
L 95.064533 209.319459 
L 95.428267 209.207857 
L 95.5936 209.127245 
L 96.0896 208.549002 
L 97.544533 205.281065 
L 97.9744 204.664951 
L 98.040533 204.760354 
L 98.0736 204.797828 
L 98.106667 204.705023 
L 98.3712 203.682582 
L 98.404267 203.788933 
L 98.4704 204.25307 
L 98.536533 204.072626 
L 98.734933 203.106278 
L 98.768 203.173269 
L 98.8672 203.537822 
L 98.933333 202.892638 
L 98.999467 202.91423 
L 99.032533 202.953089 
L 99.429333 200.852619 
L 99.4624 201.18432 
L 99.495467 200.728411 
L 99.627733 199.894832 
L 99.6608 200.091469 
L 99.693867 200.14259 
L 99.892267 197.728818 
L 99.9584 198.108021 
L 100.024533 197.506778 
L 100.090667 197.524158 
L 100.123733 197.403429 
L 100.1568 196.081327 
L 100.222933 197.246928 
L 100.3552 198.357801 
L 100.388267 197.87288 
L 100.4544 197.703108 
L 100.619733 199.843827 
L 100.6528 199.292258 
L 100.685867 200.319174 
L 100.884267 202.366403 
L 100.983467 203.619063 
L 101.016533 204.62511 
L 101.082667 204.552291 
L 101.115733 203.915566 
L 101.1488 204.240657 
L 101.181867 205.076649 
L 101.248 204.601607 
L 101.314133 204.017092 
L 101.3472 204.411443 
L 101.380267 204.551872 
L 101.4464 206.474157 
L 101.479467 205.571654 
L 101.512533 204.600798 
L 101.578667 205.426423 
L 101.6448 204.465973 
L 101.744 204.839614 
L 101.8432 206.713494 
L 101.876267 206.682693 
L 101.9424 206.040137 
L 101.975467 206.662496 
L 102.107733 207.950976 
L 102.24 205.778306 
L 102.306133 206.11092 
L 102.3392 205.870279 
L 102.4384 204.729683 
L 102.471467 205.236602 
L 102.570667 206.916946 
L 102.6368 206.169214 
L 102.669867 206.19415 
L 102.702933 205.439649 
L 102.736 206.169528 
L 102.8352 207.760794 
L 102.901333 207.869993 
L 102.967467 206.889069 
L 103.0336 208.349141 
L 103.066667 207.983085 
L 103.165867 206.099211 
L 103.198933 206.486113 
L 103.265067 206.669612 
L 103.3312 205.567196 
L 103.364267 206.000673 
L 103.397333 206.465964 
L 103.4304 205.915926 
L 103.496533 204.041122 
L 103.5296 205.013795 
L 103.595733 206.778211 
L 103.6288 205.086531 
L 103.661867 205.020592 
L 103.694933 205.349739 
L 103.728 204.845036 
L 103.761067 204.99492 
L 103.794133 203.869971 
L 103.860267 204.620421 
L 103.9264 204.453604 
L 103.992533 205.511754 
L 104.0256 204.35797 
L 104.091733 204.660838 
L 104.1248 205.036546 
L 104.157867 204.310195 
L 104.224 204.468127 
L 104.290133 204.039446 
L 104.3232 204.169179 
L 104.356267 204.799098 
L 104.389333 203.612845 
L 104.455467 204.245185 
L 104.488533 204.215799 
L 104.5216 203.463888 
L 104.587733 203.493109 
L 104.753067 205.177371 
L 104.852267 203.344723 
L 104.885333 203.588601 
L 104.984533 205.205802 
L 105.0176 204.977014 
L 105.083733 203.68192 
L 105.1168 203.933546 
L 105.216 205.961231 
L 105.249067 204.899815 
L 105.282133 203.349144 
L 105.348267 204.698372 
L 105.4144 203.692041 
L 105.447467 204.191816 
L 105.480533 205.407326 
L 105.579733 205.162906 
L 105.6128 204.578376 
L 105.645867 204.691104 
L 105.712 204.181036 
L 105.8112 206.48898 
L 105.943467 204.754931 
L 106.042667 206.576119 
L 106.1088 206.345211 
L 106.208 204.894363 
L 106.274133 207.410451 
L 106.3072 206.072291 
L 106.4064 204.512563 
L 106.472533 205.079284 
L 106.5056 205.036749 
L 106.538667 205.757572 
L 106.6048 205.379152 
L 106.737067 203.612843 
L 106.770133 204.551424 
L 106.8032 204.348693 
L 106.968533 206.15357 
L 107.166933 207.50525 
L 107.2 206.727254 
L 107.266133 207.787558 
L 107.2992 207.598332 
L 107.3984 208.642411 
L 107.431467 208.237497 
L 107.464533 208.341117 
L 107.4976 208.260855 
L 107.530667 209.1493 
L 107.629867 208.950994 
L 107.729067 209.82361 
L 107.762133 208.208959 
L 107.828267 209.876222 
L 107.8944 209.55448 
L 107.927467 209.796022 
L 107.960533 209.742775 
L 107.9936 210.793282 
L 108.026667 209.847244 
L 108.059733 209.349286 
L 108.0928 209.984597 
L 108.125867 210.152078 
L 108.158933 211.011333 
L 108.192 209.980828 
L 108.357333 208.497607 
L 108.3904 210.107967 
L 108.4896 209.885845 
L 108.5888 210.740686 
L 108.688 209.698274 
L 108.7872 213.065997 
L 108.820267 214.50593 
L 108.8864 213.184065 
L 109.0848 215.670376 
L 109.117867 215.314948 
L 109.150933 215.009377 
L 109.448533 199.566 
L 110.176 119.904516 
L 110.209067 120.022819 
L 110.242133 119.41052 
L 110.605867 143.247542 
L 111.234133 217.424175 
L 112.7552 293.111671 
L 112.788267 293.405432 
L 112.887467 296.500473 
L 112.920533 293.777019 
L 113.019733 294.541364 
L 113.416533 271.257986 
L 113.813333 213.978199 
L 114.110933 158.872847 
L 114.606933 82.54634 
L 115.069867 49.042754 
L 115.4336 41.472 
L 115.7312 52.529566 
L 116.194133 102.378943 
L 117.3184 299.176134 
L 117.351467 300.134881 
L 117.384533 298.476882 
L 117.4176 298.271587 
L 118.078933 262.038782 
L 118.112 261.613188 
L 118.145067 262.50882 
L 118.178133 262.282937 
L 118.442667 244.933181 
L 118.839467 222.870182 
L 118.971733 223.865488 
L 119.137067 220.936518 
L 119.533867 236.714818 
L 120.096 273.18621 
L 120.261333 280.789321 
L 120.360533 280.432796 
L 120.558933 275.221422 
L 120.6912 269.200866 
L 121.418667 206.756218 
L 121.4848 206.254373 
L 121.517867 203.341417 
L 121.584 205.002982 
L 121.617067 204.970713 
L 121.650133 203.685952 
L 121.716267 204.466268 
L 121.749333 204.286535 
L 122.013867 221.113215 
L 122.146133 226.969432 
L 122.410667 235.051253 
L 122.443733 234.544223 
L 122.4768 235.682612 
L 122.542933 235.922253 
L 122.642133 233.938037 
L 122.6752 234.189218 
L 122.708267 235.443142 
L 122.741333 234.367287 
L 122.9728 220.234877 
L 123.1712 202.388358 
L 124.1632 82.287742 
L 124.196267 82.325756 
L 124.3616 80.588629 
L 124.626133 87.987779 
L 125.1552 131.939474 
L 125.3536 149.770912 
L 125.684267 179.262157 
L 126.081067 204.993055 
L 127.502933 291.984577 
L 127.6352 293.317704 
L 127.668267 293.228316 
L 127.899733 298.262356 
L 127.9328 297.767384 
L 127.965867 297.693742 
L 128.098133 295.720622 
L 128.164267 294.516802 
L 128.362667 287.747385 
L 128.594133 279.153392 
L 128.792533 274.796946 
L 128.891733 272.36265 
L 129.3216 252.339443 
L 130.2144 198.651672 
L 130.4128 191.188248 
L 130.578133 186.015502 
L 130.6112 185.971921 
L 130.8096 180.072563 
L 130.875733 181.214524 
L 130.9088 181.198902 
L 131.008 178.963254 
L 131.041067 180.447914 
L 131.074133 180.877912 
L 131.1072 179.662474 
L 131.2064 179.815296 
L 131.437867 184.684259 
L 131.470933 183.888796 
L 131.504 184.949432 
L 131.669333 189.047628 
L 131.7024 188.946374 
L 131.9008 197.967168 
L 132.2976 208.648833 
L 132.330667 208.58978 
L 132.462933 207.207313 
L 132.496 207.605227 
L 132.529067 207.215497 
L 132.661333 205.814701 
L 132.727467 206.785757 
L 132.7936 206.361084 
L 132.859733 207.226967 
L 132.8928 207.155011 
L 132.992 206.280609 
L 133.058133 207.692547 
L 133.124267 207.143055 
L 133.223467 204.508343 
L 133.2896 205.030525 
L 133.454933 207.13826 
L 133.521067 206.331928 
L 133.554133 207.117985 
L 133.5872 207.674695 
L 133.620267 207.109665 
L 133.653333 207.157141 
L 133.719467 206.154468 
L 133.818667 206.443814 
L 133.950933 208.304188 
L 134.017067 207.049299 
L 134.050133 207.744044 
L 134.1824 210.749019 
L 134.215467 210.379247 
L 134.2816 210.627415 
L 134.314667 209.628826 
L 134.347733 210.970378 
L 134.446933 210.879437 
L 134.48 210.438021 
L 134.513067 211.277601 
L 134.546133 211.507802 
L 134.612267 209.486165 
L 134.6784 210.192676 
L 134.711467 210.208489 
L 134.7776 208.629494 
L 134.843733 208.890238 
L 134.976 210.96167 
L 135.009067 209.793527 
L 135.141333 208.259619 
L 135.240533 209.081214 
L 135.405867 207.687438 
L 135.438933 207.565992 
L 135.472 207.850654 
L 135.505067 208.315238 
L 135.5712 206.339439 
L 135.637333 206.46454 
L 135.6704 206.465956 
L 135.802667 205.054015 
L 135.835733 205.601876 
L 135.8688 205.099575 
L 135.901867 203.603942 
L 135.968 204.50265 
L 136.001067 204.409403 
L 136.034133 204.542545 
L 136.0672 205.244609 
L 136.232533 202.177589 
L 136.2656 202.219222 
L 136.298667 202.180716 
L 136.3648 202.067068 
L 136.397867 203.91802 
L 136.497067 202.09496 
L 136.530133 202.240113 
L 136.5632 202.826876 
L 136.596267 202.055014 
L 136.6624 202.250981 
L 136.695467 201.360302 
L 136.7616 202.480596 
L 136.827733 202.085543 
L 136.893867 201.169931 
L 136.926933 201.637426 
L 136.96 203.125949 
L 137.0592 202.7556 
L 137.092267 202.817206 
L 137.191467 201.463011 
L 137.224533 201.91208 
L 137.290667 202.392594 
L 137.323733 201.89226 
L 137.489067 201.197773 
L 137.522133 201.679078 
L 137.588267 200.267084 
L 137.621333 201.648995 
L 137.7536 202.413323 
L 137.819733 201.787464 
L 137.918933 204.119119 
L 137.985067 203.966918 
L 138.018133 203.077694 
L 138.0512 203.768613 
L 138.282667 207.419537 
L 138.3488 206.569215 
L 138.381867 206.840849 
L 138.514133 207.829571 
L 138.580267 206.909782 
L 138.613333 207.479716 
L 138.6464 207.487192 
L 138.712533 209.711943 
L 138.811733 209.06557 
L 138.977067 205.994265 
L 139.010133 205.529091 
L 139.0432 205.925356 
L 139.076267 206.999368 
L 139.175467 206.869569 
L 139.2416 204.940066 
L 139.3408 205.25565 
L 139.373867 205.449783 
L 139.506133 203.998903 
L 139.5392 203.937445 
L 139.605333 204.303047 
L 139.671467 202.83159 
L 139.770667 203.050673 
L 139.803733 204.100599 
L 139.869867 202.891505 
L 140.0352 203.607241 
L 139.936 202.86749 
L 140.068267 203.440717 
L 140.101333 203.322144 
L 140.167467 203.300423 
L 140.2336 204.491453 
L 140.266667 203.526266 
L 140.3328 203.82592 
L 140.432 205.59703 
L 140.465067 204.915923 
L 140.498133 204.972107 
L 140.663467 206.45926 
L 140.795733 205.917478 
L 140.861867 206.710894 
L 140.928 206.690997 
L 140.961067 206.367033 
L 140.994133 206.977773 
L 141.0272 206.927728 
L 141.060267 206.668809 
L 141.093333 206.93555 
L 141.159467 207.663835 
L 141.2256 207.131086 
L 141.258667 206.972309 
L 141.291733 207.557543 
L 141.357867 207.037295 
L 141.424 206.391253 
L 141.457067 207.283306 
L 141.490133 206.946425 
L 141.556267 205.612618 
L 141.589333 206.844269 
L 141.6224 206.606693 
L 141.688533 206.883918 
L 141.7216 207.286116 
L 141.754667 207.011508 
L 141.787733 206.261559 
L 141.853867 207.110793 
L 141.886933 206.378575 
L 142.085333 207.662193 
L 142.151467 206.910275 
L 142.184533 208.05012 
L 142.250667 207.215279 
L 142.3168 207.088368 
L 142.416 207.555149 
L 142.449067 206.799194 
L 142.548267 206.904386 
L 142.581333 207.315226 
L 142.647467 207.014015 
L 142.680533 207.085393 
L 142.8128 206.4216 
L 142.878933 206.362527 
L 142.912 205.793378 
L 142.978133 206.245224 
L 143.0112 206.276768 
L 143.176533 205.102728 
L 143.2096 205.814728 
L 143.242667 206.377799 
L 143.275733 205.314152 
L 143.3088 205.671917 
L 143.441067 205.538421 
L 143.474133 205.32197 
L 143.5072 205.857877 
L 143.573333 205.545262 
L 143.6064 205.195166 
L 143.672533 205.282094 
L 143.771733 205.577418 
L 143.8048 205.506752 
L 143.870933 205.159915 
L 143.937067 205.29736 
L 143.970133 205.509265 
L 144.036267 205.325865 
L 144.069333 205.386551 
L 144.1024 204.225452 
L 144.2016 204.604471 
L 144.234667 204.054112 
L 144.267733 204.752129 
L 144.4 205.424169 
L 144.433067 204.918592 
L 144.4992 204.853459 
L 144.532267 204.931584 
L 144.664533 205.939263 
L 144.730667 205.388099 
L 144.862933 206.533066 
L 145.028267 205.725485 
L 145.061333 205.556493 
L 145.0944 205.73816 
L 145.1936 206.35713 
L 145.226667 206.025822 
L 145.325867 206.107146 
L 145.358933 205.263828 
L 145.425067 205.831675 
L 145.458133 205.818988 
L 145.557333 205.362862 
L 145.623467 205.995225 
L 145.656533 205.824997 
L 145.7888 205.018942 
L 145.954133 205.445921 
L 145.9872 205.305472 
L 146.020267 205.796717 
L 146.053333 205.106671 
L 146.0864 205.025114 
L 146.251733 205.643672 
L 146.450133 204.695385 
L 146.4832 204.87946 
L 146.516267 204.193993 
L 146.615467 204.42067 
L 146.6816 204.623969 
L 146.747733 203.851919 
L 146.813867 204.137458 
L 146.846933 204.330203 
L 146.88 204.163132 
L 146.913067 203.377633 
L 146.9792 204.046012 
L 147.144533 202.638193 
L 147.210667 202.919459 
L 147.342933 203.48427 
L 147.409067 203.77176 
L 147.442133 203.742464 
L 147.541333 203.53818 
L 147.6736 204.131615 
L 147.739733 204.074415 
L 147.7728 204.143743 
L 147.838933 203.722749 
L 147.905067 203.830092 
L 148.037333 205.146254 
L 148.0704 205.062584 
L 148.202667 205.879639 
L 148.235733 206.13966 
L 148.2688 205.835475 
L 148.368 205.660272 
L 148.401067 205.925567 
L 148.434133 205.717245 
L 148.533333 205.272939 
L 148.599467 205.753632 
L 148.632533 205.196791 
L 148.797867 205.582024 
L 148.864 205.662407 
L 148.897067 205.88999 
L 148.930133 205.838739 
L 149.0624 204.916716 
L 149.128533 205.574797 
L 149.1616 205.003012 
L 149.326933 205.498136 
L 149.36 205.358799 
L 149.393067 204.700567 
L 149.4592 205.299787 
L 149.492267 205.08453 
L 149.525333 205.240735 
L 149.5584 205.433457 
L 149.591467 205.289158 
L 149.624533 205.065138 
L 149.690667 206.984864 
L 149.723733 206.640262 
L 149.7568 205.937725 
L 149.822933 206.342871 
L 149.856 206.637647 
L 149.922133 206.2434 
L 150.120533 205.204422 
L 150.1536 205.536679 
L 150.186667 204.941386 
L 150.219733 204.954817 
L 150.4512 203.249075 
L 150.484267 203.552742 
L 150.517333 203.966756 
L 150.583467 203.682794 
L 150.616533 203.151295 
L 150.715733 203.298074 
L 151.013333 204.950194 
L 151.0464 204.882694 
L 151.476267 206.741983 
L 151.6416 207.216701 
L 151.9392 207.8121 
L 151.972267 207.750783 
L 152.005333 207.821123 
L 152.2368 208.064015 
L 152.6336 208.064175 
L 152.9312 207.854687 
L 153.063467 207.753734 
L 153.294933 207.506052 
L 153.989333 206.989453 
L 154.088533 206.933638 
L 155.345067 206.087769 
L 155.741867 205.698862 
L 156.2048 205.335854 
L 156.5024 205.223649 
L 157.031467 205.424447 
L 157.428267 205.779607 
L 157.758933 206.052332 
L 158.0896 206.035912 
L 158.221867 206.391585 
L 158.850133 206.412913 
L 159.3792 206.529397 
L 160.5696 206.923253 
L 160.9664 206.819752 
L 161.429333 206.533127 
L 162.3552 206.132922 
L 163.578667 206.056736 
L 165.1328 205.670676 
L 165.794133 205.870094 
L 166.488533 206.100552 
L 167.249067 206.090213 
L 168.1088 206.214045 
L 169.4976 206.468339 
L 170.952533 206.505731 
L 171.68 206.445037 
L 172.5728 206.149365 
L 173.234133 205.983814 
L 173.796267 206.035116 
L 175.019733 206.249388 
L 175.152 206.153775 
L 177.169067 206.117923 
L 179.285333 206.055344 
L 182.228267 206.650758 
L 182.9888 206.765405 
L 184.08 207.214543 
L 184.708267 207.62269 
L 185.237333 207.796667 
L 185.6672 207.691021 
L 186.196267 207.298854 
L 187.089067 206.509538 
L 187.717333 205.982621 
L 188.2464 205.318234 
L 188.907733 204.202778 
L 189.370667 203.694087 
L 189.602133 203.58889 
L 191.1232 203.659924 
L 191.6192 203.462473 
L 191.850667 203.640117 
L 191.949867 203.77154 
L 192.1152 204.440261 
L 192.743467 206.027745 
L 193.735467 208.821685 
L 194.529067 210.147099 
L 195.223467 210.672903 
L 196.2816 210.812232 
L 196.546133 210.341597 
L 197.141333 208.312107 
L 197.835733 204.958871 
L 198.497067 201.694143 
L 198.993067 199.949712 
L 200.183467 197.313991 
L 200.414933 197.004727 
L 200.5472 196.579395 
L 201.076267 196.952369 
L 201.605333 198.805117 
L 202.398933 204.527097 
L 203.192533 210.611751 
L 203.7216 213.499114 
L 204.449067 216.148708 
L 205.1104 217.925893 
L 205.341867 218.134127 
L 205.672533 218.143461 
L 206.069333 217.254542 
L 206.6976 214.430619 
L 208.714667 201.146796 
L 208.88 200.708016 
L 208.913067 201.092462 
L 208.9792 200.892777 
L 209.243733 200.328921 
L 209.409067 200.25008 
L 209.905067 200.514143 
L 210.830933 202.539885 
L 211.393067 205.325608 
L 211.426133 205.758332 
L 211.4592 205.475236 
L 211.492267 204.997001 
L 211.525333 205.671153 
L 211.5584 206.322852 
L 211.624533 206.023606 
L 211.6576 205.800378 
L 211.690667 206.285136 
L 211.856 207.300238 
L 211.889067 206.545399 
L 211.922133 207.293082 
L 212.021333 208.862063 
L 212.087467 208.532979 
L 212.186667 207.697619 
L 212.1536 208.746746 
L 212.219733 207.825732 
L 212.385067 211.002576 
L 212.418133 210.743151 
L 212.4512 212.23276 
L 212.517333 210.414002 
L 212.5504 210.542243 
L 212.682667 211.559153 
L 212.848 209.828737 
L 212.980267 212.156035 
L 213.013333 212.136285 
L 213.0464 211.574649 
L 213.079467 212.39246 
L 213.112533 211.667013 
L 213.310933 214.70654 
L 213.410133 213.503268 
L 213.509333 213.445591 
L 213.5424 214.952509 
L 213.575467 215.058575 
L 213.6416 214.579825 
L 213.674667 215.337747 
L 213.707733 215.03587 
L 213.7408 213.891244 
L 213.806933 214.541927 
L 214.0384 219.725238 
L 214.170667 217.140898 
L 214.2368 219.36641 
L 214.336 218.259946 
L 214.369067 218.504887 
L 214.468267 220.777043 
L 214.501333 220.472916 
L 214.5344 219.692056 
L 214.567467 221.25799 
L 214.600533 221.297104 
L 214.666667 220.36197 
L 214.699733 221.516386 
L 214.798933 222.921307 
L 214.832 221.889953 
L 214.865067 222.268 
L 214.898133 222.164588 
L 214.964267 220.722225 
L 215.0304 221.839921 
L 215.063467 221.724649 
L 215.195733 222.972661 
L 215.2288 223.127518 
L 215.261867 221.953104 
L 215.294933 223.465738 
L 215.328 223.662267 
L 215.361067 222.204544 
L 215.460267 222.325347 
L 215.592533 220.763173 
L 215.6256 221.027899 
L 215.658667 221.393649 
L 215.691733 220.512391 
L 215.7248 221.760802 
L 215.9232 223.611698 
L 215.956267 223.931368 
L 216.088533 222.477801 
L 216.187733 223.793549 
L 216.253867 222.490825 
L 216.286933 222.843844 
L 216.4192 223.970779 
L 216.584533 221.725361 
L 216.6176 221.907256 
L 216.650667 223.176958 
L 216.683733 221.350077 
L 216.7168 221.806704 
L 216.782933 222.010288 
L 216.9152 219.984565 
L 216.948267 221.33654 
L 216.981333 219.137633 
L 217.0144 219.888471 
L 217.047467 220.29671 
L 217.146667 218.479813 
L 217.179733 218.527081 
L 217.278933 215.957881 
L 217.312 216.66968 
L 217.378133 219.64121 
L 217.4112 218.725847 
L 217.543467 216.097939 
L 217.576533 216.229348 
L 217.6096 215.455665 
L 217.642667 216.816178 
L 217.675733 216.492656 
L 217.7088 217.445794 
L 217.741867 215.264221 
L 217.9072 210.768302 
L 217.940267 211.348202 
L 219.130667 121.816092 
L 219.163733 121.510193 
L 219.296 129.066721 
L 219.461333 145.150659 
L 219.792 203.098123 
L 220.420267 287.225371 
L 220.552533 293.641315 
L 220.5856 296.742705 
L 220.6848 296.178721 
L 220.850133 299.188756 
L 221.28 272.780269 
L 221.6768 227.91404 
L 222.635733 129.035387 
L 223.0656 107.710636 
L 223.3632 99.037794 
L 223.495467 100.873387 
L 223.5616 99.887272 
L 223.594667 100.945907 
L 223.892267 119.411381 
L 224.785067 203.511838 
L 225.413333 245.453363 
L 225.777067 261.4701 
L 225.876267 260.154884 
L 225.909333 260.651497 
L 225.9424 260.908962 
L 225.975467 258.740573 
L 226.0416 260.578419 
L 226.074667 260.375415 
L 226.372267 245.24994 
L 226.405333 245.032857 
L 226.4384 244.046514 
L 226.603733 235.792811 
L 226.769067 231.08529 
L 226.967467 224.858826 
L 227.198933 219.490636 
L 227.298133 219.753559 
L 227.3312 221.116247 
L 227.364267 218.232186 
L 227.397333 218.308874 
L 227.694933 213.394791 
L 227.761067 214.449946 
L 227.959467 209.419436 
L 228.0256 207.972113 
L 228.3232 197.907675 
L 228.356267 197.687701 
L 228.4224 196.62283 
L 228.488533 198.534576 
L 228.5216 196.837572 
L 228.587733 195.22386 
L 228.6208 195.405502 
L 228.686933 196.327175 
L 228.72 195.754264 
L 228.753067 193.157831 
L 228.8192 195.61341 
L 228.885333 196.523736 
L 228.951467 195.943583 
L 228.984533 195.638977 
L 229.0176 196.219202 
L 229.050667 196.369893 
L 229.083733 195.933143 
L 229.182933 197.863445 
L 229.216 196.786059 
L 229.282133 196.487333 
L 229.4144 197.933186 
L 229.447467 197.64235 
L 229.480533 198.191447 
L 229.546667 200.393519 
L 229.579733 198.81704 
L 229.645867 197.223996 
L 229.678933 198.829448 
L 229.712 199.141926 
L 229.745067 198.662319 
L 229.844267 197.795044 
L 229.943467 199.550309 
L 230.0096 198.169427 
L 230.075733 198.96728 
L 230.1088 199.002369 
L 230.174933 197.699615 
L 230.241067 197.774292 
L 230.340267 199.6884 
L 230.373333 199.478809 
L 230.4064 198.047052 
L 230.439467 199.488743 
L 230.869333 205.161314 
L 230.9024 205.113062 
L 230.968533 205.38418 
L 231.0016 204.910101 
L 231.034667 205.99593 
L 231.233067 208.775504 
L 231.266133 208.4896 
L 231.2992 208.543653 
L 231.332267 207.703763 
L 231.3984 207.934244 
L 231.431467 208.161711 
L 231.464533 207.933933 
L 231.4976 206.171766 
L 231.563733 207.294551 
L 231.696 206.403342 
L 231.7952 207.589506 
L 231.828267 206.914794 
L 231.861333 206.297482 
L 231.927467 206.641576 
L 232.059733 208.64883 
L 232.0928 207.871798 
L 232.125867 208.306897 
L 232.158933 208.991457 
L 232.192 208.96416 
L 232.258133 206.445695 
L 232.357333 206.816392 
L 232.3904 206.335349 
L 232.423467 206.480045 
L 232.456533 207.279948 
L 232.4896 205.323513 
L 232.5888 205.789938 
L 232.688 207.515901 
L 232.721067 207.19305 
L 232.754133 206.788999 
L 232.7872 207.315195 
L 232.820267 208.526857 
L 232.853333 207.366707 
L 232.8864 206.530916 
L 232.9856 206.579404 
L 233.051733 207.829262 
L 233.0848 207.145095 
L 233.117867 207.005757 
L 233.184 206.539005 
L 233.3824 208.926728 
L 233.415467 208.789805 
L 233.448533 208.979603 
L 233.4816 208.896618 
L 233.514667 209.229589 
L 233.68 207.194215 
L 233.713067 206.810092 
L 233.746133 207.279732 
L 233.7792 207.184808 
L 233.812267 207.311992 
L 233.8784 205.5404 
L 233.911467 205.6906 
L 234.043733 208.154579 
L 234.0768 207.082977 
L 234.176 207.417118 
L 234.2752 206.746217 
L 234.308267 206.961074 
L 234.341333 207.0949 
L 234.506667 205.065544 
L 234.672 207.173155 
L 234.804267 205.556042 
L 234.837333 205.621141 
L 234.903467 205.939175 
L 235.035733 204.505593 
L 235.0688 204.82515 
L 235.101867 204.780709 
L 235.234133 205.511311 
L 235.333333 203.971762 
L 235.3664 204.338886 
L 235.399467 204.564012 
L 235.498667 203.981671 
L 235.5648 205.500891 
L 235.597867 205.426043 
L 235.664 203.403728 
L 235.730133 204.020864 
L 235.7632 204.738204 
L 235.8624 204.733259 
L 236.027733 203.24029 
L 236.0608 204.450678 
L 236.126933 203.295563 
L 236.226133 204.262491 
L 236.193067 203.024485 
L 236.2592 203.521711 
L 236.292267 203.584791 
L 236.325333 204.003275 
L 236.3584 203.354311 
L 236.391467 203.471378 
L 236.4576 203.752448 
L 236.5568 203.825167 
L 236.589867 203.09508 
L 236.622933 203.236773 
L 236.656 204.302523 
L 236.722133 203.115981 
L 236.821333 204.715738 
L 236.8544 204.576735 
L 237.019733 203.623384 
L 237.085867 203.423936 
L 237.118933 204.209004 
L 237.185067 203.523521 
L 237.218133 203.532233 
L 237.2512 203.379512 
L 237.284267 204.104587 
L 237.317333 203.004158 
L 237.3504 203.065859 
L 237.416533 202.939562 
L 237.482667 203.818674 
L 237.614933 203.198652 
L 237.681067 204.404743 
L 237.714133 203.582862 
L 237.780267 203.490491 
L 237.813333 204.277354 
L 237.879467 203.294735 
L 237.9456 203.578388 
L 237.978667 203.059441 
L 238.0448 203.538016 
L 238.210133 204.788095 
L 238.2432 204.732207 
L 238.375467 203.782303 
L 238.408533 203.944206 
L 238.5408 202.703453 
L 238.673067 203.865469 
L 238.706133 203.669979 
L 238.772267 204.196196 
L 238.805333 203.10491 
L 238.871467 203.525551 
L 238.904533 204.091109 
L 238.970667 203.539681 
L 239.003733 203.324226 
L 239.0368 204.324693 
L 239.136 204.219187 
L 239.268267 204.58989 
L 239.3344 204.248473 
L 239.466667 205.111925 
L 239.565867 204.65722 
L 239.598933 204.694128 
L 239.7312 205.105747 
L 239.764267 204.728731 
L 239.863467 204.758986 
L 239.896533 204.644056 
L 239.9296 204.776301 
L 240.128 205.41467 
L 240.194133 204.257625 
L 240.260267 204.930061 
L 240.359467 205.493607 
L 240.392533 205.023905 
L 240.4256 204.265476 
L 240.491733 205.109016 
L 240.557867 205.543306 
L 240.624 205.496472 
L 240.7232 205.32101 
L 240.756267 205.443021 
L 240.8224 205.74068 
L 240.855467 205.614759 
L 240.888533 205.343795 
L 240.9216 205.736016 
L 240.954667 205.78593 
L 241.086933 206.036324 
L 241.153067 205.638905 
L 241.2192 205.677677 
L 241.285333 206.208155 
L 241.3184 205.965555 
L 241.450667 205.458478 
L 241.483733 205.375638 
L 241.5168 205.815766 
L 241.616 205.70414 
L 241.682133 204.976728 
L 241.748267 205.428397 
L 241.8144 205.366163 
L 241.880533 205.853657 
L 241.9136 205.470265 
L 241.979733 205.817295 
L 242.045867 206.03971 
L 242.078933 205.851768 
L 242.145067 205.956757 
L 242.178133 205.842986 
L 242.2112 206.413498 
L 242.277333 205.867232 
L 242.475733 206.553949 
L 242.641067 206.337442 
L 242.674133 206.367467 
L 242.740267 206.424596 
L 242.773333 205.855096 
L 242.9056 206.539349 
L 242.971733 206.024814 
L 243.037867 206.133317 
L 243.070933 206.325899 
L 243.104 206.117476 
L 243.170133 205.379198 
L 243.2032 205.773428 
L 243.368533 206.271723 
L 243.4016 206.208735 
L 243.467733 206.693885 
L 243.533867 206.510094 
L 243.633067 206.663155 
L 243.6992 206.711831 
L 243.7984 206.396567 
L 243.831467 206.389937 
L 243.864533 206.262488 
L 243.8976 206.456873 
L 244.096 207.071757 
L 244.162133 206.721209 
L 244.1952 206.804313 
L 244.327467 207.02106 
L 244.459733 206.71907 
L 244.4928 206.749259 
L 244.592 207.140736 
L 244.625067 206.997795 
L 244.658133 206.859485 
L 244.724267 206.9803 
L 244.856533 207.133903 
L 244.922667 206.947377 
L 244.955733 207.044898 
L 244.9888 207.152339 
L 245.021867 207.090024 
L 245.088 206.872394 
L 245.154133 206.992568 
L 245.1872 207.125755 
L 245.253333 207.02984 
L 245.2864 206.955445 
L 245.319467 207.03606 
L 245.418667 207.243484 
L 245.550933 206.800375 
L 245.584 206.870118 
L 245.617067 207.012383 
L 245.6832 206.898769 
L 245.7824 207.027602 
L 245.815467 206.964662 
L 245.848533 206.669008 
L 245.947733 206.761554 
L 246.046933 206.909706 
L 246.08 206.648762 
L 246.1792 206.749457 
L 246.212267 206.787837 
L 246.245333 206.637141 
L 246.311467 206.712524 
L 246.344533 206.805541 
L 246.3776 206.620173 
L 246.410667 206.54689 
L 246.443733 206.644801 
L 246.4768 206.706638 
L 246.509867 206.601573 
L 246.542933 206.603191 
L 246.576 206.571281 
L 246.609067 206.666208 
L 246.6752 206.778683 
L 246.708267 206.649029 
L 246.840533 206.65944 
L 246.9728 206.555981 
L 247.005867 206.597805 
L 247.336533 206.551239 
L 247.402667 206.449061 
L 247.435733 206.519281 
L 247.568 206.720205 
L 247.700267 206.313007 
L 247.733333 206.40587 
L 247.799467 206.273006 
L 247.8656 206.32192 
L 247.898667 206.337361 
L 247.931733 206.256682 
L 248.064 206.115463 
L 248.097067 206.157593 
L 248.130133 206.259827 
L 248.196267 206.141619 
L 248.427733 206.170231 
L 248.593067 206.014343 
L 248.725333 206.078105 
L 248.824533 205.986765 
L 248.8576 206.015672 
L 249.1552 205.775795 
L 249.3536 205.683706 
L 250.544 205.935792 
L 251.370667 206.364383 
L 252.4288 206.348424 
L 253.288533 206.362137 
L 255.537067 206.136598 
L 256.6944 206.266053 
L 258.248533 206.312405 
L 259.6704 206.746233 
L 259.703467 206.34839 
L 259.802667 206.385973 
L 260.926933 206.722401 
L 261.3568 206.62391 
L 261.819733 206.328721 
L 262.910933 205.500983 
L 263.2416 205.531273 
L 263.803733 206.010326 
L 264.299733 206.39107 
L 264.696533 206.416206 
L 265.192533 206.097232 
L 266.1184 205.380047 
L 266.581333 205.397955 
L 267.3088 205.983996 
L 267.904 206.531891 
L 268.135467 206.649698 
L 268.267733 207.358266 
L 268.664533 207.418663 
L 269.954133 207.3159 
L 270.5824 206.564754 
L 271.706667 204.865055 
L 272.1696 204.778821 
L 273.227733 205.309901 
L 273.492267 205.385912 
L 274.583467 205.796967 
L 275.6416 206.340889 
L 276.5344 206.480763 
L 276.600533 206.552206 
L 276.6336 206.113304 
L 276.7328 206.199273 
L 278.154667 207.161449 
L 278.452267 207.37421 
L 279.774933 208.101224 
L 281.0976 209.807562 
L 281.527467 210.001724 
L 282.0896 209.816053 
L 282.8832 209.352473 
L 283.213867 208.48109 
L 283.842133 206.104247 
L 284.139733 205.316719 
L 284.536533 204.604292 
L 284.734933 204.393029 
L 285.197867 202.957305 
L 285.495467 201.678944 
L 286.718933 194.911761 
L 287.115733 193.410211 
L 287.248 193.342543 
L 287.380267 193.590553 
L 287.5456 194.34755 
L 287.744 195.895298 
L 288.173867 201.126154 
L 289.232 214.773237 
L 289.496533 215.778718 
L 289.562667 215.820827 
L 289.595733 215.786057 
L 289.694933 215.615772 
L 289.9264 214.502777 
L 290.389333 210.887469 
L 290.786133 208.106842 
L 291.050667 207.422036 
L 291.216 207.439697 
L 291.348267 207.730666 
L 291.745067 209.507782 
L 292.637867 214.850742 
L 292.935467 215.468791 
L 293.1008 215.359632 
L 293.332267 214.460929 
L 293.8944 210.583236 
L 294.357333 206.893267 
L 294.721067 205.534301 
L 294.9856 205.27153 
L 295.117867 205.258489 
L 295.217067 205.287761 
L 295.514667 205.42116 
L 295.911467 205.16171 
L 296.2752 204.225728 
L 297.168 200.877389 
L 297.531733 200.669774 
L 298.226133 202.482695 
L 298.689067 203.534182 
L 298.9536 203.742631 
L 299.4496 203.230899 
L 299.8464 202.707256 
L 300.144 202.680281 
L 300.276267 202.836131 
L 300.8384 204.323478 
L 301.995733 208.549672 
L 302.0288 207.63667 
L 302.128 207.821203 
L 303.351467 209.31889 
L 303.781333 209.574011 
L 304.376533 209.536677 
L 304.872533 209.378229 
L 305.170133 209.103596 
L 305.335467 208.960924 
L 305.963733 208.062522 
L 308.4768 203.087035 
L 309.237333 202.213151 
L 310.130133 200.741206 
L 310.3616 200.591625 
L 310.4608 200.592414 
L 310.593067 201.018431 
L 310.890667 201.601464 
L 311.618133 204.4536 
L 312.180267 206.82588 
L 312.676267 208.173783 
L 313.403733 208.9457 
L 313.6352 209.080422 
L 314.461867 209.620208 
L 315.3216 209.328766 
L 315.949867 208.739126 
L 316.346667 208.373685 
L 316.512 208.22541 
L 317.173333 207.45334 
L 318.330667 205.530195 
L 318.628267 205.330157 
L 318.925867 205.215131 
L 318.958933 205.401351 
L 319.058133 205.331194 
L 319.223467 205.22296 
L 320.017067 203.997319 
L 320.413867 203.65864 
L 320.744533 203.820383 
L 321.0752 204.376663 
L 321.438933 205.304366 
L 322.001067 206.755303 
L 322.331733 207.141883 
L 322.695467 207.184555 
L 322.993067 207.251702 
L 323.389867 207.583765 
L 323.952 208.435203 
L 324.5472 209.173483 
L 324.811733 209.162743 
L 325.2416 208.872526 
L 325.936 207.5322 
L 326.795733 204.667066 
L 327.258667 203.449734 
L 327.390933 203.242377 
L 327.5232 202.447978 
L 327.8208 202.24931 
L 328.052267 202.24949 
L 328.416 202.625475 
L 328.746667 203.180134 
L 329.3088 204.329976 
L 330.3008 206.285903 
L 330.7968 206.785654 
L 331.259733 206.884455 
L 331.524267 206.84039 
L 332.516267 206.834226 
L 333.012267 206.932113 
L 333.9712 205.643503 
L 334.4672 204.360633 
L 335.624533 201.619266 
L 335.856 201.687787 
L 335.988267 202.437049 
L 336.6496 203.95856 
L 336.914133 204.587862 
L 336.980267 204.587146 
L 337.211733 205.387223 
L 337.2448 205.354384 
L 337.410133 206.213522 
L 337.4432 206.155781 
L 337.6416 206.754734 
L 337.674667 206.755954 
L 337.707733 206.951015 
L 337.7408 206.855894 
L 337.773867 206.510897 
L 337.84 206.893654 
L 337.906133 207.087619 
L 337.972267 206.417927 
L 338.0384 206.798873 
L 338.104533 206.865561 
L 338.269867 207.726405 
L 338.468267 205.727406 
L 338.5344 206.181473 
L 338.567467 206.95749 
L 338.666667 206.77196 
L 338.699733 206.921431 
L 338.9312 202.700233 
L 338.997333 203.612067 
L 339.0304 203.162346 
L 339.063467 203.062767 
L 339.096533 203.114839 
L 339.2288 201.153271 
L 339.261867 201.703798 
L 339.294933 201.565813 
L 339.460267 199.3321 
L 339.5264 199.265766 
L 339.7248 195.540867 
L 339.790933 196.597233 
L 339.824 195.336843 
L 340.353067 203.562335 
L 340.386133 203.643579 
L 341.345067 219.42419 
L 341.378133 218.633168 
L 341.4112 218.359157 
L 341.874133 226.003919 
L 341.9072 225.880753 
L 341.973333 227.342431 
L 342.039467 226.992336 
L 342.2048 223.778395 
L 342.6016 217.263471 
L 342.634667 218.00833 
L 342.667733 216.731633 
L 342.766933 215.121333 
L 342.8 215.827062 
L 343.031467 210.848972 
L 343.064533 210.367615 
L 343.130667 211.869095 
L 343.163733 210.434159 
L 343.362133 207.54948 
L 343.3952 207.683742 
L 343.527467 209.450156 
L 343.560533 209.035483 
L 343.5936 209.152963 
L 343.758933 211.395997 
L 343.792 211.227094 
L 343.825067 212.362977 
L 343.924267 212.175178 
L 343.9904 210.62788 
L 344.056533 211.452597 
L 344.221867 216.06994 
L 344.288 215.850921 
L 344.354133 216.872548 
L 344.420267 219.101537 
L 344.519467 218.874755 
L 344.618667 217.419481 
L 344.6848 217.569402 
L 344.949333 220.572746 
L 344.9824 220.432883 
L 345.0816 218.92863 
L 345.114667 218.938887 
L 345.1808 219.383042 
L 345.213867 218.661858 
L 345.246933 219.454937 
L 345.28 219.809403 
L 345.3792 220.024806 
L 345.445333 218.213461 
L 345.4784 219.9016 
L 345.511467 218.929023 
L 345.5776 217.449231 
L 345.610667 219.066227 
L 345.643733 217.629971 
L 345.809067 216.140436 
L 345.842133 215.306363 
L 345.908267 216.075343 
L 345.941333 216.020945 
L 346.007467 215.513892 
L 346.0736 216.712554 
L 346.106667 215.464514 
L 346.139733 213.712269 
L 346.205867 215.007228 
L 346.238933 215.110235 
L 346.272 215.027215 
L 346.3712 215.232831 
L 346.404267 213.593669 
L 346.4704 214.942955 
L 346.503467 214.841245 
L 346.536533 213.471666 
L 346.602667 214.568648 
L 346.8672 218.755035 
L 346.900267 217.965616 
L 346.933333 216.847737 
L 346.9664 218.402056 
L 346.999467 218.262824 
L 347.032533 218.761406 
L 347.0656 218.055079 
L 347.098667 217.807582 
L 347.1648 220.166217 
L 347.230933 219.931624 
L 347.264 220.497233 
L 347.297067 218.805736 
L 347.396267 218.927785 
L 347.594667 215.888388 
L 347.4624 219.08561 
L 347.627733 216.421416 
L 347.6608 216.131118 
L 347.693867 216.443047 
L 347.8592 219.442633 
L 348.024533 216.669905 
L 348.0576 216.639578 
L 348.1568 215.500068 
L 348.189867 215.925448 
L 348.222933 216.086056 
L 348.289067 214.571594 
L 348.685867 179.689559 
L 348.983467 151.339305 
L 349.016533 151.057079 
L 349.3472 164.135627 
L 350.24 248.425829 
L 350.273067 247.781523 
L 350.306133 245.995782 
L 350.372267 247.625491 
L 350.405333 247.005362 
L 350.4384 248.32044 
L 350.471467 247.905975 
L 350.702933 254.396126 
L 350.736 253.556665 
L 350.769067 255.39108 
L 351.066667 269.08557 
L 351.463467 295.782546 
L 351.496533 295.64088 
L 351.761067 307.160589 
L 351.794133 306.848318 
L 351.8272 307.428981 
L 351.860267 307.584 
L 352.3232 282.776582 
L 352.753067 232.092395 
L 353.678933 90.679689 
L 353.745067 84.594744 
L 354.0096 62.505907 
L 354.1088 58.873275 
L 354.208 56.059401 
L 354.241067 56.961099 
L 354.439467 63.437818 
L 354.5056 63.986409 
L 354.670933 67.866769 
L 355.332267 131.271421 
L 356.2912 296.070585 
L 356.456533 302.14365 
L 356.5888 297.72752 
L 356.654933 298.150979 
L 356.688 297.915115 
L 357.4816 234.547889 
L 357.812267 217.882049 
L 357.8784 218.418857 
L 357.911467 218.516921 
L 357.9776 215.563398 
L 358.010667 216.91361 
L 358.0768 216.859728 
L 358.2752 223.272346 
L 358.672 248.248314 
L 358.705067 249.131953 
L 358.936533 267.552273 
L 359.234133 279.496107 
L 359.2672 278.850082 
L 359.333333 281.10384 
L 359.3664 279.762212 
L 359.399467 279.381965 
L 359.994667 229.161076 
L 360.2592 205.944712 
L 360.4576 198.317893 
L 360.490667 199.09415 
L 360.523733 198.879664 
L 360.5568 197.858043 
L 360.622933 198.548681 
L 360.656 198.777607 
L 361.284267 218.72235 
L 361.317333 218.975503 
L 361.3504 220.842824 
L 361.416533 219.703176 
L 361.4496 219.851758 
L 361.515733 217.743905 
L 361.5488 220.484349 
L 361.912533 203.504312 
L 362.5408 131.213094 
L 362.871467 87.420017 
L 363.136 63.100445 
L 363.3344 51.549409 
L 363.400533 51.941207 
L 363.5328 56.574441 
L 363.565867 56.285858 
L 363.598933 56.846676 
L 364.392533 123.442663 
L 364.9216 173.463773 
L 366.0128 256.778149 
L 366.045867 256.43104 
L 366.277333 265.746385 
L 366.7072 277.567065 
L 366.740267 275.966311 
L 366.8064 276.680747 
L 366.839467 276.748662 
L 366.971733 273.637433 
L 367.0048 274.669649 
L 367.037867 275.650317 
L 367.070933 274.885195 
L 367.533867 265.179322 
L 367.566933 265.379002 
L 367.765333 263.123819 
L 367.7984 263.192081 
L 367.8976 263.950383 
L 367.9968 264.161996 
L 368.029867 262.450679 
L 368.096 262.488279 
L 368.162133 261.338065 
L 368.1952 262.206254 
L 368.261333 262.136461 
L 369.054933 229.679152 
L 369.517867 210.324699 
L 370.1792 192.269458 
L 370.212267 192.376952 
L 370.2784 191.77482 
L 370.311467 191.958917 
L 370.4768 194.209745 
L 370.509867 193.837273 
L 370.542933 193.730876 
L 370.609067 191.956945 
L 370.642133 192.776975 
L 370.741333 195.205055 
L 370.7744 193.945945 
L 371.005867 198.323504 
L 371.038933 198.432138 
L 371.1712 200.157673 
L 371.204267 199.944263 
L 371.237333 199.184965 
L 371.2704 199.542623 
L 371.435733 203.690561 
L 371.534933 203.294878 
L 371.700267 205.274396 
L 371.7664 204.998354 
L 371.832533 204.138039 
L 371.8656 205.049166 
L 371.898667 204.277972 
L 371.931733 205.141231 
L 371.9648 204.509748 
L 372.1632 202.133859 
L 372.196267 202.558889 
L 372.295467 202.473145 
L 372.493867 200.322559 
L 372.56 201.600015 
L 372.626133 200.820827 
L 372.6592 200.899736 
L 372.692267 201.492825 
L 372.725333 200.303376 
L 372.791467 200.721298 
L 372.824533 199.943989 
L 372.890667 200.28464 
L 373.022933 201.983222 
L 372.989867 200.228495 
L 373.056 201.948593 
L 373.1552 200.867594 
L 373.188267 200.914042 
L 373.386667 203.508089 
L 373.419733 203.267431 
L 373.4528 202.655527 
L 373.485867 203.406207 
L 373.783467 207.666675 
L 373.816533 207.477147 
L 373.915733 209.244998 
L 373.9488 209.077255 
L 373.981867 209.111627 
L 374.081067 209.758248 
L 374.114133 209.683592 
L 374.312533 207.240008 
L 374.3456 207.29142 
L 374.676267 203.520854 
L 374.808533 200.4301 
L 374.8416 201.613103 
L 374.907733 201.206767 
L 375.006933 200.5033 
L 375.04 200.871437 
L 375.073067 200.311846 
L 375.271467 198.974204 
L 375.304533 198.286553 
L 375.3376 198.956092 
L 375.370667 199.829899 
L 375.403733 198.725674 
L 375.469867 199.699007 
L 375.502933 199.656871 
L 375.536 199.859201 
L 375.602133 198.914803 
L 375.6352 199.093382 
L 375.668267 199.892465 
L 375.7344 198.814987 
L 375.800533 198.765295 
L 375.866667 199.483858 
L 376.032 198.588721 
L 376.065067 199.708433 
L 376.1312 199.106885 
L 376.263467 199.580852 
L 376.395733 201.339585 
L 376.4288 201.138691 
L 376.461867 200.688887 
L 376.494933 201.198432 
L 376.528 201.005112 
L 376.594133 202.180837 
L 376.6272 201.155298 
L 376.693333 200.059623 
L 376.759467 200.408263 
L 376.858667 200.946132 
L 376.891733 200.706254 
L 376.957867 199.547161 
L 376.990933 200.372403 
L 377.024 200.67785 
L 377.057067 200.201255 
L 377.189333 199.495872 
L 377.2224 201.129959 
L 377.3216 200.991894 
L 377.486933 201.725045 
L 377.52 201.405779 
L 377.553067 201.590531 
L 377.6192 202.288016 
L 377.685333 202.117349 
L 377.7184 201.917277 
L 377.751467 202.088622 
L 377.850667 203.508155 
L 377.9168 202.939125 
L 377.982933 202.507974 
L 378.016 202.862424 
L 378.049067 202.9619 
L 378.082133 202.471175 
L 378.148267 204.01404 
L 378.181333 203.587328 
L 378.2144 202.833327 
L 378.280533 203.348851 
L 378.3136 203.255561 
L 378.346667 202.77725 
L 378.4128 203.412588 
L 378.445867 202.838649 
L 378.478933 202.913581 
L 378.578133 201.886729 
L 378.545067 202.989513 
L 378.644267 202.05069 
L 378.677333 202.328824 
L 378.842667 200.263399 
L 378.875733 200.741177 
L 378.9088 200.232517 
L 378.941867 200.022099 
L 379.041067 201.078142 
L 379.074133 200.454796 
L 379.1072 200.912047 
L 379.140267 201.482801 
L 379.2064 200.962272 
L 379.239467 200.781702 
L 379.272533 201.380146 
L 379.3056 200.626707 
L 379.338667 200.528857 
L 379.437867 201.442858 
L 379.470933 201.168741 
L 379.504 201.230586 
L 379.570133 201.581879 
L 379.6032 201.352376 
L 379.636267 201.24093 
L 379.8016 202.284789 
L 380.3968 205.018106 
L 379.867733 202.210505 
L 380.429867 204.890277 
L 380.529067 206.461488 
L 380.562133 206.118732 
L 380.5952 205.396401 
L 380.661333 206.361629 
L 380.6944 207.020543 
L 380.760533 206.487884 
L 380.7936 206.687602 
L 380.859733 207.696701 
L 380.925867 207.454385 
L 380.958933 207.421664 
L 380.992 207.468488 
L 381.025067 207.139524 
L 381.058133 207.535235 
L 381.0912 207.416876 
L 381.124267 207.353793 
L 381.1904 207.910022 
L 381.223467 207.325223 
L 381.2896 207.583004 
L 381.488 206.380018 
L 381.554133 206.179133 
L 381.752533 203.529878 
L 382.2816 199.405219 
L 382.314667 199.484543 
L 382.347733 199.523555 
L 382.546133 198.414063 
L 382.645333 199.050592 
L 382.6784 198.44903 
L 382.744533 199.040006 
L 383.306667 203.891091 
L 383.339733 203.966439 
L 383.505067 205.461793 
L 383.5712 205.777189 
L 383.968 209.090496 
L 384.001067 208.953115 
L 384.034133 209.147484 
L 384.100267 208.973724 
L 384.1664 209.381589 
L 384.199467 209.283881 
L 384.232533 209.40727 
L 384.596267 211.558168 
L 384.728533 210.774047 
L 384.7616 211.034473 
L 384.794667 211.586388 
L 384.8608 211.089528 
L 384.893867 211.243204 
L 384.926933 210.921676 
L 384.993067 211.099816 
L 385.1584 210.162921 
L 385.191467 210.194621 
L 385.456 208.240473 
L 385.489067 208.534873 
L 385.522133 208.346913 
L 385.720533 205.988984 
L 385.7536 206.083468 
L 385.786667 206.024598 
L 385.8528 205.735253 
L 385.985067 204.615708 
L 386.117333 205.304359 
L 386.183467 204.700693 
L 386.2496 204.836018 
L 386.448 205.604293 
L 386.481067 205.232725 
L 386.514133 205.950407 
L 386.5472 206.09775 
L 386.580267 205.389833 
L 386.6464 205.447454 
L 386.679467 207.590299 
L 386.778667 207.569597 
L 386.811733 207.398344 
L 386.8448 207.575741 
L 386.944 208.656293 
L 386.977067 208.498399 
L 387.010133 208.12177 
L 387.0432 208.717948 
L 387.175467 209.490021 
L 387.208533 209.32881 
L 387.473067 211.361764 
L 387.572267 210.618881 
L 387.605333 210.786738 
L 387.803733 211.799139 
L 387.969067 210.881494 
L 388.0352 211.0577 
L 388.101333 210.654477 
L 388.299733 209.092862 
L 388.3328 209.085854 
L 388.663467 203.641429 
L 388.696533 203.54536 
L 389.060267 198.223335 
L 389.093333 198.512341 
L 389.192533 198.194646 
L 389.357867 199.867332 
L 389.424 199.864128 
L 389.556267 200.216231 
L 389.6224 200.088195 
L 389.8208 202.233738 
L 390.283733 205.620738 
L 390.449067 205.529735 
L 390.5152 205.897031 
L 390.581333 205.857068 
L 390.746667 205.145724 
L 390.779733 205.31806 
L 390.8128 205.041657 
L 391.044267 203.89739 
L 391.1104 203.596384 
L 391.408 202.51566 
L 391.441067 202.477591 
L 391.474133 202.537898 
L 391.7056 203.252514 
L 392.0032 204.897832 
L 392.267733 205.943956 
L 392.366933 205.904555 
L 392.664533 205.62567 
L 392.7968 205.975022 
L 393.1936 208.19067 
L 393.722667 210.870655 
L 393.854933 211.026706 
L 393.888 211.011139 
L 393.9872 210.857133 
L 394.152533 210.292795 
L 394.747733 207.765379 
L 394.9792 207.499309 
L 395.111467 207.446809 
L 395.1776 206.677357 
L 395.243733 206.764221 
L 395.376 207.255157 
L 395.739733 208.753542 
L 395.805867 208.657618 
L 396.004267 208.202115 
L 396.037333 208.237743 
L 396.202667 208.897118 
L 396.7648 212.415619 
L 396.797867 212.396557 
L 396.930133 211.883783 
L 397.36 207.867372 
L 397.624533 206.47441 
L 397.9552 205.564573 
L 398.087467 205.553161 
L 398.219733 205.960038 
L 398.385067 207.439113 
L 398.914133 212.46043 
L 399.013333 212.185552 
L 399.2448 209.9534 
L 399.6416 206.651855 
L 399.806933 206.41559 
L 399.972267 206.560603 
L 400.4352 207.49419 
L 400.501333 207.395669 
L 400.6336 206.574332 
L 400.9312 202.540422 
L 401.2288 199.486402 
L 401.328 199.340553 
L 401.361067 199.38808 
L 401.7248 200.991371 
L 402.0224 202.066375 
L 402.485333 202.731205 
L 402.683733 202.943791 
L 402.816 202.641497 
L 403.047467 201.385422 
L 403.444267 199.369402 
L 403.576533 199.379927 
L 403.642667 199.496212 
L 403.973333 200.817606 
L 404.270933 203.426189 
L 404.7008 206.984583 
L 404.965333 207.510242 
L 405.130667 207.452797 
L 405.725867 206.798106 
L 405.924267 206.838669 
L 406.288 206.827223 
L 406.651733 207.433604 
L 407.015467 208.212984 
L 407.213867 208.450541 
L 407.412267 208.9137 
L 407.8752 210.188419 
L 408.4704 212.939946 
L 408.536533 212.903617 
L 408.734933 212.599648 
L 409.0656 211.419961 
L 410.0576 207.302131 
L 410.289067 206.167734 
L 411.1488 200.541224 
L 411.3472 200.396439 
L 411.5456 200.625217 
L 411.744 201.267554 
L 412.5376 204.584378 
L 412.901333 204.970616 
L 413.066667 204.92575 
L 413.298133 204.580976 
L 413.694933 204.003383 
L 414.0256 203.804732 
L 414.190933 203.988519 
L 414.4224 204.587232 
L 414.72 206.038934 
L 414.753067 206.25582 
L 414.753067 206.25582 
" style="fill:none;stroke:#0000ff;stroke-linecap:square;stroke-width:2;"/>
   </g>
  </g>
 </g>
 <defs>
  <clipPath id="p07a1c9ca7f">
   <rect height="266.112" width="357.12" x="57.6" y="41.472"/>
  </clipPath>
 </defs>
</svg>
