<?xml version="1.0" encoding="utf-8" standalone="no"?>
<!DOCTYPE svg PUBLIC "-//W3C//DTD SVG 1.1//EN"
  "http://www.w3.org/Graphics/SVG/1.1/DTD/svg11.dtd">
<!-- Created with matplotlib (https://matplotlib.org/) -->
<svg height="345.6pt" version="1.1" viewBox="0 0 460.8 345.6" width="460.8pt" xmlns="http://www.w3.org/2000/svg" xmlns:xlink="http://www.w3.org/1999/xlink">
 <metadata>
  <rdf:RDF xmlns:cc="http://creativecommons.org/ns#" xmlns:dc="http://purl.org/dc/elements/1.1/" xmlns:rdf="http://www.w3.org/1999/02/22-rdf-syntax-ns#">
   <cc:Work>
    <dc:type rdf:resource="http://purl.org/dc/dcmitype/StillImage"/>
    <dc:date>2021-07-01T14:18:40.018794</dc:date>
    <dc:format>image/svg+xml</dc:format>
    <dc:creator>
     <cc:Agent>
      <dc:title>Matplotlib v3.3.2, https://matplotlib.org/</dc:title>
     </cc:Agent>
    </dc:creator>
   </cc:Work>
  </rdf:RDF>
 </metadata>
 <defs>
  <style type="text/css">*{stroke-linecap:butt;stroke-linejoin:round;}</style>
 </defs>
 <g id="figure_1">
  <g id="patch_1">
   <path d="M 0 345.6 
L 460.8 345.6 
L 460.8 0 
L 0 0 
z
" style="fill:none;"/>
  </g>
  <g id="axes_1">
   <g id="line2d_1">
    <path clip-path="url(#p394809b2c8)" d="M 0 0 
" style="fill:none;stroke:#a9a9a9;stroke-linecap:square;stroke-width:3;"/>
   </g>
   <g id="line2d_2">
    <path clip-path="url(#p394809b2c8)" style="fill:none;stroke:#a9a9a9;stroke-linecap:square;stroke-width:3;"/>
   </g>
   <g id="line2d_3">
    <path clip-path="url(#p394809b2c8)" style="fill:none;stroke:#a9a9a9;stroke-linecap:square;stroke-width:3;"/>
   </g>
   <g id="line2d_4">
    <path clip-path="url(#p394809b2c8)" style="fill:none;stroke:#a9a9a9;stroke-linecap:square;stroke-width:3;"/>
   </g>
   <g id="line2d_5">
    <path clip-path="url(#p394809b2c8)" style="fill:none;stroke:#a9a9a9;stroke-linecap:square;stroke-width:3;"/>
   </g>
   <g id="line2d_6">
    <path clip-path="url(#p394809b2c8)" style="fill:none;stroke:#a9a9a9;stroke-linecap:square;stroke-width:3;"/>
   </g>
   <g id="line2d_7">
    <path clip-path="url(#p394809b2c8)" d="M 57.566933 171.517667 
L 58.426667 174.066258 
L 59.418667 179.560882 
L 60.146133 184.846573 
L 61.204267 191.417256 
L 61.8656 194.028741 
L 62.196267 194.654863 
L 62.593067 194.999212 
L 62.9568 194.886362 
L 63.585067 194.247919 
L 64.3456 193.306282 
L 64.973867 192.028546 
L 65.04 191.973923 
L 66.528 188.519291 
L 66.957867 188.064566 
L 67.4208 187.27065 
L 67.685333 187.212632 
L 67.982933 187.380157 
L 69.537067 188.131298 
L 69.8016 188.451994 
L 69.834667 188.429281 
L 70.925867 188.514012 
L 71.322667 189.157354 
L 71.719467 190.377148 
L 72.215467 191.05551 
L 73.0752 191.268248 
L 73.306667 191.65184 
L 73.6704 192.498818 
L 74.827733 197.928242 
L 76.448 208.602721 
L 76.712533 208.75678 
L 77.010133 208.211985 
L 77.5392 207.075585 
L 77.572267 207.096506 
L 77.770667 207.246912 
L 78.0352 208.1316 
L 78.432 210.418513 
L 79.192533 216.125804 
L 79.589333 218.820238 
L 80.085333 221.053172 
L 81.1104 223.587067 
L 82.366933 229.596571 
L 83.854933 233.563117 
L 84.317867 235.09204 
L 84.516267 235.59126 
L 84.946133 236.745072 
L 85.607467 238.178237 
L 85.739733 238.456149 
L 86.0704 238.94593 
L 86.864 239.453372 
L 86.996267 239.468443 
L 87.227733 239.689752 
L 87.525333 239.977193 
L 87.690667 240.034 
L 88.219733 240.08076 
L 88.9472 238.680363 
L 89.211733 238.231816 
L 90.302933 235.18115 
L 90.369067 235.012844 
L 90.402133 236.500722 
L 90.501333 236.198605 
L 91.757867 231.69982 
L 92.4192 227.733412 
L 94.1056 215.944029 
L 95.130667 208.611797 
L 96.717867 197.598907 
L 97.544533 193.126209 
L 98.3712 189.878933 
L 98.437333 190.273156 
" style="fill:none;stroke:#a9a9a9;stroke-linecap:square;stroke-width:3;"/>
   </g>
   <g id="line2d_8">
    <path clip-path="url(#p394809b2c8)" d="M 151.344 203.585983 
L 151.4432 204.005956 
L 151.509333 204.901606 
L 151.575467 204.657553 
L 151.608533 204.579028 
L 151.6416 204.772305 
L 151.674667 204.732474 
L 151.707733 204.967841 
L 151.7408 204.698603 
L 151.773867 204.610227 
L 151.873067 205.210245 
L 151.9392 205.176443 
L 151.972267 204.976472 
L 152.0384 205.250164 
L 152.170667 205.396792 
L 152.302933 205.312115 
L 152.336 205.392105 
L 152.666667 205.72373 
L 152.798933 205.881453 
L 153.063467 206.153145 
L 153.162667 206.235619 
L 153.394133 206.329716 
L 153.592533 206.340567 
L 153.824 206.434781 
L 154.551467 206.1787 
L 154.683733 206.204788 
L 154.948267 206.286605 
L 155.1136 206.298846 
L 155.245867 206.334155 
L 155.973333 206.112899 
L 157.5936 205.093318 
L 157.957333 205.256069 
L 158.023467 205.235239 
L 158.056533 205.264918 
L 158.0896 205.272199 
L 158.221867 204.838185 
L 158.784 204.735343 
L 160.106667 203.180391 
L 160.834133 201.239534 
L 160.933333 201.024006 
L 161.925333 198.042303 
L 162.256 196.733726 
L 162.388267 196.409297 
L 164.273067 189.139997 
L 164.868267 187.172058 
L 165.4304 185.472617 
L 165.728 184.981726 
L 166.554667 183.940637 
L 166.786133 183.825137 
L 166.984533 183.666723 
L 167.249067 183.563167 
L 167.645867 183.559784 
L 168.075733 184.146709 
L 168.141867 184.231982 
L 168.770133 185.824311 
L 170.026667 190.023093 
L 170.621867 192.841376 
L 173.234133 207.252646 
L 174.424533 214.905092 
L 174.788267 217.182982 
L 175.416533 220.237362 
L 176.64 224.212681 
L 177.136 225.454827 
L 177.896533 226.176931 
L 178.293333 226.236197 
L 178.458667 226.160532 
L 178.855467 226.38868 
L 179.153067 226.468319 
L 179.351467 226.597076 
L 179.549867 226.563434 
L 179.8144 226.391658 
L 179.979733 226.310652 
L 180.045867 226.243285 
L 180.277333 226.106075 
L 180.376533 226.022367 
L 180.839467 225.453743 
L 181.0048 225.232938 
L 181.633067 224.148269 
L 184.642133 213.343847 
L 187.552 200.529065 
L 188.081067 199.016103 
L 189.006933 197.004525 
L 189.304533 196.735298 
L 189.866667 196.685167 
L 190.561067 197.14508 
L 191.2224 197.693296 
L 191.354667 197.774555 
L 191.9168 198.483826 
L 191.949867 198.547781 
L 191.982933 198.308064 
L 192.049067 198.436791 
L 193.636267 200.758942 
L 193.834667 200.817652 
L 193.966933 200.78953 
L 194.429867 200.728289 
L 194.628267 200.624713 
L 194.859733 200.464918 
L 195.3888 199.825747 
L 195.984 199.002226 
L 196.314667 198.613044 
L 198.0672 196.024799 
L 198.6624 195.637647 
L 198.96 195.629426 
L 199.389867 195.782065 
L 200.2496 196.953182 
L 200.414933 197.262112 
L 200.580267 197.965126 
L 201.3408 199.973185 
L 202.597333 204.550514 
L 204.2176 210.35265 
L 205.374933 212.968049 
L 205.937067 213.688045 
L 206.9952 214.045483 
L 207.6896 213.784471 
L 208.417067 213.193317 
L 208.88 212.923256 
L 209.012267 212.420286 
L 209.508267 212.465669 
L 210.103467 212.331132 
L 210.7648 212.206612 
L 210.897067 212.182711 
L 211.194667 212.043671 
L 211.36 211.998325 
L 211.426133 212.089457 
L 211.4592 211.968193 
L 211.492267 211.819797 
L 211.5584 212.00934 
L 211.6576 211.719826 
L 211.723733 211.78676 
L 211.822933 211.735394 
L 211.822933 211.735394 
" style="fill:none;stroke:#a9a9a9;stroke-linecap:square;stroke-width:3;"/>
   </g>
   <g id="line2d_9">
    <path clip-path="url(#p394809b2c8)" d="M 250.048 225.6304 
L 250.081067 225.735936 
L 250.114133 225.596025 
L 250.1472 225.489247 
L 250.279467 226.676163 
L 250.378667 226.124143 
L 250.544 227.141063 
L 250.577067 227.046558 
L 250.610133 227.062258 
L 250.808533 227.951861 
L 250.8416 227.946358 
L 251.006933 228.379731 
L 251.073067 228.463674 
L 251.271467 229.164991 
L 251.965867 230.865182 
L 252.065067 231.047176 
L 252.494933 232.033534 
L 253.288533 233.655661 
L 253.453867 233.772646 
L 253.586133 233.831292 
L 254.016 233.660462 
L 254.379733 233.002874 
L 255.636267 229.933387 
L 256.992 225.38922 
L 257.620267 222.538809 
L 257.984 220.672526 
L 258.7776 216.130332 
L 259.6704 211.270323 
L 259.703467 211.41782 
L 259.736533 211.226861 
L 263.010133 191.666857 
L 263.44 190.45885 
L 263.7376 190.026533 
L 264.101333 189.590363 
L 264.6304 188.89167 
L 265.357867 188.21465 
L 265.556267 188.2043 
L 265.754667 188.210968 
L 266.085333 188.41828 
L 266.382933 188.702828 
L 266.581333 189.016508 
L 266.878933 189.507827 
L 267.3088 190.479828 
L 267.904 192.034993 
L 268.135467 192.497363 
L 268.168533 192.094906 
L 268.234667 192.233455 
L 269.226667 194.095505 
L 271.706667 199.687051 
L 272.599467 202.054436 
L 274.781867 207.978958 
L 275.575467 209.679994 
L 275.9392 210.190014 
L 276.600533 211.003936 
L 276.7328 211.596793 
L 277.361067 212.05069 
L 277.757867 212.11278 
L 278.1216 212.063871 
L 278.452267 211.942364 
L 278.981333 211.424678 
L 280.237867 209.417146 
L 281.4944 206.756198 
L 282.4864 204.247589 
L 284.404267 200.034909 
L 284.734933 199.741143 
L 285.0656 199.446172 
L 285.098667 199.600472 
L 285.1648 199.558972 
L 285.627733 199.281282 
L 286.256 199.241891 
L 287.4464 200.518269 
L 287.876267 201.503082 
L 290.290133 207.417791 
L 291.9104 209.811621 
L 292.6048 210.15013 
L 293.530667 209.796189 
L 293.662933 209.175141 
L 294.225067 208.404964 
L 295.845333 205.964609 
L 296.837333 204.180639 
L 297.895467 202.538176 
L 298.391467 202.050495 
L 299.978667 201.387144 
L 300.309333 201.416305 
L 300.772267 201.509321 
L 301.136 201.629914 
L 301.797333 201.963313 
L 301.995733 202.108345 
L 302.128 203.004266 
L 302.4256 203.179909 
L 302.954667 203.340987 
L 304.045867 203.163732 
L 304.475733 202.871578 
L 304.938667 202.500728 
L 307.319467 199.023148 
L 308.113067 197.892615 
L 308.6752 197.44654 
L 309.072 197.292183 
L 309.2704 197.282559 
L 309.799467 197.38647 
L 310.1632 197.64329 
L 310.4608 197.948656 
L 310.493867 197.72741 
L 310.56 197.844582 
L 310.890667 198.406481 
L 312.213333 202.018621 
L 314.759467 210.242198 
L 315.949867 212.747161 
L 316.2144 213.159742 
L 316.776533 213.933864 
L 316.974933 214.120792 
L 317.272533 214.383525 
L 318.0992 214.457902 
L 318.363733 214.365999 
L 318.6944 214.410378 
L 318.925867 214.450305 
L 319.058133 214.323781 
L 319.223467 214.331015 
L 319.421867 214.181774 
L 319.752533 214.008842 
L 320.909867 213.446181 
L 321.1744 213.432637 
L 321.405867 213.402954 
L 321.7696 213.320746 
L 322.6624 212.232825 
L 324.0512 209.419614 
L 324.6464 207.37617 
L 325.969067 201.071225 
L 326.432 198.645307 
L 327.390933 193.38326 
L 327.424 193.742915 
L 327.490133 193.414845 
L 328.0192 191.386463 
L 328.548267 189.706263 
L 329.6064 187.093919 
L 329.937067 186.448523 
L 330.267733 185.994316 
L 331.921067 184.483226 
L 332.251733 184.362705 
L 332.450133 184.377931 
L 332.549333 184.399703 
L 333.4752 185.433692 
L 335.029333 189.250835 
L 335.856 191.917856 
L 335.889067 191.579393 
L 335.9552 191.938699 
L 336.385067 194.219438 
L 337.674667 201.553541 
L 337.674667 201.553541 
" style="fill:none;stroke:#a9a9a9;stroke-linecap:square;stroke-width:3;"/>
   </g>
   <g id="line2d_10">
    <path clip-path="url(#p394809b2c8)" d="M 390.6144 209.494636 
L 390.7136 209.549123 
L 390.746667 209.117898 
L 390.779733 209.579013 
L 390.845867 209.177841 
L 390.978133 209.740438 
L 391.0112 209.465987 
L 391.077333 209.768905 
L 391.143467 209.700763 
L 391.176533 209.720867 
L 391.341867 210.221528 
L 391.374933 210.191609 
L 391.441067 210.242865 
L 392.2016 214.514556 
L 392.267733 214.495428 
L 392.730667 212.862466 
L 392.763733 212.950874 
L 393.325867 214.700425 
L 393.458133 215.025325 
L 393.888 216.379551 
L 394.251733 216.329341 
L 394.417067 216.12774 
L 394.913067 216.839646 
L 394.9792 216.737906 
L 395.0784 216.574687 
L 395.111467 216.472232 
L 395.144533 217.103955 
L 395.243733 216.947572 
L 395.342933 217.00599 
L 395.640533 217.585647 
L 395.706667 217.54094 
L 395.872 216.558347 
L 396.136533 215.100098 
L 396.202667 215.090536 
L 396.235733 215.138199 
L 396.6656 216.244339 
L 396.7648 216.152025 
L 396.897067 215.792388 
L 397.591467 212.689864 
L 397.690667 212.501874 
L 397.889067 211.677483 
L 398.352 209.194617 
L 398.385067 209.21369 
L 398.484267 209.374734 
L 398.715733 209.762512 
L 398.781867 209.691785 
L 398.9472 208.825048 
L 399.277867 205.3682 
L 399.608533 202.979761 
L 400.170667 201.402828 
L 400.302933 201.403593 
L 400.501333 201.59117 
L 400.5344 201.54804 
L 400.6336 201.219153 
L 400.832 199.679062 
L 401.261867 196.203752 
L 401.361067 196.088969 
L 401.394133 196.123117 
L 401.6256 196.165174 
L 401.9232 195.577162 
L 402.32 194.539492 
L 402.452267 194.654391 
L 402.7168 194.915024 
L 402.849067 194.669953 
L 403.444267 193.292581 
L 403.477333 193.334345 
L 403.841067 193.749953 
L 404.0064 193.821239 
L 404.1056 194.025734 
L 404.370133 195.386633 
L 404.667733 196.478265 
L 405.064533 196.868527 
L 405.362133 197.407059 
L 406.3872 200.149115 
L 406.651733 200.893674 
L 407.114667 202.313435 
L 407.9744 204.347054 
L 408.404267 206.699088 
L 408.5696 206.731647 
L 408.834133 206.764473 
L 409.131733 207.025129 
L 409.4624 206.727534 
L 409.693867 206.450809 
L 409.726933 206.49892 
L 409.826133 206.716532 
L 410.289067 208.332673 
L 410.3552 208.225278 
L 410.785067 206.826026 
L 410.8512 206.896708 
L 411.0496 207.504379 
L 411.281067 207.941073 
L 411.512533 207.986977 
L 411.6448 208.04351 
L 411.810133 208.767714 
L 412.3392 211.501145 
L 412.702933 212.811918 
L 413.8272 219.980271 
L 414.72 226.291575 
L 414.753067 226.769205 
L 414.753067 226.769205 
" style="fill:none;stroke:#a9a9a9;stroke-linecap:square;stroke-width:3;"/>
   </g>
   <g id="line2d_11">
    <path clip-path="url(#p394809b2c8)" style="fill:none;stroke:#a9a9a9;stroke-linecap:square;stroke-width:3;"/>
   </g>
   <g id="line2d_12">
    <path clip-path="url(#p394809b2c8)" style="fill:none;stroke:#a9a9a9;stroke-linecap:square;stroke-width:3;"/>
   </g>
   <g id="line2d_13">
    <path clip-path="url(#p394809b2c8)" style="fill:none;stroke:#a9a9a9;stroke-linecap:square;stroke-width:3;"/>
   </g>
   <g id="line2d_14">
    <path clip-path="url(#p394809b2c8)" style="fill:none;stroke:#a9a9a9;stroke-linecap:square;stroke-width:3;"/>
   </g>
   <g id="line2d_15">
    <path clip-path="url(#p394809b2c8)" style="fill:none;stroke:#a9a9a9;stroke-linecap:square;stroke-width:3;"/>
   </g>
   <g id="line2d_16">
    <path clip-path="url(#p394809b2c8)" style="fill:none;stroke:#a9a9a9;stroke-linecap:square;stroke-width:3;"/>
   </g>
   <g id="line2d_17">
    <path clip-path="url(#p394809b2c8)" style="fill:none;stroke:#a9a9a9;stroke-linecap:square;stroke-width:3;"/>
   </g>
   <g id="line2d_18">
    <path clip-path="url(#p394809b2c8)" style="fill:none;stroke:#a9a9a9;stroke-linecap:square;stroke-width:3;"/>
   </g>
   <g id="line2d_19">
    <path clip-path="url(#p394809b2c8)" style="fill:none;stroke:#a9a9a9;stroke-linecap:square;stroke-width:3;"/>
   </g>
   <g id="line2d_20">
    <path clip-path="url(#p394809b2c8)" style="fill:none;stroke:#a9a9a9;stroke-linecap:square;stroke-width:3;"/>
   </g>
   <g id="line2d_21">
    <path clip-path="url(#p394809b2c8)" style="fill:none;stroke:#a9a9a9;stroke-linecap:square;stroke-width:3;"/>
   </g>
   <g id="line2d_22">
    <path clip-path="url(#p394809b2c8)" style="fill:none;stroke:#a9a9a9;stroke-linecap:square;stroke-width:3;"/>
   </g>
   <g id="line2d_23">
    <path clip-path="url(#p394809b2c8)" style="fill:none;stroke:#a9a9a9;stroke-linecap:square;stroke-width:3;"/>
   </g>
   <g id="line2d_24">
    <path clip-path="url(#p394809b2c8)" style="fill:none;stroke:#a9a9a9;stroke-linecap:square;stroke-width:3;"/>
   </g>
   <g id="line2d_25">
    <path clip-path="url(#p394809b2c8)" style="fill:none;stroke:#a9a9a9;stroke-linecap:square;stroke-width:3;"/>
   </g>
   <g id="line2d_26">
    <path clip-path="url(#p394809b2c8)" style="fill:none;stroke:#a9a9a9;stroke-linecap:square;stroke-width:3;"/>
   </g>
   <g id="line2d_27">
    <path clip-path="url(#p394809b2c8)" style="fill:none;stroke:#ff0000;stroke-linecap:square;stroke-width:3;"/>
   </g>
   <g id="line2d_28">
    <path clip-path="url(#p394809b2c8)" style="fill:none;stroke:#ff0000;stroke-linecap:square;stroke-width:3;"/>
   </g>
   <g id="line2d_29">
    <path clip-path="url(#p394809b2c8)" style="fill:none;stroke:#ff0000;stroke-linecap:square;stroke-width:3;"/>
   </g>
   <g id="line2d_30">
    <path clip-path="url(#p394809b2c8)" style="fill:none;stroke:#ff0000;stroke-linecap:square;stroke-width:3;"/>
   </g>
   <g id="line2d_31">
    <path clip-path="url(#p394809b2c8)" style="fill:none;stroke:#ff0000;stroke-linecap:square;stroke-width:3;"/>
   </g>
   <g id="line2d_32">
    <path clip-path="url(#p394809b2c8)" d="M 16.365867 177.645208 
" style="fill:none;stroke:#ff0000;stroke-linecap:square;stroke-width:3;"/>
   </g>
   <g id="line2d_33">
    <path clip-path="url(#p394809b2c8)" d="M 98.437333 190.273156 
L 98.4704 190.507802 
L 98.503467 190.167295 
L 98.536533 190.354639 
L 98.734933 189.25086 
L 98.768 189.350622 
L 98.8672 189.796527 
L 98.933333 189.156246 
L 98.999467 189.183681 
L 99.032533 189.28088 
L 99.0656 189.089577 
L 99.098667 189.084882 
L 99.131733 188.945516 
L 99.1648 189.32963 
L 99.197867 188.538652 
L 99.264 188.614481 
L 99.429333 187.77587 
L 99.4624 188.219936 
L 99.528533 187.641584 
L 99.5616 187.591592 
L 99.627733 187.442866 
L 99.693867 187.9584 
L 99.793067 186.757494 
L 99.8592 186.834412 
L 99.892267 186.428136 
L 99.925333 186.627579 
L 99.9584 186.99251 
L 100.024533 186.614501 
L 100.090667 186.781751 
L 100.123733 186.752297 
L 100.1568 185.558881 
L 100.222933 186.702934 
L 100.3552 187.634111 
L 100.4544 186.849747 
L 100.487467 187.31796 
L 100.619733 188.129788 
L 100.6528 187.533631 
L 100.685867 188.283967 
L 100.8512 188.984622 
L 101.016533 190.596392 
L 101.082667 190.315075 
L 101.115733 189.650725 
L 101.181867 190.356637 
L 101.314133 189.26514 
L 101.3472 189.525475 
L 101.380267 189.547808 
L 101.4464 190.921035 
L 101.479467 190.247922 
L 101.512533 189.49519 
L 101.578667 190.019968 
L 101.6448 189.292828 
L 101.744 189.602276 
L 101.876267 191.05676 
L 101.9424 190.660442 
L 101.975467 191.097045 
L 102.107733 192.028383 
L 102.24 190.599758 
L 102.306133 190.774536 
L 102.3392 190.598755 
L 102.4384 189.936559 
L 102.471467 190.25099 
L 102.570667 191.284538 
L 102.6368 190.760993 
L 102.669867 190.747522 
L 102.702933 190.270493 
L 102.736 190.713556 
L 102.8352 191.59154 
L 102.967467 191.03057 
L 103.0336 191.873405 
L 103.066667 191.666145 
L 103.165867 190.603893 
L 103.198933 190.818742 
L 103.265067 191.001335 
L 103.298133 190.481511 
L 103.364267 190.790021 
L 103.397333 191.107556 
L 103.4304 190.886403 
L 103.496533 190.107301 
L 103.5296 190.760733 
L 103.595733 191.87821 
L 103.694933 191.419395 
L 103.794133 190.955871 
L 103.761067 191.43838 
L 103.8272 191.194633 
L 103.992533 192.250671 
L 104.0256 191.728554 
L 104.091733 191.985256 
L 104.1248 192.223807 
L 104.157867 191.868627 
L 104.190933 191.84926 
L 104.356267 192.309668 
L 104.389333 191.772277 
L 104.455467 192.07525 
L 104.488533 192.118507 
L 104.5216 191.810677 
L 104.587733 191.859574 
L 104.753067 192.668876 
L 104.852267 191.925485 
L 104.885333 192.002749 
L 104.984533 192.673588 
L 105.0176 192.563077 
L 105.083733 192.113306 
L 105.1168 192.187193 
L 105.216 192.972104 
L 105.249067 192.522368 
L 105.282133 191.915009 
L 105.348267 192.45765 
L 105.4144 191.988815 
L 105.447467 192.167229 
L 105.480533 192.656336 
L 105.546667 192.494791 
L 105.645867 192.134665 
L 105.712 191.916145 
L 105.778133 192.647577 
L 105.8112 192.630867 
L 105.943467 191.836563 
L 106.042667 192.408994 
L 106.208 191.609058 
L 106.274133 192.442113 
L 106.3072 191.970001 
L 106.4064 191.399173 
L 106.472533 191.535045 
L 106.5056 191.50728 
L 106.538667 191.695435 
L 106.571733 191.456176 
L 106.6048 191.500306 
L 106.737067 190.781932 
L 106.8032 190.871995 
L 106.869333 191.333199 
L 106.935467 191.098649 
L 107.067733 191.017782 
L 107.2 190.493591 
L 107.233067 190.509734 
L 107.266133 190.612626 
L 107.2992 190.442 
L 107.431467 189.243216 
L 107.696 188.488285 
L 107.729067 188.624786 
L 107.762133 188.044848 
L 107.861333 188.111352 
L 108.125867 187.408367 
L 108.158933 187.539253 
L 108.357333 186.361141 
L 108.3904 186.695321 
L 108.456533 186.308017 
L 108.5888 186.217648 
L 108.688 185.647457 
L 108.721067 185.711707 
L 108.820267 186.571732 
L 108.853333 186.285068 
L 108.8864 186.109773 
L 108.919467 186.268258 
L 109.150933 187.420613 
L 109.217067 187.068298 
L 109.250133 187.320818 
L 109.316267 187.396764 
L 109.3824 187.361445 
L 109.448533 187.361819 
L 110.142933 180.8646 
L 110.341333 181.671402 
L 110.407467 181.599837 
L 110.4736 181.637633 
L 110.705067 182.639365 
L 110.8704 183.466469 
L 111.0688 184.728731 
L 111.432533 183.145258 
L 111.4656 183.479879 
L 111.498667 183.153165 
L 111.664 182.250091 
L 111.697067 182.247014 
L 111.730133 182.405671 
L 111.796267 182.193812 
L 111.829333 182.263542 
L 111.8624 182.083513 
L 111.895467 182.207303 
L 111.9616 182.012854 
L 112.027733 182.413823 
L 112.093867 182.338986 
L 112.292267 182.186449 
L 112.490667 182.65651 
L 112.589867 182.409543 
L 112.656 182.442408 
L 112.887467 183.257937 
L 112.920533 182.916629 
L 112.986667 183.247859 
L 113.019733 183.352297 
L 113.118933 183.302203 
L 113.2512 183.516153 
L 113.284267 183.491612 
L 113.482667 183.151171 
L 113.714133 182.057035 
L 113.7472 182.121923 
L 113.813333 182.096473 
L 113.879467 181.201789 
L 113.9456 181.274058 
L 114.011733 181.316066 
L 114.2432 180.819548 
L 114.276267 180.947757 
L 114.309333 180.80815 
L 114.3424 180.594619 
L 114.408533 180.828409 
L 114.64 181.380028 
L 114.673067 181.319301 
L 114.904533 182.30852 
L 114.970667 182.541608 
L 115.367467 183.863218 
L 115.4336 183.819029 
L 116.293333 188.077936 
L 116.3264 188.103125 
L 116.590933 189.444045 
L 116.8224 190.601437 
L 117.086933 192.588094 
L 117.351467 194.207638 
L 117.450667 194.089641 
L 117.5168 194.077423 
L 117.582933 194.245291 
L 117.616 194.197273 
L 117.682133 194.01891 
L 117.7152 194.170045 
L 117.847467 194.202351 
L 117.979733 195.444903 
L 118.4096 198.358689 
L 118.5088 198.291785 
L 118.674133 198.546571 
L 118.740267 198.659955 
L 118.971733 200.063552 
L 119.0048 200.070522 
L 119.170133 200.45518 
L 119.6 201.744027 
L 119.7984 202.644661 
L 119.831467 202.584737 
L 120.261333 204.518646 
L 120.2944 204.332827 
L 120.327467 204.540308 
L 120.3936 204.485885 
L 120.6912 205.215328 
L 120.823467 205.038727 
L 120.856533 205.202074 
L 120.922667 205.043005 
L 121.2864 204.311399 
L 121.319467 204.485856 
L 121.4848 204.722537 
L 121.517867 204.504819 
L 121.584 204.775894 
L 121.650133 204.718277 
L 121.716267 204.798994 
L 121.749333 204.751157 
L 121.9808 205.996108 
L 122.046933 205.883921 
L 122.1792 206.200164 
L 122.212267 206.18655 
L 122.576 206.717851 
L 122.6752 206.910476 
L 122.807467 207.311472 
L 122.840533 207.120126 
L 122.8736 207.214412 
L 123.072 207.72849 
L 123.237333 207.57605 
L 123.303467 207.469847 
L 123.435733 207.80845 
L 123.634133 208.084843 
L 123.7664 208.606292 
L 123.799467 208.428365 
L 123.9648 208.532452 
L 123.997867 208.514357 
L 124.030933 208.342024 
L 124.064 208.388399 
L 124.229333 209.089559 
L 124.2624 208.016395 
L 124.328533 208.358832 
L 124.593067 209.548338 
L 124.923733 211.393459 
L 126.775467 221.757993 
L 127.106133 224.252378 
L 127.1392 224.330108 
L 127.271467 225.388149 
L 127.304533 225.271148 
L 128.1312 228.617251 
L 128.164267 228.597255 
L 128.296533 228.257852 
L 128.362667 228.561427 
L 128.395733 228.328085 
L 128.4288 228.16958 
L 128.461867 228.224727 
L 128.561067 228.735071 
L 128.594133 228.553501 
L 128.6272 228.487304 
L 128.858667 229.491174 
L 128.957867 229.832031 
L 128.990933 229.711016 
L 129.090133 229.649757 
L 129.1232 229.998087 
L 129.189333 229.896209 
L 129.2224 229.855721 
L 129.255467 229.607487 
L 129.3216 229.923501 
L 129.52 229.481014 
L 129.652267 229.054691 
L 129.784533 229.462785 
L 129.982933 228.58824 
L 130.016 228.636057 
L 130.049067 228.517662 
L 130.082133 228.542335 
L 130.280533 227.722411 
L 130.3136 227.732839 
L 130.346667 228.042594 
L 130.4128 227.65193 
L 130.445867 227.264358 
L 130.545067 227.297488 
L 130.8096 225.922513 
L 130.875733 226.236853 
L 130.9088 226.171392 
L 131.2064 224.801758 
L 131.272533 225.029961 
L 131.470933 223.935979 
L 131.537067 223.751295 
L 131.7024 222.932344 
L 131.768533 223.387113 
L 131.8016 223.012386 
L 131.9008 223.418488 
L 131.867733 222.93972 
L 131.933867 223.320335 
L 132.066133 222.845694 
L 132.0992 223.002238 
L 132.132267 222.772446 
L 132.1984 222.612409 
L 132.231467 222.706682 
L 132.264533 222.895963 
L 132.2976 222.822423 
L 132.760533 219.544084 
L 132.826667 219.61262 
L 132.859733 219.59038 
L 133.521067 216.679579 
L 133.5872 216.842406 
L 133.818667 215.079089 
L 133.851733 215.431831 
L 133.8848 215.086304 
L 134.017067 214.192187 
L 134.050133 214.262026 
L 134.116267 214.678184 
L 134.1824 214.578587 
L 134.413867 212.829814 
L 134.446933 213.117934 
L 134.48 212.794472 
L 134.513067 212.963906 
L 134.546133 212.874671 
L 134.7776 210.533854 
L 134.810667 210.681285 
L 134.843733 210.44358 
L 134.909867 210.649541 
L 134.942933 210.627863 
L 134.976 210.781212 
L 135.141333 209.045932 
L 135.1744 209.09101 
L 135.8688 205.874489 
L 135.901867 205.113457 
L 136.001067 205.385202 
L 136.034133 205.407525 
L 136.0672 205.657119 
L 136.232533 203.854422 
L 136.331733 203.914716 
L 136.3648 203.303446 
L 136.397867 204.169081 
L 136.464 203.427748 
L 136.629333 202.320526 
L 136.6624 202.500831 
L 136.794667 201.745007 
L 136.827733 201.730846 
L 136.893867 201.033968 
L 136.926933 201.155661 
L 136.96 201.859497 
L 137.026133 201.143955 
L 137.0592 201.348273 
L 137.092267 201.281047 
L 137.191467 200.153219 
L 137.224533 200.253158 
L 137.290667 200.233322 
L 137.489067 198.792479 
L 137.522133 198.939987 
L 137.588267 197.780842 
L 137.621333 198.474635 
L 137.6544 198.616703 
L 137.687467 198.518427 
L 137.819733 197.412015 
L 137.8528 197.743099 
L 137.918933 198.121632 
L 137.952 197.835192 
L 138.018133 196.88184 
L 138.084267 197.297366 
L 138.1504 198.430289 
L 138.216533 198.271212 
L 138.481067 196.596828 
L 138.514133 197.111474 
L 138.5472 196.630418 
L 138.580267 196.369414 
L 138.6464 196.658923 
L 138.7456 198.054813 
L 138.811733 197.556573 
L 138.977067 195.432299 
L 139.010133 195.110046 
L 139.0432 195.517572 
L 139.175467 196.476766 
L 139.2416 195.226243 
L 139.3408 195.59012 
L 139.373867 195.768049 
L 139.406933 194.906227 
L 139.506133 194.918604 
L 139.5392 194.958275 
L 139.605333 195.246879 
L 139.6384 194.936516 
L 139.671467 194.250343 
L 139.770667 194.333482 
L 139.803733 195.115722 
L 139.869867 194.203245 
L 139.902933 194.290926 
L 139.936 194.074392 
L 140.002133 194.096654 
L 140.0352 194.39283 
L 140.101333 193.998259 
L 140.1344 194.330199 
L 140.167467 193.794585 
L 140.200533 194.131336 
L 140.2336 194.564972 
L 140.266667 193.677204 
L 140.299733 193.714733 
L 140.3328 193.685282 
L 140.432 194.83079 
L 140.465067 194.134369 
L 140.498133 194.082903 
L 140.663467 194.642918 
L 140.795733 193.745133 
L 140.8288 194.165935 
L 140.861867 194.254032 
L 140.894933 194.081821 
L 140.928 194.046041 
L 141.060267 193.550976 
L 141.159467 194.210827 
L 141.291733 195.670505 
L 141.357867 195.029375 
L 141.457067 195.120851 
L 141.556267 193.541339 
L 141.589333 194.642501 
L 141.688533 194.541683 
L 141.7216 194.945311 
L 141.754667 194.663668 
L 141.853867 194.809354 
L 141.886933 194.031479 
L 142.085333 195.144536 
L 142.151467 194.439137 
L 142.184533 195.637793 
L 142.250667 194.855105 
L 142.3168 194.722546 
L 142.416 195.314739 
L 142.449067 194.548197 
L 142.548267 194.810082 
L 142.581333 195.257192 
L 142.680533 195.236999 
L 142.779733 195.260149 
L 142.8128 194.801786 
L 142.845867 194.959606 
L 142.878933 194.924602 
L 142.912 194.330181 
L 142.978133 194.916774 
L 143.0112 194.939137 
L 143.077333 194.298835 
L 143.1104 193.88242 
L 143.143467 194.438673 
L 143.176533 193.912639 
L 143.242667 195.370231 
L 143.3088 194.655947 
L 143.341867 194.684775 
L 143.374933 194.890813 
L 143.441067 194.684629 
L 143.474133 194.498209 
L 143.5072 195.137733 
L 143.573333 194.860042 
L 143.6064 194.483169 
L 143.672533 194.710827 
L 143.8048 195.272813 
L 143.870933 194.93514 
L 143.904 195.345271 
L 143.937067 195.246607 
L 143.970133 195.491862 
L 144.0032 195.296494 
L 144.069333 195.467342 
L 144.1024 194.091733 
L 144.168533 194.980565 
L 144.234667 194.054485 
L 144.267733 194.95322 
L 144.3008 195.033083 
L 144.4 195.766004 
L 144.433067 195.140978 
L 144.532267 195.221202 
L 144.664533 196.456551 
L 144.730667 195.766983 
L 144.862933 197.201852 
L 145.028267 196.061856 
L 145.061333 195.939984 
L 145.0944 196.188962 
L 145.1936 197.281714 
L 145.226667 196.79141 
L 145.259733 196.462326 
L 145.2928 196.750155 
L 145.325867 197.100904 
L 145.358933 195.851204 
L 145.425067 196.849201 
L 145.458133 196.993688 
L 145.4912 196.383374 
L 145.557333 196.589254 
L 145.623467 197.660333 
L 145.656533 197.525099 
L 145.6896 196.412032 
L 145.7888 196.495895 
L 145.954133 197.502487 
L 145.9872 197.369004 
L 146.020267 198.090924 
L 146.053333 197.088002 
L 146.0864 197.106327 
L 146.251733 198.570075 
L 146.2848 198.429978 
L 146.317867 198.465405 
L 146.450133 197.742039 
L 146.4832 198.103249 
L 146.516267 197.042814 
L 146.5824 198.052528 
L 146.615467 197.760617 
L 146.648533 198.011223 
L 146.6816 198.593975 
L 146.714667 197.495551 
L 146.747733 197.469902 
L 146.846933 198.782344 
L 146.88 198.524205 
L 146.913067 197.30935 
L 146.9792 198.709424 
L 147.144533 196.867703 
L 147.210667 197.593787 
L 147.376 199.424944 
L 147.409067 199.451981 
L 147.541333 198.900046 
L 147.607467 199.009768 
L 147.6736 199.652935 
L 147.739733 199.471493 
L 147.7728 199.49467 
L 147.905067 198.206048 
L 148.037333 200.533634 
L 148.0704 200.375342 
L 148.136533 200.764572 
L 148.235733 202.11135 
L 148.2688 201.333458 
L 148.368 200.922049 
L 148.401067 201.386507 
L 148.434133 200.93213 
L 148.533333 199.975774 
L 148.599467 201.010947 
L 148.632533 199.752641 
L 148.698667 200.490211 
L 148.731733 200.473228 
L 148.930133 202.14344 
L 148.9632 200.510159 
L 149.0624 200.615872 
L 149.128533 202.310334 
L 149.194667 201.473754 
L 149.227733 201.332387 
L 149.2608 201.431522 
L 149.326933 202.487673 
L 149.36 202.328599 
L 149.393067 200.949328 
L 149.4592 202.341244 
L 149.492267 201.842811 
L 149.525333 202.342097 
L 149.5584 202.729863 
L 149.591467 202.58284 
L 149.690667 202.681182 
L 149.7568 200.741207 
L 149.856 203.090492 
L 149.922133 202.722756 
L 150.0544 201.53217 
L 150.087467 201.788141 
L 150.1536 203.200718 
L 150.219733 202.346142 
L 150.2528 202.07114 
L 150.285867 202.7201 
L 150.318933 202.537323 
L 150.4512 199.970431 
L 150.484267 200.851619 
L 150.517333 201.987587 
L 150.583467 201.534012 
L 150.616533 200.247565 
L 150.715733 200.690086 
L 150.781867 202.139115 
L 150.848 201.202809 
L 150.914133 202.532413 
L 151.013333 203.81059 
L 151.0464 203.35415 
L 151.079467 203.332978 
L 151.211733 204.117982 
L 151.344 203.585983 
L 151.344 203.585983 
" style="fill:none;stroke:#ff0000;stroke-linecap:square;stroke-width:3;"/>
   </g>
   <g id="line2d_34">
    <path clip-path="url(#p394809b2c8)" d="M 211.822933 211.735394 
L 211.856 211.737884 
L 211.889067 211.521462 
L 211.9552 211.695474 
L 212.021333 211.803216 
L 212.120533 211.494059 
L 212.1536 211.615427 
L 212.186667 211.361057 
L 212.219733 211.35795 
L 212.385067 211.924357 
L 212.418133 211.851842 
L 212.4512 212.136893 
L 212.517333 211.744352 
L 212.5504 211.749205 
L 212.583467 211.920193 
L 212.6496 211.694141 
L 212.682667 211.886833 
L 212.848 211.525737 
L 212.980267 211.930623 
L 213.013333 211.908777 
L 213.079467 211.947263 
L 213.112533 211.802077 
L 213.277867 212.155838 
L 213.310933 212.192785 
L 213.509333 211.732869 
L 213.5424 211.950764 
L 213.608533 211.826238 
L 213.773867 211.39239 
L 213.806933 211.417466 
L 213.906133 211.681478 
L 213.9392 211.632983 
L 213.972267 211.610539 
L 214.0384 211.905608 
L 214.170667 211.192872 
L 214.2368 211.420562 
L 214.302933 211.217977 
L 214.369067 210.968394 
L 214.4352 211.070868 
L 214.468267 211.083199 
L 214.666667 210.525389 
L 214.798933 210.635544 
L 214.964267 209.963364 
L 215.096533 210.024618 
L 215.857067 208.773558 
L 215.890133 208.886866 
L 215.956267 208.809748 
L 216.154667 208.286803 
L 216.187733 208.282534 
L 216.353067 207.797268 
L 216.4192 207.767776 
L 216.6176 207.069867 
L 216.650667 207.168196 
L 216.816 206.547973 
L 216.849067 206.59825 
L 216.882133 206.543444 
L 217.080533 205.796844 
L 217.2128 205.412913 
L 217.278933 205.09407 
L 217.345067 205.25938 
L 217.378133 205.345933 
L 217.4112 205.18851 
L 217.6096 204.570748 
L 217.7088 204.733009 
L 217.874133 204.182262 
L 218.171733 203.576112 
L 218.535467 201.939061 
L 218.568533 202.018687 
L 218.6016 201.853828 
L 219.362133 198.488857 
L 219.4944 198.415208 
L 219.560533 198.727265 
L 219.5936 198.686895 
L 219.626667 198.51277 
L 219.6928 198.667438 
L 219.792 198.765209 
L 219.957333 198.631904 
L 220.023467 198.796072 
L 220.0896 198.685923 
L 221.6768 194.846086 
L 221.742933 194.788104 
L 221.908267 194.048695 
L 222.0736 193.898149 
L 222.139733 194.223527 
L 222.1728 194.104791 
L 222.338133 193.782099 
L 222.437333 193.8224 
L 222.602667 193.437994 
L 222.734933 193.515331 
L 222.8672 193.311604 
L 222.933333 193.406372 
L 222.999467 193.329109 
L 223.230933 193.124081 
L 223.3632 193.054886 
L 223.4624 193.222709 
L 223.495467 193.210947 
L 223.5616 193.019317 
L 223.627733 193.143397 
L 223.6608 193.082194 
L 223.8592 193.655224 
L 224.1568 194.319526 
L 224.189867 194.19106 
L 224.222933 194.255453 
L 224.685867 195.843218 
L 224.785067 195.897537 
L 225.082667 196.25656 
L 225.115733 196.286568 
L 225.3472 197.1252 
L 225.380267 197.097123 
L 225.413333 197.190167 
L 225.9424 198.738166 
L 225.975467 198.557491 
L 226.008533 198.908904 
L 226.074667 199.14067 
L 226.173867 199.099608 
L 226.306133 198.901434 
L 226.372267 198.994134 
L 226.471467 198.961797 
L 226.5376 199.290527 
L 226.570667 199.172808 
L 226.603733 199.409774 
L 226.868267 200.07953 
L 226.967467 200.241085 
L 227.3312 201.369333 
L 227.4304 201.255368 
L 227.463467 201.245322 
L 227.6288 201.659811 
L 227.661867 201.637294 
L 227.992533 202.354245 
L 228.0256 202.314874 
L 228.157867 201.867219 
L 228.190933 201.944622 
L 228.224 202.074071 
L 228.257067 201.870028 
L 228.290133 201.941254 
L 228.389333 201.822372 
L 228.686933 202.450908 
L 228.72 202.407774 
L 228.753067 201.996658 
L 228.8192 202.51194 
L 229.050667 202.821737 
L 229.083733 202.706602 
L 229.1168 202.91899 
L 229.149867 202.848513 
L 229.182933 203.137991 
L 229.249067 202.877293 
L 229.282133 202.814447 
L 229.3152 202.986744 
L 229.381333 202.923401 
L 229.546667 203.734939 
L 229.645867 203.091187 
L 229.678933 203.462508 
L 229.712 203.528225 
L 229.745067 203.395232 
L 229.844267 203.227307 
L 229.943467 203.645169 
L 230.0096 203.333375 
L 230.075733 203.499116 
L 230.1088 203.503395 
L 230.241067 203.114058 
L 230.340267 203.493027 
L 230.373333 203.420015 
L 230.4064 202.99471 
L 230.472533 203.384236 
L 230.5056 203.263479 
L 230.571733 203.225037 
L 230.704 204.167783 
L 230.737067 204.083139 
L 230.770133 204.211212 
L 230.836267 204.123547 
L 230.968533 204.014112 
L 231.0016 203.854659 
L 231.034667 204.135617 
L 231.233067 204.880675 
L 231.2992 204.759635 
L 231.332267 204.483824 
L 231.3984 204.540871 
L 231.431467 204.595834 
L 231.464533 204.522449 
L 231.4976 203.954857 
L 231.563733 204.309358 
L 231.696 204.023167 
L 231.7952 204.40063 
L 231.828267 204.187808 
L 231.861333 203.962311 
L 231.927467 204.061912 
L 232.059733 204.748842 
L 232.0928 204.471613 
L 232.125867 204.625722 
L 232.158933 204.872519 
L 232.192 204.842499 
L 232.258133 203.907353 
L 232.357333 203.978193 
L 232.3904 203.786964 
L 232.423467 203.818963 
L 232.456533 204.128161 
L 232.4896 203.341989 
L 232.5888 203.459644 
L 232.654933 204.059562 
L 232.721067 203.867505 
L 232.754133 203.665232 
L 232.7872 203.858562 
L 232.820267 204.308703 
L 232.853333 203.811388 
L 232.9856 203.264001 
L 233.051733 203.640796 
L 233.0848 203.278457 
L 233.184 202.857835 
L 233.250133 203.086627 
L 233.349333 203.566273 
L 233.3824 203.503808 
L 233.4816 203.376023 
L 233.514667 203.457697 
L 233.68 202.213508 
L 233.8784 201.126277 
L 233.911467 201.136912 
L 234.043733 202.203423 
L 234.142933 201.564672 
L 234.176 201.67224 
L 234.407467 200.395864 
L 234.440533 200.441327 
L 234.506667 199.469149 
L 234.539733 199.873674 
L 234.605867 199.816536 
L 234.672 200.45647 
L 234.837333 199.438681 
L 234.8704 199.547958 
L 234.903467 199.532792 
L 235.035733 198.546676 
L 235.0688 198.692169 
L 235.101867 198.628257 
L 235.134933 198.942793 
L 235.234133 198.874122 
L 235.333333 197.704424 
L 235.3664 197.871739 
L 235.399467 197.977551 
L 235.498667 197.439383 
L 235.5648 198.356071 
L 235.597867 198.20926 
L 235.664 196.674744 
L 235.730133 197.042721 
L 235.7632 197.478236 
L 235.829333 196.920499 
L 235.8624 197.293723 
L 235.928533 196.972868 
L 236.027733 195.879302 
L 236.0608 196.707509 
L 236.126933 195.707629 
L 236.16 195.774403 
L 236.193067 195.288072 
L 236.226133 196.176212 
L 236.2592 195.541255 
L 236.292267 195.527032 
L 236.325333 195.78865 
L 236.3584 195.128498 
L 236.4576 195.256094 
L 236.589867 194.332291 
L 236.622933 194.367515 
L 236.656 195.215852 
L 236.689067 194.97429 
L 236.722133 194.008289 
L 236.788267 194.328279 
L 236.821333 195.108769 
L 236.887467 194.35395 
L 237.085867 193.288085 
L 237.118933 193.939644 
L 237.185067 193.158711 
L 237.2512 192.831521 
L 237.284267 193.475818 
L 237.317333 192.319863 
L 237.3504 192.323298 
L 237.416533 192.001645 
L 237.482667 192.717075 
L 237.614933 191.839785 
L 237.681067 192.903746 
L 237.714133 191.996846 
L 237.780267 191.697302 
L 237.813333 192.473612 
L 237.8464 192.254133 
L 237.978667 190.742867 
L 238.077867 191.25706 
L 238.110933 191.038782 
L 238.210133 192.229725 
L 238.177067 190.995873 
L 238.2432 192.155821 
L 238.375467 190.719145 
L 238.408533 190.807872 
L 238.5408 189.000032 
L 238.673067 190.046749 
L 238.706133 189.698544 
L 238.7392 190.328575 
L 238.772267 190.223511 
L 238.805333 188.7761 
L 238.871467 189.095127 
L 238.904533 189.704646 
L 238.9376 189.426346 
L 239.003733 188.396943 
L 239.0368 189.659569 
L 239.102933 189.298355 
L 239.2352 188.934828 
L 239.268267 189.339526 
L 239.301333 188.823561 
L 239.3344 188.638527 
L 239.466667 189.55061 
L 239.598933 188.557248 
L 239.698133 188.436415 
L 239.7312 189.047627 
L 239.863467 188.304829 
L 239.896533 188.090456 
L 239.9296 188.213418 
L 240.128 189.098004 
L 240.194133 186.965143 
L 240.260267 188.029282 
L 240.359467 188.937706 
L 240.4256 186.577847 
L 240.491733 188.012787 
L 240.557867 188.81379 
L 240.624 188.601812 
L 240.7232 188.180347 
L 240.756267 188.377731 
L 240.8224 188.90932 
L 240.855467 188.604983 
L 240.888533 188.010913 
L 240.9216 188.877044 
L 240.954667 188.976305 
L 241.053867 188.941363 
L 241.086933 189.486054 
L 241.153067 188.666428 
L 241.2192 188.697763 
L 241.285333 190.080267 
L 241.3184 189.597228 
L 241.450667 188.605988 
L 241.483733 188.404151 
L 241.5168 189.500036 
L 241.616 189.326282 
L 241.682133 187.655956 
L 241.748267 188.741287 
L 241.8144 188.666541 
L 241.880533 189.975542 
L 241.9136 188.977346 
L 241.979733 189.877248 
L 242.045867 190.44255 
L 242.078933 189.945345 
L 242.112 189.978095 
L 242.2112 191.494804 
L 242.178133 189.933708 
L 242.244267 190.714914 
L 242.277333 189.988486 
L 242.343467 190.473436 
L 242.475733 192.125387 
L 242.5088 191.946501 
L 242.541867 191.814584 
L 242.574933 192.13222 
L 242.608 192.110101 
L 242.674133 192.120702 
L 242.7072 191.747988 
L 242.773333 191.616682 
L 242.9056 194.071593 
L 242.971733 192.549126 
L 243.037867 193.043021 
L 243.070933 193.741135 
L 243.104 193.065036 
L 243.170133 190.792827 
L 243.2032 192.200894 
L 243.467733 195.851214 
L 243.5008 195.299296 
L 243.566933 195.606415 
L 243.6992 196.428969 
L 243.666133 195.531066 
L 243.732267 196.331763 
L 243.864533 194.862855 
L 244.096 198.578666 
L 244.162133 197.401048 
L 244.1952 197.767951 
L 244.327467 198.939833 
L 244.459733 198.273805 
L 244.4928 198.526835 
L 244.7904 201.248593 
L 244.823467 200.955245 
L 244.9888 202.427179 
L 245.088 201.532274 
L 245.121067 201.955956 
L 245.418667 205.190166 
L 245.451733 204.596544 
L 245.4848 204.650325 
L 245.550933 203.665539 
L 245.584 204.327993 
L 245.716267 205.596208 
L 245.749333 205.433195 
L 245.7824 206.80707 
L 245.815467 206.62289 
L 245.848533 204.917954 
L 245.914667 206.091594 
L 245.947733 206.035852 
L 246.046933 207.938133 
L 246.08 206.520126 
L 246.146133 207.372101 
L 246.344533 209.809204 
L 246.410667 208.301212 
L 246.443733 209.169368 
L 246.4768 209.963764 
L 246.542933 209.583404 
L 246.576 209.451167 
L 246.6752 211.768809 
L 246.741333 211.53778 
L 246.7744 210.876947 
L 246.807467 211.504976 
L 246.840533 212.046204 
L 246.906667 211.88768 
L 246.939733 211.719257 
L 246.9728 212.043896 
L 247.105067 214.11395 
L 247.1712 214.066276 
L 247.204267 214.048558 
L 247.237333 213.578604 
L 247.2704 214.502686 
L 247.303467 214.830692 
L 247.336533 214.606609 
L 247.3696 214.034499 
L 247.402667 214.28145 
L 247.568 218.697874 
L 247.601067 217.161459 
L 247.634133 217.212787 
L 247.700267 215.486868 
L 247.799467 215.760526 
L 247.832533 217.901826 
L 247.898667 217.803417 
L 248.064 216.542158 
L 248.2624 220.381924 
L 248.295467 219.81921 
L 248.328533 220.171057 
L 248.3616 220.142325 
L 248.394667 219.509363 
L 248.427733 220.564559 
L 248.4608 220.106173 
L 248.526933 221.304043 
L 248.56 220.366764 
L 248.593067 219.705309 
L 248.626133 221.042973 
L 248.692267 221.891067 
L 248.725333 221.846383 
L 248.7584 221.221642 
L 248.824533 222.001919 
L 248.890667 222.872894 
L 248.923733 222.863494 
L 248.9568 221.764267 
L 249.022933 222.558477 
L 249.056 222.544016 
L 249.188267 221.855432 
L 249.221333 222.836119 
L 249.287467 222.143291 
L 249.320533 222.12568 
L 249.518933 224.710477 
L 249.552 223.863426 
L 249.585067 223.672808 
L 249.6512 223.705765 
L 249.783467 224.939618 
L 249.816533 224.263456 
L 249.8496 224.281338 
L 249.9488 225.408404 
L 249.981867 225.123227 
L 250.014933 224.664477 
L 250.048 225.6304 
L 250.048 225.6304 
" style="fill:none;stroke:#ff0000;stroke-linecap:square;stroke-width:3;"/>
   </g>
   <g id="line2d_35">
    <path clip-path="url(#p394809b2c8)" d="M 337.674667 201.553541 
L 337.906133 202.769195 
L 337.972267 202.436714 
L 338.005333 202.73114 
L 338.302933 205.318426 
L 338.336 205.062611 
L 338.369067 205.671166 
L 338.468267 204.945641 
L 338.501333 205.516138 
L 338.699733 208.043293 
L 338.798933 207.751076 
L 338.9312 206.972946 
L 339.096533 209.457245 
L 339.1296 208.998569 
L 339.162667 209.815139 
L 339.2288 209.683002 
L 339.394133 211.6885 
L 339.460267 211.074967 
L 339.493333 211.352592 
L 339.5264 211.678327 
L 339.559467 211.331555 
L 339.6256 210.871621 
L 339.658667 211.191533 
L 339.691733 211.265833 
L 339.7248 210.599385 
L 339.757867 211.450539 
L 339.824 211.085352 
L 340.055467 213.678961 
L 340.088533 213.611746 
L 340.353067 216.283871 
L 340.386133 216.208742 
L 340.4192 216.336012 
L 340.551467 217.263333 
L 340.6176 217.007368 
L 340.782933 218.754365 
L 340.816 218.453974 
L 340.849067 218.511614 
L 340.882133 218.333192 
L 340.9152 218.714789 
L 340.948267 219.128683 
L 341.0144 218.5673 
L 341.278933 220.5077 
L 341.4112 219.623156 
L 341.345067 220.585982 
L 341.444267 219.873828 
L 341.874133 222.51978 
L 341.9072 222.451606 
L 342.039467 223.379462 
L 342.072533 222.602565 
L 342.171733 222.652366 
L 342.270933 222.1484 
L 342.304 222.301335 
L 342.337067 223.013702 
L 342.4032 222.782396 
L 342.436267 222.196127 
L 342.5024 222.449266 
L 342.634667 223.470858 
L 342.7008 222.952422 
L 342.8 223.973908 
L 342.833067 223.715531 
L 342.866133 223.356779 
L 342.932267 223.554812 
L 342.9984 223.845106 
L 343.064533 223.415029 
L 343.130667 224.340115 
L 343.163733 223.889152 
L 343.362133 223.149468 
L 343.3952 223.209719 
L 343.527467 223.935786 
L 343.560533 223.71271 
L 343.5936 223.772018 
L 343.758933 224.388445 
L 343.825067 224.583322 
L 343.8912 224.082634 
L 343.924267 224.169342 
L 343.957333 223.945558 
L 343.9904 223.380633 
L 344.056533 223.491912 
L 344.221867 224.612722 
L 344.254933 224.292823 
L 344.288 224.383841 
L 344.321067 224.300906 
L 344.354133 223.786111 
L 344.420267 224.367802 
L 344.6848 223.064752 
L 344.750933 223.249085 
L 344.817067 223.417426 
L 344.850133 223.209209 
L 344.8832 223.190355 
L 344.949333 223.468697 
L 344.9824 223.35165 
L 345.114667 222.668673 
L 345.147733 222.679909 
L 345.1808 222.721463 
L 345.213867 222.502975 
L 345.246933 222.743968 
L 345.28 222.821399 
L 345.3792 222.841082 
L 345.445333 222.324339 
L 345.4784 222.777265 
L 345.511467 222.51239 
L 345.5776 222.056083 
L 345.643733 222.111168 
L 345.809067 221.597237 
L 345.842133 221.339004 
L 345.908267 221.495842 
L 346.007467 221.205894 
L 346.0736 221.38849 
L 346.139733 220.459263 
L 346.238933 220.558043 
L 346.305067 220.102573 
L 346.3712 220.163415 
L 346.536533 218.956006 
L 346.6688 218.686349 
L 346.701867 219.012827 
L 346.801067 218.99184 
L 346.900267 218.416561 
L 346.933333 218.006422 
L 347.032533 218.079742 
L 347.098667 217.676143 
L 347.131733 218.000392 
L 347.1648 218.022769 
L 347.197867 217.946719 
L 347.6608 216.259248 
L 347.693867 216.293829 
L 347.8592 216.730897 
L 347.9584 216.748783 
L 348.024533 216.307256 
L 348.189867 216.655715 
L 348.289067 216.950049 
L 348.752 213.414106 
L 348.983467 211.546826 
L 349.016533 211.562544 
L 349.115733 211.897412 
L 349.181867 211.838574 
L 349.214933 211.835825 
L 349.281067 212.044866 
L 349.3472 211.942385 
L 349.611733 212.635325 
L 349.6448 212.581082 
L 349.777067 213.067281 
L 349.810133 212.995858 
L 349.8432 213.056368 
L 349.876267 213.253633 
L 349.9424 212.97902 
L 349.975467 213.080583 
L 350.008533 212.8938 
L 350.074667 212.622487 
L 350.206933 211.870918 
L 350.24 212.032519 
L 350.273067 211.70407 
L 350.4384 210.626661 
L 350.669867 209.717508 
L 350.702933 209.844007 
L 350.736 209.553869 
L 350.802133 209.478056 
L 350.967467 209.02025 
L 351.1328 209.383515 
L 351.265067 209.199053 
L 351.298133 209.28057 
L 351.3312 209.116071 
L 351.694933 208.880591 
L 351.728 208.989926 
L 351.761067 209.018685 
L 351.794133 208.925862 
L 351.860267 208.880822 
L 352.091733 208.212678 
L 352.290133 207.647916 
L 352.786133 205.90589 
L 352.8192 207.192104 
L 352.9184 206.999097 
L 353.216 206.084201 
L 353.348267 205.757527 
L 353.381333 205.830939 
L 353.447467 205.672423 
L 353.678933 205.353635 
L 353.712 205.466919 
L 353.745067 205.338852 
L 353.844267 205.047628 
L 353.877333 205.188478 
L 354.208 204.634284 
L 354.241067 204.696191 
L 354.274133 204.822215 
L 354.340267 204.733353 
L 354.571733 204.610392 
L 354.9024 204.053258 
L 355.133867 203.484376 
L 355.233067 203.474966 
L 355.4976 203.175437 
L 355.563733 203.332525 
L 355.629867 203.275233 
L 355.729067 203.295281 
L 355.762133 203.193059 
L 355.828267 203.297703 
L 355.960533 203.172128 
L 356.0928 202.885667 
L 356.357333 202.958633 
L 356.522667 202.666072 
L 356.621867 202.48591 
L 356.654933 202.537 
L 356.688 202.582037 
L 356.721067 202.439992 
L 356.7872 202.351579 
L 356.919467 202.080774 
L 357.0848 201.705354 
L 358.638933 199.061925 
L 358.672 199.053582 
L 358.705067 198.924597 
L 358.804267 198.964746 
L 358.8704 198.878253 
L 359.0688 198.309125 
L 359.134933 198.341659 
L 359.2672 197.958117 
L 359.300267 197.96613 
L 359.3664 197.796894 
L 359.664 196.939361 
L 360.391467 194.605646 
L 360.424533 194.614459 
L 360.589867 194.151152 
L 360.821333 193.914203 
L 360.8544 194.007445 
L 360.887467 193.89414 
L 360.986667 193.758085 
L 361.019733 193.797036 
L 361.218133 193.334852 
L 361.2512 193.431176 
L 361.383467 192.093863 
L 361.614933 191.704952 
L 362.144 190.869144 
L 362.177067 190.901806 
L 362.3424 190.768695 
L 362.474667 190.451962 
L 362.507733 190.54323 
L 362.5408 190.538569 
L 362.673067 190.29288 
L 362.772267 190.227192 
L 362.805333 190.319997 
L 362.871467 190.462966 
L 362.9376 190.373051 
L 363.0368 190.358233 
L 363.202133 190.70754 
L 363.367467 190.977753 
L 363.4336 191.338377 
L 363.797333 192.767695 
L 364.161067 194.498862 
L 364.458667 196.32308 
L 365.0208 199.882177 
L 365.3184 201.966339 
L 365.384533 202.145813 
L 366.938667 214.75309 
L 366.971733 214.653249 
L 367.137067 215.79008 
L 367.2032 215.877866 
L 367.4016 216.598145 
L 367.434667 216.56983 
L 367.467733 216.655371 
L 367.7984 218.159927 
L 367.9968 219.464385 
L 368.029867 219.276577 
L 368.062933 219.303285 
L 368.261333 220.78988 
L 368.2944 220.744613 
L 368.327467 220.794339 
L 368.459733 221.133494 
L 368.525867 221.023195 
L 368.558933 221.162887 
L 368.625067 221.424203 
L 368.658133 221.168351 
L 368.6912 221.014235 
L 368.757333 221.072571 
L 368.856533 221.545003 
L 368.922667 220.972221 
L 368.9888 221.180241 
L 369.154133 220.658495 
L 369.1872 220.836896 
L 369.220267 220.945867 
L 369.253333 220.501761 
L 369.319467 220.750261 
L 369.352533 220.904792 
L 369.3856 220.846599 
L 369.517867 220.516997 
L 369.550933 220.535758 
L 369.6832 219.816039 
L 369.716267 220.060991 
L 369.749333 219.959052 
L 369.7824 220.263448 
L 369.815467 219.839844 
L 370.013867 218.658446 
L 370.113067 219.289864 
L 370.146133 218.968036 
L 370.311467 218.594363 
L 370.344533 218.764522 
L 370.3776 218.526351 
L 370.410667 218.587051 
L 370.4768 218.954489 
L 370.509867 218.731667 
L 370.7744 217.189742 
L 370.807467 217.341246 
L 370.840533 217.553157 
L 370.8736 217.244964 
L 370.939733 217.471526 
L 371.072 217.028816 
L 371.105067 217.168424 
L 371.138133 216.87982 
L 371.2704 215.665825 
L 371.3696 215.935486 
L 371.402667 216.249173 
L 371.4688 215.955268 
L 371.601067 215.02072 
L 371.634133 215.06559 
L 371.700267 215.27352 
L 371.898667 213.964029 
L 371.931733 214.200392 
L 371.9648 213.762302 
L 372.1632 211.970293 
L 372.196267 212.06769 
L 372.229333 211.894754 
L 372.427733 210.550988 
L 372.593067 209.853065 
L 372.989867 206.96645 
L 373.022933 207.677429 
L 373.089067 206.75373 
L 373.122133 206.740529 
L 373.287467 205.228765 
L 373.320533 205.310696 
L 373.552 203.396459 
L 373.6512 202.621598 
L 373.684267 203.596118 
L 373.7504 203.097385 
L 374.081067 201.358801 
L 374.213333 199.754234 
L 374.378667 197.427342 
L 374.6432 194.628855 
L 374.808533 190.902119 
L 374.874667 191.12362 
L 374.907733 191.024229 
L 375.172267 188.25726 
L 375.271467 187.083778 
L 375.370667 187.192105 
L 375.403733 185.962884 
L 375.4368 185.975867 
L 375.469867 186.377715 
L 375.536 186.041857 
L 375.7344 183.467131 
L 375.767467 183.726117 
L 375.899733 182.124637 
L 375.9328 182.167992 
L 376.263467 178.844602 
L 376.296533 179.413177 
L 376.395733 179.383451 
L 376.528 177.760382 
L 376.561067 178.284274 
L 376.594133 178.290858 
L 376.759467 174.871448 
L 376.792533 174.802431 
L 377.189333 170.048056 
L 377.2224 171.587219 
L 377.288533 170.875742 
L 377.553067 169.183604 
L 377.586133 169.654749 
L 377.6192 169.347908 
L 377.751467 167.864123 
L 377.784533 168.064962 
L 377.8176 168.903087 
L 377.883733 168.167257 
L 378.082133 165.879441 
L 378.148267 167.564344 
L 378.181333 166.84291 
L 378.2144 166.648103 
L 378.247467 166.911749 
L 378.280533 167.079743 
L 378.3136 166.860766 
L 378.445867 165.998221 
L 378.478933 166.030286 
L 378.578133 164.544034 
L 378.545067 166.081345 
L 378.644267 164.700805 
L 378.677333 164.978155 
L 378.842667 162.019954 
L 378.875733 162.666536 
L 378.9088 161.918217 
L 378.941867 161.624696 
L 379.041067 163.163273 
L 379.074133 162.17331 
L 379.1072 162.869927 
L 379.140267 163.657789 
L 379.2064 162.724948 
L 379.272533 163.156868 
L 379.338667 161.633626 
L 379.437867 162.705499 
L 379.4048 161.606975 
L 379.470933 162.104076 
L 379.504 162.01851 
L 379.537067 162.44953 
L 379.570133 162.267541 
L 379.636267 161.283696 
L 379.7024 161.582861 
L 379.8016 161.887672 
L 379.834667 161.872757 
L 379.867733 161.234874 
L 379.933867 161.856584 
L 379.966933 161.864101 
L 380.033067 161.983471 
L 380.0992 161.459455 
L 380.132267 161.482895 
L 380.165333 161.433938 
L 380.2976 162.204787 
L 380.363733 161.825659 
L 380.529067 163.745176 
L 380.429867 161.732886 
L 380.562133 163.005856 
L 380.5952 161.521236 
L 380.661333 162.913724 
L 380.6944 163.930335 
L 380.760533 162.802701 
L 380.7936 163.082739 
L 380.826667 164.769323 
L 380.925867 164.354304 
L 380.992 164.391167 
L 381.025067 163.904404 
L 381.1904 166.104928 
L 381.223467 165.24452 
L 381.2896 166.35608 
L 381.322667 166.051962 
L 381.355733 166.721342 
L 381.454933 166.761278 
L 381.488 166.526337 
L 381.554133 167.129398 
L 381.653333 165.759175 
L 381.6864 166.513963 
L 381.752533 165.697622 
L 381.7856 165.811706 
L 381.818667 164.959669 
L 381.851733 165.913239 
L 381.8848 165.891188 
L 382.017067 166.598907 
L 382.0832 166.440595 
L 382.215467 168.190733 
L 382.2816 167.703846 
L 382.446933 169.226644 
L 382.48 169.386674 
L 382.513067 169.140948 
L 382.546133 168.671759 
L 382.645333 170.647431 
L 382.6784 169.491905 
L 382.942933 173.678627 
L 382.976 173.754018 
L 383.1744 177.622212 
L 383.207467 177.869681 
L 383.240533 177.187483 
L 383.306667 177.964552 
L 383.339733 177.888213 
L 383.472 179.298346 
L 383.6704 180.580369 
L 383.538133 179.201386 
L 383.703467 180.178584 
L 383.8688 183.958487 
L 383.901867 183.407636 
L 383.968 184.095091 
L 384.034133 183.911448 
L 384.0672 183.944288 
L 384.100267 183.286133 
L 384.1664 184.081706 
L 384.199467 183.792524 
L 384.232533 184.054937 
L 384.596267 189.561009 
L 384.695467 189.328652 
L 384.728533 189.022732 
L 384.993067 193.013251 
L 385.0592 192.596547 
L 385.191467 194.352534 
L 385.224533 194.148289 
L 385.3568 194.887038 
L 385.389867 194.405681 
L 385.422933 195.031174 
L 385.522133 197.313966 
L 385.621333 196.537268 
L 385.720533 195.778792 
L 385.8528 197.292567 
L 385.885867 196.075235 
L 385.918933 197.361637 
L 386.117333 199.537108 
L 385.985067 196.818489 
L 386.1504 199.338537 
L 386.183467 198.754573 
L 386.2496 199.55148 
L 386.448 201.786598 
L 386.481067 201.141715 
L 386.5472 203.095834 
L 386.580267 201.642185 
L 386.6464 201.814516 
L 386.7456 199.612832 
L 386.811733 199.637078 
L 386.8448 199.748813 
L 386.944 201.518712 
L 386.977067 201.006734 
L 387.010133 199.995657 
L 387.0432 201.036183 
L 387.1424 201.014593 
L 387.175467 201.82043 
L 387.208533 201.364507 
L 387.2416 202.107629 
L 387.274667 202.130221 
L 387.307733 201.704587 
L 387.3408 202.432566 
L 387.473067 204.286412 
L 387.5392 202.72543 
L 387.605333 203.104983 
L 387.803733 205.403713 
L 387.869867 204.494928 
L 387.969067 204.88799 
L 388.068267 206.248316 
L 388.101333 206.146236 
L 388.1344 205.81631 
L 388.167467 206.389895 
L 388.200533 206.606913 
L 388.2336 206.040836 
L 388.266667 207.290306 
L 388.299733 207.171024 
L 388.3328 207.87224 
L 388.365867 207.193444 
L 388.465067 207.362585 
L 388.498133 206.201949 
L 388.5312 206.045485 
L 388.564267 206.153947 
L 388.597333 206.645984 
L 388.6304 205.400065 
L 388.7296 205.797369 
L 388.762667 205.491628 
L 388.861867 203.425812 
L 388.894933 203.442079 
L 388.928 203.422996 
L 388.961067 203.807984 
L 388.994133 203.399699 
L 389.0272 203.456759 
L 389.060267 202.534098 
L 389.1264 203.250857 
L 389.192533 203.541924 
L 389.357867 206.748079 
L 389.424 206.637431 
L 389.457067 206.944319 
L 389.5232 206.529948 
L 389.589333 206.032983 
L 389.6224 205.670108 
L 389.688533 207.466832 
L 389.754667 206.995303 
L 389.787733 206.93082 
L 389.886933 208.005935 
L 389.92 207.086501 
L 389.986133 207.753175 
L 390.0192 207.714578 
L 390.1184 208.97214 
L 390.184533 208.780303 
L 390.2176 208.946798 
L 390.283733 210.111072 
L 390.3168 209.163426 
L 390.482133 209.443798 
L 390.5152 209.922478 
L 390.581333 209.841068 
L 390.6144 209.494636 
L 390.6144 209.494636 
" style="fill:none;stroke:#ff0000;stroke-linecap:square;stroke-width:3;"/>
   </g>
   <g id="line2d_36">
    <path clip-path="url(#p394809b2c8)" d="M 448.8448 238.19995 
" style="fill:none;stroke:#ff0000;stroke-linecap:square;stroke-width:3;"/>
   </g>
   <g id="line2d_37">
    <path clip-path="url(#p394809b2c8)" style="fill:none;stroke:#ff0000;stroke-linecap:square;stroke-width:3;"/>
   </g>
   <g id="line2d_38">
    <path clip-path="url(#p394809b2c8)" style="fill:none;stroke:#ff0000;stroke-linecap:square;stroke-width:3;"/>
   </g>
   <g id="line2d_39">
    <path clip-path="url(#p394809b2c8)" style="fill:none;stroke:#ff0000;stroke-linecap:square;stroke-width:3;"/>
   </g>
   <g id="line2d_40">
    <path clip-path="url(#p394809b2c8)" style="fill:none;stroke:#ff0000;stroke-linecap:square;stroke-width:3;"/>
   </g>
   <g id="line2d_41">
    <path clip-path="url(#p394809b2c8)" style="fill:none;stroke:#ff0000;stroke-linecap:square;stroke-width:3;"/>
   </g>
   <g id="line2d_42">
    <path clip-path="url(#p394809b2c8)" style="fill:none;stroke:#ff0000;stroke-linecap:square;stroke-width:3;"/>
   </g>
   <g id="line2d_43">
    <path clip-path="url(#p394809b2c8)" style="fill:none;stroke:#ff0000;stroke-linecap:square;stroke-width:3;"/>
   </g>
   <g id="line2d_44">
    <path clip-path="url(#p394809b2c8)" style="fill:none;stroke:#ff0000;stroke-linecap:square;stroke-width:3;"/>
   </g>
   <g id="line2d_45">
    <path clip-path="url(#p394809b2c8)" style="fill:none;stroke:#ff0000;stroke-linecap:square;stroke-width:3;"/>
   </g>
   <g id="line2d_46">
    <path clip-path="url(#p394809b2c8)" style="fill:none;stroke:#ff0000;stroke-linecap:square;stroke-width:3;"/>
   </g>
   <g id="line2d_47">
    <path clip-path="url(#p394809b2c8)" style="fill:none;stroke:#ff0000;stroke-linecap:square;stroke-width:3;"/>
   </g>
   <g id="line2d_48">
    <path clip-path="url(#p394809b2c8)" style="fill:none;stroke:#ff0000;stroke-linecap:square;stroke-width:3;"/>
   </g>
   <g id="line2d_49">
    <path clip-path="url(#p394809b2c8)" style="fill:none;stroke:#ff0000;stroke-linecap:square;stroke-width:3;"/>
   </g>
   <g id="line2d_50">
    <path clip-path="url(#p394809b2c8)" style="fill:none;stroke:#ff0000;stroke-linecap:square;stroke-width:3;"/>
   </g>
   <g id="line2d_51">
    <path clip-path="url(#p394809b2c8)" style="fill:none;stroke:#ff0000;stroke-linecap:square;stroke-width:3;"/>
   </g>
   <g id="line2d_52">
    <path clip-path="url(#p394809b2c8)" style="fill:none;stroke:#ff0000;stroke-linecap:square;stroke-width:3;"/>
   </g>
  </g>
 </g>
 <defs>
  <clipPath id="p394809b2c8">
   <rect height="266.112" width="357.12" x="57.6" y="41.472"/>
  </clipPath>
 </defs>
</svg>
