<?xml version="1.0" encoding="utf-8" standalone="no"?>
<!DOCTYPE svg PUBLIC "-//W3C//DTD SVG 1.1//EN"
  "http://www.w3.org/Graphics/SVG/1.1/DTD/svg11.dtd">
<!-- Created with matplotlib (https://matplotlib.org/) -->
<svg height="345.6pt" version="1.1" viewBox="0 0 460.8 345.6" width="460.8pt" xmlns="http://www.w3.org/2000/svg" xmlns:xlink="http://www.w3.org/1999/xlink">
 <metadata>
  <rdf:RDF xmlns:cc="http://creativecommons.org/ns#" xmlns:dc="http://purl.org/dc/elements/1.1/" xmlns:rdf="http://www.w3.org/1999/02/22-rdf-syntax-ns#">
   <cc:Work>
    <dc:type rdf:resource="http://purl.org/dc/dcmitype/StillImage"/>
    <dc:date>2021-03-27T13:44:29.178436</dc:date>
    <dc:format>image/svg+xml</dc:format>
    <dc:creator>
     <cc:Agent>
      <dc:title>Matplotlib v3.3.2, https://matplotlib.org/</dc:title>
     </cc:Agent>
    </dc:creator>
   </cc:Work>
  </rdf:RDF>
 </metadata>
 <defs>
  <style type="text/css">*{stroke-linecap:butt;stroke-linejoin:round;}</style>
 </defs>
 <g id="figure_1">
  <g id="patch_1">
   <path d="M 0 345.6 
L 460.8 345.6 
L 460.8 0 
L 0 0 
z
" style="fill:none;"/>
  </g>
  <g id="axes_1">
   <g id="line2d_1">
    <path clip-path="url(#p1dd095350d)" style="fill:none;stroke:#a9a9a9;stroke-linecap:square;stroke-width:3;"/>
   </g>
   <g id="line2d_2">
    <path clip-path="url(#p1dd095350d)" style="fill:none;stroke:#a9a9a9;stroke-linecap:square;stroke-width:3;"/>
   </g>
   <g id="line2d_3">
    <path clip-path="url(#p1dd095350d)" style="fill:none;stroke:#a9a9a9;stroke-linecap:square;stroke-width:3;"/>
   </g>
   <g id="line2d_4">
    <path clip-path="url(#p1dd095350d)" style="fill:none;stroke:#a9a9a9;stroke-linecap:square;stroke-width:3;"/>
   </g>
   <g id="line2d_5">
    <path clip-path="url(#p1dd095350d)" style="fill:none;stroke:#a9a9a9;stroke-linecap:square;stroke-width:3;"/>
   </g>
   <g id="line2d_6">
    <path clip-path="url(#p1dd095350d)" d="M 16.365867 204.434377 
" style="fill:none;stroke:#a9a9a9;stroke-linecap:square;stroke-width:3;"/>
   </g>
   <g id="line2d_7">
    <path clip-path="url(#p1dd095350d)" d="M 98.437333 204.434377 
L 151.344 204.434377 
L 151.344 204.434377 
" style="fill:none;stroke:#a9a9a9;stroke-linecap:square;stroke-width:3;"/>
   </g>
   <g id="line2d_8">
    <path clip-path="url(#p1dd095350d)" d="M 211.822933 204.434377 
L 250.048 204.434377 
L 250.048 204.434377 
" style="fill:none;stroke:#a9a9a9;stroke-linecap:square;stroke-width:3;"/>
   </g>
   <g id="line2d_9">
    <path clip-path="url(#p1dd095350d)" d="M 337.674667 204.434377 
L 390.6144 204.434377 
L 390.6144 204.434377 
" style="fill:none;stroke:#a9a9a9;stroke-linecap:square;stroke-width:3;"/>
   </g>
   <g id="line2d_10">
    <path clip-path="url(#p1dd095350d)" d="M 448.8448 204.434377 
" style="fill:none;stroke:#a9a9a9;stroke-linecap:square;stroke-width:3;"/>
   </g>
   <g id="line2d_11">
    <path clip-path="url(#p1dd095350d)" style="fill:none;stroke:#a9a9a9;stroke-linecap:square;stroke-width:3;"/>
   </g>
   <g id="line2d_12">
    <path clip-path="url(#p1dd095350d)" style="fill:none;stroke:#a9a9a9;stroke-linecap:square;stroke-width:3;"/>
   </g>
   <g id="line2d_13">
    <path clip-path="url(#p1dd095350d)" style="fill:none;stroke:#a9a9a9;stroke-linecap:square;stroke-width:3;"/>
   </g>
   <g id="line2d_14">
    <path clip-path="url(#p1dd095350d)" style="fill:none;stroke:#a9a9a9;stroke-linecap:square;stroke-width:3;"/>
   </g>
   <g id="line2d_15">
    <path clip-path="url(#p1dd095350d)" style="fill:none;stroke:#a9a9a9;stroke-linecap:square;stroke-width:3;"/>
   </g>
   <g id="line2d_16">
    <path clip-path="url(#p1dd095350d)" style="fill:none;stroke:#a9a9a9;stroke-linecap:square;stroke-width:3;"/>
   </g>
   <g id="line2d_17">
    <path clip-path="url(#p1dd095350d)" style="fill:none;stroke:#a9a9a9;stroke-linecap:square;stroke-width:3;"/>
   </g>
   <g id="line2d_18">
    <path clip-path="url(#p1dd095350d)" style="fill:none;stroke:#a9a9a9;stroke-linecap:square;stroke-width:3;"/>
   </g>
   <g id="line2d_19">
    <path clip-path="url(#p1dd095350d)" style="fill:none;stroke:#a9a9a9;stroke-linecap:square;stroke-width:3;"/>
   </g>
   <g id="line2d_20">
    <path clip-path="url(#p1dd095350d)" style="fill:none;stroke:#a9a9a9;stroke-linecap:square;stroke-width:3;"/>
   </g>
   <g id="line2d_21">
    <path clip-path="url(#p1dd095350d)" style="fill:none;stroke:#a9a9a9;stroke-linecap:square;stroke-width:3;"/>
   </g>
   <g id="line2d_22">
    <path clip-path="url(#p1dd095350d)" style="fill:none;stroke:#a9a9a9;stroke-linecap:square;stroke-width:3;"/>
   </g>
   <g id="line2d_23">
    <path clip-path="url(#p1dd095350d)" style="fill:none;stroke:#a9a9a9;stroke-linecap:square;stroke-width:3;"/>
   </g>
   <g id="line2d_24">
    <path clip-path="url(#p1dd095350d)" style="fill:none;stroke:#a9a9a9;stroke-linecap:square;stroke-width:3;"/>
   </g>
   <g id="line2d_25">
    <path clip-path="url(#p1dd095350d)" style="fill:none;stroke:#a9a9a9;stroke-linecap:square;stroke-width:3;"/>
   </g>
   <g id="line2d_26">
    <path clip-path="url(#p1dd095350d)" style="fill:none;stroke:#a9a9a9;stroke-linecap:square;stroke-width:3;"/>
   </g>
   <g id="line2d_27">
    <path clip-path="url(#p1dd095350d)" d="M 0 0 
" style="fill:none;stroke:#ff0000;stroke-linecap:square;stroke-width:3;"/>
   </g>
   <g id="line2d_28">
    <path clip-path="url(#p1dd095350d)" style="fill:none;stroke:#ff0000;stroke-linecap:square;stroke-width:3;"/>
   </g>
   <g id="line2d_29">
    <path clip-path="url(#p1dd095350d)" style="fill:none;stroke:#ff0000;stroke-linecap:square;stroke-width:3;"/>
   </g>
   <g id="line2d_30">
    <path clip-path="url(#p1dd095350d)" style="fill:none;stroke:#ff0000;stroke-linecap:square;stroke-width:3;"/>
   </g>
   <g id="line2d_31">
    <path clip-path="url(#p1dd095350d)" style="fill:none;stroke:#ff0000;stroke-linecap:square;stroke-width:3;"/>
   </g>
   <g id="line2d_32">
    <path clip-path="url(#p1dd095350d)" style="fill:none;stroke:#ff0000;stroke-linecap:square;stroke-width:3;"/>
   </g>
   <g id="line2d_33">
    <path clip-path="url(#p1dd095350d)" d="M 57.566933 171.693246 
L 58.525867 173.774835 
L 59.220267 177.028818 
L 59.650133 180.202347 
L 61.634133 194.183245 
L 62.2624 195.651434 
L 62.593067 195.729334 
L 62.9568 195.336522 
L 63.552 194.280241 
L 63.684267 194.074557 
L 64.014933 193.588002 
L 64.213333 193.262767 
L 66.461867 188.562007 
L 66.990933 187.866094 
L 67.553067 186.603131 
L 67.850667 186.43563 
L 68.082133 186.459592 
L 68.280533 186.405171 
L 68.445867 186.486822 
L 68.677333 186.640102 
L 68.875733 186.799688 
L 69.173333 187.313299 
L 69.3056 187.510006 
L 69.735467 188.565746 
L 69.966933 189.025007 
L 70.0992 189.151426 
L 70.363733 189.449799 
L 70.727467 189.316313 
L 70.958933 189.542575 
L 71.0912 189.62413 
L 71.3888 190.354009 
L 71.752533 191.27026 
L 72.215467 191.227169 
L 72.909867 189.60347 
L 73.0752 189.354444 
L 73.240533 189.271771 
L 73.6704 189.794596 
L 74.397867 193.176845 
L 75.0592 199.902741 
L 76.018133 210.568152 
L 76.315733 212.028797 
L 76.3488 212.019746 
L 76.514133 211.850118 
L 76.679467 211.287166 
L 77.010133 209.011667 
L 77.605333 205.145052 
L 77.770667 204.898893 
L 77.803733 204.930883 
L 77.902933 205.067153 
L 78.1344 206.198821 
L 78.696533 211.195554 
L 79.556267 219.441382 
L 79.92 221.492698 
L 80.3168 222.499802 
L 81.0112 223.514247 
L 81.2096 224.268 
L 81.474133 225.559564 
L 82.069333 228.823279 
L 82.433067 229.937998 
L 83.6896 232.793933 
L 84.251733 234.900042 
L 84.417067 235.291204 
L 84.9792 236.992449 
L 85.872 238.574298 
L 86.136533 238.790773 
L 86.334933 238.877758 
L 87.326933 239.661613 
L 87.5584 239.945577 
L 88.2528 240.162631 
L 88.616533 239.529867 
L 88.914133 238.820139 
L 89.476267 237.800499 
L 89.575467 237.588478 
L 90.2368 235.708438 
L 91.7248 232.253661 
L 93.543467 221.645087 
L 94.4032 216.214081 
L 95.0976 211.498627 
L 96.254933 202.113005 
L 97.048533 195.631613 
L 97.709867 191.441993 
L 97.742933 191.509897 
L 97.776 191.396492 
L 98.3712 187.648292 
L 98.404267 187.880673 
L 98.437333 204.434377 
L 98.437333 204.434377 
" style="fill:none;stroke:#ff0000;stroke-linecap:square;stroke-width:3;"/>
   </g>
   <g id="line2d_34">
    <path clip-path="url(#p1dd095350d)" d="M 151.344 204.434377 
L 151.377067 203.535698 
L 151.4432 204.140962 
L 151.509333 205.506848 
L 151.575467 205.332841 
L 151.608533 205.298528 
L 151.707733 205.982589 
L 151.7408 205.683014 
L 151.773867 205.607247 
L 151.9392 206.51285 
L 151.972267 206.259914 
L 152.005333 206.464832 
L 152.170667 206.976124 
L 152.302933 206.871401 
L 152.468267 207.065421 
L 152.7328 207.280085 
L 152.898133 207.42187 
L 153.162667 207.436464 
L 153.394133 207.321645 
L 153.691733 207.168832 
L 153.790933 207.133566 
L 154.2208 206.844969 
L 154.749867 206.481642 
L 154.849067 206.5204 
L 154.882133 206.487374 
L 155.7088 205.85142 
L 156.1056 205.26044 
L 156.237867 205.089198 
L 156.5024 204.845018 
L 156.7008 204.667745 
L 156.8992 204.5937 
L 157.626667 204.834717 
L 157.858133 205.072608 
L 157.8912 205.041013 
L 158.0896 205.074348 
L 158.1888 204.966456 
L 158.420267 204.919979 
L 158.618667 204.968051 
L 159.015467 204.540006 
L 159.0816 204.498687 
L 159.28 204.334516 
L 159.742933 203.99904 
L 160.1728 203.58302 
L 161.032533 201.204777 
L 165.496533 184.909668 
L 166.1248 184.253598 
L 166.190933 184.160435 
L 166.455467 183.865644 
L 166.885333 183.563568 
L 166.984533 183.523661 
L 167.249067 183.41222 
L 167.645867 183.429872 
L 168.737067 185.7806 
L 169.1008 187.065197 
L 169.464533 188.142961 
L 169.8944 189.606924 
L 170.688 193.409453 
L 172.738133 204.141852 
L 175.515733 220.472998 
L 176.210133 222.888233 
L 176.8384 224.717589 
L 177.632 225.947746 
L 177.764267 225.948249 
L 177.995733 225.972708 
L 178.293333 225.969744 
L 178.458667 225.878152 
L 178.888533 226.126245 
L 178.954667 226.058432 
L 178.987733 226.123027 
L 179.582933 226.447149 
L 179.748267 226.343747 
L 179.9136 226.293526 
L 180.7072 225.827669 
L 181.765333 224.009534 
L 183.418667 218.844243 
L 184.08 216.492323 
L 184.245333 215.930275 
L 185.568 210.473068 
L 186.427733 205.617733 
L 187.287467 201.471159 
L 187.816533 199.401495 
L 189.205333 194.663201 
L 189.536 194.353961 
L 189.767467 194.32839 
L 189.899733 194.370317 
L 189.998933 194.410362 
L 190.990933 195.354445 
L 191.354667 195.398087 
L 191.784533 195.874333 
L 193.735467 202.987137 
L 194.429867 203.982068 
L 194.462933 203.938637 
L 194.529067 204.010916 
L 195.025067 204.058333 
L 195.620267 203.406944 
L 195.719467 203.316585 
L 196.413867 202.244443 
L 197.3728 197.77213 
L 198.96 190.259453 
L 199.456 189.322078 
L 199.6544 189.22058 
L 200.018133 189.116728 
L 200.1504 189.116383 
L 200.2496 189.148778 
L 200.448 189.300652 
L 201.175467 191.65491 
L 201.704533 195.155213 
L 202.564267 204.07858 
L 203.357867 212.102066 
L 204.382933 219.154557 
L 205.242667 222.920699 
L 205.374933 223.225759 
L 205.672533 223.680288 
L 205.7056 223.661808 
L 205.837867 223.572042 
L 206.069333 223.268069 
L 206.565333 221.714274 
L 207.425067 216.641192 
L 207.9872 212.396845 
L 208.747733 208.439234 
L 209.2768 207.260423 
L 209.541333 207.307373 
L 209.739733 207.316306 
L 209.938133 207.467488 
L 210.0704 207.556783 
L 210.301867 207.885074 
L 210.698667 208.583586 
L 210.996267 209.512029 
L 211.36 210.792186 
L 211.426133 211.651834 
L 211.4592 211.286034 
L 211.492267 210.724541 
L 211.525333 211.407079 
L 211.5584 212.059346 
L 211.624533 211.628769 
L 211.6576 211.318522 
L 211.690667 211.776593 
L 211.789867 212.199556 
L 211.822933 204.434377 
L 211.822933 204.434377 
" style="fill:none;stroke:#ff0000;stroke-linecap:square;stroke-width:3;"/>
   </g>
   <g id="line2d_35">
    <path clip-path="url(#p1dd095350d)" d="M 250.048 204.434377 
L 250.180267 225.745002 
L 250.2464 226.15349 
L 250.279467 226.332079 
L 250.312533 226.010209 
L 250.3456 225.989556 
L 250.378667 225.76956 
L 250.411733 226.201782 
L 250.544 226.856728 
L 250.577067 226.781123 
L 250.610133 226.810066 
L 250.808533 227.801496 
L 250.8416 227.801253 
L 251.006933 228.278307 
L 251.073067 228.398118 
L 251.304533 229.3479 
L 251.866667 230.858258 
L 251.998933 230.970009 
L 252.7264 232.587951 
L 253.4208 233.846516 
L 253.982933 233.723466 
L 254.346667 232.946179 
L 254.9088 231.694884 
L 255.504 230.172261 
L 255.669333 229.738706 
L 256.066133 228.417826 
L 256.628267 226.731112 
L 257.950933 220.821085 
L 258.744533 216.519522 
L 259.2736 213.635498 
L 261.323733 201.775256 
L 263.076267 190.728464 
L 263.373867 189.989846 
L 264.465067 189.303795 
L 264.928 188.469162 
L 265.291733 188.074476 
L 265.589333 187.715221 
L 265.886933 187.614671 
L 266.151467 187.762273 
L 266.680533 188.458206 
L 267.242667 189.984124 
L 268.333867 193.377051 
L 268.466133 193.670907 
L 269.888 196.535232 
L 270.516267 197.380776 
L 270.6816 197.450082 
L 270.913067 197.606749 
L 271.442133 197.979395 
L 271.706667 198.477821 
L 273.227733 202.908071 
L 273.591467 203.993267 
L 274.352 206.332313 
L 274.881067 208.007759 
L 275.310933 209.13625 
L 275.608533 209.785146 
L 275.806933 210.029939 
L 276.336 210.881493 
L 276.567467 211.159076 
L 276.865067 211.706585 
L 276.964267 211.819462 
L 277.790933 212.62283 
L 277.890133 212.665029 
L 278.154667 212.836984 
L 278.353067 212.91794 
L 278.5184 212.877016 
L 278.782933 212.668087 
L 279.312 212.247965 
L 279.642667 211.853318 
L 280.568533 211.334193 
L 280.833067 211.071473 
L 280.9984 210.905739 
L 281.924267 208.819129 
L 282.3872 207.398026 
L 282.651733 206.72026 
L 283.114667 204.92375 
L 284.404267 198.776989 
L 284.6688 198.252887 
L 285.098667 197.018894 
L 285.495467 195.376471 
L 286.785067 189.576836 
L 287.181867 188.874488 
L 287.214933 188.922875 
L 287.413333 189.569759 
L 287.810133 192.948736 
L 288.372267 200.847576 
L 289.265067 212.801808 
L 289.595733 214.261195 
L 289.694933 214.333407 
L 289.728 214.305038 
L 289.8272 214.151806 
L 290.157867 212.786273 
L 290.9184 209.645633 
L 291.050667 209.706922 
L 291.249067 210.068121 
L 291.745067 212.449708 
L 292.538667 217.284117 
L 292.869333 218.048898 
L 293.067733 218.049708 
L 293.2992 217.218717 
L 293.5968 215.212133 
L 293.927467 212.278901 
L 294.423467 208.388438 
L 294.820267 206.869974 
L 295.3824 205.971617 
L 295.4816 205.874851 
L 296.0768 204.389204 
L 296.5728 201.868418 
L 297.2672 198.608861 
L 297.664 198.135644 
L 297.8624 198.329211 
L 298.226133 198.930152 
L 298.689067 199.482096 
L 298.920533 199.546659 
L 299.0528 199.377363 
L 300.0448 198.247963 
L 300.110933 198.236554 
L 300.144 198.279394 
L 300.276267 198.437247 
L 301.0368 200.553926 
L 301.995733 204.081862 
L 303.153067 205.889982 
L 303.847467 206.11067 
L 304.244267 205.858656 
L 304.4096 205.752578 
L 304.938667 205.112698 
L 305.3024 204.472436 
L 305.633067 203.708698 
L 306.261333 201.703048 
L 308.4768 194.816322 
L 309.9648 192.856805 
L 309.997867 192.894631 
L 310.3616 192.938725 
L 310.6592 193.541132 
L 310.8576 194.24293 
L 311.287467 196.465561 
L 313.073067 206.828163 
L 313.8336 209.837301 
L 314.3296 211.858994 
L 315.189333 214.113377 
L 315.453867 214.432344 
L 315.751467 214.716476 
L 315.9168 214.863946 
L 316.9088 215.37112 
L 317.371733 215.168366 
L 318.496 213.668837 
L 318.628267 213.596883 
L 319.025067 213.542293 
L 319.355733 213.179288 
L 320.48 211.322204 
L 320.8768 211.491006 
L 321.042133 211.787876 
L 322.001067 213.566541 
L 322.232533 213.644234 
L 323.323733 212.192636 
L 323.456 212.11844 
L 323.952 211.564284 
L 324.481067 210.489623 
L 324.6464 209.910649 
L 325.8368 203.056394 
L 327.886933 188.330711 
L 328.382933 186.991136 
L 329.341867 186.017081 
L 329.6064 185.976536 
L 329.8048 185.991588 
L 330.135467 185.943029 
L 330.333867 185.987164 
L 330.4992 185.903794 
L 331.0944 185.647089 
L 331.392 185.428819 
L 331.4912 185.345132 
L 331.656533 185.120998 
L 331.6896 185.136981 
L 332.119467 184.786651 
L 332.317867 184.838871 
L 332.6816 185.030044 
L 332.88 185.235334 
L 333.045333 185.362132 
L 333.243733 185.540893 
L 334.037333 186.050586 
L 334.301867 185.963448 
L 334.4672 186.027656 
L 334.698667 186.056681 
L 334.864 186.113568 
L 335.0624 186.151209 
L 335.426133 186.554049 
L 335.922133 188.360995 
L 337.112533 197.140901 
L 337.476267 200.557564 
L 337.509333 200.53473 
L 337.5424 200.640929 
L 337.6416 201.819881 
L 337.674667 204.434377 
L 337.674667 204.434377 
" style="fill:none;stroke:#ff0000;stroke-linecap:square;stroke-width:3;"/>
   </g>
   <g id="line2d_36">
    <path clip-path="url(#p1dd095350d)" d="M 390.6144 204.434377 
L 390.647467 208.9498 
L 390.746667 208.151109 
L 390.779733 208.761086 
L 390.8128 208.312684 
L 390.945067 207.534693 
L 390.978133 208.135544 
L 391.044267 207.52211 
L 391.077333 207.664995 
L 391.1104 207.407439 
L 391.3088 206.911875 
L 391.341867 207.222665 
L 391.408 206.958028 
L 391.441067 206.97136 
L 391.837867 210.688403 
L 392.234667 214.201262 
L 392.267733 214.218145 
L 392.3008 214.111864 
L 392.6976 212.362575 
L 392.763733 212.579088 
L 393.888 220.479267 
L 393.921067 220.463873 
L 394.020267 220.373047 
L 394.218667 219.575805 
L 394.5824 217.961685 
L 394.6816 217.927952 
L 394.714667 217.950304 
L 394.846933 217.986277 
L 395.012267 217.753309 
L 395.210667 217.385114 
L 395.2768 217.430197 
L 395.4752 218.664541 
L 395.706667 219.689161 
L 395.838933 218.792912 
L 396.103467 217.040633 
L 396.1696 217.177527 
L 396.334933 218.725172 
L 396.6656 221.45098 
L 396.731733 221.51152 
L 396.7648 221.46492 
L 396.864 221.027801 
L 396.996267 219.61242 
L 397.591467 212.965234 
L 397.822933 211.690964 
L 398.219733 209.322985 
L 398.285867 209.401436 
L 398.418133 210.577253 
L 398.814933 214.768979 
L 398.914133 214.427137 
L 399.079467 212.304451 
L 399.6416 203.200225 
L 399.873067 202.403991 
L 400.1376 201.902469 
L 400.203733 202.004168 
L 400.468267 202.63437 
L 400.501333 202.567868 
L 400.600533 201.881715 
L 400.798933 198.532582 
L 401.261867 190.25376 
L 401.328 190.12402 
L 401.361067 190.148766 
L 401.857067 191.740472 
L 402.0224 191.660055 
L 402.286933 191.124162 
L 402.485333 191.651374 
L 402.683733 192.057787 
L 402.782933 191.840618 
L 403.444267 187.336244 
L 403.543467 187.461327 
L 403.808 188.349551 
L 404.138667 190.514543 
L 404.733867 197.255792 
L 404.9984 197.87514 
L 405.527467 198.326632 
L 406.023467 199.98634 
L 406.651733 201.903139 
L 407.0816 203.955818 
L 407.809067 206.903252 
L 407.9744 208.209064 
L 408.404267 212.433146 
L 408.4704 212.51902 
L 408.536533 212.47255 
L 408.768 212.12424 
L 409.197867 210.832608 
L 409.76 208.03942 
L 409.8592 208.121115 
L 410.1568 208.742425 
L 410.256 208.451674 
L 410.421333 206.937621 
L 410.884267 202.668651 
L 411.016533 202.681815 
L 411.281067 202.879555 
L 411.5456 203.104991 
L 411.6448 203.389501 
L 411.8432 205.119259 
L 412.3392 209.726656 
L 412.8352 212.526714 
L 413.232 214.672912 
L 413.5296 215.797452 
L 414.6208 224.320198 
L 414.753067 226.761308 
L 414.753067 226.761308 
" style="fill:none;stroke:#ff0000;stroke-linecap:square;stroke-width:3;"/>
   </g>
   <g id="line2d_37">
    <path clip-path="url(#p1dd095350d)" style="fill:none;stroke:#ff0000;stroke-linecap:square;stroke-width:3;"/>
   </g>
   <g id="line2d_38">
    <path clip-path="url(#p1dd095350d)" style="fill:none;stroke:#ff0000;stroke-linecap:square;stroke-width:3;"/>
   </g>
   <g id="line2d_39">
    <path clip-path="url(#p1dd095350d)" style="fill:none;stroke:#ff0000;stroke-linecap:square;stroke-width:3;"/>
   </g>
   <g id="line2d_40">
    <path clip-path="url(#p1dd095350d)" style="fill:none;stroke:#ff0000;stroke-linecap:square;stroke-width:3;"/>
   </g>
   <g id="line2d_41">
    <path clip-path="url(#p1dd095350d)" style="fill:none;stroke:#ff0000;stroke-linecap:square;stroke-width:3;"/>
   </g>
   <g id="line2d_42">
    <path clip-path="url(#p1dd095350d)" style="fill:none;stroke:#ff0000;stroke-linecap:square;stroke-width:3;"/>
   </g>
   <g id="line2d_43">
    <path clip-path="url(#p1dd095350d)" style="fill:none;stroke:#ff0000;stroke-linecap:square;stroke-width:3;"/>
   </g>
   <g id="line2d_44">
    <path clip-path="url(#p1dd095350d)" style="fill:none;stroke:#ff0000;stroke-linecap:square;stroke-width:3;"/>
   </g>
   <g id="line2d_45">
    <path clip-path="url(#p1dd095350d)" style="fill:none;stroke:#ff0000;stroke-linecap:square;stroke-width:3;"/>
   </g>
   <g id="line2d_46">
    <path clip-path="url(#p1dd095350d)" style="fill:none;stroke:#ff0000;stroke-linecap:square;stroke-width:3;"/>
   </g>
   <g id="line2d_47">
    <path clip-path="url(#p1dd095350d)" style="fill:none;stroke:#ff0000;stroke-linecap:square;stroke-width:3;"/>
   </g>
   <g id="line2d_48">
    <path clip-path="url(#p1dd095350d)" style="fill:none;stroke:#ff0000;stroke-linecap:square;stroke-width:3;"/>
   </g>
   <g id="line2d_49">
    <path clip-path="url(#p1dd095350d)" style="fill:none;stroke:#ff0000;stroke-linecap:square;stroke-width:3;"/>
   </g>
   <g id="line2d_50">
    <path clip-path="url(#p1dd095350d)" style="fill:none;stroke:#ff0000;stroke-linecap:square;stroke-width:3;"/>
   </g>
   <g id="line2d_51">
    <path clip-path="url(#p1dd095350d)" style="fill:none;stroke:#ff0000;stroke-linecap:square;stroke-width:3;"/>
   </g>
   <g id="line2d_52">
    <path clip-path="url(#p1dd095350d)" style="fill:none;stroke:#ff0000;stroke-linecap:square;stroke-width:3;"/>
   </g>
  </g>
 </g>
 <defs>
  <clipPath id="p1dd095350d">
   <rect height="266.112" width="357.12" x="57.6" y="41.472"/>
  </clipPath>
 </defs>
</svg>
