<?xml version="1.0" encoding="utf-8" standalone="no"?>
<!DOCTYPE svg PUBLIC "-//W3C//DTD SVG 1.1//EN"
  "http://www.w3.org/Graphics/SVG/1.1/DTD/svg11.dtd">
<!-- Created with matplotlib (https://matplotlib.org/) -->
<svg height="345.6pt" version="1.1" viewBox="0 0 460.8 345.6" width="460.8pt" xmlns="http://www.w3.org/2000/svg" xmlns:xlink="http://www.w3.org/1999/xlink">
 <metadata>
  <rdf:RDF xmlns:cc="http://creativecommons.org/ns#" xmlns:dc="http://purl.org/dc/elements/1.1/" xmlns:rdf="http://www.w3.org/1999/02/22-rdf-syntax-ns#">
   <cc:Work>
    <dc:type rdf:resource="http://purl.org/dc/dcmitype/StillImage"/>
    <dc:date>2021-03-27T13:44:29.031802</dc:date>
    <dc:format>image/svg+xml</dc:format>
    <dc:creator>
     <cc:Agent>
      <dc:title>Matplotlib v3.3.2, https://matplotlib.org/</dc:title>
     </cc:Agent>
    </dc:creator>
   </cc:Work>
  </rdf:RDF>
 </metadata>
 <defs>
  <style type="text/css">*{stroke-linecap:butt;stroke-linejoin:round;}</style>
 </defs>
 <g id="figure_1">
  <g id="patch_1">
   <path d="M 0 345.6 
L 460.8 345.6 
L 460.8 0 
L 0 0 
z
" style="fill:none;"/>
  </g>
  <g id="axes_1">
   <g id="line2d_1">
    <path clip-path="url(#pb937cdbcb6)" d="M 57.566933 171.693246 
L 58.525867 173.774835 
L 59.220267 177.028818 
L 59.650133 180.202347 
L 61.634133 194.183245 
L 62.2624 195.651434 
L 62.593067 195.729334 
L 62.9568 195.336522 
L 63.552 194.280241 
L 63.684267 194.074557 
L 64.014933 193.588002 
L 64.213333 193.262767 
L 66.461867 188.562007 
L 66.990933 187.866094 
L 67.553067 186.603131 
L 67.850667 186.43563 
L 68.082133 186.459592 
L 68.280533 186.405171 
L 68.445867 186.486822 
L 68.677333 186.640102 
L 68.875733 186.799688 
L 69.173333 187.313299 
L 69.3056 187.510006 
L 69.735467 188.565746 
L 69.966933 189.025007 
L 70.0992 189.151426 
L 70.363733 189.449799 
L 70.727467 189.316313 
L 70.958933 189.542575 
L 71.0912 189.62413 
L 71.3888 190.354009 
L 71.752533 191.27026 
L 72.215467 191.227169 
L 72.909867 189.60347 
L 73.0752 189.354444 
L 73.240533 189.271771 
L 73.6704 189.794596 
L 74.397867 193.176845 
L 75.0592 199.902741 
L 76.018133 210.568152 
L 76.315733 212.028797 
L 76.3488 212.019746 
L 76.514133 211.850118 
L 76.679467 211.287166 
L 77.010133 209.011667 
L 77.605333 205.145052 
L 77.770667 204.898893 
L 77.803733 204.930883 
L 77.902933 205.067153 
L 78.1344 206.198821 
L 78.696533 211.195554 
L 79.556267 219.441382 
L 79.92 221.492698 
L 80.3168 222.499802 
L 81.0112 223.514247 
L 81.2096 224.268 
L 81.474133 225.559564 
L 82.069333 228.823279 
L 82.433067 229.937998 
L 83.6896 232.793933 
L 84.251733 234.900042 
L 84.417067 235.291204 
L 84.9792 236.992449 
L 85.872 238.574298 
L 86.136533 238.790773 
L 86.334933 238.877758 
L 87.326933 239.661613 
L 87.5584 239.945577 
L 88.2528 240.162631 
L 88.616533 239.529867 
L 88.914133 238.820139 
L 89.476267 237.800499 
L 89.575467 237.588478 
L 90.2368 235.708438 
L 91.7248 232.253661 
L 93.543467 221.645087 
L 94.4032 216.214081 
L 95.0976 211.498627 
L 96.254933 202.113005 
L 97.048533 195.631613 
L 97.709867 191.441993 
L 97.742933 191.509897 
L 97.776 191.396492 
L 98.3712 187.648292 
L 98.404267 187.880673 
L 98.4704 188.769943 
L 98.536533 188.460914 
L 98.734933 186.522411 
L 98.768 186.680039 
L 98.8672 187.440842 
L 98.933333 186.243256 
L 98.999467 186.289342 
L 99.032533 186.420107 
L 99.131733 185.712012 
L 99.1648 186.346123 
L 99.197867 184.897365 
L 99.429333 183.100725 
L 99.4624 183.831313 
L 99.495467 183.043879 
L 99.627733 181.940391 
L 99.693867 182.669937 
L 99.892267 179.054674 
L 99.9584 179.946601 
L 99.991467 179.197189 
L 100.024533 179.049242 
L 100.090667 179.231505 
L 100.123733 179.097766 
L 100.1568 176.762328 
L 100.222933 178.913218 
L 100.3552 180.80396 
L 100.4544 179.454077 
L 100.619733 182.583256 
L 100.6528 181.510658 
L 100.685867 183.148036 
L 100.884267 185.860891 
L 100.983467 187.500449 
L 101.016533 189.1799 
L 101.082667 188.835682 
L 101.115733 187.621334 
L 101.1488 188.067391 
L 101.181867 189.330181 
L 101.248 188.400473 
L 101.314133 187.323446 
L 101.380267 188.068053 
L 101.4464 191.101737 
L 101.479467 189.649047 
L 101.512533 188.057697 
L 101.578667 189.295644 
L 101.6448 187.738874 
L 101.744 188.37107 
L 101.876267 191.417593 
L 101.9424 190.46624 
L 101.975467 191.440432 
L 102.107733 193.48475 
L 102.24 190.179389 
L 102.306133 190.641476 
L 102.3392 190.257831 
L 102.4384 188.610395 
L 102.471467 189.3627 
L 102.570667 191.847718 
L 102.6368 190.678287 
L 102.669867 190.686355 
L 102.702933 189.557594 
L 102.736 190.631121 
L 102.8352 192.88363 
L 102.901333 192.965189 
L 102.967467 191.569671 
L 103.0336 193.673705 
L 103.066667 193.150249 
L 103.165867 190.460719 
L 103.198933 191.009771 
L 103.232 191.059758 
L 103.265067 191.350869 
L 103.3312 189.911374 
L 103.364267 190.561731 
L 103.397333 191.281181 
L 103.4304 190.584909 
L 103.496533 188.186364 
L 103.5296 189.679984 
L 103.595733 192.321551 
L 103.6288 190.04118 
L 103.661867 190.090258 
L 103.694933 190.628832 
L 103.728 190.047201 
L 103.761067 190.341327 
L 103.794133 188.887094 
L 103.860267 190.046323 
L 103.9264 190.02943 
L 103.992533 191.600055 
L 104.0256 190.081308 
L 104.091733 190.599625 
L 104.1248 191.16271 
L 104.157867 190.180113 
L 104.190933 189.935135 
L 104.224 190.516085 
L 104.290133 189.954841 
L 104.3232 190.17487 
L 104.356267 191.043465 
L 104.389333 189.481397 
L 104.4224 189.871222 
L 104.488533 190.348454 
L 104.5216 189.391128 
L 104.587733 189.465267 
L 104.753067 191.729423 
L 104.852267 189.403003 
L 104.885333 189.690927 
L 104.984533 191.758693 
L 105.0176 191.450557 
L 105.083733 189.882092 
L 105.1168 190.173333 
L 105.216 192.709744 
L 105.249067 191.343164 
L 105.282133 189.396346 
L 105.348267 191.104441 
L 105.4144 189.766344 
L 105.447467 190.37646 
L 105.480533 191.915517 
L 105.579733 191.471164 
L 105.6128 190.677708 
L 105.645867 190.775178 
L 105.712 190.116064 
L 105.778133 192.7459 
L 105.8112 192.824373 
L 105.943467 190.532209 
L 106.042667 192.677769 
L 106.1088 192.328872 
L 106.208 190.425144 
L 106.274133 193.431579 
L 106.3072 191.803573 
L 106.4064 189.885463 
L 106.472533 190.510865 
L 106.5056 190.446358 
L 106.538667 191.257155 
L 106.6048 190.73515 
L 106.737067 188.491051 
L 106.8032 189.216736 
L 106.869333 191.197376 
L 106.968533 190.98331 
L 107.067733 191.631691 
L 107.1008 190.990095 
L 107.133867 191.042908 
L 107.166933 191.95004 
L 107.2 190.892915 
L 107.266133 191.927834 
L 107.4976 190.680793 
L 107.530667 191.615683 
L 107.563733 190.535147 
L 107.5968 191.199964 
L 107.629867 191.030314 
L 107.696 190.895446 
L 107.729067 191.698722 
L 107.762133 189.724059 
L 107.828267 191.390308 
L 107.960533 190.786503 
L 107.9936 191.911136 
L 108.026667 190.779765 
L 108.059733 190.07269 
L 108.125867 190.766032 
L 108.158933 191.639137 
L 108.192 190.379729 
L 108.357333 188.289685 
L 108.3904 190.014883 
L 108.4896 189.403037 
L 108.5888 190.083749 
L 108.688 188.613129 
L 108.721067 189.178621 
L 108.820267 193.690224 
L 108.853333 192.65918 
L 108.8864 192.086447 
L 108.919467 192.603729 
L 109.0848 195.276712 
L 109.117867 195.070964 
L 109.150933 194.973979 
L 109.4816 177.786847 
L 109.845333 131.259645 
L 110.0768 110.411082 
L 110.242133 106.025061 
L 110.672 135.143958 
L 111.498667 205.751659 
L 111.531733 205.697184 
L 111.5648 205.726168 
L 112.589867 253.984659 
L 112.887467 261.202753 
L 112.920533 258.508943 
L 112.986667 259.659802 
L 113.019733 259.604848 
L 113.416533 239.529519 
L 113.813333 188.759114 
L 114.077867 145.146943 
L 114.706133 66.394845 
L 115.0368 47.595511 
L 115.4336 41.472 
L 115.764267 54.872384 
L 115.962667 70.089918 
L 116.2272 103.531497 
L 117.12 258.50476 
L 117.351467 275.29183 
L 117.781333 251.356651 
L 117.880533 244.979218 
L 117.946667 245.485775 
L 118.112 244.541831 
L 118.178133 245.917211 
L 118.2112 244.799868 
L 118.3104 239.851091 
L 118.740267 214.443671 
L 118.773333 215.267861 
L 118.8064 214.330632 
L 118.839467 213.528507 
L 118.9056 214.242007 
L 118.938667 214.276273 
L 118.971733 215.266765 
L 119.0048 214.177808 
L 119.037867 214.834899 
L 119.137067 212.964126 
L 119.6 231.379072 
L 119.7984 245.046131 
L 119.831467 245.072793 
L 120.162133 264.269246 
L 120.261333 268.892276 
L 120.360533 268.694061 
L 120.459733 265.939372 
L 120.4928 266.420652 
L 120.625067 262.875529 
L 120.922667 240.763119 
L 121.3856 206.56051 
L 121.517867 201.979481 
L 121.550933 203.664091 
L 121.617067 203.708885 
L 121.650133 202.490546 
L 121.716267 203.245295 
L 121.749333 203.042206 
L 121.9808 218.433137 
L 122.046933 219.428485 
L 122.2784 229.353117 
L 122.542933 232.306837 
L 122.642133 230.645761 
L 122.6752 231.031258 
L 122.708267 232.401655 
L 122.741333 231.527307 
L 122.939733 222.240127 
L 123.501867 166.368788 
L 124.130133 102.741853 
L 124.2624 100.381806 
L 124.295467 100.499929 
L 124.3616 99.915559 
L 124.725333 112.965151 
L 125.089067 143.44939 
L 125.882667 203.14395 
L 125.9488 208.437278 
L 126.279467 231.009997 
L 126.4448 242.457024 
L 126.973867 277.244782 
L 127.6352 301.801065 
L 127.668267 301.733192 
L 127.899733 307.584 
L 127.9328 307.215474 
L 127.965867 307.245775 
L 127.998933 305.437111 
L 128.098133 305.749278 
L 128.1312 305.673886 
L 128.395733 296.696885 
L 128.461867 294.073326 
L 128.528 294.171253 
L 128.561067 293.689995 
L 128.693333 288.300199 
L 128.7264 289.229624 
L 128.759467 289.841295 
L 128.792533 288.463276 
L 128.8256 288.245694 
L 129.387733 265.995226 
L 129.52 257.621855 
L 129.7184 247.567867 
L 130.3136 217.012597 
L 130.346667 217.830454 
L 130.379733 216.046316 
L 130.677333 206.362771 
L 130.7104 207.003397 
L 130.8096 203.297699 
L 130.842667 204.528713 
L 130.875733 204.598457 
L 130.9088 204.519501 
L 131.008 201.788307 
L 131.041067 203.365733 
L 131.074133 203.735849 
L 131.2064 201.954718 
L 131.272533 204.255271 
L 131.338667 204.216785 
L 131.371733 203.305006 
L 131.4048 204.14293 
L 131.537067 205.801731 
L 131.570133 205.876564 
L 131.834667 213.084504 
L 131.867733 213.303765 
L 132.033067 219.102087 
L 132.066133 219.258824 
L 132.264533 224.424329 
L 132.2976 224.881595 
L 132.330667 224.586942 
L 132.462933 222.174461 
L 132.496 222.420809 
L 132.661333 219.508699 
L 132.6944 220.369216 
L 132.727467 220.403937 
L 132.760533 219.240827 
L 132.826667 220.188449 
L 132.859733 220.421354 
L 132.8928 220.199755 
L 132.992 218.899662 
L 133.058133 220.317413 
L 133.0912 219.191298 
L 133.124267 219.453142 
L 133.223467 215.906721 
L 133.2896 216.27087 
L 133.322667 217.592168 
L 133.3888 216.013397 
L 133.454933 218.017007 
L 133.521067 216.737425 
L 133.5872 218.060124 
L 133.620267 217.18991 
L 133.653333 217.073277 
L 133.818667 215.233581 
L 133.851733 216.869863 
L 133.950933 216.757042 
L 134.017067 214.869692 
L 134.050133 215.539647 
L 134.1824 218.451885 
L 134.314667 216.332583 
L 134.347733 217.790086 
L 134.3808 216.32988 
L 134.413867 215.749836 
L 134.446933 217.103886 
L 134.48 216.399132 
L 134.546133 217.403401 
L 134.5792 216.135987 
L 134.612267 214.525528 
L 134.711467 214.947424 
L 134.7776 212.57632 
L 134.8768 213.255703 
L 134.976 214.838197 
L 135.141333 210.768904 
L 135.240533 211.518806 
L 135.405867 209.1955 
L 135.438933 208.950471 
L 135.472 209.239238 
L 135.505067 209.735695 
L 135.5712 207.026631 
L 135.637333 207.065584 
L 135.6704 206.98939 
L 135.802667 204.857271 
L 135.835733 205.546354 
L 135.8688 204.867836 
L 135.901867 202.814886 
L 135.968 203.927832 
L 136.001067 203.782383 
L 136.034133 203.919713 
L 136.0672 204.775745 
L 136.232533 200.323778 
L 136.298667 200.024269 
L 136.3648 199.677335 
L 136.397867 202.141809 
L 136.497067 199.376698 
L 136.530133 199.398002 
L 136.5632 200.105113 
L 136.596267 198.977169 
L 136.695467 197.624861 
L 136.6624 199.033582 
L 136.728533 198.182572 
L 136.7616 198.899169 
L 136.794667 197.947346 
L 136.827733 198.120693 
L 136.893867 196.632915 
L 136.926933 197.158427 
L 136.96 199.148039 
L 137.026133 197.610489 
L 137.0592 198.316911 
L 137.092267 198.302899 
L 137.191467 196.005327 
L 137.224533 196.493169 
L 137.290667 196.888397 
L 137.489067 194.415476 
L 137.522133 194.978732 
L 137.588267 192.599916 
L 137.621333 194.487395 
L 137.6544 195.162339 
L 137.720533 194.316366 
L 137.7536 194.797628 
L 137.786667 193.736519 
L 137.819733 193.544383 
L 137.918933 196.268068 
L 137.985067 195.605197 
L 138.018133 194.1287 
L 138.084267 195.779634 
L 138.216533 199.231772 
L 138.2496 198.59905 
L 138.282667 198.969702 
L 138.3488 197.300948 
L 138.381867 197.502147 
L 138.414933 198.295518 
L 138.448 197.504819 
L 138.481067 197.090336 
L 138.514133 198.462972 
L 138.580267 196.926406 
L 138.712533 201.034547 
L 138.811733 199.975719 
L 138.977067 195.198473 
L 139.010133 194.474406 
L 139.0432 195.224223 
L 139.175467 196.999022 
L 139.2416 194.081807 
L 139.3408 194.718284 
L 139.373867 195.063904 
L 139.506133 192.961198 
L 139.5392 192.947783 
L 139.605333 193.55219 
L 139.6384 192.826584 
L 139.671467 191.28462 
L 139.770667 191.557002 
L 139.803733 193.246161 
L 139.869867 191.289276 
L 139.902933 191.516242 
L 139.936 191.139679 
L 139.969067 191.219301 
L 140.002133 191.356531 
L 140.1344 192.262068 
L 140.167467 191.233837 
L 140.200533 192.031083 
L 140.2336 193.033027 
L 140.266667 191.311537 
L 140.398933 192.786381 
L 140.432 194.253835 
L 140.5312 193.815619 
L 140.564267 193.6525 
L 140.663467 194.810752 
L 140.696533 194.514186 
L 140.762667 194.087144 
L 140.795733 193.444979 
L 140.8288 194.392334 
L 140.861867 194.639226 
L 140.928 194.414048 
L 140.961067 193.667621 
L 140.994133 194.567801 
L 141.060267 193.899817 
L 141.291733 196.787028 
L 141.3248 196.641148 
L 141.424 194.423908 
L 141.457067 196.000489 
L 141.556267 192.977848 
L 141.6224 194.700098 
L 141.7216 195.827378 
L 141.754667 195.30853 
L 141.787733 194.023859 
L 141.853867 195.539978 
L 141.886933 194.129617 
L 142.085333 196.351455 
L 142.151467 194.996555 
L 142.184533 197.1798 
L 142.250667 195.675982 
L 142.3168 195.433798 
L 142.416 196.429194 
L 142.449067 195.009664 
L 142.548267 195.362413 
L 142.581333 196.164403 
L 142.680533 195.945683 
L 142.8128 194.937089 
L 142.845867 195.102833 
L 142.878933 195.008878 
L 142.912 193.92283 
L 142.978133 194.899725 
L 143.0112 194.949335 
L 143.077333 193.743082 
L 143.143467 193.885797 
L 143.176533 192.908709 
L 143.242667 195.467699 
L 143.3088 194.143679 
L 143.341867 194.158512 
L 143.374933 194.422702 
L 143.441067 194.057048 
L 143.474133 193.683659 
L 143.5072 194.786096 
L 143.573333 194.23837 
L 143.6064 193.559086 
L 143.672533 193.861833 
L 143.771733 194.680002 
L 143.8048 194.617877 
L 143.870933 193.980608 
L 143.904 194.58238 
L 143.937067 194.4108 
L 143.970133 194.839097 
L 144.069333 194.708577 
L 144.1024 192.330019 
L 144.168533 193.755905 
L 144.234667 192.144768 
L 144.267733 193.646446 
L 144.3008 193.805047 
L 144.4 195.039733 
L 144.4992 193.956398 
L 144.532267 194.06944 
L 144.664533 196.175215 
L 144.730667 195.009555 
L 144.862933 197.433439 
L 145.028267 195.59586 
L 145.061333 195.328014 
L 145.0944 195.733915 
L 145.1936 197.361329 
L 145.226667 196.584843 
L 145.259733 196.046734 
L 145.2928 196.435888 
L 145.325867 196.964584 
L 145.358933 194.986432 
L 145.425067 196.474931 
L 145.458133 196.60846 
L 145.4912 195.603478 
L 145.557333 195.810026 
L 145.623467 197.427336 
L 145.656533 197.145061 
L 145.6896 195.350872 
L 145.7888 195.419592 
L 145.954133 196.795006 
L 145.9872 196.540204 
L 146.020267 197.686458 
L 146.053333 196.087478 
L 146.0864 196.035356 
L 146.251733 198.033409 
L 146.450133 196.386249 
L 146.4832 196.906462 
L 146.516267 195.253925 
L 146.5824 196.63299 
L 146.615467 196.16753 
L 146.648533 196.474454 
L 146.6816 197.176498 
L 146.747733 195.385532 
L 146.7808 196.108247 
L 146.846933 197.111113 
L 146.88 196.708659 
L 146.913067 194.815295 
L 146.9792 196.792711 
L 147.144533 193.734926 
L 147.210667 194.703964 
L 147.376 197.22953 
L 147.409067 197.298371 
L 147.442133 197.13902 
L 147.541333 196.544671 
L 147.5744 196.84977 
L 147.607467 196.775452 
L 147.6736 197.810165 
L 147.739733 197.579314 
L 147.7728 197.662376 
L 147.905067 196.102824 
L 148.037333 199.567302 
L 148.0704 199.336737 
L 148.136533 199.981314 
L 148.235733 202.003116 
L 148.2688 200.96247 
L 148.334933 200.985713 
L 148.368 200.399722 
L 148.401067 201.09334 
L 148.434133 200.459016 
L 148.533333 199.118872 
L 148.599467 200.569264 
L 148.632533 198.829963 
L 148.698667 199.800535 
L 148.731733 199.671078 
L 148.930133 201.775272 
L 149.0624 199.451267 
L 149.128533 201.714175 
L 149.194667 200.52235 
L 149.227733 200.332779 
L 149.2608 200.442118 
L 149.326933 201.825295 
L 149.36 201.545862 
L 149.393067 199.598014 
L 149.4592 201.507532 
L 149.492267 200.823163 
L 149.525333 201.457376 
L 149.5584 202.011615 
L 149.591467 201.739947 
L 149.624533 201.139248 
L 149.6576 202.173179 
L 149.690667 203.303029 
L 149.723733 202.500128 
L 149.7568 200.458542 
L 149.822933 202.199987 
L 149.856 203.412415 
L 149.922133 202.704131 
L 150.0544 200.661266 
L 150.120533 201.157756 
L 150.1536 202.571632 
L 150.186667 200.863361 
L 150.219733 201.214448 
L 150.4512 197.365329 
L 150.285867 201.520855 
L 150.484267 198.508823 
L 150.517333 200.002412 
L 150.583467 199.303554 
L 150.616533 197.558001 
L 150.715733 198.127308 
L 150.781867 200.116436 
L 150.848 198.900837 
L 151.211733 203.673568 
L 151.277867 203.649328 
L 151.344 203.330286 
L 151.377067 203.535698 
L 151.6416 205.594411 
L 151.674667 205.637103 
L 151.773867 205.607247 
L 151.84 206.386692 
L 151.9392 206.51285 
L 151.972267 206.259914 
L 152.005333 206.464832 
L 152.170667 206.976124 
L 152.302933 206.871401 
L 152.468267 207.065421 
L 152.7328 207.280085 
L 152.898133 207.42187 
L 153.162667 207.436464 
L 153.394133 207.321645 
L 153.691733 207.168832 
L 153.790933 207.133566 
L 154.2208 206.844969 
L 154.749867 206.481642 
L 154.849067 206.5204 
L 154.882133 206.487374 
L 155.7088 205.85142 
L 156.1056 205.26044 
L 156.237867 205.089198 
L 156.5024 204.845018 
L 156.7008 204.667745 
L 156.8992 204.5937 
L 157.626667 204.834717 
L 157.858133 205.072608 
L 157.8912 205.041013 
L 158.0896 205.074348 
L 158.1888 204.966456 
L 158.420267 204.919979 
L 158.618667 204.968051 
L 159.015467 204.540006 
L 159.0816 204.498687 
L 159.28 204.334516 
L 159.742933 203.99904 
L 160.1728 203.58302 
L 161.032533 201.204777 
L 165.496533 184.909668 
L 166.1248 184.253598 
L 166.190933 184.160435 
L 166.455467 183.865644 
L 166.885333 183.563568 
L 166.984533 183.523661 
L 167.249067 183.41222 
L 167.645867 183.429872 
L 168.737067 185.7806 
L 169.1008 187.065197 
L 169.464533 188.142961 
L 169.8944 189.606924 
L 170.688 193.409453 
L 172.738133 204.141852 
L 175.515733 220.472998 
L 176.210133 222.888233 
L 176.8384 224.717589 
L 177.632 225.947746 
L 177.764267 225.948249 
L 177.995733 225.972708 
L 178.293333 225.969744 
L 178.458667 225.878152 
L 178.888533 226.126245 
L 178.954667 226.058432 
L 178.987733 226.123027 
L 179.582933 226.447149 
L 179.748267 226.343747 
L 179.9136 226.293526 
L 180.7072 225.827669 
L 181.765333 224.009534 
L 183.418667 218.844243 
L 184.08 216.492323 
L 184.245333 215.930275 
L 185.568 210.473068 
L 186.427733 205.617733 
L 187.287467 201.471159 
L 187.816533 199.401495 
L 189.205333 194.663201 
L 189.536 194.353961 
L 189.767467 194.32839 
L 189.899733 194.370317 
L 189.998933 194.410362 
L 190.990933 195.354445 
L 191.354667 195.398087 
L 191.784533 195.874333 
L 193.735467 202.987137 
L 194.429867 203.982068 
L 194.462933 203.938637 
L 194.529067 204.010916 
L 195.025067 204.058333 
L 195.620267 203.406944 
L 195.719467 203.316585 
L 196.413867 202.244443 
L 197.3728 197.77213 
L 198.96 190.259453 
L 199.456 189.322078 
L 199.6544 189.22058 
L 200.018133 189.116728 
L 200.1504 189.116383 
L 200.2496 189.148778 
L 200.448 189.300652 
L 201.175467 191.65491 
L 201.704533 195.155213 
L 202.564267 204.07858 
L 203.357867 212.102066 
L 204.382933 219.154557 
L 205.242667 222.920699 
L 205.374933 223.225759 
L 205.672533 223.680288 
L 205.7056 223.661808 
L 205.837867 223.572042 
L 206.069333 223.268069 
L 206.565333 221.714274 
L 207.425067 216.641192 
L 207.9872 212.396845 
L 208.747733 208.439234 
L 209.2768 207.260423 
L 209.541333 207.307373 
L 209.739733 207.316306 
L 209.938133 207.467488 
L 210.0704 207.556783 
L 210.301867 207.885074 
L 210.698667 208.583586 
L 210.996267 209.512029 
L 211.36 210.792186 
L 211.426133 211.651834 
L 211.4592 211.286034 
L 211.492267 210.724541 
L 211.525333 211.407079 
L 211.5584 212.059346 
L 211.624533 211.628769 
L 211.6576 211.318522 
L 211.690667 211.776593 
L 211.856 212.632149 
L 211.889067 211.763702 
L 211.922133 212.519386 
L 212.021333 214.046574 
L 212.087467 213.601658 
L 212.186667 212.598577 
L 212.1536 213.759175 
L 212.219733 212.706132 
L 212.385067 216.016676 
L 212.418133 215.720071 
L 212.4512 217.291836 
L 212.517333 215.328264 
L 212.5504 215.443891 
L 212.583467 216.478743 
L 212.6496 215.401159 
L 212.682667 216.459919 
L 212.848 214.604101 
L 212.980267 217.019291 
L 213.013333 216.980385 
L 213.0464 216.392205 
L 213.079467 217.240153 
L 213.112533 216.468332 
L 213.310933 219.484563 
L 213.410133 218.127947 
L 213.509333 217.935448 
L 213.5424 219.455008 
L 213.575467 219.513714 
L 213.7408 218.032408 
L 213.674667 219.632099 
L 213.773867 218.060092 
L 214.0384 223.532502 
L 214.104533 221.547279 
L 214.170667 220.587431 
L 214.203733 221.170857 
L 214.2368 222.737503 
L 214.302933 222.409699 
L 214.336 221.366667 
L 214.369067 221.541157 
L 214.468267 223.618636 
L 214.501333 223.214991 
L 214.5344 222.323865 
L 214.567467 223.851512 
L 214.600533 223.811282 
L 214.666667 222.702289 
L 214.699733 223.805255 
L 214.798933 225.02318 
L 214.964267 222.451449 
L 215.096533 224.292235 
L 215.1296 224.189084 
L 215.2288 224.450244 
L 215.261867 223.20951 
L 215.328 224.803773 
L 215.361067 223.307085 
L 215.394133 223.298185 
L 215.4272 223.964465 
L 215.460267 223.260643 
L 215.592533 221.492906 
L 215.6256 221.715956 
L 215.658667 222.029259 
L 215.691733 221.093339 
L 215.7248 222.308802 
L 215.790933 222.909479 
L 215.824 222.439453 
L 215.857067 222.633701 
L 215.956267 224.069868 
L 216.088533 222.351038 
L 216.1216 223.499905 
L 216.187733 223.423607 
L 216.253867 221.97049 
L 216.286933 222.241825 
L 216.32 223.107555 
L 216.353067 222.23356 
L 216.4192 223.06194 
L 216.584533 220.498196 
L 216.6176 220.581573 
L 216.650667 221.776662 
L 216.683733 219.905295 
L 216.7168 220.274793 
L 216.782933 220.354014 
L 216.9152 218.11811 
L 216.948267 219.382921 
L 216.981333 217.160175 
L 217.0144 217.840951 
L 217.047467 218.180497 
L 217.2128 215.282357 
L 217.278933 213.466748 
L 217.312 214.103372 
L 217.378133 216.900244 
L 217.4112 215.952137 
L 217.543467 213.220216 
L 217.576533 213.302404 
L 217.6096 212.509614 
L 217.642667 213.814728 
L 217.675733 213.460651 
L 217.7088 214.390935 
L 217.741867 212.240093 
L 217.9072 208.015501 
L 217.940267 208.607937 
L 219.0976 126.525752 
L 219.163733 125.710701 
L 219.1968 126.626044 
L 219.229867 126.835718 
L 219.626667 168.19843 
L 220.155733 247.80353 
L 220.4864 271.993747 
L 220.750933 276.221844 
L 220.784 276.152848 
L 220.850133 277.113849 
L 221.313067 250.476212 
L 222.503467 135.966466 
L 223.264 101.208599 
L 223.330133 101.306583 
L 223.3632 100.432794 
L 223.495467 102.174429 
L 223.5616 101.130999 
L 223.594667 102.079599 
L 223.925333 121.96726 
L 224.4544 165.214501 
L 224.752 191.10819 
L 225.380267 229.270435 
L 225.777067 245.997859 
L 225.876267 245.055241 
L 225.9424 245.939278 
L 225.975467 243.885564 
L 226.008533 245.998127 
L 226.0416 245.942827 
L 226.074667 245.880908 
L 226.372267 232.669092 
L 226.405333 232.642527 
L 226.4384 231.907527 
L 226.570667 224.680521 
L 226.603733 224.915728 
L 226.702933 222.815018 
L 227.000533 215.911925 
L 227.0336 216.052916 
L 227.198933 212.013759 
L 227.232 212.807385 
L 227.298133 212.695376 
L 227.3312 214.197772 
L 227.463467 210.206692 
L 227.496533 210.395444 
L 227.5296 208.757199 
L 227.6288 209.000224 
L 227.694933 207.87886 
L 227.728 208.729793 
L 227.761067 209.220639 
L 227.959467 205.017558 
L 227.992533 204.808072 
L 228.389333 193.555818 
L 228.4224 193.588049 
L 228.488533 195.755086 
L 228.5216 194.120058 
L 228.554667 192.514727 
L 228.6208 192.80915 
L 228.686933 193.866716 
L 228.72 193.328706 
L 228.753067 190.674808 
L 228.8192 193.311203 
L 228.885333 194.330135 
L 228.951467 193.782566 
L 228.984533 193.483938 
L 229.0176 194.11916 
L 229.050667 194.274445 
L 229.083733 193.782047 
L 229.1168 194.891469 
L 229.149867 194.329508 
L 229.182933 195.880819 
L 229.249067 194.565073 
L 229.282133 194.368599 
L 229.4144 195.956804 
L 229.447467 195.664173 
L 229.480533 196.288507 
L 229.546667 198.663227 
L 229.579733 196.987431 
L 229.645867 195.281662 
L 229.678933 197.039762 
L 229.712 197.375395 
L 229.745067 196.828122 
L 229.844267 195.911051 
L 229.943467 197.845099 
L 230.0096 196.340508 
L 230.075733 197.195429 
L 230.1088 197.230018 
L 230.174933 195.746289 
L 230.241067 195.779876 
L 230.340267 197.812238 
L 230.373333 197.558183 
L 230.4064 195.896137 
L 230.472533 198.021942 
L 230.5056 197.620907 
L 230.704 202.529824 
L 230.737067 202.314075 
L 230.8032 203.249751 
L 230.869333 203.149011 
L 230.9024 203.037584 
L 230.935467 203.298761 
L 230.968533 203.253299 
L 231.0016 202.68434 
L 231.034667 203.903229 
L 231.233067 207.049265 
L 231.266133 206.684892 
L 231.2992 206.727952 
L 231.332267 205.72665 
L 231.3984 205.982785 
L 231.431467 206.234234 
L 231.464533 205.964095 
L 231.4976 203.874355 
L 231.563733 205.19871 
L 231.696 204.142699 
L 231.7952 205.544762 
L 231.828267 204.749128 
L 231.861333 203.990402 
L 231.927467 204.387229 
L 232.059733 206.808012 
L 232.0928 205.859587 
L 232.125867 206.389532 
L 232.158933 207.227646 
L 232.192 207.174048 
L 232.258133 204.063469 
L 232.357333 204.454515 
L 232.3904 203.847765 
L 232.423467 204.004751 
L 232.456533 205.004899 
L 232.4896 202.528772 
L 232.5888 203.049322 
L 232.654933 205.127684 
L 232.721067 204.669181 
L 232.754133 204.117892 
L 232.7872 204.765746 
L 232.820267 206.262512 
L 232.853333 204.763068 
L 232.9856 203.535614 
L 233.051733 204.992028 
L 233.0848 204.03871 
L 233.150933 204.226325 
L 233.184 203.094552 
L 233.3824 205.803024 
L 233.415467 205.563883 
L 233.4816 205.64923 
L 233.514667 206.018522 
L 233.68 203.01619 
L 233.713067 202.435837 
L 233.7792 202.812097 
L 233.812267 202.956004 
L 233.8784 200.500405 
L 233.911467 200.640782 
L 234.043733 203.835661 
L 234.0768 202.296951 
L 234.176 202.667465 
L 234.308267 201.338391 
L 234.341333 201.506732 
L 234.506667 198.4331 
L 234.672 201.240961 
L 234.804267 198.839349 
L 234.837333 198.882553 
L 234.903467 199.25138 
L 235.035733 197.026946 
L 235.0688 197.448469 
L 235.101867 197.34617 
L 235.234133 198.223124 
L 235.333333 195.723573 
L 235.3664 196.208008 
L 235.399467 196.508282 
L 235.498667 195.467092 
L 235.5648 197.696072 
L 235.597867 197.484608 
L 235.664 194.20323 
L 235.730133 195.104285 
L 235.7632 196.159434 
L 235.829333 195.08151 
L 235.8624 195.970649 
L 236.027733 193.266612 
L 236.0608 195.140344 
L 236.126933 193.142683 
L 236.16 193.394749 
L 236.193067 192.48897 
L 236.226133 194.446492 
L 236.2592 193.171654 
L 236.292267 193.211919 
L 236.325333 193.835021 
L 236.3584 192.614298 
L 236.4576 193.085802 
L 236.589867 191.59417 
L 236.622933 191.751787 
L 236.656 193.520711 
L 236.722133 191.288221 
L 236.821333 193.77056 
L 236.8544 193.44444 
L 237.019733 191.348149 
L 237.085867 190.834026 
L 237.118933 192.163722 
L 237.185067 190.790673 
L 237.2512 190.33909 
L 237.284267 191.609701 
L 237.317333 189.503203 
L 237.3504 189.559935 
L 237.416533 189.129188 
L 237.482667 190.603989 
L 237.614933 189.191127 
L 237.681067 191.296902 
L 237.714133 189.680068 
L 237.780267 189.300733 
L 237.813333 190.75673 
L 237.8464 190.445302 
L 237.978667 187.973961 
L 238.144 189.30661 
L 238.177067 188.756002 
L 238.210133 190.954018 
L 238.276267 188.816399 
L 238.309333 188.708007 
L 238.3424 189.090757 
L 238.375467 188.574641 
L 238.408533 188.803219 
L 238.5408 185.923626 
L 238.673067 187.974084 
L 238.706133 187.457016 
L 238.7392 188.541302 
L 238.772267 188.436525 
L 238.805333 186.046469 
L 238.871467 186.728842 
L 238.904533 187.826887 
L 238.970667 186.439523 
L 239.003733 185.856756 
L 239.0368 187.983578 
L 239.136 187.357988 
L 239.169067 187.625586 
L 239.202133 187.367899 
L 239.2352 187.183656 
L 239.268267 187.89261 
L 239.301333 187.151609 
L 239.3344 186.896698 
L 239.466667 188.554625 
L 239.598933 187.200373 
L 239.698133 187.103347 
L 239.7312 188.046305 
L 239.863467 187.003978 
L 239.896533 186.690328 
L 239.9296 186.927523 
L 240.128 188.363529 
L 240.194133 185.231219 
L 240.260267 186.876205 
L 240.359467 188.271416 
L 240.4256 184.850705 
L 240.491733 187.01429 
L 240.557867 188.19043 
L 240.624 187.937996 
L 240.7232 187.364968 
L 240.756267 187.667744 
L 240.8224 188.456449 
L 240.855467 188.043342 
L 240.888533 187.215216 
L 240.9216 188.420144 
L 240.954667 188.562521 
L 240.987733 189.293828 
L 241.053867 188.545557 
L 241.086933 189.288558 
L 241.153067 188.125645 
L 241.2192 188.190471 
L 241.285333 190.031198 
L 241.3184 189.338602 
L 241.450667 187.909353 
L 241.483733 187.635959 
L 241.5168 189.112024 
L 241.616 188.841848 
L 241.682133 186.543188 
L 241.748267 188.018668 
L 241.8144 187.890165 
L 241.880533 189.62026 
L 241.9136 188.290892 
L 241.979733 189.490557 
L 242.045867 190.247979 
L 242.078933 189.588431 
L 242.112 189.632255 
L 242.2112 191.623108 
L 242.178133 189.569208 
L 242.244267 190.58712 
L 242.277333 189.64493 
L 242.343467 190.243083 
L 242.475733 192.375013 
L 242.541867 191.917599 
L 242.574933 192.284395 
L 242.608 192.268855 
L 242.7072 191.690874 
L 242.773333 191.262643 
L 242.9056 194.308607 
L 242.971733 192.341688 
L 243.037867 192.929307 
L 243.070933 193.793772 
L 243.104 192.93764 
L 243.170133 190.02771 
L 243.2032 191.776311 
L 243.467733 196.221715 
L 243.5008 195.513825 
L 243.566933 195.856764 
L 243.633067 196.474236 
L 243.6992 196.814972 
L 243.765333 195.558967 
L 243.864533 194.860719 
L 244.096 199.27557 
L 244.162133 197.795152 
L 244.1952 198.233839 
L 244.327467 199.592945 
L 244.459733 198.666061 
L 244.4928 198.945168 
L 244.757333 201.70399 
L 244.856533 202.482929 
L 244.823467 201.593476 
L 244.8896 201.958819 
L 244.922667 201.660114 
L 244.955733 202.33999 
L 244.9888 203.19369 
L 245.054933 202.423303 
L 245.088 202.05697 
L 245.121067 202.527098 
L 245.418667 206.035407 
L 245.451733 205.305042 
L 245.4848 205.329779 
L 245.550933 204.128025 
L 245.584 204.850723 
L 245.716267 206.173562 
L 245.749333 205.932013 
L 245.7824 207.465833 
L 245.815467 207.227286 
L 245.848533 205.266966 
L 245.914667 206.552087 
L 245.947733 206.464805 
L 246.046933 208.495059 
L 246.08 206.851651 
L 246.146133 207.729133 
L 246.344533 210.276153 
L 246.410667 208.54474 
L 246.443733 209.497471 
L 246.4768 210.345281 
L 246.542933 209.875564 
L 246.576 209.715764 
L 246.6752 212.212558 
L 246.741333 211.886394 
L 246.7744 211.156471 
L 246.807467 211.830992 
L 246.840533 212.386952 
L 246.906667 212.176408 
L 246.939733 211.975416 
L 246.9728 212.295276 
L 247.105067 214.463452 
L 247.1712 214.381673 
L 247.204267 214.340922 
L 247.237333 213.813445 
L 247.2704 214.791414 
L 247.303467 215.128564 
L 247.336533 214.853893 
L 247.3696 214.207171 
L 247.402667 214.440474 
L 247.568 219.09111 
L 247.601067 217.406939 
L 247.634133 217.439939 
L 247.700267 215.528369 
L 247.799467 215.767474 
L 247.832533 218.040492 
L 247.898667 217.865956 
L 248.064 216.413022 
L 248.2624 220.395273 
L 248.295467 219.773682 
L 248.328533 220.12879 
L 248.3616 220.078129 
L 248.394667 219.392587 
L 248.427733 220.482732 
L 248.4608 219.972108 
L 248.526933 221.219052 
L 248.56 220.204111 
L 248.593067 219.488827 
L 248.626133 220.887069 
L 248.692267 221.735737 
L 248.725333 221.684977 
L 248.7584 220.990788 
L 248.824533 221.761615 
L 248.8576 222.647003 
L 248.923733 222.611282 
L 248.9568 221.431575 
L 249.022933 222.221882 
L 249.056 222.201653 
L 249.188267 221.399508 
L 249.221333 222.404391 
L 249.287467 221.643981 
L 249.320533 221.615752 
L 249.518933 224.245557 
L 249.552 223.362382 
L 249.585067 223.159742 
L 249.6512 223.180593 
L 249.783467 224.450217 
L 249.816533 223.748268 
L 249.8496 223.774491 
L 249.9488 224.955319 
L 249.981867 224.664951 
L 250.014933 224.205917 
L 250.048 225.200036 
L 250.081067 225.319177 
L 250.114133 225.181889 
L 250.1472 225.081035 
L 250.279467 226.332079 
L 250.378667 225.76956 
L 250.544 226.856728 
L 250.577067 226.781123 
L 250.610133 226.810066 
L 250.808533 227.801496 
L 250.8416 227.801253 
L 251.006933 228.278307 
L 251.073067 228.398118 
L 251.304533 229.3479 
L 251.866667 230.858258 
L 251.998933 230.970009 
L 252.7264 232.587951 
L 253.4208 233.846516 
L 253.982933 233.723466 
L 254.346667 232.946179 
L 254.9088 231.694884 
L 255.504 230.172261 
L 255.669333 229.738706 
L 256.066133 228.417826 
L 256.628267 226.731112 
L 257.950933 220.821085 
L 258.744533 216.519522 
L 259.2736 213.635498 
L 261.323733 201.775256 
L 263.076267 190.728464 
L 263.373867 189.989846 
L 264.465067 189.303795 
L 264.928 188.469162 
L 265.291733 188.074476 
L 265.589333 187.715221 
L 265.886933 187.614671 
L 266.151467 187.762273 
L 266.680533 188.458206 
L 267.242667 189.984124 
L 268.333867 193.377051 
L 268.466133 193.670907 
L 269.888 196.535232 
L 270.516267 197.380776 
L 270.6816 197.450082 
L 270.913067 197.606749 
L 271.442133 197.979395 
L 271.706667 198.477821 
L 273.227733 202.908071 
L 273.591467 203.993267 
L 274.352 206.332313 
L 274.881067 208.007759 
L 275.310933 209.13625 
L 275.608533 209.785146 
L 275.806933 210.029939 
L 276.336 210.881493 
L 276.567467 211.159076 
L 276.865067 211.706585 
L 276.964267 211.819462 
L 277.790933 212.62283 
L 277.890133 212.665029 
L 278.154667 212.836984 
L 278.353067 212.91794 
L 278.5184 212.877016 
L 278.782933 212.668087 
L 279.312 212.247965 
L 279.642667 211.853318 
L 280.568533 211.334193 
L 280.833067 211.071473 
L 280.9984 210.905739 
L 281.924267 208.819129 
L 282.3872 207.398026 
L 282.651733 206.72026 
L 283.114667 204.92375 
L 284.404267 198.776989 
L 284.6688 198.252887 
L 285.098667 197.018894 
L 285.495467 195.376471 
L 286.785067 189.576836 
L 287.181867 188.874488 
L 287.214933 188.922875 
L 287.413333 189.569759 
L 287.810133 192.948736 
L 288.372267 200.847576 
L 289.265067 212.801808 
L 289.595733 214.261195 
L 289.694933 214.333407 
L 289.728 214.305038 
L 289.8272 214.151806 
L 290.157867 212.786273 
L 290.9184 209.645633 
L 291.050667 209.706922 
L 291.249067 210.068121 
L 291.745067 212.449708 
L 292.538667 217.284117 
L 292.869333 218.048898 
L 293.067733 218.049708 
L 293.2992 217.218717 
L 293.5968 215.212133 
L 293.927467 212.278901 
L 294.423467 208.388438 
L 294.820267 206.869974 
L 295.3824 205.971617 
L 295.4816 205.874851 
L 296.0768 204.389204 
L 296.5728 201.868418 
L 297.2672 198.608861 
L 297.664 198.135644 
L 297.8624 198.329211 
L 298.226133 198.930152 
L 298.689067 199.482096 
L 298.920533 199.546659 
L 299.0528 199.377363 
L 300.0448 198.247963 
L 300.110933 198.236554 
L 300.144 198.279394 
L 300.276267 198.437247 
L 301.0368 200.553926 
L 301.995733 204.081862 
L 303.153067 205.889982 
L 303.847467 206.11067 
L 304.244267 205.858656 
L 304.4096 205.752578 
L 304.938667 205.112698 
L 305.3024 204.472436 
L 305.633067 203.708698 
L 306.261333 201.703048 
L 308.4768 194.816322 
L 309.9648 192.856805 
L 309.997867 192.894631 
L 310.3616 192.938725 
L 310.6592 193.541132 
L 310.8576 194.24293 
L 311.287467 196.465561 
L 313.073067 206.828163 
L 313.8336 209.837301 
L 314.3296 211.858994 
L 315.189333 214.113377 
L 315.453867 214.432344 
L 315.751467 214.716476 
L 315.9168 214.863946 
L 316.9088 215.37112 
L 317.371733 215.168366 
L 318.496 213.668837 
L 318.628267 213.596883 
L 319.025067 213.542293 
L 319.355733 213.179288 
L 320.48 211.322204 
L 320.8768 211.491006 
L 321.042133 211.787876 
L 322.001067 213.566541 
L 322.232533 213.644234 
L 323.323733 212.192636 
L 323.456 212.11844 
L 323.952 211.564284 
L 324.481067 210.489623 
L 324.6464 209.910649 
L 325.8368 203.056394 
L 327.886933 188.330711 
L 328.382933 186.991136 
L 329.341867 186.017081 
L 329.6064 185.976536 
L 329.8048 185.991588 
L 330.135467 185.943029 
L 330.333867 185.987164 
L 330.4992 185.903794 
L 331.0944 185.647089 
L 331.392 185.428819 
L 331.4912 185.345132 
L 331.656533 185.120998 
L 331.6896 185.136981 
L 332.119467 184.786651 
L 332.317867 184.838871 
L 332.6816 185.030044 
L 332.88 185.235334 
L 333.045333 185.362132 
L 333.243733 185.540893 
L 334.037333 186.050586 
L 334.301867 185.963448 
L 334.4672 186.027656 
L 334.698667 186.056681 
L 334.864 186.113568 
L 335.0624 186.151209 
L 335.426133 186.554049 
L 335.922133 188.360995 
L 337.112533 197.140901 
L 337.476267 200.557564 
L 337.509333 200.53473 
L 337.5424 200.640929 
L 337.707733 202.453227 
L 337.7408 202.4169 
L 337.773867 201.924934 
L 337.806933 202.678883 
L 337.906133 203.479801 
L 337.9392 203.005528 
L 337.972267 202.568844 
L 338.005333 202.986858 
L 338.269867 206.575984 
L 338.369067 206.652586 
L 338.4352 205.516864 
L 338.468267 204.481304 
L 338.5344 205.835179 
L 338.699733 208.610346 
L 338.9312 203.893758 
L 339.096533 206.736191 
L 339.2288 205.267559 
L 339.294933 206.74178 
L 339.361067 206.57448 
L 339.394133 207.279943 
L 339.460267 205.086409 
L 339.5264 205.63247 
L 339.7248 201.335986 
L 339.790933 203.431849 
L 339.857067 202.802818 
L 339.9232 204.119455 
L 340.353067 213.949361 
L 340.386133 213.944409 
L 340.749867 220.955203 
L 340.782933 223.22989 
L 340.882133 222.908416 
L 341.146667 228.613406 
L 341.345067 231.952832 
L 341.378133 230.627911 
L 341.4112 230.070038 
L 341.444267 230.934475 
L 341.774933 239.083422 
L 341.808 238.316853 
L 341.973333 241.519445 
L 342.039467 241.283626 
L 342.171733 238.323598 
L 342.304 235.756584 
L 342.337067 237.385014 
L 342.4032 235.705976 
L 342.5024 233.11544 
L 342.535467 234.337622 
L 342.568533 233.002691 
L 342.634667 233.614699 
L 342.7008 230.833523 
L 342.733867 232.441004 
L 342.8 232.233584 
L 342.932267 229.035141 
L 342.965333 229.257416 
L 342.9984 228.96329 
L 343.064533 226.958872 
L 343.0976 228.726826 
L 343.130667 229.180926 
L 343.262933 225.062661 
L 343.296 225.631443 
L 343.362133 224.259026 
L 343.428267 225.395303 
L 343.626667 227.311095 
L 343.758933 228.820598 
L 343.792 228.512606 
L 343.825067 229.850746 
L 343.8912 228.708157 
L 343.924267 229.274545 
L 343.957333 228.773909 
L 343.9904 227.149293 
L 344.056533 227.972956 
L 344.221867 233.082195 
L 344.288 232.664127 
L 344.354133 232.948872 
L 344.420267 235.455948 
L 344.519467 234.901895 
L 344.6848 232.82945 
L 344.949333 235.827663 
L 344.9824 235.589804 
L 345.114667 233.616323 
L 345.1808 234.052771 
L 345.213867 233.211329 
L 345.246933 234.137379 
L 345.28 234.520994 
L 345.3792 234.726742 
L 345.445333 232.645371 
L 345.4784 234.556499 
L 345.511467 233.45152 
L 345.5776 231.716978 
L 345.610667 233.57522 
L 345.643733 231.928186 
L 345.809067 230.127605 
L 345.842133 229.148905 
L 345.908267 229.969983 
L 345.941333 229.875212 
L 346.007467 229.195057 
L 346.0736 230.413049 
L 346.106667 228.940973 
L 346.139733 226.892196 
L 346.205867 228.171681 
L 346.238933 228.19853 
L 346.272 228.022607 
L 346.404267 225.906524 
L 346.437333 227.202431 
L 346.503467 226.845875 
L 346.5696 225.052409 
L 346.602667 226.11451 
L 346.6688 226.061427 
L 346.734933 228.423692 
L 346.834133 229.626891 
L 346.8672 229.509209 
L 346.933333 227.147751 
L 346.999467 228.428694 
L 347.032533 228.874085 
L 347.0656 228.005597 
L 347.098667 227.646579 
L 347.1648 230.030578 
L 347.230933 229.630818 
L 347.264 230.176378 
L 347.396267 228.211651 
L 347.594667 224.657203 
L 347.4624 228.27987 
L 347.6608 224.781566 
L 347.76 226.637527 
L 347.826133 226.610811 
L 347.8592 228.113679 
L 347.9584 228.094443 
L 348.090667 224.895518 
L 348.123733 225.110149 
L 348.1568 224.44659 
L 348.222933 225.30771 
L 348.289067 224.125261 
L 348.685867 191.289093 
L 348.9504 165.357084 
L 349.016533 163.874354 
L 349.0496 164.936214 
L 349.082667 165.065925 
L 349.413333 182.381533 
L 349.6448 204.512022 
L 349.909333 232.601476 
L 350.173867 243.837013 
L 350.24 248.450787 
L 350.306133 245.527307 
L 350.4384 246.953895 
L 350.471467 246.375533 
L 350.504533 247.380947 
L 350.669867 248.9938 
L 350.8352 253.077275 
L 351.000533 260.400659 
L 351.463467 286.464034 
L 351.496533 286.128922 
L 351.761067 296.171635 
L 351.794133 295.809075 
L 351.8272 296.291662 
L 351.860267 296.399512 
L 352.389333 268.566474 
L 352.72 232.727476 
L 353.976533 82.900799 
L 354.141867 76.470186 
L 354.174933 76.506179 
L 354.208 74.887751 
L 354.241067 75.728539 
L 354.439467 81.458689 
L 354.5056 81.795429 
L 354.670933 84.816916 
L 355.332267 138.491453 
L 356.2912 280.522398 
L 356.456533 285.611581 
L 356.5888 281.478512 
L 356.654933 281.907512 
L 356.688 281.748811 
L 357.448533 226.042065 
L 357.514667 223.9501 
L 357.812267 210.459736 
L 357.911467 210.943956 
L 357.9776 208.151513 
L 358.010667 209.311775 
L 358.0768 209.101827 
L 358.308267 216.705305 
L 358.440533 220.991495 
L 359.234133 261.320539 
L 359.2672 260.656647 
L 359.300267 261.917822 
L 359.333333 262.584068 
L 359.3664 261.283314 
L 359.399467 260.886789 
L 360.0608 208.449066 
L 360.325333 192.35436 
L 360.5568 186.940521 
L 360.589867 187.027471 
L 360.722133 189.447808 
L 361.0528 201.025293 
L 361.085867 201.269146 
L 361.185067 203.440545 
L 361.218133 201.755683 
L 361.2512 204.12878 
L 361.284267 202.958685 
L 361.317333 203.124695 
L 361.3504 204.771431 
L 361.416533 203.599152 
L 361.4496 203.676679 
L 361.515733 201.657408 
L 361.5488 204.177456 
L 361.912533 188.815306 
L 362.5408 125.709281 
L 362.8384 90.285773 
L 363.3344 57.121604 
L 363.367467 58.1367 
L 363.400533 57.738164 
L 363.5328 62.418799 
L 363.565867 62.188825 
L 363.632 65.113468 
L 364.161067 101.312952 
L 364.5248 136.233781 
L 364.590933 139.804096 
L 365.748267 233.025466 
L 366.7072 275.222703 
L 366.740267 273.717926 
L 366.8064 274.885642 
L 366.839467 275.195163 
L 366.872533 274.484213 
L 366.9056 274.580671 
L 366.938667 274.497713 
L 366.971733 272.849128 
L 367.0048 274.216315 
L 367.037867 275.488869 
L 367.104 274.232031 
L 367.335467 268.848418 
L 367.368533 269.584737 
L 367.4016 269.524654 
L 367.5008 267.699998 
L 367.533867 267.883709 
L 367.566933 268.336297 
L 367.6 267.797556 
L 367.633067 266.718446 
L 367.6992 267.533339 
L 367.732267 267.840498 
L 367.765333 267.048295 
L 367.831467 267.968128 
L 367.8976 268.65844 
L 367.930667 267.27496 
L 367.963733 269.303946 
L 367.9968 269.475446 
L 368.062933 267.277442 
L 368.129067 268.356354 
L 368.162133 267.400518 
L 368.1952 268.594882 
L 368.261333 269.051297 
L 369.220267 235.444919 
L 369.418667 227.457162 
L 370.013867 207.077812 
L 370.046933 207.58783 
L 370.08 207.564979 
L 370.113067 208.68411 
L 370.146133 207.409579 
L 370.2784 206.076202 
L 370.311467 206.236899 
L 370.4768 208.541276 
L 370.609067 205.14279 
L 370.642133 205.964019 
L 370.741333 208.34654 
L 370.7744 206.54866 
L 370.840533 208.761369 
L 370.8736 208.17905 
L 371.005867 210.433647 
L 371.038933 210.323641 
L 371.105067 211.797433 
L 371.1712 211.412532 
L 371.237333 209.640829 
L 371.303467 210.618378 
L 371.3696 212.219766 
L 371.435733 213.98561 
L 371.501867 213.139974 
L 371.601067 212.510564 
L 371.700267 214.417876 
L 371.7664 213.752544 
L 371.898667 212.247682 
L 371.931733 213.229721 
L 371.9648 212.246161 
L 372.1632 208.401875 
L 372.196267 208.86641 
L 372.229333 208.526155 
L 372.427733 206.095222 
L 372.493867 204.755625 
L 372.526933 205.33792 
L 372.56 206.254469 
L 372.593067 205.327726 
L 372.824533 202.54209 
L 372.692267 205.432076 
L 372.890667 202.553787 
L 372.923733 203.696971 
L 372.9568 203.415263 
L 372.989867 201.752191 
L 373.022933 203.978891 
L 373.056 203.63057 
L 373.188267 200.979115 
L 373.221333 201.344306 
L 373.2544 202.671099 
L 373.3536 202.284477 
L 373.386667 202.630767 
L 373.419733 201.925949 
L 373.4528 200.642127 
L 373.518933 201.921392 
L 373.585067 200.435997 
L 373.618133 201.990136 
L 373.6512 201.310984 
L 373.717333 204.314819 
L 373.783467 204.174756 
L 373.816533 203.513598 
L 373.8496 204.788273 
L 373.882667 205.345748 
L 373.915733 205.10568 
L 373.981867 204.225021 
L 374.048 204.247586 
L 374.081067 204.376278 
L 374.213333 202.015032 
L 374.3456 198.683633 
L 374.676267 191.441368 
L 374.808533 185.862005 
L 374.8416 187.648646 
L 374.907733 186.654995 
L 375.073067 184.384641 
L 375.271467 180.786071 
L 375.304533 179.396843 
L 375.3376 180.364171 
L 375.370667 181.633542 
L 375.403733 179.450499 
L 375.4368 179.670991 
L 375.469867 180.706088 
L 375.536 180.508605 
L 375.602133 178.304274 
L 375.668267 179.514822 
L 375.8336 176.119589 
L 375.866667 177.003863 
L 375.899733 175.887444 
L 375.9328 176.261052 
L 376.2304 172.856172 
L 376.263467 173.070914 
L 376.395733 175.128945 
L 376.528 173.21696 
L 376.594133 174.763019 
L 376.693333 169.746089 
L 376.759467 169.812472 
L 376.792533 169.982932 
L 376.957867 166.343229 
L 376.858667 170.036949 
L 376.990933 167.621257 
L 377.024 168.030037 
L 377.189333 164.200963 
L 377.2224 167.15164 
L 377.288533 166.260058 
L 377.3216 166.054396 
L 377.354667 166.206427 
L 377.387733 166.463105 
L 377.52 165.099417 
L 377.553067 165.145863 
L 377.586133 166.207508 
L 377.652267 165.184369 
L 377.7184 164.183909 
L 377.784533 164.791719 
L 377.8176 166.468227 
L 377.883733 165.562111 
L 378.082133 162.602394 
L 378.148267 165.620013 
L 378.181333 164.529988 
L 378.2144 163.68388 
L 378.280533 164.560826 
L 378.346667 163.090292 
L 378.379733 163.590392 
L 378.4128 164.394837 
L 378.445867 163.038595 
L 378.478933 163.135387 
L 378.578133 160.762147 
L 378.545067 163.252035 
L 378.644267 161.060546 
L 378.677333 161.578146 
L 378.842667 156.835846 
L 378.875733 157.895129 
L 378.9088 156.707433 
L 378.941867 156.232154 
L 379.041067 158.682934 
L 379.074133 157.154529 
L 379.1072 158.246116 
L 379.140267 159.526992 
L 379.2064 158.144522 
L 379.272533 158.937398 
L 379.338667 156.678819 
L 379.437867 158.540199 
L 379.470933 157.701995 
L 379.504 157.669851 
L 379.537067 158.400156 
L 379.6032 157.429707 
L 379.636267 156.943972 
L 379.735467 158.21145 
L 379.768533 157.976173 
L 379.834667 158.546467 
L 379.867733 157.732663 
L 379.9008 158.625779 
L 380.033067 159.409133 
L 380 158.530545 
L 380.066133 159.390199 
L 380.0992 158.891164 
L 380.165333 159.141273 
L 380.2976 160.819314 
L 380.330667 160.773958 
L 380.363733 160.434752 
L 380.3968 161.184003 
L 380.429867 160.545443 
L 380.529067 163.914934 
L 380.562133 162.879544 
L 380.5952 160.77098 
L 380.661333 162.997225 
L 380.6944 164.583001 
L 380.760533 162.99526 
L 380.7936 163.447813 
L 380.826667 165.99488 
L 380.925867 165.38172 
L 380.992 165.430765 
L 381.025067 164.659846 
L 381.1904 167.52592 
L 381.223467 166.160367 
L 381.2896 167.494595 
L 381.322667 166.868019 
L 381.355733 167.665952 
L 381.3888 167.263054 
L 381.421867 167.322956 
L 381.488 166.625722 
L 381.554133 167.05526 
L 381.653333 164.228266 
L 381.6864 165.057043 
L 381.818667 161.651688 
L 381.984 161.981817 
L 382.017067 162.226872 
L 382.050133 161.834732 
L 382.0832 161.435254 
L 382.116267 162.372353 
L 382.149333 163.064928 
L 382.215467 162.92519 
L 382.2816 161.778448 
L 382.314667 162.68446 
L 382.347733 163.205873 
L 382.413867 163.033928 
L 382.446933 162.997118 
L 382.48 163.082663 
L 382.546133 161.890207 
L 382.645333 164.415708 
L 382.6784 162.740557 
L 382.744533 164.66616 
L 383.042133 171.747499 
L 383.0752 171.368012 
L 383.207467 175.40136 
L 383.240533 174.584489 
L 383.3728 177.862811 
L 383.438933 177.833433 
L 383.6704 180.947404 
L 383.703467 180.456807 
L 383.8688 186.120852 
L 383.901867 185.417592 
L 383.968 186.535768 
L 384.034133 186.401351 
L 384.0672 186.551059 
L 384.100267 185.625943 
L 384.1664 186.773828 
L 384.199467 186.400245 
L 384.232533 186.769242 
L 384.596267 194.133244 
L 384.6624 193.376487 
L 384.695467 193.490728 
L 384.728533 192.917649 
L 384.7616 193.999242 
L 384.893867 196.08969 
L 384.926933 195.576458 
L 384.96 196.3166 
L 385.0592 196.195326 
L 385.092267 197.190387 
L 385.125333 196.591845 
L 385.1584 197.161746 
L 385.2576 197.786865 
L 385.389867 196.151935 
L 385.422933 196.777634 
L 385.522133 199.112342 
L 385.5552 197.155568 
L 385.588267 197.132898 
L 385.621333 197.271126 
L 385.720533 195.540405 
L 385.7536 196.509906 
L 385.819733 196.863006 
L 385.8528 196.835008 
L 385.885867 194.934429 
L 385.952 196.929023 
L 385.985067 195.393875 
L 386.117333 198.707346 
L 386.183467 197.403368 
L 386.2496 198.317169 
L 386.448 201.215917 
L 386.481067 200.250077 
L 386.514133 202.423596 
L 386.5472 202.951398 
L 386.580267 200.886256 
L 386.6464 201.108358 
L 386.679467 201.981016 
L 386.712533 201.711508 
L 386.7456 200.473279 
L 386.8448 200.881056 
L 386.944 203.584327 
L 386.977067 202.935962 
L 387.010133 201.599555 
L 387.0432 203.155056 
L 387.175467 204.606214 
L 387.208533 204.011038 
L 387.2416 205.127158 
L 387.274667 205.254405 
L 387.307733 204.676286 
L 387.3408 205.793956 
L 387.473067 208.688995 
L 387.572267 206.494464 
L 387.605333 207.010862 
L 387.803733 210.184097 
L 387.936 208.679222 
L 387.969067 208.875719 
L 388.068267 210.301968 
L 388.101333 209.93787 
L 388.2336 208.558439 
L 388.3328 210.308907 
L 388.564267 205.203937 
L 388.597333 205.548992 
L 388.7296 202.96075 
L 389.060267 195.587796 
L 389.093333 196.62918 
L 389.1264 196.371374 
L 389.192533 196.570841 
L 389.357867 201.221851 
L 389.424 201.108435 
L 389.457067 201.662756 
L 389.5232 201.253034 
L 389.556267 201.214939 
L 389.6224 200.334659 
L 389.7216 203.360066 
L 389.754667 202.848521 
L 389.787733 202.948895 
L 389.886933 204.983782 
L 389.92 203.748298 
L 390.1184 207.313287 
L 390.151467 207.300396 
L 390.184533 207.24683 
L 390.250667 209.053343 
L 390.283733 209.554597 
L 390.3168 208.196138 
L 390.416 208.34215 
L 390.5152 209.604661 
L 390.581333 209.488733 
L 390.746667 208.151109 
L 390.779733 208.761086 
L 390.8128 208.312684 
L 390.945067 207.534693 
L 390.978133 208.135544 
L 391.044267 207.52211 
L 391.077333 207.664995 
L 391.1104 207.407439 
L 391.3088 206.911875 
L 391.341867 207.222665 
L 391.408 206.958028 
L 391.441067 206.97136 
L 391.837867 210.688403 
L 392.234667 214.201262 
L 392.267733 214.218145 
L 392.3008 214.111864 
L 392.6976 212.362575 
L 392.763733 212.579088 
L 393.888 220.479267 
L 393.921067 220.463873 
L 394.020267 220.373047 
L 394.218667 219.575805 
L 394.5824 217.961685 
L 394.6816 217.927952 
L 394.714667 217.950304 
L 394.846933 217.986277 
L 395.012267 217.753309 
L 395.210667 217.385114 
L 395.2768 217.430197 
L 395.4752 218.664541 
L 395.706667 219.689161 
L 395.838933 218.792912 
L 396.103467 217.040633 
L 396.1696 217.177527 
L 396.334933 218.725172 
L 396.6656 221.45098 
L 396.731733 221.51152 
L 396.7648 221.46492 
L 396.864 221.027801 
L 396.996267 219.61242 
L 397.591467 212.965234 
L 397.822933 211.690964 
L 398.219733 209.322985 
L 398.285867 209.401436 
L 398.418133 210.577253 
L 398.814933 214.768979 
L 398.914133 214.427137 
L 399.079467 212.304451 
L 399.6416 203.200225 
L 399.873067 202.403991 
L 400.1376 201.902469 
L 400.203733 202.004168 
L 400.468267 202.63437 
L 400.501333 202.567868 
L 400.600533 201.881715 
L 400.798933 198.532582 
L 401.261867 190.25376 
L 401.328 190.12402 
L 401.361067 190.148766 
L 401.857067 191.740472 
L 402.0224 191.660055 
L 402.286933 191.124162 
L 402.485333 191.651374 
L 402.683733 192.057787 
L 402.782933 191.840618 
L 403.444267 187.336244 
L 403.543467 187.461327 
L 403.808 188.349551 
L 404.138667 190.514543 
L 404.733867 197.255792 
L 404.9984 197.87514 
L 405.527467 198.326632 
L 406.023467 199.98634 
L 406.651733 201.903139 
L 407.0816 203.955818 
L 407.809067 206.903252 
L 407.9744 208.209064 
L 408.404267 212.433146 
L 408.4704 212.51902 
L 408.536533 212.47255 
L 408.768 212.12424 
L 409.197867 210.832608 
L 409.76 208.03942 
L 409.8592 208.121115 
L 410.1568 208.742425 
L 410.256 208.451674 
L 410.421333 206.937621 
L 410.884267 202.668651 
L 411.016533 202.681815 
L 411.281067 202.879555 
L 411.5456 203.104991 
L 411.6448 203.389501 
L 411.8432 205.119259 
L 412.3392 209.726656 
L 412.8352 212.526714 
L 413.232 214.672912 
L 413.5296 215.797452 
L 414.6208 224.320198 
L 414.753067 226.761308 
L 414.753067 226.761308 
" style="fill:none;stroke:#ff0000;stroke-linecap:square;stroke-width:2;"/>
   </g>
  </g>
 </g>
 <defs>
  <clipPath id="pb937cdbcb6">
   <rect height="266.112" width="357.12" x="57.6" y="41.472"/>
  </clipPath>
 </defs>
</svg>
