<?xml version="1.0" encoding="utf-8" standalone="no"?>
<!DOCTYPE svg PUBLIC "-//W3C//DTD SVG 1.1//EN"
  "http://www.w3.org/Graphics/SVG/1.1/DTD/svg11.dtd">
<!-- Created with matplotlib (https://matplotlib.org/) -->
<svg height="345.6pt" version="1.1" viewBox="0 0 460.8 345.6" width="460.8pt" xmlns="http://www.w3.org/2000/svg" xmlns:xlink="http://www.w3.org/1999/xlink">
 <metadata>
  <rdf:RDF xmlns:cc="http://creativecommons.org/ns#" xmlns:dc="http://purl.org/dc/elements/1.1/" xmlns:rdf="http://www.w3.org/1999/02/22-rdf-syntax-ns#">
   <cc:Work>
    <dc:type rdf:resource="http://purl.org/dc/dcmitype/StillImage"/>
    <dc:date>2021-07-01T14:18:40.065623</dc:date>
    <dc:format>image/svg+xml</dc:format>
    <dc:creator>
     <cc:Agent>
      <dc:title>Matplotlib v3.3.2, https://matplotlib.org/</dc:title>
     </cc:Agent>
    </dc:creator>
   </cc:Work>
  </rdf:RDF>
 </metadata>
 <defs>
  <style type="text/css">*{stroke-linecap:butt;stroke-linejoin:round;}</style>
 </defs>
 <g id="figure_1">
  <g id="patch_1">
   <path d="M 0 345.6 
L 460.8 345.6 
L 460.8 0 
L 0 0 
z
" style="fill:none;"/>
  </g>
  <g id="axes_1">
   <g id="line2d_1">
    <path clip-path="url(#pb4ffc028d1)" d="M 57.566933 171.693246 
L 58.525867 173.774835 
L 59.220267 177.028818 
L 59.650133 180.202347 
L 61.634133 194.183245 
L 62.2624 195.651434 
L 62.593067 195.729334 
L 62.9568 195.336522 
L 63.552 194.280241 
L 63.684267 194.074557 
L 64.014933 193.588002 
L 64.213333 193.262767 
L 66.461867 188.562007 
L 66.990933 187.866094 
L 67.553067 186.603131 
L 67.850667 186.43563 
L 68.082133 186.459592 
L 68.280533 186.405171 
L 68.445867 186.486822 
L 68.677333 186.640102 
L 68.875733 186.799688 
L 69.173333 187.313299 
L 69.3056 187.510006 
L 69.735467 188.565746 
L 69.966933 189.025007 
L 70.0992 189.151426 
L 70.363733 189.449799 
L 70.727467 189.316313 
L 70.958933 189.542575 
L 71.0912 189.62413 
L 71.3888 190.354009 
L 71.752533 191.27026 
L 72.215467 191.227169 
L 72.909867 189.60347 
L 73.0752 189.354444 
L 73.240533 189.271771 
L 73.6704 189.794596 
L 74.397867 193.176845 
L 75.0592 199.902741 
L 76.018133 210.568152 
L 76.315733 212.028797 
L 76.3488 212.019746 
L 76.514133 211.850118 
L 76.679467 211.287166 
L 77.010133 209.011667 
L 77.605333 205.145052 
L 77.770667 204.898893 
L 77.803733 204.930883 
L 77.902933 205.067153 
L 78.1344 206.198821 
L 78.696533 211.195554 
L 79.556267 219.441382 
L 79.92 221.492698 
L 80.3168 222.499802 
L 81.0112 223.514247 
L 81.2096 224.268 
L 81.474133 225.559564 
L 82.069333 228.823279 
L 82.433067 229.937998 
L 83.6896 232.793933 
L 84.251733 234.900042 
L 84.417067 235.291204 
L 84.9792 236.992449 
L 85.872 238.574298 
L 86.136533 238.790773 
L 86.334933 238.877758 
L 87.326933 239.661613 
L 87.5584 239.945577 
L 88.2528 240.162631 
L 88.616533 239.529867 
L 88.914133 238.820139 
L 89.476267 237.800499 
L 89.575467 237.588478 
L 90.2368 235.708438 
L 91.7248 232.253661 
L 92.948267 224.907637 
L 95.428267 206.433499 
L 96.949333 196.376571 
L 97.709867 192.646728 
L 97.776 192.551104 
L 98.3712 190.056492 
L 98.437333 190.40705 
L 98.4704 190.619366 
L 98.503467 190.282667 
L 98.536533 190.439164 
L 98.734933 189.323478 
L 98.768 189.409812 
L 98.834133 189.65179 
L 98.8672 190.725101 
L 98.933333 190.121563 
L 98.9664 190.323242 
L 99.032533 190.211586 
L 99.131733 189.871934 
L 99.1648 190.21478 
L 99.197867 189.491883 
L 99.264 189.516035 
L 99.429333 188.682444 
L 99.4624 189.057065 
L 99.495467 188.697828 
L 99.627733 188.268486 
L 99.693867 188.728655 
L 99.726933 188.15402 
L 99.76 188.153612 
L 99.892267 187.294852 
L 99.9584 187.79705 
L 100.024533 187.443832 
L 100.090667 187.580069 
L 100.123733 187.509755 
L 100.1568 186.439008 
L 100.222933 187.438547 
L 100.322133 188.18212 
L 100.3552 188.167636 
L 100.4544 187.382181 
L 100.487467 187.775122 
L 100.520533 188.435308 
L 100.619733 188.395574 
L 100.6528 187.829408 
L 100.685867 188.484223 
L 100.8512 188.982213 
L 101.016533 190.410065 
L 101.082667 190.151199 
L 101.115733 189.528449 
L 101.181867 190.194538 
L 101.314133 189.1788 
L 101.3472 189.415748 
L 101.380267 189.434497 
L 101.4464 190.69904 
L 101.479467 190.07663 
L 101.512533 189.38258 
L 101.578667 189.845931 
L 101.6448 189.188253 
L 101.744 189.481727 
L 101.876267 190.806193 
L 101.9424 190.452593 
L 101.975467 190.836232 
L 102.107733 191.707953 
L 102.24 190.473702 
L 102.306133 190.642841 
L 102.3392 190.489861 
L 102.4384 189.905367 
L 102.471467 190.208341 
L 102.570667 191.197011 
L 102.6368 190.724867 
L 102.669867 190.704958 
L 102.702933 190.28403 
L 102.736 190.700083 
L 102.8352 191.554452 
L 102.967467 191.065099 
L 103.0336 191.86405 
L 103.066667 191.680863 
L 103.165867 190.70559 
L 103.198933 190.922801 
L 103.265067 191.100844 
L 103.298133 190.622664 
L 103.364267 190.926058 
L 103.397333 191.225325 
L 103.4304 191.014165 
L 103.496533 190.267499 
L 103.5296 190.887924 
L 103.595733 191.953449 
L 103.694933 191.493402 
L 103.794133 191.024502 
L 103.8272 191.247113 
L 103.992533 192.198896 
L 104.0256 191.681944 
L 104.091733 191.903725 
L 104.1248 192.128802 
L 104.157867 191.786998 
L 104.190933 191.757659 
L 104.356267 192.199146 
L 104.389333 191.693092 
L 104.455467 191.982787 
L 104.488533 192.01474 
L 104.5216 191.734277 
L 104.587733 191.772465 
L 104.753067 192.542324 
L 104.852267 191.770541 
L 104.885333 191.833885 
L 104.984533 192.470768 
L 105.0176 192.342025 
L 105.083733 191.879718 
L 105.1168 191.933346 
L 105.216 192.717929 
L 105.249067 192.278375 
L 105.282133 191.684439 
L 105.348267 192.186496 
L 105.4144 191.749398 
L 105.447467 191.919597 
L 105.480533 192.387635 
L 105.546667 192.232807 
L 105.645867 191.868015 
L 105.712 191.615773 
L 105.778133 192.325626 
L 105.8112 192.300625 
L 105.943467 191.449527 
L 106.042667 192.006968 
L 106.208 191.156211 
L 106.274133 191.97678 
L 106.3072 191.501017 
L 106.4064 190.898241 
L 106.472533 191.029272 
L 106.5056 190.998786 
L 106.538667 191.210496 
L 106.571733 190.963794 
L 106.6048 191.014841 
L 106.737067 190.251776 
L 106.8032 190.32326 
L 106.869333 190.787218 
L 106.935467 190.552492 
L 107.067733 190.471759 
L 107.2 189.964562 
L 107.233067 189.989545 
L 107.266133 190.109485 
L 107.2992 189.940369 
L 107.464533 188.85116 
L 107.629867 188.485239 
L 107.662933 188.550127 
L 107.762133 187.867519 
L 107.828267 188.06375 
L 108.125867 187.240563 
L 108.158933 187.36703 
L 108.357333 186.300093 
L 108.3904 186.617116 
L 108.456533 186.248018 
L 108.5888 186.094138 
L 108.688 185.454469 
L 108.721067 185.481271 
L 108.820267 186.192204 
L 108.853333 185.880077 
L 108.8864 185.652861 
L 108.952533 185.922393 
L 108.9856 185.761259 
L 109.018667 186.009615 
L 109.150933 186.532584 
L 109.184 186.38858 
L 109.217067 186.140369 
L 109.2832 186.413986 
L 109.448533 186.463024 
L 110.142933 180.565607 
L 110.308267 181.192137 
L 110.3744 181.022585 
L 110.4736 180.83414 
L 110.506667 180.996156 
L 110.8704 181.824038 
L 111.0688 182.850137 
L 111.432533 181.065947 
L 111.4656 181.420807 
L 111.498667 181.075666 
L 111.630933 180.099955 
L 111.664 180.106447 
L 111.697067 180.099987 
L 111.730133 180.26475 
L 111.7632 180.063979 
L 111.9616 179.714213 
L 112.027733 180.103798 
L 112.093867 179.963461 
L 112.292267 179.576273 
L 112.325333 179.691163 
L 112.490667 179.821046 
L 112.656 179.32296 
L 112.689067 179.418771 
L 112.8544 179.658674 
L 112.887467 179.9431 
L 112.920533 179.498776 
L 112.9536 179.760502 
L 113.152 179.895038 
L 113.218133 179.810102 
L 113.2512 179.980005 
L 113.317333 179.902874 
L 113.515733 179.316546 
L 113.614933 179.176741 
L 113.879467 177.605646 
L 114.0448 177.709292 
L 114.144 177.598126 
L 114.2432 177.349949 
L 114.276267 177.519444 
L 114.309333 177.335969 
L 114.3424 177.089405 
L 114.408533 177.331315 
L 114.474667 177.490695 
L 114.507733 177.47512 
L 114.5408 177.32719 
L 114.573867 177.412161 
L 114.904533 178.61527 
L 114.970667 178.859046 
L 115.202133 179.76166 
L 115.2352 179.706812 
L 115.367467 180.1029 
L 115.400533 180.073383 
L 115.4336 179.962811 
L 115.466667 180.124551 
L 115.499733 180.020222 
L 115.5328 180.074856 
L 115.565867 180.38986 
L 115.665067 180.363861 
L 115.764267 180.781729 
L 115.896533 183.368345 
L 116.260267 186.32123 
L 116.3264 186.445412 
L 116.557867 188.289777 
L 116.590933 188.286639 
L 116.888533 190.501035 
L 117.351467 194.550534 
L 117.384533 194.442119 
L 117.4176 194.580437 
L 117.450667 194.489865 
L 117.5168 194.539242 
L 117.582933 194.786596 
L 117.649067 194.65159 
L 117.682133 194.582323 
L 117.748267 194.807868 
L 117.8144 194.75528 
L 117.880533 195.086572 
L 118.244267 199.376979 
L 118.4096 199.833307 
L 118.5088 199.75696 
L 118.674133 200.127709 
L 118.7072 200.134329 
L 118.938667 201.808935 
L 119.104 202.463832 
L 119.137067 202.456187 
L 119.2032 202.777017 
L 119.269333 202.765187 
L 119.3024 202.794387 
L 119.566933 204.079144 
L 119.6 204.108992 
L 119.7984 205.151483 
L 119.831467 205.027005 
L 119.864533 205.242074 
L 120.261333 207.016341 
L 120.2944 206.746513 
L 120.360533 207.032406 
L 120.3936 206.812369 
L 120.426667 206.767446 
L 120.459733 206.874407 
L 120.625067 207.3813 
L 120.658133 207.370734 
L 120.6912 207.4512 
L 120.724267 207.324103 
L 120.955733 206.948351 
L 121.2864 205.78995 
L 121.319467 205.962902 
L 121.352533 206.0525 
L 121.3856 205.967122 
L 121.4848 206.027023 
L 121.517867 205.699246 
L 121.617067 205.99644 
L 121.749333 205.655019 
L 121.848533 206.496796 
L 121.914667 206.461524 
L 121.947733 206.451488 
L 121.9808 206.764908 
L 122.08 206.690452 
L 122.113067 206.541223 
L 122.1792 206.699949 
L 122.212267 206.619492 
L 122.245333 206.651616 
L 122.344533 206.824913 
L 122.3776 206.748516 
L 122.410667 206.731454 
L 122.443733 206.539452 
L 122.509867 206.687253 
L 122.609067 206.696501 
L 122.642133 206.610139 
L 122.6752 206.782899 
L 122.741333 207.128192 
L 122.807467 207.076701 
L 122.840533 206.784782 
L 122.906667 207.039814 
L 122.9728 206.906849 
L 123.005867 207.000129 
L 123.072 207.231284 
L 123.138133 207.044955 
L 123.303467 206.568025 
L 123.3696 206.753254 
L 123.534933 206.947424 
L 123.568 206.763286 
L 123.634133 206.978916 
L 123.7664 207.453298 
L 123.8656 207.092803 
L 123.898667 207.120985 
L 123.931733 207.146001 
L 123.9648 207.05786 
L 124.064 206.713351 
L 124.1632 206.846859 
L 124.229333 207.324075 
L 124.2624 205.623931 
L 124.328533 206.089751 
L 124.824533 209.568169 
L 125.1552 212.106882 
L 125.188267 212.159889 
L 125.6512 215.779867 
L 126.775467 223.911852 
L 127.073067 226.749203 
L 127.370667 228.752633 
L 127.602133 229.747311 
L 127.668267 229.832482 
L 127.965867 231.948514 
L 127.998933 231.699662 
L 128.032 231.902934 
L 128.164267 232.505793 
L 128.197333 232.172533 
L 128.296533 232.187509 
L 128.362667 232.583501 
L 128.395733 232.317476 
L 128.4288 232.165471 
L 128.461867 232.2574 
L 128.561067 232.928834 
L 128.594133 232.705595 
L 128.6272 232.633221 
L 128.891733 233.996508 
L 128.957867 234.170994 
L 129.057067 234.085638 
L 129.090133 233.943414 
L 129.1232 234.323278 
L 129.189333 234.196319 
L 129.2224 234.14077 
L 129.255467 233.855899 
L 129.3216 234.220974 
L 129.52 233.70423 
L 129.652267 233.191039 
L 129.784533 233.575572 
L 129.982933 232.491993 
L 130.016 232.529066 
L 130.3136 231.374383 
L 130.346667 231.705931 
L 130.379733 231.435524 
L 130.8096 229.067111 
L 130.842667 229.369464 
L 130.9088 229.265756 
L 131.2064 227.533055 
L 131.272533 227.742725 
L 131.504 226.315977 
L 131.8016 224.950493 
L 131.834667 225.031819 
L 131.9008 225.187406 
L 132 224.516548 
L 132.033067 224.631059 
L 132.1984 223.867063 
L 132.264533 224.090033 
L 132.2976 223.987376 
L 132.826667 220.050084 
L 132.8928 219.769373 
L 132.992 219.04456 
L 133.025067 219.20062 
L 133.058133 219.204031 
L 133.2896 217.109997 
L 133.322667 217.38684 
L 133.355733 216.969339 
L 133.521067 216.25303 
L 133.5872 216.397729 
L 133.818667 214.475375 
L 133.851733 214.838839 
L 133.8848 214.481631 
L 134.017067 213.460083 
L 134.050133 213.52052 
L 134.116267 213.956632 
L 134.1824 213.836259 
L 134.413867 212.002528 
L 134.446933 212.310803 
L 134.48 211.973937 
L 134.513067 212.138705 
L 134.546133 212.063655 
L 134.7776 209.68006 
L 134.843733 209.573738 
L 134.909867 209.847793 
L 134.942933 209.821796 
L 134.976 209.988622 
L 135.141333 208.265859 
L 135.1744 208.315417 
L 135.438933 207.107126 
L 135.240533 208.348958 
L 135.505067 207.227635 
L 135.6704 206.092866 
L 135.901867 204.439437 
L 135.934933 204.623295 
L 136.0672 205.000762 
L 136.232533 203.225195 
L 136.298667 202.958091 
L 136.3648 202.707758 
L 136.397867 203.522267 
L 136.530133 202.249271 
L 136.5632 202.44641 
L 136.596267 202.001487 
L 136.695467 201.281081 
L 136.728533 201.406028 
L 136.7616 201.589987 
L 136.794667 201.157295 
L 136.827733 201.130267 
L 136.893867 200.475352 
L 136.926933 200.593342 
L 136.96 201.265896 
L 137.026133 200.606804 
L 137.0592 200.818278 
L 137.092267 200.75331 
L 137.191467 199.701003 
L 137.224533 199.790857 
L 137.290667 199.798921 
L 137.489067 198.478539 
L 137.522133 198.62052 
L 137.588267 197.569287 
L 137.621333 198.223603 
L 137.6544 198.364449 
L 137.687467 198.26464 
L 137.819733 197.231918 
L 137.8528 197.539364 
L 137.918933 197.901442 
L 137.952 197.611366 
L 138.018133 196.710049 
L 138.084267 197.054044 
L 138.1504 198.061561 
L 138.216533 197.877355 
L 138.481067 196.287279 
L 138.514133 196.749605 
L 138.5472 196.297306 
L 138.580267 196.063124 
L 138.6464 196.284852 
L 138.7456 197.574024 
L 138.811733 197.122506 
L 138.977067 195.189297 
L 139.010133 194.905831 
L 139.0432 195.280805 
L 139.175467 196.129866 
L 139.2416 195.003409 
L 139.3408 195.386614 
L 139.373867 195.548842 
L 139.406933 194.775862 
L 139.506133 194.848874 
L 139.605333 195.193475 
L 139.6384 194.90401 
L 139.671467 194.327457 
L 139.770667 194.450829 
L 139.803733 195.162794 
L 139.869867 194.371881 
L 139.902933 194.438938 
L 139.936 194.25637 
L 140.002133 194.282365 
L 140.0352 194.534903 
L 140.101333 194.197716 
L 140.1344 194.487914 
L 140.167467 194.012902 
L 140.200533 194.303061 
L 140.2336 194.687233 
L 140.266667 193.901123 
L 140.3328 193.906123 
L 140.432 194.86863 
L 140.465067 194.253325 
L 140.498133 194.215355 
L 140.663467 194.70423 
L 140.795733 193.911595 
L 140.8288 194.276917 
L 140.861867 194.338955 
L 140.894933 194.204957 
L 140.928 194.185883 
L 141.060267 193.710781 
L 141.1264 193.961875 
L 141.291733 195.635463 
L 141.3248 195.543523 
L 141.424 194.474262 
L 141.457067 195.22688 
L 141.556267 193.820919 
L 141.6224 194.619531 
L 141.7216 195.150514 
L 141.754667 194.884206 
L 141.853867 195.020653 
L 141.886933 194.330895 
L 142.085333 195.305712 
L 142.151467 194.638005 
L 142.184533 195.692137 
L 142.250667 194.984235 
L 142.3168 194.845062 
L 142.416 195.35981 
L 142.449067 194.671597 
L 142.548267 194.877949 
L 142.581333 195.267155 
L 142.680533 195.229771 
L 142.779733 195.272305 
L 142.8128 194.87952 
L 142.845867 195.00338 
L 142.878933 194.953818 
L 142.912 194.430366 
L 142.978133 194.965577 
L 143.0112 194.987922 
L 143.077333 194.392609 
L 143.143467 194.520857 
L 143.176533 194.044095 
L 143.242667 195.348644 
L 143.3088 194.680739 
L 143.374933 194.88173 
L 143.441067 194.714121 
L 143.474133 194.530545 
L 143.5072 195.113461 
L 143.573333 194.865794 
L 143.6064 194.521643 
L 143.672533 194.717098 
L 143.771733 195.219077 
L 143.8048 195.207162 
L 143.870933 194.90048 
L 143.904 195.250208 
L 143.937067 195.169721 
L 144.069333 195.378694 
L 144.1024 194.161376 
L 144.168533 194.932751 
L 144.234667 194.106147 
L 144.267733 194.89173 
L 144.3008 194.926932 
L 144.4 195.570482 
L 144.433067 194.992512 
L 144.532267 195.036391 
L 144.664533 196.081404 
L 144.730667 195.45571 
L 144.862933 196.668387 
L 145.028267 195.61169 
L 145.061333 195.518649 
L 145.0944 195.744418 
L 145.1936 196.722764 
L 145.226667 196.294791 
L 145.259733 196.036221 
L 145.2928 196.259119 
L 145.325867 196.568246 
L 145.358933 195.486393 
L 145.425067 196.365756 
L 145.458133 196.525861 
L 145.4912 195.979934 
L 145.557333 196.174743 
L 145.623467 197.114774 
L 145.656533 197.012793 
L 145.6896 196.012182 
L 145.7888 196.089227 
L 145.954133 196.956754 
L 145.9872 196.845042 
L 146.020267 197.479741 
L 146.053333 196.59323 
L 146.0864 196.595999 
L 146.251733 197.946221 
L 146.2848 197.821432 
L 146.317867 197.87335 
L 146.350933 197.76118 
L 146.516267 196.733692 
L 146.549333 197.098025 
L 146.6816 198.167882 
L 146.747733 197.213832 
L 146.7808 197.685937 
L 146.846933 198.418762 
L 146.88 198.196922 
L 146.913067 197.157696 
L 146.9792 198.421556 
L 147.144533 196.864244 
L 147.210667 197.54526 
L 147.376 199.242273 
L 147.409067 199.262617 
L 147.442133 199.160329 
L 147.541333 198.766117 
L 147.5744 198.890471 
L 147.607467 198.859558 
L 147.6736 199.436441 
L 147.739733 199.263657 
L 147.7728 199.295443 
L 147.905067 198.163262 
L 148.037333 200.194363 
L 148.0704 200.052476 
L 148.136533 200.378458 
L 148.235733 201.623214 
L 148.2688 200.944918 
L 148.334933 201.022843 
L 148.368 200.667318 
L 148.401067 201.104914 
L 148.434133 200.73555 
L 148.533333 199.916368 
L 148.599467 200.832684 
L 148.632533 199.742575 
L 148.830933 201.165602 
L 148.930133 201.969414 
L 148.9632 200.546373 
L 149.0624 200.715417 
L 149.128533 202.258282 
L 149.194667 201.602126 
L 149.227733 201.503594 
L 149.2608 201.632849 
L 149.326933 202.668359 
L 149.36 202.588934 
L 149.393067 201.417736 
L 149.4592 202.746055 
L 149.492267 202.352069 
L 149.525333 202.837226 
L 149.5584 203.257195 
L 149.624533 202.853958 
L 149.7568 200.76365 
L 149.856 202.942945 
L 149.922133 202.622252 
L 150.0544 201.541725 
L 150.087467 201.807472 
L 150.1536 203.140801 
L 150.219733 202.377636 
L 150.2528 202.168459 
L 150.285867 202.773339 
L 150.318933 202.623365 
L 150.4512 200.317405 
L 150.484267 201.140986 
L 150.517333 202.206077 
L 150.583467 201.793859 
L 150.616533 200.601225 
L 150.715733 201.031677 
L 150.781867 202.36991 
L 150.848 201.484766 
L 150.914133 202.704819 
L 151.013333 203.871606 
L 151.0464 203.440571 
L 151.079467 203.399169 
L 151.211733 204.092978 
L 151.344 203.558737 
L 151.4432 203.935181 
L 151.509333 204.77904 
L 151.575467 204.550759 
L 151.608533 204.491481 
L 151.707733 204.866619 
L 151.7408 204.608118 
L 151.773867 204.529526 
L 151.873067 205.108438 
L 151.9392 205.096958 
L 151.972267 204.911638 
L 152.005333 205.057016 
L 152.170667 205.346593 
L 152.302933 205.277161 
L 152.336 205.363228 
L 153.063467 206.038447 
L 153.592533 206.192355 
L 154.0224 206.285846 
L 154.6176 205.981692 
L 154.948267 206.075744 
L 155.080533 206.051089 
L 155.808 205.753867 
L 156.304 205.133398 
L 156.436267 205.084614 
L 156.833067 204.701397 
L 157.031467 204.691081 
L 157.296 204.640719 
L 157.461333 204.686473 
L 158.0896 205.074348 
L 158.1888 204.966456 
L 158.420267 204.919979 
L 158.618667 204.968051 
L 159.015467 204.540006 
L 159.0816 204.498687 
L 159.28 204.334516 
L 159.742933 203.99904 
L 160.1728 203.58302 
L 161.032533 201.204777 
L 165.496533 184.909668 
L 166.1248 184.253598 
L 166.190933 184.160435 
L 166.455467 183.865644 
L 166.885333 183.563568 
L 166.984533 183.523661 
L 167.249067 183.41222 
L 167.645867 183.429872 
L 168.737067 185.7806 
L 169.1008 187.065197 
L 169.464533 188.142961 
L 169.8944 189.606924 
L 170.688 193.409453 
L 172.738133 204.141852 
L 175.515733 220.472998 
L 176.210133 222.888233 
L 176.8384 224.717589 
L 177.632 225.947746 
L 177.764267 225.948249 
L 177.995733 225.972708 
L 178.293333 225.969744 
L 178.458667 225.878152 
L 178.888533 226.126245 
L 178.954667 226.058432 
L 178.987733 226.123027 
L 179.582933 226.447149 
L 179.748267 226.343747 
L 179.9136 226.293526 
L 180.7072 225.827669 
L 181.765333 224.009534 
L 183.418667 218.844243 
L 184.08 216.492323 
L 184.245333 215.930275 
L 185.568 210.473068 
L 186.427733 205.617733 
L 187.287467 201.471159 
L 187.816533 199.401495 
L 189.205333 194.663201 
L 189.536 194.353961 
L 189.767467 194.32839 
L 189.899733 194.370317 
L 189.998933 194.410362 
L 190.990933 195.354445 
L 191.354667 195.398087 
L 191.784533 195.874333 
L 193.735467 202.987137 
L 194.429867 203.982068 
L 194.462933 203.938637 
L 194.529067 204.010916 
L 195.025067 204.058333 
L 195.620267 203.406944 
L 195.719467 203.316585 
L 196.413867 202.244443 
L 197.3728 197.77213 
L 198.96 190.259453 
L 199.456 189.322078 
L 199.6544 189.22058 
L 200.018133 189.116728 
L 200.1504 189.116383 
L 200.2496 189.148778 
L 200.448 189.300652 
L 201.175467 191.65491 
L 201.704533 195.155213 
L 202.564267 204.07858 
L 203.357867 212.102066 
L 204.382933 219.154557 
L 205.242667 222.916181 
L 205.408 223.203842 
L 205.573333 223.343412 
L 205.6064 223.312178 
L 205.7056 223.177269 
L 205.937067 222.536943 
L 206.664533 218.766912 
L 207.4912 214.770629 
L 207.954133 213.591046 
L 208.7808 212.440084 
L 208.88 212.335702 
L 209.012267 211.591456 
L 210.1696 211.492193 
L 211.426133 212.120403 
L 211.4592 212.010032 
L 211.492267 211.878171 
L 211.525333 212.018854 
L 211.5584 212.151733 
L 211.624533 212.03453 
L 211.6576 211.937527 
L 211.723733 212.074081 
L 211.822933 212.095606 
L 211.856 212.121635 
L 211.889067 211.913765 
L 211.9552 212.1494 
L 211.988267 212.099444 
L 212.021333 212.325226 
L 212.087467 212.196325 
L 212.186667 211.939733 
L 212.219733 211.959974 
L 212.385067 212.660801 
L 212.418133 212.593811 
L 212.4512 212.911564 
L 212.517333 212.502754 
L 212.5504 212.5073 
L 212.682667 212.711534 
L 212.848 212.358598 
L 212.980267 212.841523 
L 213.013333 212.827645 
L 213.079467 212.87776 
L 213.112533 212.730375 
L 213.310933 213.246095 
L 213.509333 212.826059 
L 213.5424 213.081116 
L 213.608533 212.975552 
L 213.773867 212.606454 
L 213.806933 212.646934 
L 213.906133 212.98653 
L 213.9392 212.949389 
L 213.972267 212.944543 
L 214.0384 213.28821 
L 214.170667 212.559225 
L 214.2368 212.849267 
L 214.302933 212.660959 
L 214.369067 212.411591 
L 214.402133 212.608898 
L 214.666667 212.044144 
L 214.765867 212.206479 
L 214.798933 212.214504 
L 214.964267 211.529826 
L 215.096533 211.628696 
L 215.559467 210.636844 
L 215.691733 210.250375 
L 215.757867 210.439356 
L 215.790933 210.384411 
L 215.857067 210.237387 
L 215.9232 210.304597 
L 215.956267 210.282661 
L 216.154667 209.704858 
L 216.187733 209.700438 
L 216.353067 209.168567 
L 216.4192 209.142819 
L 216.6176 208.399294 
L 216.650667 208.523064 
L 216.816 207.851012 
L 216.849067 207.916048 
L 216.882133 207.849159 
L 217.080533 207.014509 
L 217.179733 206.764422 
L 217.543467 205.176062 
L 217.741867 204.828518 
L 217.9072 204.360115 
L 217.940267 204.439437 
L 218.138667 203.707977 
L 218.237867 203.297682 
L 218.8 200.684162 
L 218.833067 200.692755 
L 219.163733 198.383081 
L 219.4944 197.542003 
L 219.560533 197.816661 
L 219.5936 197.7265 
L 219.626667 197.491183 
L 219.6928 197.585916 
L 219.725867 197.692629 
L 219.792 197.608155 
L 219.957333 197.273483 
L 220.023467 197.41612 
L 220.056533 197.384541 
L 220.552533 195.703069 
L 220.5856 195.783697 
L 220.784 195.00567 
L 220.850133 194.981924 
L 221.114667 194.030239 
L 221.147733 194.11523 
L 221.1808 194.013295 
L 221.346133 193.268908 
L 221.4784 192.737518 
L 221.511467 192.884695 
L 221.544533 192.969086 
L 221.5776 192.836704 
L 222.0736 191.259404 
L 222.106667 191.382436 
L 222.139733 191.623124 
L 222.1728 191.469647 
L 222.338133 191.038361 
L 222.3712 191.049149 
L 222.404267 191.19555 
L 222.437333 191.078315 
L 222.602667 190.610772 
L 222.734933 190.714316 
L 222.8672 190.479571 
L 222.933333 190.597682 
L 222.999467 190.540997 
L 223.230933 190.339369 
L 223.3632 190.280229 
L 223.495467 190.499504 
L 223.5616 190.274272 
L 223.594667 190.322632 
L 223.726933 190.628919 
L 223.76 190.48943 
L 223.793067 190.775369 
L 224.0576 191.767134 
L 224.090667 191.647033 
L 224.222933 191.717423 
L 224.685867 193.608476 
L 224.785067 193.682703 
L 225.0496 194.183566 
L 225.115733 194.213814 
L 225.3472 195.298298 
L 225.380267 195.284623 
L 225.777067 196.982216 
L 225.810133 196.944171 
L 225.9424 198.954676 
L 225.975467 198.701646 
L 226.008533 199.166348 
L 226.074667 199.434049 
L 226.1408 199.337845 
L 226.306133 198.910856 
L 226.372267 198.982982 
L 226.4384 199.304681 
L 226.471467 198.861468 
L 226.5376 199.241822 
L 226.570667 199.050222 
L 226.603733 199.332769 
L 226.8352 199.958897 
L 227.232 200.819371 
L 227.3312 201.475202 
L 227.397333 201.274703 
L 227.562667 201.407215 
L 227.761067 202.329362 
L 227.794133 202.226835 
L 227.8272 202.187505 
L 227.992533 202.55605 
L 228.058667 202.353177 
L 228.157867 201.9563 
L 228.190933 202.051784 
L 228.224 202.210186 
L 228.257067 201.959398 
L 228.290133 202.047412 
L 228.389333 201.895518 
L 228.686933 202.705611 
L 228.72 202.642273 
L 228.753067 202.1437 
L 228.8192 202.752123 
L 228.885333 203.016965 
L 228.951467 202.937426 
L 228.984533 202.88878 
L 229.1168 203.201512 
L 229.149867 203.103035 
L 229.182933 203.451076 
L 229.249067 203.147238 
L 229.282133 203.074963 
L 229.4144 203.462279 
L 229.447467 203.406615 
L 229.546667 204.122593 
L 229.579733 203.744754 
L 229.645867 203.347364 
L 229.678933 203.780504 
L 229.712 203.866774 
L 229.745067 203.716188 
L 229.844267 203.508797 
L 229.943467 203.9938 
L 230.0096 203.637169 
L 230.042667 204.013092 
L 230.075733 203.838359 
L 230.1088 203.839151 
L 230.241067 203.403073 
L 230.340267 203.83299 
L 230.373333 203.749157 
L 230.4064 203.28247 
L 230.472533 203.715111 
L 230.5056 203.5685 
L 230.571733 203.512613 
L 230.704 204.521687 
L 230.770133 204.54763 
L 230.836267 204.41725 
L 230.968533 204.259096 
L 231.0016 204.069727 
L 231.034667 204.369364 
L 231.233067 205.110624 
L 231.266133 204.974678 
L 231.2992 204.978686 
L 231.332267 204.666431 
L 231.3984 204.736239 
L 231.431467 204.79181 
L 231.464533 204.717345 
L 231.4976 204.089304 
L 231.563733 204.461007 
L 231.696 204.134767 
L 231.7952 204.536303 
L 231.828267 204.303402 
L 231.861333 204.06842 
L 231.927467 204.154452 
L 232.059733 204.860099 
L 232.0928 204.554449 
L 232.125867 204.724092 
L 232.158933 204.980363 
L 232.192 204.943235 
L 232.258133 203.946204 
L 232.357333 204.02219 
L 232.3904 203.834506 
L 232.423467 203.87103 
L 232.456533 204.189474 
L 232.4896 203.372939 
L 232.5888 203.508519 
L 232.654933 204.137689 
L 232.721067 203.950324 
L 232.754133 203.75091 
L 232.7872 203.959715 
L 232.820267 204.422248 
L 232.853333 203.902298 
L 232.9856 203.352217 
L 233.051733 203.749522 
L 233.0848 203.387235 
L 233.184 202.952116 
L 233.250133 203.197006 
L 233.349333 203.703362 
L 233.3824 203.651267 
L 233.4816 203.523441 
L 233.514667 203.613816 
L 233.68 202.373351 
L 233.713067 202.130804 
L 233.7792 202.197755 
L 233.812267 202.235251 
L 233.8784 201.277474 
L 233.911467 201.291429 
L 234.043733 202.403958 
L 234.142933 201.744952 
L 234.176 201.855492 
L 234.407467 200.388635 
L 234.440533 200.426527 
L 234.506667 199.372236 
L 234.539733 199.817847 
L 234.605867 199.752967 
L 234.672 200.446253 
L 234.837333 199.343564 
L 234.8704 199.463983 
L 234.903467 199.453709 
L 235.035733 198.366355 
L 235.0688 198.515759 
L 235.101867 198.437256 
L 235.134933 198.778293 
L 235.234133 198.704612 
L 235.333333 197.438918 
L 235.3664 197.623841 
L 235.399467 197.728817 
L 235.498667 197.154994 
L 235.5648 198.107269 
L 235.597867 197.960976 
L 235.664 196.318077 
L 235.730133 196.697031 
L 235.7632 197.160177 
L 235.829333 196.572846 
L 235.8624 196.961963 
L 235.928533 196.623134 
L 236.027733 195.475408 
L 236.0608 196.345095 
L 236.126933 195.301837 
L 236.16 195.378539 
L 236.193067 194.861684 
L 236.226133 195.787392 
L 236.2592 195.122323 
L 236.292267 195.112849 
L 236.325333 195.377423 
L 236.3584 194.696882 
L 236.4576 194.813168 
L 236.589867 193.860896 
L 236.622933 193.899712 
L 236.656 194.761585 
L 236.689067 194.515289 
L 236.722133 193.521095 
L 236.788267 193.854139 
L 236.821333 194.66294 
L 236.887467 193.88186 
L 237.085867 192.792208 
L 237.118933 193.44869 
L 237.185067 192.647847 
L 237.2512 192.327523 
L 237.284267 192.985104 
L 237.317333 191.80724 
L 237.3504 191.800682 
L 237.416533 191.487911 
L 237.482667 192.220481 
L 237.614933 191.319381 
L 237.681067 192.399248 
L 237.714133 191.471005 
L 237.780267 191.164624 
L 237.813333 191.954715 
L 237.8464 191.73789 
L 237.978667 190.224387 
L 238.077867 190.744407 
L 238.110933 190.521656 
L 238.210133 191.746283 
L 238.177067 190.493244 
L 238.2432 191.658373 
L 238.375467 190.251072 
L 238.408533 190.348237 
L 238.5408 188.560269 
L 238.673067 189.646476 
L 238.706133 189.309679 
L 238.7392 189.940656 
L 238.772267 189.83655 
L 238.805333 188.393824 
L 238.871467 188.725165 
L 238.904533 189.350836 
L 238.9376 189.069296 
L 239.003733 188.059283 
L 239.0368 189.3228 
L 239.102933 188.96996 
L 239.2352 188.635296 
L 239.268267 189.047044 
L 239.301333 188.537971 
L 239.3344 188.35638 
L 239.466667 189.298148 
L 239.598933 188.33661 
L 239.698133 188.227344 
L 239.7312 188.84616 
L 239.863467 188.127929 
L 239.896533 187.922926 
L 239.9296 188.054881 
L 240.128 188.977433 
L 240.194133 186.895247 
L 240.260267 187.967454 
L 240.359467 188.86496 
L 240.4256 186.563269 
L 240.491733 187.983273 
L 240.557867 188.774919 
L 240.624 188.582066 
L 240.7232 188.179539 
L 240.756267 188.37624 
L 240.8224 188.917309 
L 240.855467 188.611635 
L 240.888533 188.034832 
L 240.9216 188.887186 
L 240.954667 188.981943 
L 241.053867 188.971108 
L 241.086933 189.495114 
L 241.153067 188.715558 
L 241.2192 188.767857 
L 241.285333 190.128911 
L 241.3184 189.668673 
L 241.450667 188.739591 
L 241.483733 188.562165 
L 241.5168 189.636339 
L 241.616 189.487412 
L 241.682133 187.887323 
L 241.748267 188.963757 
L 241.8144 188.901711 
L 241.880533 190.192539 
L 241.9136 189.234389 
L 241.979733 190.107948 
L 242.045867 190.661887 
L 242.078933 190.188454 
L 242.112 190.235323 
L 242.2112 191.702219 
L 242.178133 190.18717 
L 242.244267 190.947837 
L 242.277333 190.253556 
L 242.3104 190.956139 
L 242.343467 190.72462 
L 242.475733 192.333732 
L 242.5088 192.170866 
L 242.541867 192.040733 
L 242.574933 192.348718 
L 242.608 192.350326 
L 242.674133 192.372279 
L 242.7072 192.017915 
L 242.773333 191.600737 
L 242.9056 194.094264 
L 242.971733 192.580362 
L 243.037867 193.09655 
L 243.070933 193.799414 
L 243.104 193.129905 
L 243.170133 190.863358 
L 243.2032 192.278688 
L 243.467733 195.947188 
L 243.5008 195.402138 
L 243.566933 195.712063 
L 243.6992 196.547114 
L 243.666133 195.654353 
L 243.732267 196.445222 
L 243.864533 194.996444 
L 244.096 198.719846 
L 244.162133 197.553984 
L 244.1952 197.921498 
L 244.327467 199.112523 
L 244.459733 198.454788 
L 244.4928 198.717546 
L 244.7904 201.446267 
L 244.823467 201.16004 
L 244.9888 202.632108 
L 245.088 201.747201 
L 245.121067 202.168197 
L 245.418667 205.384365 
L 245.451733 204.79685 
L 245.4848 204.854941 
L 245.550933 203.886306 
L 245.584 204.537967 
L 245.716267 205.803418 
L 245.749333 205.635773 
L 245.7824 206.988742 
L 245.815467 206.804743 
L 245.848533 205.118506 
L 245.914667 206.279381 
L 245.947733 206.226704 
L 246.046933 208.105784 
L 246.08 206.708077 
L 246.146133 207.54219 
L 246.344533 209.950764 
L 246.410667 208.471153 
L 246.443733 209.322019 
L 246.4768 210.098485 
L 246.542933 209.727102 
L 246.576 209.59846 
L 246.6752 211.879589 
L 246.741333 211.651914 
L 246.7744 210.998928 
L 246.807467 211.623622 
L 246.840533 212.156525 
L 246.906667 211.999484 
L 246.939733 211.835551 
L 246.9728 212.155645 
L 247.105067 214.17999 
L 247.1712 214.125235 
L 247.204267 214.109734 
L 247.237333 213.64407 
L 247.2704 214.554283 
L 247.303467 214.874942 
L 247.336533 214.653318 
L 247.3696 214.093324 
L 247.402667 214.331664 
L 247.568 218.670402 
L 247.601067 217.167151 
L 247.634133 217.208322 
L 247.700267 215.512328 
L 247.799467 215.786807 
L 247.832533 217.884075 
L 247.898667 217.780027 
L 248.064 216.526492 
L 248.2624 220.264779 
L 248.295467 219.715836 
L 248.328533 220.055267 
L 248.3616 220.015828 
L 248.394667 219.393672 
L 248.427733 220.42181 
L 248.4608 219.957364 
L 248.526933 221.123298 
L 248.56 220.193051 
L 248.593067 219.532816 
L 248.626133 220.840562 
L 248.692267 221.667939 
L 248.725333 221.620193 
L 248.7584 221.00053 
L 248.824533 221.756392 
L 248.890667 222.609401 
L 248.923733 222.593289 
L 248.9568 221.514253 
L 249.022933 222.28485 
L 249.056 222.27481 
L 249.188267 221.582176 
L 249.221333 222.541426 
L 249.287467 221.858283 
L 249.320533 221.831568 
L 249.518933 224.347095 
L 249.552 223.512353 
L 249.585067 223.323877 
L 249.6512 223.352127 
L 249.783467 224.555122 
L 249.816533 223.896074 
L 249.8496 223.908145 
L 249.9488 225.008127 
L 249.981867 224.730344 
L 250.014933 224.279874 
L 250.048 225.219651 
L 250.081067 225.326474 
L 250.114133 225.178039 
L 250.1472 225.07466 
L 250.279467 226.229088 
L 250.378667 225.67145 
L 250.544 226.653722 
L 250.610133 226.562918 
L 250.808533 227.41901 
L 250.8416 227.409529 
L 251.006933 227.840633 
L 251.073067 227.930063 
L 251.370667 229.403096 
L 251.6352 229.995836 
L 252.693333 232.351813 
L 252.858667 232.728361 
L 253.156267 233.421611 
L 253.486933 233.781801 
L 253.652267 233.794287 
L 253.784533 233.824668 
L 254.016 233.584734 
L 254.346667 232.956108 
L 254.7104 232.128198 
L 256 228.700411 
L 256.363733 227.65093 
L 256.958933 225.515571 
L 258.215467 219.546516 
L 261.125333 203.153592 
L 262.381867 194.410858 
L 263.076267 190.728464 
L 263.373867 189.989846 
L 264.465067 189.303795 
L 264.928 188.469162 
L 265.291733 188.074476 
L 265.589333 187.715221 
L 265.886933 187.614671 
L 266.151467 187.762273 
L 266.680533 188.458206 
L 267.242667 189.984124 
L 268.333867 193.377051 
L 268.466133 193.670907 
L 269.888 196.535232 
L 270.516267 197.380776 
L 270.6816 197.450082 
L 270.913067 197.606749 
L 271.442133 197.979395 
L 271.706667 198.477821 
L 273.227733 202.908071 
L 273.591467 203.993267 
L 274.352 206.332313 
L 274.881067 208.007759 
L 275.310933 209.13625 
L 275.608533 209.785146 
L 275.806933 210.029939 
L 276.336 210.881493 
L 276.567467 211.159076 
L 276.865067 211.706585 
L 276.964267 211.819462 
L 277.790933 212.62283 
L 277.890133 212.665029 
L 278.154667 212.836984 
L 278.353067 212.91794 
L 278.5184 212.877016 
L 278.782933 212.668087 
L 279.312 212.247965 
L 279.642667 211.853318 
L 280.568533 211.334193 
L 280.833067 211.071473 
L 280.9984 210.905739 
L 281.924267 208.819129 
L 282.3872 207.398026 
L 282.651733 206.72026 
L 283.114667 204.92375 
L 284.404267 198.776989 
L 284.6688 198.252887 
L 285.098667 197.018894 
L 285.495467 195.376471 
L 286.785067 189.576836 
L 287.181867 188.874488 
L 287.214933 188.922875 
L 287.413333 189.569759 
L 287.810133 192.948736 
L 288.372267 200.847576 
L 289.265067 212.801808 
L 289.595733 214.261195 
L 289.694933 214.333407 
L 289.728 214.305038 
L 289.8272 214.151806 
L 290.157867 212.786273 
L 290.9184 209.645633 
L 291.050667 209.706922 
L 291.249067 210.068121 
L 291.745067 212.449708 
L 292.538667 217.284117 
L 292.869333 218.048898 
L 293.067733 218.049708 
L 293.2992 217.218717 
L 293.5968 215.212133 
L 293.927467 212.278901 
L 294.423467 208.388438 
L 294.820267 206.869974 
L 295.3824 205.971617 
L 295.4816 205.874851 
L 296.0768 204.389204 
L 296.5728 201.868418 
L 297.2672 198.608861 
L 297.664 198.135644 
L 297.8624 198.329211 
L 298.226133 198.930152 
L 298.689067 199.482096 
L 298.920533 199.546659 
L 299.0528 199.377363 
L 300.0448 198.247963 
L 300.110933 198.236554 
L 300.144 198.279394 
L 300.276267 198.437247 
L 301.0368 200.553926 
L 301.995733 204.081862 
L 303.153067 205.889982 
L 303.847467 206.11067 
L 304.244267 205.858656 
L 304.4096 205.752578 
L 304.938667 205.112698 
L 305.3024 204.472436 
L 305.633067 203.708698 
L 306.261333 201.703048 
L 308.4768 194.816322 
L 309.9648 192.856805 
L 309.997867 192.894631 
L 310.3616 192.938725 
L 310.6592 193.541132 
L 310.8576 194.24293 
L 311.287467 196.465561 
L 313.073067 206.828163 
L 313.8336 209.837301 
L 314.3296 211.858994 
L 315.189333 214.113377 
L 315.453867 214.432344 
L 315.751467 214.716476 
L 315.9168 214.863946 
L 316.9088 215.37112 
L 317.371733 215.168366 
L 318.496 213.668837 
L 318.628267 213.596883 
L 319.025067 213.542293 
L 319.355733 213.179288 
L 320.48 211.322204 
L 320.8768 211.491006 
L 321.042133 211.787876 
L 322.001067 213.566541 
L 322.232533 213.644234 
L 323.323733 212.192636 
L 323.456 212.11844 
L 323.952 211.564284 
L 324.481067 210.489623 
L 324.6464 209.910649 
L 325.8368 203.056394 
L 327.886933 188.330711 
L 328.382933 186.991136 
L 329.341867 186.017081 
L 329.6064 185.976536 
L 329.8048 185.991588 
L 330.135467 185.943029 
L 330.333867 185.987164 
L 330.4992 185.903794 
L 331.0944 185.646845 
L 331.392 185.41882 
L 331.4912 185.32996 
L 331.722667 185.070969 
L 332.053333 184.755083 
L 332.1856 184.758291 
L 332.450133 184.803393 
L 332.549333 184.818213 
L 332.7808 184.981412 
L 332.946133 185.066788 
L 333.1776 185.317255 
L 333.2768 185.390349 
L 333.706667 185.938055 
L 334.533333 187.606341 
L 335.293867 189.703789 
L 335.988267 192.366897 
L 337.344 199.752273 
L 337.575467 201.112811 
L 337.873067 202.934346 
L 337.906133 203.042746 
L 337.9392 202.889846 
L 337.972267 202.775015 
L 338.005333 203.051131 
L 338.302933 205.601638 
L 338.336 205.391144 
L 338.369067 205.973801 
L 338.4352 205.710273 
L 338.468267 205.373742 
L 338.501333 205.920644 
L 338.699733 208.349153 
L 338.798933 208.130173 
L 338.832 207.461936 
L 338.9312 207.496102 
L 339.096533 209.869585 
L 339.1296 209.459842 
L 339.162667 210.223102 
L 339.2288 210.132238 
L 339.394133 212.074896 
L 339.460267 211.559505 
L 339.493333 211.833272 
L 339.5264 212.162055 
L 339.559467 211.860519 
L 339.6256 211.475164 
L 339.658667 211.798671 
L 339.691733 211.892328 
L 339.7248 211.298129 
L 339.757867 212.088216 
L 339.824 211.768204 
L 340.055467 214.200243 
L 340.088533 214.142992 
L 340.353067 216.650727 
L 340.386133 216.57747 
L 340.4192 216.708366 
L 340.551467 217.618259 
L 340.6176 217.401347 
L 340.782933 219.171355 
L 340.816 218.91402 
L 340.882133 218.872961 
L 340.9152 219.265533 
L 341.0144 219.226273 
L 341.080533 219.978516 
L 341.278933 221.239907 
L 341.345067 221.350685 
L 341.4112 220.456403 
L 341.874133 223.346478 
L 341.9072 223.303024 
L 342.039467 224.249469 
L 342.072533 223.522402 
L 342.171733 223.605369 
L 342.270933 223.149373 
L 342.304 223.316738 
L 342.337067 224.006433 
L 342.4032 223.794678 
L 342.436267 223.231551 
L 342.5024 223.466391 
L 342.634667 224.450725 
L 342.7008 223.958246 
L 342.8 224.96365 
L 342.833067 224.71158 
L 342.866133 224.37243 
L 342.932267 224.55288 
L 342.9984 224.82685 
L 343.064533 224.430623 
L 343.130667 225.346418 
L 343.163733 224.909156 
L 343.362133 224.245887 
L 343.428267 224.640697 
L 343.825067 225.722382 
L 343.858133 225.489652 
L 343.9904 224.601758 
L 344.056533 224.737769 
L 344.221867 225.998168 
L 344.254933 225.698978 
L 344.288 225.808404 
L 344.321067 225.767451 
L 344.354133 224.205845 
L 344.453333 224.623529 
L 344.6848 223.563612 
L 344.817067 223.876255 
L 344.850133 223.691394 
L 344.8832 223.668407 
L 344.916267 223.77432 
L 344.949333 223.932775 
L 344.9824 223.824623 
L 345.114667 223.2219 
L 345.147733 223.237482 
L 345.1808 223.277532 
L 345.213867 223.092526 
L 345.246933 223.31382 
L 345.28 223.386656 
L 345.3792 223.402118 
L 345.445333 222.934023 
L 345.4784 223.361578 
L 345.511467 223.116399 
L 345.5776 222.708324 
L 345.610667 223.154234 
L 345.643733 222.782482 
L 345.809067 222.348985 
L 345.842133 222.104699 
L 345.908267 222.271 
L 346.007467 222.046576 
L 346.0736 222.246874 
L 346.139733 221.408588 
L 346.238933 221.554019 
L 346.272 221.489758 
L 346.404267 220.759017 
L 346.437333 220.965408 
L 346.503467 220.700114 
L 346.5696 220.126836 
L 346.635733 220.253978 
L 346.6688 220.044645 
L 346.701867 220.377909 
L 346.8672 220.182458 
L 347.0656 219.386617 
L 347.098667 219.252328 
L 347.1648 219.628162 
L 347.197867 219.557156 
L 347.6608 218.033551 
L 347.693867 218.061531 
L 347.8592 218.435769 
L 348.024533 217.912836 
L 348.1568 218.029989 
L 348.289067 218.536781 
L 348.3552 218.117828 
L 348.4544 218.158602 
L 348.619733 217.06291 
L 348.8512 214.375001 
L 348.983467 213.637929 
L 349.016533 213.670147 
L 349.115733 214.065657 
L 349.1488 213.930967 
L 349.281067 214.152831 
L 349.314133 214.0819 
L 349.3472 214.010938 
L 349.380267 214.112852 
L 349.5456 214.473428 
L 349.876267 215.206938 
L 349.909333 214.992334 
L 349.975467 215.062066 
L 350.074667 214.643661 
L 350.206933 213.94491 
L 350.24 214.165697 
L 350.273067 213.809738 
L 350.4384 212.732977 
L 350.669867 211.805074 
L 350.702933 211.95963 
L 350.736 211.624128 
L 350.802133 211.54418 
L 350.967467 210.957524 
L 351.0336 211.178461 
L 351.066667 210.956072 
L 351.1328 211.300373 
L 351.198933 211.040062 
L 351.298133 211.061757 
L 351.397333 210.725087 
L 351.4304 210.741268 
L 351.463467 210.800036 
L 351.496533 210.530717 
L 351.595733 210.569121 
L 351.661867 210.362655 
L 351.728 210.511471 
L 351.761067 210.531833 
L 352.1248 209.461806 
L 352.157867 209.578165 
L 352.190933 209.324895 
L 352.554667 208.011887 
L 352.852267 205.950741 
L 352.9184 205.989466 
L 353.083733 205.331331 
L 353.1168 205.341247 
L 353.149867 205.316276 
L 353.348267 204.581622 
L 353.381333 204.684297 
L 353.4144 204.671897 
L 353.579733 204.353401 
L 353.844267 203.819874 
L 353.877333 204.00943 
L 353.943467 203.791632 
L 354.141867 203.523217 
L 354.3072 203.723205 
L 354.208 203.438222 
L 354.340267 203.642671 
L 354.4064 203.754853 
L 354.439467 203.848291 
L 354.5056 203.725964 
L 354.670933 203.470478 
L 354.737067 203.574591 
L 354.770133 203.650572 
L 354.8032 203.61573 
L 354.968533 203.089506 
L 355.0016 203.287249 
L 355.034667 203.184956 
L 355.133867 202.880838 
L 355.166933 202.973491 
L 355.2 202.875888 
L 355.233067 203.001629 
L 355.266133 202.966185 
L 355.2992 202.997642 
L 355.3984 202.846178 
L 355.431467 202.885119 
L 355.662933 203.391089 
L 355.960533 203.666652 
L 356.0928 203.428557 
L 356.357333 203.828335 
L 356.4896 203.562082 
L 356.522667 203.598193 
L 356.555733 203.505395 
L 356.5888 203.364571 
L 356.654933 203.528768 
L 356.688 203.652066 
L 356.721067 203.482205 
L 356.754133 203.515404 
L 357.184 202.555823 
L 357.217067 202.588081 
L 357.250133 202.51303 
L 357.448533 202.273744 
L 357.4816 202.381213 
L 357.547733 202.228492 
L 357.812267 201.537972 
L 357.911467 201.522385 
L 358.0768 200.992012 
L 358.109867 201.034466 
L 358.242133 200.608454 
L 358.2752 200.626218 
L 358.308267 200.657098 
L 358.341333 200.544222 
L 358.5728 200.030089 
L 358.672 199.871108 
L 358.705067 199.666207 
L 358.7712 199.767849 
L 358.837333 199.767937 
L 358.9696 199.221216 
L 359.0688 198.806772 
L 359.101867 198.889243 
L 359.134933 198.889705 
L 359.2672 198.304273 
L 359.300267 198.318309 
L 359.333333 198.287142 
L 359.796267 195.963215 
L 359.994667 194.683884 
L 360.2592 193.117213 
L 360.722133 191.300705 
L 360.7552 191.290752 
L 360.986667 190.671073 
L 361.019733 190.685452 
L 361.218133 189.709941 
L 361.2512 189.841365 
L 361.383467 186.752176 
L 361.648 185.902626 
L 361.813333 185.5779 
L 362.077867 184.453784 
L 362.110933 184.464973 
L 362.276267 184.077496 
L 362.309333 184.102461 
L 362.573867 182.869318 
L 362.606933 182.882235 
L 362.64 182.780408 
L 362.772267 182.339078 
L 362.805333 182.477442 
L 362.871467 182.646594 
L 362.904533 182.430761 
L 363.0368 182.247378 
L 363.169067 182.663123 
L 363.202133 182.646487 
L 363.3344 182.550031 
L 363.5328 183.924233 
L 363.565867 183.900336 
L 363.598933 183.972691 
L 363.8304 185.478201 
L 364.128 187.388351 
L 364.491733 190.911461 
L 365.12 197.203561 
L 365.153067 197.116125 
L 365.847467 204.709993 
L 366.0128 207.331123 
L 366.045867 207.302623 
L 366.3104 210.211583 
L 366.442667 211.975741 
L 366.839467 215.96794 
L 366.938667 216.606897 
L 366.971733 216.499659 
L 367.170133 218.241413 
L 367.335467 218.823119 
L 367.566933 220.601745 
L 367.6992 221.338677 
L 367.9968 223.651661 
L 368.029867 223.428701 
L 368.062933 223.467558 
L 368.261333 225.299602 
L 368.2944 225.25005 
L 368.327467 225.31055 
L 368.459733 225.761229 
L 368.525867 225.656727 
L 368.558933 225.847613 
L 368.625067 226.17651 
L 368.658133 225.865727 
L 368.6912 225.695086 
L 368.757333 225.775768 
L 368.856533 226.375875 
L 368.922667 225.70742 
L 368.9888 225.971428 
L 369.154133 225.354587 
L 369.1872 225.550741 
L 369.220267 225.665868 
L 369.253333 225.137226 
L 369.319467 225.411949 
L 369.352533 225.582914 
L 369.3856 225.506221 
L 369.517867 225.097609 
L 369.550933 225.106594 
L 369.6832 224.248259 
L 369.716267 224.543156 
L 369.749333 224.471204 
L 369.7824 224.795852 
L 369.815467 224.238981 
L 370.013867 222.529824 
L 370.113067 223.200682 
L 370.146133 222.779478 
L 370.311467 222.180425 
L 370.344533 222.362759 
L 370.3776 222.030384 
L 370.443733 222.131251 
L 370.4768 222.461604 
L 370.509867 222.169755 
L 370.7744 220.153098 
L 370.807467 220.316313 
L 370.840533 220.540136 
L 370.8736 220.156462 
L 370.906667 220.473385 
L 371.138133 219.555716 
L 371.336533 217.997999 
L 371.3696 218.266719 
L 371.402667 218.600878 
L 371.4688 218.206764 
L 371.601067 217.016457 
L 371.6672 217.074276 
L 371.700267 217.244547 
L 371.898667 215.565728 
L 371.931733 215.830195 
L 371.9648 215.280236 
L 372.1632 213.100716 
L 372.196267 213.185364 
L 372.229333 212.975572 
L 372.427733 211.309558 
L 372.626133 210.052732 
L 372.791467 208.794786 
L 372.890667 207.723166 
L 372.923733 208.048956 
L 373.6512 201.540733 
L 373.684267 202.564966 
L 373.7504 201.996465 
L 374.114133 199.669888 
L 374.378667 196.054626 
L 374.544 194.410187 
L 374.808533 189.732331 
L 374.8416 190.566693 
L 375.073067 188.435285 
L 375.271467 185.955438 
L 375.370667 186.066867 
L 375.403733 184.805949 
L 375.4368 184.81732 
L 375.469867 185.234953 
L 375.536 184.885196 
L 375.7344 182.256818 
L 375.767467 182.510277 
L 375.899733 180.856441 
L 375.9328 180.894547 
L 376.263467 177.453219 
L 376.296533 178.036842 
L 376.395733 177.993583 
L 376.528 176.443771 
L 376.561067 176.995519 
L 376.594133 177.021828 
L 376.759467 173.691844 
L 376.792533 173.661361 
L 377.189333 169.245087 
L 377.2224 170.809341 
L 377.288533 170.143967 
L 377.553067 168.548713 
L 377.586133 169.014948 
L 377.6192 168.71926 
L 377.751467 167.257384 
L 377.784533 167.43773 
L 377.8176 168.266115 
L 377.883733 167.549555 
L 378.082133 165.278361 
L 378.148267 166.932068 
L 378.181333 166.225727 
L 378.2144 165.126748 
L 378.3136 165.425012 
L 378.346667 164.715912 
L 378.4128 165.543518 
L 378.445867 164.721346 
L 378.478933 164.779387 
L 378.578133 163.37426 
L 378.545067 164.885876 
L 378.644267 163.607025 
L 378.677333 163.918623 
L 378.842667 161.047072 
L 378.875733 161.711828 
L 378.9088 160.98471 
L 378.941867 160.695309 
L 379.041067 162.243638 
L 379.074133 161.250174 
L 379.1072 161.962756 
L 379.140267 162.744469 
L 379.2064 161.830962 
L 379.272533 162.227792 
L 379.338667 160.701558 
L 379.437867 161.778967 
L 379.4048 160.665885 
L 379.470933 161.169514 
L 379.504 161.110484 
L 379.537067 161.525538 
L 379.570133 161.336326 
L 379.636267 160.376136 
L 379.7024 160.685986 
L 379.8016 161.027748 
L 379.834667 161.021666 
L 379.867733 160.405318 
L 379.933867 161.038931 
L 379.966933 161.046466 
L 380 160.656945 
L 380.033067 161.170268 
L 380.0992 160.686679 
L 380.132267 160.711329 
L 380.165333 160.665348 
L 380.2976 161.463417 
L 380.3968 161.505912 
L 380.429867 161.001372 
L 380.529067 163.029375 
L 380.562133 162.288192 
L 380.5952 160.833394 
L 380.661333 162.208925 
L 380.6944 163.215382 
L 380.760533 162.098732 
L 380.7936 162.377945 
L 380.826667 164.038563 
L 380.925867 163.630493 
L 380.992 163.661586 
L 381.025067 163.189343 
L 381.1904 165.420556 
L 381.223467 164.595477 
L 381.2896 165.709533 
L 381.322667 165.414065 
L 381.355733 166.084926 
L 381.3888 165.934274 
L 381.421867 166.142635 
L 381.454933 166.193869 
L 381.488 165.984153 
L 381.521067 166.483922 
L 381.554133 166.631663 
L 381.653333 165.345591 
L 381.6864 166.122239 
L 381.752533 165.363201 
L 381.7856 165.496704 
L 381.818667 164.6708 
L 381.8848 165.636263 
L 382.017067 166.404595 
L 382.0832 166.275572 
L 382.215467 168.008928 
L 382.2816 167.546063 
L 382.446933 169.03783 
L 382.48 169.196378 
L 382.513067 168.952452 
L 382.546133 168.477225 
L 382.5792 169.593955 
L 382.645333 170.390452 
L 382.6784 169.248908 
L 382.744533 170.603652 
L 383.042133 175.133369 
L 383.0752 174.767067 
L 383.207467 177.24836 
L 383.240533 176.58626 
L 383.306667 177.322449 
L 383.339733 177.245243 
L 383.472 178.618596 
L 383.6704 179.9478 
L 383.538133 178.555006 
L 383.703467 179.566427 
L 383.8688 183.318565 
L 383.901867 182.795422 
L 383.968 183.506375 
L 384.034133 183.346347 
L 384.0672 183.405706 
L 384.100267 182.781785 
L 384.1664 183.57702 
L 384.199467 183.302455 
L 384.232533 183.564613 
L 384.596267 188.923993 
L 384.695467 188.676385 
L 384.728533 188.352044 
L 384.96 191.418417 
L 385.092267 192.560307 
L 385.125333 192.31988 
L 385.1584 192.889772 
L 385.2576 193.843923 
L 385.290667 193.653762 
L 385.323733 193.526149 
L 385.522133 196.426236 
L 385.389867 193.504475 
L 385.5552 195.279246 
L 385.621333 195.700811 
L 385.6544 195.25829 
L 385.687467 195.269983 
L 385.720533 195.015965 
L 385.8528 196.566809 
L 385.885867 195.387727 
L 385.918933 196.638062 
L 386.117333 198.810293 
L 385.985067 196.112377 
L 386.1504 198.625812 
L 386.183467 198.047486 
L 386.2496 198.8272 
L 386.448 201.107438 
L 386.481067 200.515385 
L 386.5472 202.481036 
L 386.580267 201.0838 
L 386.679467 201.719976 
L 386.712533 201.517623 
L 386.7456 200.578536 
L 386.8448 200.837491 
L 386.944 202.698855 
L 386.977067 202.200863 
L 387.010133 201.206571 
L 387.0432 202.27354 
L 387.175467 203.090349 
L 387.208533 202.611586 
L 387.2416 203.351758 
L 387.274667 203.357605 
L 387.307733 202.914706 
L 387.3408 203.628484 
L 387.473067 205.367892 
L 387.572267 203.697987 
L 387.605333 204.024297 
L 387.803733 206.084775 
L 387.869867 205.096454 
L 387.969067 205.369796 
L 388.068267 206.6453 
L 388.101333 206.507983 
L 388.1344 206.135376 
L 388.167467 206.667432 
L 388.200533 206.857386 
L 388.2336 206.233897 
L 388.266667 207.479695 
L 388.299733 207.358255 
L 388.3328 208.030726 
L 388.365867 207.320895 
L 388.465067 207.461718 
L 388.498133 206.290452 
L 388.5312 206.125668 
L 388.564267 206.226236 
L 388.597333 206.722382 
L 388.6304 205.486368 
L 388.7296 205.89981 
L 388.762667 205.579789 
L 388.861867 203.48647 
L 388.894933 203.512897 
L 388.928 203.497508 
L 388.961067 203.892742 
L 388.994133 203.461944 
L 389.0272 203.535419 
L 389.060267 202.578967 
L 389.1264 203.27932 
L 389.192533 203.528825 
L 389.357867 206.662771 
L 389.424 206.482054 
L 389.457067 206.771172 
L 389.490133 206.516352 
L 389.6224 205.334064 
L 389.688533 207.13256 
L 389.754667 206.607397 
L 389.787733 206.52628 
L 389.886933 207.581638 
L 389.92 206.636429 
L 389.986133 207.28211 
L 390.0192 207.234824 
L 390.1184 208.51507 
L 390.184533 208.294487 
L 390.2176 208.474424 
L 390.283733 209.641702 
L 390.3168 208.666386 
L 390.449067 208.855184 
L 390.482133 208.913848 
L 390.5152 209.390533 
L 390.581333 209.304848 
L 390.746667 208.572275 
L 390.779733 209.065043 
L 390.878933 208.944756 
L 390.912 208.745932 
L 390.945067 208.751787 
L 391.077333 209.282573 
L 391.143467 209.206271 
L 391.176533 209.233317 
L 391.341867 209.74781 
L 391.374933 209.692927 
L 391.441067 209.72396 
L 392.267733 213.974783 
L 392.565333 212.941189 
L 392.730667 212.744216 
L 393.425067 215.056083 
L 393.656533 215.780872 
L 393.888 216.338396 
L 393.921067 216.326002 
L 394.053333 216.341098 
L 394.218667 216.153644 
L 394.417067 215.767684 
L 394.450133 215.792594 
L 394.615467 215.953252 
L 394.913067 216.449531 
L 395.111467 216.177102 
L 395.144533 217.635682 
L 395.243733 217.437628 
L 395.309867 217.494368 
L 395.4752 218.198004 
L 395.706667 219.02496 
L 395.805867 218.555747 
L 396.103467 216.74342 
L 396.136533 216.748305 
L 396.235733 217.261257 
L 396.731733 221.276661 
L 396.797867 221.215963 
L 396.930133 220.399188 
L 397.723733 212.321355 
L 397.9552 210.655087 
L 398.219733 209.322985 
L 398.2528 209.336883 
L 398.318933 209.584191 
L 398.517333 211.93935 
L 398.814933 214.768979 
L 398.914133 214.427137 
L 399.079467 212.304451 
L 399.6416 203.200225 
L 399.873067 202.403991 
L 400.1376 201.902469 
L 400.203733 202.004168 
L 400.468267 202.63437 
L 400.501333 202.567868 
L 400.600533 201.881715 
L 400.798933 198.532582 
L 401.261867 190.25376 
L 401.328 190.12402 
L 401.361067 190.148766 
L 401.857067 191.740472 
L 402.0224 191.660055 
L 402.286933 191.124162 
L 402.485333 191.651374 
L 402.683733 192.057787 
L 402.782933 191.840618 
L 403.444267 187.336244 
L 403.543467 187.461327 
L 403.808 188.349551 
L 404.138667 190.514543 
L 404.733867 197.255792 
L 404.9984 197.87514 
L 405.527467 198.326632 
L 406.023467 199.98634 
L 406.651733 201.903139 
L 407.0816 203.955818 
L 407.809067 206.903252 
L 407.9744 208.209064 
L 408.404267 212.433146 
L 408.4704 212.51902 
L 408.536533 212.47255 
L 408.768 212.12424 
L 409.197867 210.832608 
L 409.76 208.03942 
L 409.8592 208.121115 
L 410.1568 208.742425 
L 410.256 208.451674 
L 410.421333 206.937621 
L 410.884267 202.668651 
L 411.016533 202.681815 
L 411.281067 202.879555 
L 411.5456 203.104991 
L 411.6448 203.389501 
L 411.8432 205.119259 
L 412.3392 209.726656 
L 412.8352 212.526714 
L 413.232 214.672912 
L 413.5296 215.797452 
L 414.6208 224.320198 
L 414.753067 226.761308 
L 414.753067 226.761308 
" style="fill:none;stroke:#87ceeb;stroke-linecap:square;stroke-width:2;"/>
   </g>
  </g>
 </g>
 <defs>
  <clipPath id="pb4ffc028d1">
   <rect height="266.112" width="357.12" x="57.6" y="41.472"/>
  </clipPath>
 </defs>
</svg>
