<?xml version="1.0" encoding="utf-8" standalone="no"?>
<!DOCTYPE svg PUBLIC "-//W3C//DTD SVG 1.1//EN"
  "http://www.w3.org/Graphics/SVG/1.1/DTD/svg11.dtd">
<!-- Created with matplotlib (https://matplotlib.org/) -->
<svg height="345.6pt" version="1.1" viewBox="0 0 460.8 345.6" width="460.8pt" xmlns="http://www.w3.org/2000/svg" xmlns:xlink="http://www.w3.org/1999/xlink">
 <metadata>
  <rdf:RDF xmlns:cc="http://creativecommons.org/ns#" xmlns:dc="http://purl.org/dc/elements/1.1/" xmlns:rdf="http://www.w3.org/1999/02/22-rdf-syntax-ns#">
   <cc:Work>
    <dc:type rdf:resource="http://purl.org/dc/dcmitype/StillImage"/>
    <dc:date>2021-07-01T14:18:39.685064</dc:date>
    <dc:format>image/svg+xml</dc:format>
    <dc:creator>
     <cc:Agent>
      <dc:title>Matplotlib v3.3.2, https://matplotlib.org/</dc:title>
     </cc:Agent>
    </dc:creator>
   </cc:Work>
  </rdf:RDF>
 </metadata>
 <defs>
  <style type="text/css">*{stroke-linecap:butt;stroke-linejoin:round;}</style>
 </defs>
 <g id="figure_1">
  <g id="patch_1">
   <path d="M 0 345.6 
L 460.8 345.6 
L 460.8 0 
L 0 0 
z
" style="fill:none;"/>
  </g>
  <g id="axes_1">
   <g id="line2d_1">
    <path clip-path="url(#pa352a135c5)" d="M 57.566933 168.157794 
L 58.426667 171.108258 
L 59.418667 177.469301 
L 60.146133 183.588463 
L 61.204267 191.195242 
L 61.8656 194.218517 
L 62.196267 194.943369 
L 62.593067 195.342017 
L 62.9568 195.211372 
L 63.552 194.482666 
L 63.684267 194.325014 
L 63.9488 194.025135 
L 64.4448 193.14474 
L 64.775467 192.357276 
L 65.271467 191.202992 
L 66.164267 188.681714 
L 66.594133 187.768117 
L 66.9248 187.350864 
L 67.189333 186.913209 
L 67.4208 186.39478 
L 67.685333 186.327614 
L 67.982933 186.521554 
L 69.537067 187.391139 
L 69.8016 187.762404 
L 69.834667 187.736109 
L 70.264533 187.811628 
L 70.330667 187.866055 
L 70.363733 187.83238 
L 70.661333 187.650006 
L 70.760533 187.686695 
L 71.025067 187.93717 
L 71.1904 188.227067 
L 71.355733 188.74102 
L 71.950933 190.397179 
L 72.149333 190.686416 
L 72.48 190.928922 
L 72.8768 190.841752 
L 73.240533 191.300506 
L 74.100267 194.190296 
L 74.596267 196.980231 
L 75.522133 204.726727 
L 76.216533 210.350445 
L 76.481067 211.128834 
L 76.679467 211.291062 
L 76.8448 211.081494 
L 77.5392 209.322647 
L 77.803733 209.614306 
L 78.002133 210.354944 
L 78.5312 214.036512 
L 79.192533 219.799947 
L 79.589333 222.919251 
L 80.085333 225.504285 
L 81.1104 228.437736 
L 82.366933 235.394846 
L 83.821867 239.833219 
L 84.350933 241.818913 
L 84.516267 242.334805 
L 84.946133 243.670555 
L 85.607467 245.329708 
L 85.739733 245.651442 
L 86.0704 246.218455 
L 86.864 246.805912 
L 86.996267 246.82336 
L 87.227733 247.079566 
L 87.492267 247.385967 
L 87.889067 247.585241 
L 88.2528 247.468395 
L 88.682667 246.545526 
L 89.310933 245.143633 
L 89.707733 244.014521 
L 90.369067 241.665181 
L 90.402133 243.387676 
L 90.501333 243.037919 
L 91.757867 237.829745 
L 92.4192 233.237896 
L 94.1056 219.589509 
L 95.130667 211.101097 
L 96.717867 198.351643 
L 97.544533 193.17367 
L 98.3712 189.414349 
L 98.437333 189.870735 
L 98.4704 190.14238 
L 98.503467 189.748181 
L 98.536533 189.965066 
L 98.734933 188.687239 
L 98.768 188.802731 
L 98.8672 189.318949 
L 98.933333 188.577705 
L 98.999467 188.609467 
L 99.032533 188.721992 
L 99.0656 188.500524 
L 99.098667 188.495088 
L 99.131733 188.333747 
L 99.1648 188.778429 
L 99.197867 187.862726 
L 99.297067 187.174637 
L 99.264 187.950513 
L 99.330133 187.494213 
L 99.3632 187.553305 
L 99.429333 186.979665 
L 99.495467 187.038064 
L 99.627733 186.594151 
L 99.693867 187.190977 
L 99.726933 186.463541 
L 99.76 186.482465 
L 99.892267 185.419414 
L 99.9584 186.072781 
L 100.024533 185.635166 
L 100.090667 185.828789 
L 100.123733 185.79469 
L 100.1568 184.413091 
L 100.222933 185.737544 
L 100.3552 186.815552 
L 100.4544 185.907507 
L 100.487467 186.44955 
L 100.619733 187.38939 
L 100.6528 186.699229 
L 100.685867 187.567881 
L 100.8512 188.379019 
L 101.016533 190.24494 
L 101.082667 189.919264 
L 101.115733 189.150156 
L 101.181867 189.967379 
L 101.314133 188.70377 
L 101.3472 189.005155 
L 101.380267 189.031011 
L 101.4464 190.620775 
L 101.479467 189.841521 
L 101.512533 188.970095 
L 101.578667 189.577622 
L 101.6448 188.735824 
L 101.744 189.094067 
L 101.876267 190.7779 
L 101.9424 190.319089 
L 101.975467 190.824538 
L 102.107733 191.902734 
L 102.24 190.248837 
L 102.306133 190.451174 
L 102.3392 190.247676 
L 102.4384 189.481061 
L 102.471467 189.845073 
L 102.570667 191.041596 
L 102.6368 190.435496 
L 102.669867 190.419901 
L 102.702933 189.867652 
L 102.736 190.380579 
L 102.8352 191.397008 
L 102.967467 190.747582 
L 103.0336 191.723318 
L 103.066667 191.483377 
L 103.165867 190.253624 
L 103.198933 190.502351 
L 103.265067 190.713736 
L 103.298133 190.111944 
L 103.364267 190.469102 
L 103.397333 190.836707 
L 103.4304 190.580682 
L 103.496533 189.678727 
L 103.5296 190.435195 
L 103.595733 191.72888 
L 103.694933 191.197718 
L 103.794133 190.661103 
L 103.761067 191.219697 
L 103.8272 190.937514 
L 103.992533 192.160073 
L 104.0256 191.555626 
L 104.091733 191.852807 
L 104.1248 192.128973 
L 104.157867 191.717787 
L 104.190933 191.695366 
L 104.356267 192.228374 
L 104.389333 191.606244 
L 104.455467 191.956991 
L 104.488533 192.007069 
L 104.5216 191.650698 
L 104.587733 191.707307 
L 104.753067 192.644223 
L 104.852267 191.78361 
L 104.885333 191.873058 
L 104.984533 192.649678 
L 105.0176 192.521741 
L 105.083733 192.001048 
L 105.1168 192.086586 
L 105.216 192.995265 
L 105.249067 192.474613 
L 105.282133 191.771483 
L 105.348267 192.39969 
L 105.4144 191.856926 
L 105.447467 192.063474 
L 105.480533 192.629706 
L 105.546667 192.442687 
L 105.645867 192.025775 
L 105.712 191.772797 
L 105.778133 192.619565 
L 105.8112 192.60022 
L 105.943467 191.680667 
L 106.042667 192.343361 
L 106.208 191.417288 
L 106.274133 192.381703 
L 106.3072 191.835146 
L 106.4064 191.174307 
L 106.472533 191.331604 
L 106.5056 191.299461 
L 106.538667 191.517285 
L 106.571733 191.240299 
L 106.6048 191.291387 
L 106.737067 190.459737 
L 106.8032 190.564002 
L 106.869333 191.09793 
L 106.935467 190.826395 
L 107.067733 190.732777 
L 107.2 190.125928 
L 107.233067 190.144618 
L 107.266133 190.263734 
L 107.2992 190.066202 
L 107.431467 188.678389 
L 107.696 187.804417 
L 107.729067 187.962442 
L 107.762133 187.291056 
L 107.861333 187.368048 
L 108.125867 186.554213 
L 108.158933 186.705738 
L 108.357333 185.341855 
L 108.3904 185.72873 
L 108.456533 185.280354 
L 108.5888 185.175736 
L 108.688 184.515634 
L 108.721067 184.590015 
L 108.820267 185.585653 
L 108.853333 185.253786 
L 108.8864 185.05085 
L 108.919467 185.234326 
L 109.150933 186.56839 
L 109.217067 186.16052 
L 109.250133 186.452858 
L 109.316267 186.54078 
L 109.3824 186.499892 
L 109.448533 186.500324 
L 110.142933 178.978595 
L 110.341333 179.912617 
L 110.407467 179.829766 
L 110.4736 179.873522 
L 110.705067 181.033213 
L 110.8704 181.990738 
L 111.0688 183.452039 
L 111.432533 181.618876 
L 111.4656 182.006263 
L 111.498667 181.62803 
L 111.664 180.582556 
L 111.697067 180.578994 
L 111.730133 180.762669 
L 111.796267 180.517402 
L 111.829333 180.598128 
L 111.8624 180.389712 
L 111.895467 180.533021 
L 111.9616 180.30791 
L 112.027733 180.772105 
L 112.093867 180.685468 
L 112.16 180.419327 
L 112.226133 180.681655 
L 112.292267 180.508879 
L 112.325333 180.674517 
L 112.490667 181.053061 
L 112.523733 180.950126 
L 112.589867 180.767152 
L 112.656 180.805199 
L 112.887467 181.749324 
L 112.920533 181.354197 
L 112.986667 181.737656 
L 113.019733 181.858563 
L 113.118933 181.80057 
L 113.2512 182.048256 
L 113.284267 182.019846 
L 113.482667 181.625722 
L 113.714133 180.359058 
L 113.7472 180.434178 
L 113.813333 180.404715 
L 113.879467 179.368952 
L 113.9456 179.452617 
L 114.011733 179.50125 
L 114.2432 178.926438 
L 114.276267 179.074864 
L 114.309333 178.913243 
L 114.3424 178.666041 
L 114.408533 178.936696 
L 114.64 179.575298 
L 114.673067 179.504995 
L 114.904533 180.650199 
L 114.970667 180.920041 
L 115.367467 182.450049 
L 115.4336 182.398892 
L 116.293333 187.329362 
L 116.3264 187.358524 
L 116.590933 188.910886 
L 116.8224 190.25078 
L 117.086933 192.550702 
L 117.351467 194.425624 
L 117.450667 194.289021 
L 117.5168 194.274875 
L 117.582933 194.469214 
L 117.616 194.413625 
L 117.682133 194.207136 
L 117.7152 194.382103 
L 117.847467 194.419504 
L 117.979733 195.857986 
L 118.4096 199.231231 
L 118.5088 199.153778 
L 118.674133 199.44874 
L 118.740267 199.580003 
L 118.971733 201.204925 
L 119.0048 201.212995 
L 119.170133 201.658307 
L 119.6 203.150385 
L 119.7984 204.193036 
L 119.831467 204.123662 
L 120.261333 206.362518 
L 120.2944 206.147399 
L 120.327467 206.387597 
L 120.360533 206.489574 
L 120.3936 206.324592 
L 120.426667 206.330063 
L 120.6912 207.169057 
L 120.724267 207.085716 
L 120.922667 206.969561 
L 121.2864 206.122592 
L 121.319467 206.324558 
L 121.4848 206.59856 
L 121.517867 206.346511 
L 121.584 206.660331 
L 121.650133 206.593628 
L 121.716267 206.687073 
L 121.749333 206.631693 
L 121.9808 208.072953 
L 122.046933 207.943077 
L 122.1792 208.309186 
L 122.212267 208.293425 
L 122.542933 208.875188 
L 122.6752 209.131504 
L 122.807467 209.595731 
L 122.840533 209.374212 
L 122.8736 209.483366 
L 123.072 210.078506 
L 123.237333 209.902028 
L 123.303467 209.779079 
L 123.435733 210.171074 
L 123.634133 210.49105 
L 123.7664 211.094724 
L 123.799467 210.88874 
L 123.9648 211.009241 
L 123.997867 210.988291 
L 124.030933 210.788784 
L 124.064 210.842473 
L 124.229333 211.654194 
L 124.2624 210.411809 
L 124.328533 210.808243 
L 124.593067 212.185316 
L 124.923733 214.321384 
L 126.775467 226.320245 
L 127.106133 229.207957 
L 127.1392 229.297943 
L 127.271467 230.522821 
L 127.304533 230.387371 
L 128.1312 234.261103 
L 128.164267 234.237953 
L 128.296533 233.845031 
L 128.362667 234.196475 
L 128.395733 233.926339 
L 128.4288 233.74284 
L 128.461867 233.806683 
L 128.561067 234.397501 
L 128.594133 234.1873 
L 128.6272 234.110664 
L 128.858667 235.27283 
L 128.957867 235.667434 
L 128.990933 235.527337 
L 129.090133 235.456418 
L 129.1232 235.859675 
L 129.189333 235.741732 
L 129.2224 235.69486 
L 129.255467 235.407483 
L 129.3216 235.773327 
L 129.52 235.261068 
L 129.652267 234.76752 
L 129.784533 235.239964 
L 129.982933 234.227517 
L 130.016 234.282874 
L 130.049067 234.145809 
L 130.082133 234.174373 
L 130.280533 233.22516 
L 130.3136 233.237232 
L 130.346667 233.595831 
L 130.4128 233.143566 
L 130.445867 232.694879 
L 130.545067 232.733233 
L 130.8096 231.141446 
L 130.875733 231.505352 
L 130.9088 231.429569 
L 131.2064 229.843965 
L 131.272533 230.108152 
L 131.470933 228.841665 
L 131.537067 228.62786 
L 131.7024 227.679773 
L 131.768533 228.206252 
L 131.8016 227.772436 
L 131.9008 228.242575 
L 131.867733 227.688312 
L 131.933867 228.128944 
L 132.066133 227.579459 
L 132.0992 227.760688 
L 132.132267 227.494662 
L 132.1984 227.30939 
L 132.231467 227.418528 
L 132.264533 227.637656 
L 132.2976 227.552519 
L 132.760533 223.757236 
L 132.826667 223.83658 
L 132.859733 223.810833 
L 133.521067 220.441044 
L 133.5872 220.629546 
L 133.818667 218.588181 
L 133.851733 218.996545 
L 133.8848 218.596534 
L 134.017067 217.561428 
L 134.050133 217.64228 
L 134.116267 218.124059 
L 134.1824 218.008758 
L 134.413867 215.98423 
L 134.446933 216.317782 
L 134.48 215.943315 
L 134.513067 216.139466 
L 134.546133 216.03616 
L 134.7776 213.326232 
L 134.810667 213.496912 
L 134.843733 213.221724 
L 134.909867 213.460161 
L 134.942933 213.435065 
L 134.976 213.612595 
L 135.141333 211.603689 
L 135.1744 211.655875 
L 135.8688 207.932157 
L 135.901867 207.051122 
L 136.001067 207.365717 
L 136.034133 207.391561 
L 136.0672 207.680511 
L 136.232533 205.593557 
L 136.298667 205.243694 
L 136.3648 204.955701 
L 136.397867 205.957833 
L 136.530133 204.459278 
L 136.5632 204.691125 
L 136.596267 204.157185 
L 136.695467 203.28635 
L 136.728533 203.444907 
L 136.7616 203.641302 
L 136.893867 202.32836 
L 136.926933 202.469243 
L 136.96 203.284063 
L 137.026133 202.455691 
L 137.0592 202.692227 
L 137.092267 202.6144 
L 137.191467 201.308731 
L 137.224533 201.424429 
L 137.290667 201.401466 
L 137.489067 199.733423 
L 137.522133 199.904192 
L 137.588267 198.562266 
L 137.621333 199.36546 
L 137.6544 199.52993 
L 137.687467 199.416158 
L 137.819733 198.135282 
L 137.8528 198.518573 
L 137.918933 198.956794 
L 137.952 198.625187 
L 138.018133 197.521506 
L 138.084267 198.002554 
L 138.1504 199.314122 
L 138.216533 199.12996 
L 138.481067 197.191552 
L 138.514133 197.787349 
L 138.5472 197.230439 
L 138.580267 196.928279 
L 138.6464 197.263439 
L 138.712533 198.88205 
L 138.811733 198.302635 
L 138.977067 195.843394 
L 139.010133 195.470328 
L 139.0432 195.942114 
L 139.175467 197.052558 
L 139.2416 195.604847 
L 139.3408 196.026102 
L 139.373867 196.232087 
L 139.406933 195.23437 
L 139.506133 195.248699 
L 139.5392 195.294625 
L 139.605333 195.628737 
L 139.6384 195.269435 
L 139.671467 194.475063 
L 139.770667 194.571311 
L 139.803733 195.476899 
L 139.869867 194.420538 
L 139.902933 194.522045 
L 139.936 194.271367 
L 140.002133 194.297139 
L 140.0352 194.640017 
L 140.101333 194.183229 
L 140.1344 194.567511 
L 140.167467 193.947439 
L 140.200533 194.337291 
L 140.2336 194.839304 
L 140.266667 193.811548 
L 140.299733 193.854995 
L 140.3328 193.8209 
L 140.432 195.147037 
L 140.465067 194.340801 
L 140.498133 194.28122 
L 140.663467 194.929541 
L 140.795733 193.890189 
L 140.8288 194.377344 
L 140.861867 194.479334 
L 140.894933 194.279967 
L 140.928 194.238545 
L 141.060267 193.665417 
L 141.159467 194.429315 
L 141.291733 196.119163 
L 141.357867 195.376936 
L 141.457067 195.482836 
L 141.556267 193.654259 
L 141.589333 194.929057 
L 141.688533 194.812343 
L 141.7216 195.279617 
L 141.754667 194.953563 
L 141.787733 194.216268 
L 141.853867 195.122221 
L 141.886933 194.221687 
L 142.085333 195.510257 
L 142.151467 194.693627 
L 142.184533 196.081292 
L 142.250667 195.175186 
L 142.3168 195.021724 
L 142.416 195.707297 
L 142.449067 194.819884 
L 142.548267 195.123064 
L 142.581333 195.640676 
L 142.680533 195.6173 
L 142.779733 195.644099 
L 142.8128 195.11346 
L 142.845867 195.296165 
L 142.878933 195.255642 
L 142.912 194.56749 
L 142.978133 195.24658 
L 143.0112 195.272469 
L 143.077333 194.531201 
L 143.1104 194.049124 
L 143.143467 194.693089 
L 143.176533 194.084107 
L 143.242667 195.77154 
L 143.3088 194.944624 
L 143.341867 194.977998 
L 143.374933 195.216525 
L 143.441067 194.977829 
L 143.474133 194.762013 
L 143.5072 195.50238 
L 143.573333 195.180902 
L 143.6064 194.744601 
L 143.672533 195.008158 
L 143.8048 195.65876 
L 143.870933 195.267841 
L 143.904 195.742644 
L 143.937067 195.628422 
L 143.970133 195.91235 
L 144.0032 195.686175 
L 144.069333 195.883963 
L 144.1024 194.291443 
L 144.168533 195.32043 
L 144.234667 194.24832 
L 144.267733 195.288773 
L 144.3008 195.381228 
L 144.4 196.22972 
L 144.433067 195.506137 
L 144.532267 195.599012 
L 144.664533 197.029156 
L 144.730667 196.230853 
L 144.862933 197.89198 
L 145.028267 196.572223 
L 145.061333 196.431134 
L 145.0944 196.719373 
L 145.1936 197.984434 
L 145.226667 197.416816 
L 145.259733 197.035841 
L 145.2928 197.369056 
L 145.325867 197.775113 
L 145.358933 196.328355 
L 145.425067 197.48372 
L 145.458133 197.650991 
L 145.4912 196.94444 
L 145.557333 197.182784 
L 145.623467 198.422755 
L 145.656533 198.266197 
L 145.6896 196.977617 
L 145.7888 197.074704 
L 145.954133 198.24002 
L 145.9872 198.085489 
L 146.020267 198.921245 
L 146.053333 197.760176 
L 146.0864 197.781392 
L 146.251733 199.47595 
L 146.2848 199.313761 
L 146.317867 199.354775 
L 146.450133 198.517345 
L 146.4832 198.935513 
L 146.516267 197.707863 
L 146.5824 198.876794 
L 146.615467 198.538853 
L 146.648533 198.828976 
L 146.6816 199.503619 
L 146.714667 198.23199 
L 146.747733 198.202296 
L 146.846933 199.72169 
L 146.88 199.422846 
L 146.913067 198.016428 
L 146.9792 199.637272 
L 147.144533 197.50514 
L 147.210667 198.345716 
L 147.376 200.465618 
L 147.409067 200.496918 
L 147.541333 199.857952 
L 147.607467 199.984976 
L 147.6736 200.72956 
L 147.739733 200.519508 
L 147.7728 200.546339 
L 147.905067 199.054521 
L 148.037333 201.749131 
L 148.0704 201.56588 
L 148.136533 202.016485 
L 148.235733 203.575629 
L 148.2688 202.675076 
L 148.334933 202.684186 
L 148.368 202.198793 
L 148.401067 202.73649 
L 148.434133 202.210465 
L 148.533333 201.103306 
L 148.599467 202.30171 
L 148.632533 200.844989 
L 148.698667 201.698861 
L 148.731733 201.679201 
L 148.930133 203.61278 
L 148.9632 201.721956 
L 149.0624 201.844338 
L 149.128533 203.80599 
L 149.194667 202.837494 
L 149.227733 202.673836 
L 149.2608 202.788603 
L 149.326933 204.011293 
L 149.36 203.827135 
L 149.393067 202.230374 
L 149.4592 203.841774 
L 149.492267 203.264746 
L 149.525333 203.842761 
L 149.5584 204.291672 
L 149.591467 204.121465 
L 149.690667 204.235315 
L 149.7568 201.989436 
L 149.856 204.709167 
L 149.922133 204.283445 
L 150.0544 202.905121 
L 150.087467 203.201455 
L 150.1536 204.836774 
L 150.219733 203.847445 
L 150.2528 203.529079 
L 150.285867 204.28037 
L 150.318933 204.068772 
L 150.4512 201.09712 
L 150.484267 202.117259 
L 150.517333 203.43235 
L 150.583467 202.907254 
L 150.616533 201.417954 
L 150.715733 201.930253 
L 150.781867 203.607773 
L 150.848 202.523825 
L 150.914133 204.063087 
L 151.013333 205.542814 
L 151.0464 205.014399 
L 151.079467 204.98989 
L 151.211733 205.898676 
L 151.344 205.282789 
L 151.4432 205.768986 
L 151.509333 206.805865 
L 151.575467 206.52333 
L 151.608533 206.432422 
L 151.6416 206.656175 
L 151.674667 206.610064 
L 151.707733 206.882545 
L 151.7408 206.570852 
L 151.773867 206.46854 
L 151.873067 207.163172 
L 151.9392 207.12404 
L 151.972267 206.892537 
L 152.0384 207.209386 
L 152.170667 207.379135 
L 152.302933 207.281105 
L 152.336 207.373709 
L 152.600533 207.644106 
L 152.798933 207.94022 
L 153.063467 208.254753 
L 153.162667 208.350232 
L 153.394133 208.459167 
L 153.592533 208.471729 
L 153.824 208.580798 
L 154.5184 208.304778 
L 154.7168 208.310201 
L 154.816 208.366385 
L 155.4112 208.457445 
L 156.0064 208.181978 
L 156.370133 207.912264 
L 156.568533 207.745836 
L 156.866133 207.439994 
L 157.229867 207.113764 
L 157.825067 207.160357 
L 157.957333 207.216222 
L 157.9904 207.168205 
L 158.056533 207.226467 
L 158.0896 207.234896 
L 158.221867 206.732444 
L 158.784 206.613386 
L 160.106667 204.813241 
L 160.834133 202.566342 
L 160.933333 202.316828 
L 161.892267 199.002092 
L 163.744 190.93195 
L 164.074667 189.392837 
L 165.5296 184.109405 
L 166.1248 183.147279 
L 166.157867 183.146758 
L 166.356267 182.787362 
L 166.686933 182.46098 
L 166.852267 182.288703 
L 167.282133 182.094498 
L 167.712 182.252884 
L 167.943467 182.549803 
L 168.0096 182.60198 
L 168.737067 184.539737 
L 169.1008 185.960269 
L 169.464533 187.202055 
L 170.026667 189.58124 
L 170.621867 192.843923 
L 173.234133 209.527629 
L 174.424533 218.386747 
L 174.788267 221.023826 
L 175.416533 224.559834 
L 176.64 229.161999 
L 177.102933 230.529752 
L 177.598933 231.361575 
L 178.3264 231.454434 
L 178.458667 231.416997 
L 178.855467 231.68112 
L 179.12 231.730194 
L 179.384533 231.938549 
L 179.946667 231.574085 
L 180.0128 231.594503 
L 180.045867 231.512798 
L 180.277333 231.353952 
L 180.376533 231.257045 
L 180.839467 230.598758 
L 181.0048 230.343135 
L 181.633067 229.087431 
L 184.642133 216.579318 
L 187.552 201.743842 
L 188.081067 199.99231 
L 189.006933 197.663537 
L 189.271467 197.384473 
L 189.536 197.25182 
L 189.965867 197.329153 
L 190.6272 197.888058 
L 191.850667 199.256541 
L 191.949867 199.45014 
L 191.982933 199.172624 
L 192.049067 199.321649 
L 193.636267 202.009968 
L 193.8016 202.053457 
L 193.966933 202.045379 
L 194.429867 201.974481 
L 194.5952 201.870107 
L 194.925867 201.595027 
L 195.421867 200.86278 
L 196.050133 199.903174 
L 196.2816 199.571987 
L 196.612267 198.926645 
L 197.306667 197.634905 
L 198.629333 196.086452 
L 199.092267 196.111282 
L 199.5552 196.439216 
L 200.414933 197.961741 
L 200.580267 198.77561 
L 201.3408 201.100309 
L 202.597333 206.399411 
L 204.2176 213.116455 
L 205.374933 216.144263 
L 205.937067 216.977791 
L 206.9952 217.391591 
L 207.6896 217.089422 
L 208.417067 216.405052 
L 208.88 216.092406 
L 209.012267 215.510125 
L 209.409067 215.552996 
L 210.830933 215.251766 
L 211.4592 214.986745 
L 211.492267 214.814948 
L 211.5584 215.03438 
L 211.6576 214.699214 
L 211.723733 214.776702 
L 211.889067 214.469571 
L 211.922133 214.596732 
L 212.021333 214.795753 
L 212.186667 214.283873 
L 212.219733 214.280275 
L 212.385067 214.935996 
L 212.418133 214.852047 
L 212.4512 215.182046 
L 212.484267 214.946163 
L 212.517333 214.727607 
L 212.583467 214.931176 
L 212.848 214.47452 
L 212.980267 214.94325 
L 213.013333 214.917959 
L 213.079467 214.962514 
L 213.112533 214.794435 
L 213.277867 215.203979 
L 213.310933 215.246751 
L 213.509333 214.714314 
L 213.5424 214.966568 
L 213.608533 214.822405 
L 213.773867 214.320146 
L 213.806933 214.349176 
L 213.906133 214.654819 
L 213.9392 214.598677 
L 213.972267 214.572694 
L 214.0384 214.91429 
L 214.170667 214.089167 
L 214.203733 214.128965 
L 214.2368 214.352761 
L 214.302933 214.118231 
L 214.369067 213.829293 
L 214.4352 213.947925 
L 214.468267 213.962201 
L 214.666667 213.316433 
L 214.798933 213.443957 
L 214.964267 212.665785 
L 215.063467 212.629498 
L 215.096533 212.736697 
L 215.857067 211.288365 
L 215.890133 211.41954 
L 215.956267 211.330261 
L 216.154667 210.724856 
L 216.187733 210.719914 
L 216.353067 210.158129 
L 216.4192 210.123987 
L 216.6176 209.316028 
L 216.650667 209.429862 
L 216.816 208.711839 
L 216.849067 208.770044 
L 216.882133 208.706596 
L 217.080533 207.842269 
L 217.2128 207.397798 
L 217.278933 207.028679 
L 217.345067 207.220055 
L 217.378133 207.320256 
L 217.4112 207.13801 
L 217.6096 206.422836 
L 217.7088 206.610683 
L 217.874133 205.973092 
L 217.940267 206.013388 
L 218.171733 205.271362 
L 218.535467 203.376173 
L 218.568533 203.468355 
L 218.6016 203.2775 
L 219.362133 199.381925 
L 219.4944 199.296663 
L 219.560533 199.657927 
L 219.5936 199.61119 
L 219.626667 199.409608 
L 219.6928 199.588665 
L 219.792 199.701854 
L 219.957333 199.547528 
L 220.023467 199.737583 
L 220.0896 199.610066 
L 221.4784 195.375518 
L 221.511467 195.519866 
L 221.544533 195.61248 
L 221.5776 195.484906 
L 221.809067 194.63396 
L 221.941333 194.143475 
L 221.9744 194.165471 
L 222.106667 194.185574 
L 222.139733 194.444018 
L 222.205867 194.10141 
L 222.272 194.170573 
L 222.305067 194.060322 
L 222.4704 193.805672 
L 222.536533 193.871695 
L 222.602667 193.534619 
L 222.701867 193.557743 
L 222.734933 193.624151 
L 222.768 193.49787 
L 222.8672 193.388299 
L 222.933333 193.498011 
L 222.9664 193.460147 
L 223.131733 193.340493 
L 223.1648 193.370777 
L 223.297067 193.084013 
L 223.495467 193.27177 
L 223.5616 193.049923 
L 223.627733 193.193568 
L 223.6608 193.122715 
L 223.8592 193.786103 
L 224.1568 194.555155 
L 224.189867 194.406431 
L 224.222933 194.480979 
L 224.685867 196.31911 
L 224.785067 196.381994 
L 225.082667 196.797629 
L 225.115733 196.832369 
L 225.3472 197.803241 
L 225.380267 197.770736 
L 225.413333 197.878452 
L 225.9424 199.670546 
L 225.975467 199.461381 
L 226.008533 199.868207 
L 226.074667 200.136518 
L 226.173867 200.088982 
L 226.306133 199.859559 
L 226.372267 199.966877 
L 226.471467 199.92944 
L 226.5376 200.310006 
L 226.570667 200.173724 
L 226.603733 200.448057 
L 226.868267 201.223422 
L 226.9344 201.296571 
L 227.3312 202.716608 
L 227.397333 202.557744 
L 227.562667 202.727887 
L 227.761067 203.620958 
L 227.794133 203.54356 
L 227.8272 203.537578 
L 227.992533 203.856826 
L 228.058667 203.676846 
L 228.157867 203.293003 
L 228.190933 203.382611 
L 228.224 203.532472 
L 228.257067 203.296255 
L 228.290133 203.378711 
L 228.389333 203.241084 
L 228.686933 203.968731 
L 228.72 203.918795 
L 228.753067 203.442852 
L 228.8192 204.039386 
L 229.050667 204.398033 
L 229.083733 204.264743 
L 229.1168 204.510622 
L 229.149867 204.429031 
L 229.182933 204.764156 
L 229.249067 204.46235 
L 229.282133 204.389594 
L 229.546667 205.455233 
L 229.645867 204.709971 
L 229.678933 205.139844 
L 229.712 205.215923 
L 229.745067 205.06196 
L 229.844267 204.867556 
L 229.943467 205.351308 
L 230.0096 204.990349 
L 230.042667 205.368631 
L 230.075733 205.182225 
L 230.1088 205.187179 
L 230.241067 204.736449 
L 230.340267 205.175175 
L 230.373333 205.09065 
L 230.4064 204.598282 
L 230.472533 205.04923 
L 230.5056 204.909431 
L 230.571733 204.864927 
L 230.704 205.95633 
L 230.737067 205.858339 
L 230.770133 206.006607 
L 230.8032 206.016158 
L 231.0016 205.593831 
L 231.1008 206.406415 
L 231.166933 206.277529 
L 231.2 206.285337 
L 231.233067 206.781634 
L 231.2992 206.641508 
L 231.332267 206.322205 
L 231.3984 206.388248 
L 231.431467 206.451878 
L 231.464533 206.366922 
L 231.4976 205.709829 
L 231.563733 206.120229 
L 231.696 205.78891 
L 231.7952 206.225893 
L 231.828267 205.979513 
L 231.861333 205.718459 
L 231.927467 205.833765 
L 232.059733 206.629014 
L 232.0928 206.308069 
L 232.125867 206.486479 
L 232.158933 206.772192 
L 232.192 206.737438 
L 232.258133 205.654834 
L 232.357333 205.736845 
L 232.3904 205.515462 
L 232.423467 205.552507 
L 232.456533 205.91046 
L 232.4896 205.000322 
L 232.5888 205.136529 
L 232.654933 205.831045 
L 232.721067 205.608703 
L 232.754133 205.374534 
L 232.7872 205.59835 
L 232.820267 206.119471 
L 232.853333 205.543737 
L 232.9856 204.910036 
L 233.051733 205.346246 
L 233.0848 204.926771 
L 233.184 204.439823 
L 233.250133 204.704693 
L 233.349333 205.259971 
L 233.3824 205.187657 
L 233.4816 205.039721 
L 233.514667 205.134275 
L 233.68 203.693896 
L 233.8784 202.435225 
L 233.911467 202.447537 
L 234.043733 203.682221 
L 234.142933 202.942749 
L 234.176 203.067278 
L 234.407467 201.589638 
L 234.440533 201.64227 
L 234.506667 200.516794 
L 234.539733 200.985106 
L 234.605867 200.918959 
L 234.672 201.6598 
L 234.837333 200.481522 
L 234.8704 200.60803 
L 234.903467 200.590472 
L 235.035733 199.448862 
L 235.0688 199.617296 
L 235.101867 199.543306 
L 235.134933 199.907439 
L 235.234133 199.82794 
L 235.333333 198.473799 
L 235.3664 198.667497 
L 235.399467 198.789993 
L 235.498667 198.166966 
L 235.5648 199.2282 
L 235.597867 199.058239 
L 235.664 197.281754 
L 235.730133 197.707755 
L 235.7632 198.211945 
L 235.829333 197.566262 
L 235.8624 197.998337 
L 235.928533 197.626888 
L 236.027733 196.360884 
L 236.0608 197.319686 
L 236.126933 196.162141 
L 236.16 196.239444 
L 236.193067 195.676425 
L 236.226133 196.704612 
L 236.2592 195.969531 
L 236.292267 195.953066 
L 236.325333 196.255937 
L 236.3584 195.49169 
L 236.4576 195.639405 
L 236.589867 194.569933 
L 236.622933 194.610711 
L 236.656 195.592818 
L 236.689067 195.313165 
L 236.722133 194.194841 
L 236.788267 194.565288 
L 236.821333 195.468849 
L 236.887467 194.595007 
L 237.085867 193.361071 
L 237.118933 194.115371 
L 237.185067 193.211297 
L 237.2512 192.832515 
L 237.284267 193.578407 
L 237.317333 192.240176 
L 237.3504 192.244152 
L 237.416533 191.87178 
L 237.482667 192.700022 
L 237.614933 191.684396 
L 237.681067 192.916128 
L 237.714133 191.866224 
L 237.780267 191.519446 
L 237.813333 192.418169 
L 237.8464 192.164081 
L 237.978667 190.414512 
L 238.077867 191.009785 
L 238.110933 190.757088 
L 238.210133 192.135825 
L 238.177067 190.707413 
L 238.2432 192.050267 
L 238.375467 190.387049 
L 238.408533 190.489767 
L 238.5408 188.396859 
L 238.673067 189.608627 
L 238.706133 189.205516 
L 238.7392 189.934892 
L 238.772267 189.813262 
L 238.805333 188.137616 
L 238.871467 188.506949 
L 238.904533 189.212579 
L 238.9376 188.890395 
L 239.003733 187.698672 
L 239.0368 189.160395 
L 239.102933 188.742223 
L 239.2352 188.321373 
L 239.268267 188.789885 
L 239.301333 188.192561 
L 239.3344 187.978349 
L 239.466667 189.034255 
L 239.598933 187.884255 
L 239.698133 187.744367 
L 239.7312 188.451959 
L 239.863467 187.592033 
L 239.896533 187.343856 
L 239.9296 187.486207 
L 240.128 188.51028 
L 240.194133 186.041099 
L 240.260267 187.273037 
L 240.359467 188.324705 
L 240.4256 185.592733 
L 240.491733 187.253941 
L 240.557867 188.181249 
L 240.624 187.935845 
L 240.7232 187.447922 
L 240.756267 187.676431 
L 240.8224 188.291843 
L 240.855467 187.939517 
L 240.888533 187.251771 
L 240.9216 188.254477 
L 240.954667 188.36939 
L 241.053867 188.328939 
L 241.086933 188.959518 
L 241.153067 188.010651 
L 241.2192 188.046927 
L 241.285333 189.64743 
L 241.3184 189.088223 
L 241.450667 187.94068 
L 241.483733 187.707017 
L 241.5168 188.975706 
L 241.616 188.774553 
L 241.682133 186.840842 
L 241.748267 188.097314 
L 241.8144 188.010781 
L 241.880533 189.526192 
L 241.9136 188.370595 
L 241.979733 189.412398 
L 242.045867 190.066839 
L 242.078933 189.491233 
L 242.112 189.529147 
L 242.2112 191.285017 
L 242.178133 189.477761 
L 242.244267 190.382152 
L 242.277333 189.541177 
L 242.343467 190.102596 
L 242.475733 192.015034 
L 242.5088 191.80794 
L 242.541867 191.655223 
L 242.574933 192.022944 
L 242.608 191.997337 
L 242.674133 192.00961 
L 242.7072 191.578125 
L 242.773333 191.426114 
L 242.9056 194.268127 
L 242.971733 192.50559 
L 243.037867 193.077365 
L 243.070933 193.88556 
L 243.104 193.102851 
L 243.170133 190.47235 
L 243.2032 192.102448 
L 243.467733 196.328366 
L 243.5008 195.68942 
L 243.566933 196.044966 
L 243.6992 196.997225 
L 243.666133 195.957736 
L 243.732267 196.88469 
L 243.864533 195.184159 
L 244.096 199.485895 
L 244.162133 198.122585 
L 244.1952 198.547344 
L 244.327467 199.904013 
L 244.459733 199.132962 
L 244.4928 199.425892 
L 244.7904 202.576829 
L 244.823467 202.237225 
L 244.9888 203.94126 
L 245.088 202.905242 
L 245.121067 203.395732 
L 245.418667 207.139927 
L 245.451733 206.4527 
L 245.4848 206.514962 
L 245.550933 205.37489 
L 245.584 206.141803 
L 245.716267 207.609995 
L 245.749333 207.421278 
L 245.7824 209.011792 
L 245.815467 208.79857 
L 245.848533 206.824791 
L 245.914667 208.183497 
L 245.947733 208.118964 
L 246.046933 210.321207 
L 246.08 208.679602 
L 246.146133 209.665919 
L 246.344533 212.487317 
L 246.410667 210.741537 
L 246.443733 211.746588 
L 246.4768 212.666248 
L 246.542933 212.225911 
L 246.576 212.072823 
L 246.6752 214.755921 
L 246.741333 214.488462 
L 246.7744 213.723426 
L 246.807467 214.450485 
L 246.840533 215.077057 
L 246.906667 214.893535 
L 246.939733 214.698555 
L 246.9728 215.074385 
L 247.105067 217.470854 
L 247.1712 217.415662 
L 247.204267 217.395151 
L 247.237333 216.851092 
L 247.2704 217.920888 
L 247.303467 218.300616 
L 247.336533 218.041198 
L 247.3696 217.378875 
L 247.402667 217.664766 
L 247.568 222.777592 
L 247.601067 220.998909 
L 247.634133 221.05833 
L 247.700267 219.060261 
L 247.799467 219.377069 
L 247.832533 221.856019 
L 247.898667 221.742094 
L 248.064 220.281953 
L 248.2624 224.727191 
L 248.295467 224.075746 
L 248.328533 224.483073 
L 248.3616 224.449811 
L 248.394667 223.717041 
L 248.427733 224.938625 
L 248.4608 224.407959 
L 248.526933 225.794714 
L 248.56 224.709641 
L 248.593067 223.943885 
L 248.626133 225.492477 
L 248.692267 226.474303 
L 248.725333 226.422573 
L 248.7584 225.69932 
L 248.824533 226.602635 
L 248.890667 227.610949 
L 248.923733 227.600066 
L 248.9568 226.327508 
L 249.022933 227.246953 
L 249.056 227.230211 
L 249.188267 226.433048 
L 249.221333 227.568375 
L 249.287467 226.766299 
L 249.320533 226.745911 
L 249.518933 229.73829 
L 249.552 228.757672 
L 249.585067 228.536997 
L 249.6512 228.575151 
L 249.783467 230.003563 
L 249.816533 229.220781 
L 249.8496 229.241483 
L 249.9488 230.54627 
L 249.981867 230.216125 
L 250.014933 229.685036 
L 250.048 230.803271 
L 250.081067 230.925448 
L 250.114133 230.763476 
L 250.1472 230.639861 
L 250.279467 232.013934 
L 250.378667 231.374869 
L 250.544 232.552142 
L 250.577067 232.442735 
L 250.610133 232.460911 
L 250.808533 233.49079 
L 250.8416 233.48442 
L 251.006933 233.986129 
L 251.073067 234.083308 
L 251.271467 234.895213 
L 251.965867 236.863498 
L 252.065067 237.074189 
L 252.494933 238.21608 
L 253.288533 240.093992 
L 253.453867 240.229423 
L 253.586133 240.297317 
L 253.8176 240.341881 
L 253.949867 240.262761 
L 254.478933 239.097125 
L 254.8096 238.259339 
L 255.1072 237.422066 
L 256.5952 232.240991 
L 258.215467 223.720042 
L 261.422933 202.102112 
L 261.985067 197.948441 
L 262.381867 195.101253 
L 263.1424 190.868155 
L 263.506133 189.946807 
L 263.770667 189.554091 
L 264.1344 189.014784 
L 264.961067 187.745965 
L 265.2256 187.607832 
L 265.490133 187.503897 
L 265.5232 187.545796 
L 265.589333 187.453014 
L 265.853867 187.54583 
L 266.3168 187.97527 
L 266.7136 188.658347 
L 267.573333 190.994886 
L 267.970133 192.021573 
L 268.135467 192.445665 
L 268.168533 191.979747 
L 268.234667 192.140143 
L 269.226667 194.295809 
L 271.706667 200.769055 
L 272.5664 203.411552 
L 274.318933 208.953222 
L 275.112533 211.249317 
L 275.906133 212.861109 
L 276.402133 213.625183 
L 276.600533 213.870439 
L 276.7328 214.556781 
L 277.294933 215.049493 
L 277.394133 215.099756 
L 277.559467 215.185043 
L 278.088533 215.104302 
L 278.485333 214.927912 
L 279.0144 214.302082 
L 279.642667 213.189608 
L 280.337067 211.800051 
L 281.825067 208.013026 
L 282.420267 206.219212 
L 284.205867 201.491429 
L 284.635733 200.924049 
L 285.0656 200.490194 
L 285.098667 200.668824 
L 285.1648 200.620781 
L 285.594667 200.319103 
L 286.024533 200.190775 
L 286.3552 200.35548 
L 287.3472 201.51274 
L 287.810133 202.66464 
L 290.455467 210.029063 
L 292.075733 212.653435 
L 292.6048 212.882001 
L 293.0016 212.862964 
L 293.2 212.775766 
L 293.530667 212.472248 
L 293.662933 211.753271 
L 294.158933 210.966331 
L 296.440533 206.813934 
L 297.234133 205.114791 
L 297.9616 203.964351 
L 298.920533 203.129879 
L 299.780267 202.739419 
L 300.144 202.724113 
L 300.4416 202.812828 
L 301.069867 202.986164 
L 301.995733 203.57215 
L 302.128 204.609344 
L 302.392533 204.785107 
L 302.8224 205.011248 
L 303.086933 205.033568 
L 303.748267 204.949906 
L 304.872533 204.134286 
L 305.3024 203.587079 
L 305.7984 202.84983 
L 307.815467 199.107775 
L 308.807467 198.071441 
L 309.005867 198.019726 
L 309.336533 197.97089 
L 309.733333 198.094845 
L 309.8656 198.141578 
L 310.130133 198.380241 
L 310.427733 198.716385 
L 310.4608 198.756543 
L 310.493867 198.500409 
L 310.56 198.636058 
L 310.890667 199.28656 
L 312.213333 203.468278 
L 314.759467 212.988587 
L 315.949867 215.888544 
L 316.2144 216.366182 
L 316.776533 217.262371 
L 316.941867 217.433799 
L 317.371733 217.832145 
L 318.132267 217.840046 
L 318.496 217.810157 
L 318.6944 217.814024 
L 318.925867 217.860247 
L 319.058133 217.713773 
L 319.223467 217.722147 
L 319.421867 217.549373 
L 319.752533 217.349172 
L 320.810667 216.750823 
L 321.339733 216.660306 
L 321.5712 216.664041 
L 322.001067 216.346786 
L 322.331733 215.939793 
L 323.092267 214.482374 
L 323.819733 212.785678 
L 324.7456 209.0905 
L 325.7376 203.673207 
L 327.655467 192.712028 
L 328.3168 189.981358 
L 328.647467 188.884184 
L 328.945067 187.994601 
L 329.2096 187.176942 
L 330.0032 185.301213 
L 330.333867 184.84393 
L 330.532267 184.524172 
L 330.829867 184.166055 
L 331.160533 183.810846 
L 331.4912 183.572987 
L 331.722667 183.336368 
L 332.0864 182.99016 
L 332.417067 183.077722 
L 332.549333 183.071128 
L 333.4752 184.268162 
L 334.996267 188.591241 
L 335.5584 190.548318 
L 335.856 191.774778 
L 335.889067 191.382945 
L 335.9552 191.798908 
L 336.385067 194.439285 
L 337.674667 202.929863 
L 337.906133 204.337206 
L 337.972267 203.952298 
L 338.005333 204.293151 
L 338.302933 207.288412 
L 338.336 206.992259 
L 338.369067 207.696773 
L 338.468267 206.856845 
L 338.501333 207.5173 
L 338.699733 210.442948 
L 338.798933 210.104653 
L 338.9312 209.203824 
L 339.096533 212.079859 
L 339.1296 211.548857 
L 339.162667 212.494187 
L 339.2288 212.341214 
L 339.394133 214.662948 
L 339.460267 213.952671 
L 339.493333 214.274073 
L 339.5264 214.651171 
L 339.559467 214.249718 
L 339.6256 213.71726 
L 339.658667 214.087618 
L 339.691733 214.173633 
L 339.7248 213.402097 
L 339.757867 214.387465 
L 339.824 213.964693 
L 340.055467 216.967275 
L 340.088533 216.88946 
L 340.353067 219.982939 
L 340.386133 219.895963 
L 340.4192 220.043301 
L 340.551467 221.116847 
L 340.6176 220.820519 
L 340.782933 222.842991 
L 340.816 222.495233 
L 340.849067 222.561962 
L 340.882133 222.355405 
L 340.9152 222.797175 
L 340.948267 223.276333 
L 341.0144 222.626428 
L 341.278933 224.8728 
L 341.4112 223.848777 
L 341.345067 224.963425 
L 341.444267 224.138976 
L 341.874133 227.202154 
L 341.9072 227.12323 
L 342.039467 228.197394 
L 342.072533 227.297993 
L 342.171733 227.355647 
L 342.270933 226.772213 
L 342.304 226.949264 
L 342.337067 227.77396 
L 342.4032 227.50618 
L 342.436267 226.827466 
L 342.5024 227.120522 
L 342.634667 228.303203 
L 342.7008 227.703018 
L 342.8 228.885575 
L 342.833067 228.586457 
L 342.866133 228.171134 
L 342.932267 228.400394 
L 342.9984 228.736464 
L 343.064533 228.23857 
L 343.130667 229.309527 
L 343.163733 228.787455 
L 343.362133 227.931134 
L 343.3952 228.000886 
L 343.527467 228.841443 
L 343.560533 228.583191 
L 343.5936 228.651851 
L 343.758933 229.365479 
L 343.825067 229.591084 
L 343.8912 229.011446 
L 343.924267 229.111826 
L 343.9904 228.198751 
L 344.0896 228.667124 
L 344.221867 229.625121 
L 344.354133 228.668166 
L 344.3872 228.912877 
L 344.420267 229.341581 
L 344.4864 228.879345 
L 344.519467 228.926945 
L 344.6848 227.833059 
L 344.717867 227.909525 
L 344.817067 228.241345 
L 344.850133 228.000296 
L 344.8832 227.978468 
L 344.949333 228.300701 
L 344.9824 228.165198 
L 345.114667 227.374525 
L 345.147733 227.387533 
L 345.1808 227.435639 
L 345.213867 227.182699 
L 345.246933 227.461693 
L 345.28 227.551334 
L 345.3792 227.574121 
L 345.445333 226.975895 
L 345.4784 227.50024 
L 345.511467 227.193599 
L 345.5776 226.665339 
L 345.643733 226.72911 
L 345.809067 226.134141 
L 345.842133 225.835188 
L 345.908267 226.016757 
L 346.007467 225.681089 
L 346.0736 225.892477 
L 346.139733 224.816725 
L 346.238933 224.931081 
L 346.305067 224.403791 
L 346.3712 224.474227 
L 346.536533 223.076428 
L 346.6688 222.76425 
L 346.701867 223.142209 
L 346.801067 223.117912 
L 346.900267 222.45192 
L 346.933333 221.977109 
L 347.032533 222.061991 
L 347.098667 221.59475 
L 347.131733 221.970128 
L 347.1648 221.996034 
L 347.197867 221.907992 
L 347.6608 219.954432 
L 347.693867 219.994466 
L 347.8592 220.500453 
L 347.9584 220.52116 
L 348.024533 220.010011 
L 348.189867 220.413416 
L 348.289067 220.754163 
L 348.752 216.660656 
L 348.983467 214.498934 
L 349.016533 214.517131 
L 349.115733 214.904802 
L 349.1488 214.767572 
L 349.876267 216.474879 
L 349.909333 216.245946 
L 349.975467 216.274541 
L 350.074667 215.744211 
L 350.206933 214.874131 
L 350.24 215.061213 
L 350.273067 214.680974 
L 350.4384 213.433673 
L 350.669867 212.381161 
L 350.702933 212.527607 
L 350.736 212.191719 
L 350.802133 212.103951 
L 350.967467 211.573957 
L 351.1328 211.994502 
L 351.265067 211.780954 
L 351.298133 211.875325 
L 351.3312 211.684887 
L 351.694933 211.412275 
L 351.761067 211.572145 
L 351.794133 211.464685 
L 351.860267 211.412543 
L 352.091733 210.639043 
L 352.257067 210.168115 
L 352.6208 208.746391 
L 352.786133 207.96851 
L 352.8192 209.45754 
L 352.9184 209.234099 
L 353.216 208.174938 
L 353.348267 207.796753 
L 353.381333 207.881741 
L 353.4144 207.860595 
L 353.579733 207.528644 
L 353.844267 206.974913 
L 353.877333 207.137973 
L 353.943467 206.910732 
L 354.208 206.496391 
L 354.4064 206.668328 
L 354.439467 206.725048 
L 354.472533 206.641183 
L 355.266133 205.091647 
L 355.2992 205.072135 
L 355.431467 204.831644 
L 355.563733 204.989364 
L 355.5968 204.928206 
L 355.960533 204.803676 
L 356.0928 204.472044 
L 356.192 204.420707 
L 356.225067 204.422432 
L 356.324267 204.582375 
L 356.357333 204.556516 
L 356.522667 204.217822 
L 356.5888 203.995211 
L 356.654933 204.068398 
L 356.688 204.120537 
L 356.8864 203.596641 
L 356.9856 203.211268 
L 357.184 202.826264 
L 357.250133 202.74836 
L 357.448533 202.408516 
L 357.4816 202.460174 
L 357.514667 202.403623 
L 358.010667 201.262802 
L 358.176 200.927079 
L 358.3744 200.505288 
L 358.705067 199.886374 
L 358.7712 199.933268 
L 358.8704 199.832723 
L 359.0688 199.173852 
L 359.134933 199.211516 
L 359.2672 198.767496 
L 359.300267 198.776772 
L 359.3664 198.58085 
L 359.664 197.588098 
L 360.391467 194.886392 
L 360.424533 194.896594 
L 360.589867 194.360231 
L 360.821333 194.085918 
L 360.8544 194.193863 
L 360.887467 194.062692 
L 360.986667 193.905183 
L 361.019733 193.950276 
L 361.218133 193.415213 
L 361.2512 193.526725 
L 361.383467 191.978539 
L 361.614933 191.528303 
L 362.144 190.5607 
L 362.177067 190.598513 
L 362.3424 190.444412 
L 362.474667 190.077736 
L 362.507733 190.183395 
L 362.5408 190.178 
L 362.673067 189.893568 
L 362.772267 189.817523 
L 362.805333 189.924961 
L 362.871467 190.090474 
L 362.9376 189.986381 
L 363.0368 189.969227 
L 363.202133 190.373614 
L 363.3344 190.438788 
L 363.665067 192.121705 
L 364.260267 195.549117 
L 364.5248 197.373855 
L 364.557867 197.266679 
L 364.590933 197.483133 
L 364.888533 199.761552 
L 365.252267 202.775363 
L 365.582933 205.552661 
L 365.847467 207.876797 
L 366.0128 210.142513 
L 366.045867 210.134748 
L 366.3104 212.695993 
L 366.442667 214.2582 
L 366.839467 217.699933 
L 366.938667 218.210777 
L 366.971733 218.095193 
L 367.137067 219.411284 
L 367.2032 219.512913 
L 367.4016 220.346769 
L 367.434667 220.313989 
L 367.467733 220.413018 
L 367.7984 222.15482 
L 367.9968 223.66497 
L 368.029867 223.447548 
L 368.062933 223.478467 
L 368.261333 225.199475 
L 368.2944 225.147071 
L 368.327467 225.204637 
L 368.459733 225.597273 
L 368.525867 225.469581 
L 368.558933 225.6313 
L 368.625067 225.933822 
L 368.658133 225.637626 
L 368.6912 225.459208 
L 368.757333 225.526743 
L 368.856533 226.07367 
L 368.922667 225.410569 
L 368.9888 225.65139 
L 369.154133 225.047374 
L 369.1872 225.253906 
L 369.220267 225.380059 
L 369.253333 224.865924 
L 369.319467 225.153609 
L 369.352533 225.332508 
L 369.3856 225.265138 
L 369.517867 224.883563 
L 369.550933 224.905282 
L 369.6832 224.072075 
L 369.716267 224.355652 
L 369.749333 224.237638 
L 369.7824 224.590033 
L 369.815467 224.099633 
L 370.013867 222.731947 
L 370.113067 223.46293 
L 370.146133 223.090355 
L 370.2784 222.655818 
L 370.311467 222.657759 
L 370.344533 222.85475 
L 370.3776 222.579023 
L 370.410667 222.649294 
L 370.443733 222.723353 
L 370.4768 223.074672 
L 370.509867 222.816715 
L 370.7744 221.031652 
L 370.807467 221.207046 
L 370.840533 221.452371 
L 370.8736 221.095581 
L 370.939733 221.357869 
L 371.072 220.84535 
L 371.105067 221.006971 
L 371.138133 220.672859 
L 371.2704 219.267436 
L 371.3696 219.579618 
L 371.402667 219.942769 
L 371.4688 219.60252 
L 371.601067 218.520608 
L 371.634133 218.572554 
L 371.700267 218.813271 
L 371.898667 217.297293 
L 371.931733 217.570927 
L 371.9648 217.063757 
L 372.1632 214.989176 
L 372.196267 215.101931 
L 372.229333 214.901726 
L 372.427733 213.346068 
L 372.593067 212.538093 
L 372.989867 209.196303 
L 373.022933 210.019393 
L 373.089067 208.950041 
L 373.122133 208.934759 
L 373.287467 207.184613 
L 373.320533 207.279463 
L 373.552 205.06338 
L 373.6512 204.166336 
L 373.684267 205.294523 
L 373.7504 204.717147 
L 374.081067 202.704415 
L 374.213333 200.846832 
L 374.378667 198.153026 
L 374.6432 194.913261 
L 374.808533 190.598875 
L 374.874667 190.855303 
L 374.907733 190.74024 
L 375.172267 187.536963 
L 375.271467 186.178441 
L 375.370667 186.303849 
L 375.403733 184.880799 
L 375.4368 184.895829 
L 375.469867 185.361042 
L 375.536 184.972225 
L 375.7344 181.991504 
L 375.767467 182.291329 
L 375.899733 180.43732 
L 375.9328 180.487511 
L 376.263467 176.640074 
L 376.296533 177.298304 
L 376.395733 177.263891 
L 376.528 175.384889 
L 376.561067 175.991391 
L 376.594133 175.999013 
L 376.759467 172.040414 
L 376.792533 171.960515 
L 377.189333 166.456448 
L 377.2224 168.238314 
L 377.288533 167.414647 
L 377.553067 165.455686 
L 377.586133 166.001123 
L 377.6192 165.645898 
L 377.751467 163.928143 
L 377.784533 164.160651 
L 377.8176 165.130935 
L 377.883733 164.279076 
L 378.082133 161.630506 
L 378.148267 163.581093 
L 378.181333 162.7459 
L 378.2144 162.520375 
L 378.247467 162.825594 
L 378.280533 163.020078 
L 378.3136 162.766571 
L 378.445867 161.768016 
L 378.478933 161.805138 
L 378.578133 160.084526 
L 378.545067 161.864248 
L 378.644267 160.266018 
L 378.677333 160.587102 
L 378.842667 157.162439 
L 378.875733 157.910976 
L 378.9088 157.044659 
L 378.941867 156.704854 
L 379.041067 158.486041 
L 379.074133 157.339976 
L 379.1072 158.146439 
L 379.140267 159.058535 
L 379.2064 157.978599 
L 379.272533 158.478626 
L 379.338667 156.715193 
L 379.437867 157.956083 
L 379.4048 156.684339 
L 379.470933 157.259825 
L 379.504 157.160767 
L 379.537067 157.659751 
L 379.570133 157.449066 
L 379.636267 156.310084 
L 379.7024 156.656423 
L 379.8016 157.009297 
L 379.834667 156.99203 
L 379.867733 156.253564 
L 379.933867 156.973308 
L 379.966933 156.982009 
L 380.033067 157.120202 
L 380.0992 156.513557 
L 380.132267 156.540694 
L 380.165333 156.484016 
L 380.2976 157.376417 
L 380.363733 156.937505 
L 380.529067 159.159701 
L 380.429867 156.830104 
L 380.562133 158.303802 
L 380.5952 156.585081 
L 380.661333 158.197142 
L 380.6944 159.374057 
L 380.760533 158.068612 
L 380.7936 158.392807 
L 380.826667 160.34534 
L 380.925867 159.864879 
L 380.992 159.907555 
L 381.025067 159.344037 
L 381.1904 161.89155 
L 381.223467 160.895469 
L 381.2896 162.182304 
L 381.322667 161.830232 
L 381.355733 162.605162 
L 381.454933 162.651395 
L 381.488 162.379409 
L 381.554133 163.077563 
L 381.653333 161.491277 
L 381.6864 162.365083 
L 381.752533 161.420017 
L 381.7856 161.552091 
L 381.818667 160.5657 
L 381.851733 161.669635 
L 381.8848 161.644106 
L 382.017067 162.463422 
L 382.0832 162.280147 
L 382.215467 164.306254 
L 382.2816 163.742593 
L 382.446933 165.505512 
L 382.48 165.690776 
L 382.513067 165.406304 
L 382.546133 164.863131 
L 382.645333 167.150335 
L 382.6784 165.812601 
L 382.942933 170.659504 
L 382.976 170.746784 
L 383.1744 175.224931 
L 383.207467 175.511423 
L 383.240533 174.721653 
L 383.306667 175.621254 
L 383.339733 175.532877 
L 383.472 177.165366 
L 383.6704 178.649544 
L 383.538133 177.053117 
L 383.703467 178.184404 
L 383.8688 182.56034 
L 383.901867 181.922628 
L 383.968 182.718484 
L 384.034133 182.505883 
L 384.0672 182.543901 
L 384.100267 181.781966 
L 384.1664 182.702988 
L 384.199467 182.368206 
L 384.232533 182.671999 
L 384.596267 189.046293 
L 384.695467 188.777297 
L 384.728533 188.423138 
L 384.993067 193.042901 
L 385.0592 192.560489 
L 385.191467 194.593368 
L 385.224533 194.356916 
L 385.3568 195.212155 
L 385.389867 194.654895 
L 385.422933 195.379019 
L 385.522133 198.021772 
L 385.621333 197.122601 
L 385.720533 196.244525 
L 385.8528 197.996998 
L 385.885867 196.587712 
L 385.918933 198.07696 
L 386.117333 200.595469 
L 385.985067 197.448165 
L 386.1504 200.365586 
L 386.183467 199.68954 
L 386.216533 200.014987 
L 386.448 203.199669 
L 386.481067 202.453098 
L 386.5472 204.715351 
L 386.580267 203.032484 
L 386.6464 203.231989 
L 386.7456 200.683134 
L 386.811733 200.711202 
L 386.8448 200.840557 
L 386.944 202.889541 
L 386.977067 202.296832 
L 387.010133 201.126324 
L 387.0432 202.330925 
L 387.1424 202.30593 
L 387.175467 203.238836 
L 387.208533 202.711021 
L 387.2416 203.571322 
L 387.274667 203.597475 
L 387.307733 203.104726 
L 387.3408 203.947496 
L 387.473067 206.093665 
L 387.5392 204.28654 
L 387.605333 204.725943 
L 387.803733 207.387147 
L 387.869867 206.335061 
L 387.969067 206.790103 
L 388.068267 208.364932 
L 388.101333 208.246755 
L 388.1344 207.864805 
L 388.167467 208.528835 
L 388.200533 208.780073 
L 388.2336 208.124735 
L 388.266667 209.571227 
L 388.299733 209.433136 
L 388.3328 210.244923 
L 388.365867 209.459092 
L 388.465067 209.654903 
L 388.498133 208.311253 
L 388.5312 208.130117 
L 388.564267 208.255681 
L 388.597333 208.825306 
L 388.6304 207.382924 
L 388.7296 207.842877 
L 388.762667 207.488925 
L 388.861867 205.097361 
L 388.894933 205.116193 
L 388.928 205.094102 
L 388.961067 205.539796 
L 388.994133 205.067131 
L 389.0272 205.133189 
L 389.060267 204.065039 
L 389.1264 204.894819 
L 389.192533 205.231783 
L 389.357867 208.943499 
L 389.424 208.815404 
L 389.457067 209.170683 
L 389.5232 208.690973 
L 389.589333 208.115643 
L 389.6224 207.695549 
L 389.688533 209.775588 
L 389.754667 209.229707 
L 389.787733 209.155055 
L 389.886933 210.399699 
L 389.92 209.335285 
L 389.986133 210.107083 
L 390.0192 210.0624 
L 390.1184 211.51826 
L 390.184533 211.296173 
L 390.2176 211.488923 
L 390.283733 212.836785 
L 390.3168 211.739709 
L 390.482133 212.064292 
L 390.5152 212.618451 
L 390.581333 212.524205 
L 390.746667 211.687002 
L 390.779733 212.220827 
L 390.878933 212.07258 
L 390.945067 211.851514 
L 391.077333 212.440662 
L 391.143467 212.361776 
L 391.176533 212.38505 
L 391.341867 212.964657 
L 391.374933 212.930021 
L 391.441067 212.989359 
L 392.2016 217.93463 
L 392.267733 217.912485 
L 392.730667 216.02203 
L 392.763733 216.124379 
L 393.325867 218.149807 
L 393.458133 218.525939 
L 393.888 220.093706 
L 394.251733 220.035578 
L 394.417067 219.802188 
L 394.913067 220.62635 
L 394.946133 220.560318 
L 395.111467 220.201001 
L 395.144533 220.932337 
L 395.243733 220.751295 
L 395.342933 220.818924 
L 395.640533 221.489985 
L 395.706667 221.438228 
L 395.872 220.300695 
L 396.136533 218.612502 
L 396.202667 218.601433 
L 396.235733 218.656611 
L 396.6656 219.937173 
L 396.7648 219.830302 
L 396.897067 219.413956 
L 397.591467 215.822212 
L 397.690667 215.604579 
L 397.889067 214.650194 
L 398.352 211.775819 
L 398.385067 211.797899 
L 398.4512 211.888864 
L 398.715733 212.433261 
L 398.814933 212.214694 
L 399.013333 210.724882 
L 399.6416 204.449309 
L 400.1376 202.806897 
L 400.269867 202.735461 
L 400.5344 202.923494 
L 400.567467 202.852473 
L 400.7328 201.820173 
L 401.361067 196.603611 
L 401.592533 196.743585 
L 401.890133 196.122737 
L 402.32 194.809806 
L 402.353067 194.835704 
L 402.485333 195.000033 
L 402.7168 195.244554 
L 402.849067 194.960839 
L 403.444267 193.366276 
L 403.477333 193.414626 
L 403.841067 193.895769 
L 403.973333 193.927295 
L 404.138667 194.356469 
L 404.733867 197.118483 
L 405.1968 197.747943 
L 405.428267 198.319958 
L 407.643733 205.245048 
L 407.776 205.371822 
L 407.941333 205.948894 
L 408.4704 208.949444 
L 408.503467 208.935041 
L 408.834133 208.962478 
L 409.131733 209.264235 
L 409.429333 208.982724 
L 409.693867 208.599355 
L 409.8592 209.044015 
L 410.256 210.785305 
L 410.3552 210.65363 
L 410.785067 209.033738 
L 410.8512 209.115565 
L 411.0496 209.819056 
L 411.281067 210.32461 
L 411.512533 210.377752 
L 411.6448 210.4432 
L 411.810133 211.281599 
L 412.3392 214.44605 
L 412.702933 215.963512 
L 413.8272 224.262203 
L 414.72 231.568703 
L 414.753067 232.121647 
L 414.753067 232.121647 
" style="fill:none;stroke:#87ceeb;stroke-linecap:square;stroke-width:2;"/>
   </g>
  </g>
 </g>
 <defs>
  <clipPath id="pa352a135c5">
   <rect height="266.112" width="357.12" x="57.6" y="41.472"/>
  </clipPath>
 </defs>
</svg>
