<?xml version="1.0" encoding="utf-8" standalone="no"?>
<!DOCTYPE svg PUBLIC "-//W3C//DTD SVG 1.1//EN"
  "http://www.w3.org/Graphics/SVG/1.1/DTD/svg11.dtd">
<!-- Created with matplotlib (https://matplotlib.org/) -->
<svg height="144pt" version="1.1" viewBox="0 0 648 144" width="648pt" xmlns="http://www.w3.org/2000/svg" xmlns:xlink="http://www.w3.org/1999/xlink">
 <metadata>
  <rdf:RDF xmlns:cc="http://creativecommons.org/ns#" xmlns:dc="http://purl.org/dc/elements/1.1/" xmlns:rdf="http://www.w3.org/1999/02/22-rdf-syntax-ns#">
   <cc:Work>
    <dc:type rdf:resource="http://purl.org/dc/dcmitype/StillImage"/>
    <dc:date>2021-04-29T02:18:55.908459</dc:date>
    <dc:format>image/svg+xml</dc:format>
    <dc:creator>
     <cc:Agent>
      <dc:title>Matplotlib v3.3.2, https://matplotlib.org/</dc:title>
     </cc:Agent>
    </dc:creator>
   </cc:Work>
  </rdf:RDF>
 </metadata>
 <defs>
  <style type="text/css">*{stroke-linecap:butt;stroke-linejoin:round;}</style>
 </defs>
 <g id="figure_1">
  <g id="patch_1">
   <path d="M 0 144 
L 648 144 
L 648 0 
L 0 0 
z
" style="fill:none;"/>
  </g>
  <g id="axes_1">
   <g id="line2d_1">
    <path clip-path="url(#pe0e394f4bc)" d="M 3.133462 81.571743 
L 3.446809 81.798229 
L 3.760155 81.868332 
L 4.386847 81.776659 
L 4.700193 81.981576 
L 5.953578 82.305127 
L 6.266925 82.80124 
L 7.520309 86.300993 
L 8.460348 88.959511 
L 8.773694 89.633577 
L 9.400387 90.054195 
L 10.653772 89.843886 
L 12.220503 88.910978 
L 13.160542 87.773154 
L 15.667311 82.445333 
L 16.294004 80.272143 
L 17.547389 74.259471 
L 18.800774 68.478677 
L 19.740812 64.914214 
L 20.367505 62.935155 
L 22.247582 58.011774 
L 23.187621 54.733115 
L 23.814313 52.150092 
L 25.067698 45.948681 
L 27.887814 31.982025 
L 28.827853 28.110187 
L 29.767892 25.052622 
L 30.70793 22.377927 
L 32.588008 16.322114 
L 33.528046 12.795398 
L 34.468085 9.187795 
L 35.408124 6.874399 
L 35.72147 6.545455 
L 36.034816 6.691053 
L 36.348162 7.149418 
L 36.661509 8.012223 
L 37.288201 10.757022 
L 38.22824 16.07945 
L 39.168279 21.223925 
L 40.73501 28.552375 
L 42.928433 37.822136 
L 44.808511 43.376444 
L 45.435203 46.374691 
L 46.375242 52.770233 
L 49.508704 74.944322 
L 50.135397 77.306251 
L 50.448743 77.877859 
L 50.762089 77.910214 
L 51.075435 77.586662 
L 51.702128 76.351773 
L 52.955513 72.85202 
L 53.268859 72.636319 
L 53.582205 72.846627 
L 53.895551 73.429021 
L 54.208897 74.399676 
L 54.83559 78.303869 
L 56.402321 89.967914 
L 57.029014 93.262751 
L 57.969052 96.185503 
L 58.282398 96.837999 
L 58.595745 97.113018 
L 58.909091 96.999775 
L 59.222437 96.56298 
L 59.84913 94.761875 
L 60.475822 91.515571 
L 61.415861 85.141599 
L 62.669246 77.225363 
L 63.609284 73.078506 
L 64.549323 69.93466 
L 65.176015 68.214443 
L 65.489362 67.777648 
L 65.802708 67.67519 
L 66.116054 67.874714 
L 66.4294 68.322294 
L 67.056093 70.020941 
L 67.996132 73.828068 
L 68.93617 77.791579 
L 70.502901 82.612502 
L 71.129594 84.435177 
L 72.069632 86.97506 
L 73.323017 90.604233 
L 73.94971 92.292095 
L 74.889749 95.28495 
L 75.516441 96.595335 
L 75.829787 96.746326 
L 76.143133 96.54141 
L 76.45648 95.829596 
L 77.083172 93.284321 
L 79.589942 79.603469 
L 80.529981 76.243922 
L 81.470019 73.860423 
L 83.663443 69.217454 
L 84.290135 68.61349 
L 84.916828 68.624275 
L 85.230174 68.775266 
L 85.54352 69.168921 
L 87.110251 72.318159 
L 87.423598 72.819665 
L 88.676983 75.575248 
L 89.303675 76.195389 
L 89.930368 76.071361 
L 90.55706 75.316407 
L 91.497099 73.493731 
L 93.377176 69.842987 
L 93.690522 69.233631 
L 94.317215 68.403182 
L 96.197292 64.396531 
L 98.390716 60.276637 
L 99.957447 58.847616 
L 100.584139 58.885364 
L 101.210832 59.343729 
L 101.837524 59.705029 
L 103.090909 60.530086 
L 103.717602 61.19876 
L 104.344294 62.51993 
L 104.970986 64.860289 
L 105.911025 69.708174 
L 107.791103 80.725116 
L 109.984526 92.890666 
L 110.611219 96.207073 
L 111.551257 100.31079 
L 112.17795 102.634971 
L 113.431335 106.501416 
L 114.371373 108.404979 
L 115.311412 107.74709 
L 116.251451 106.798005 
L 116.564797 106.636229 
L 116.878143 106.85193 
L 117.191489 107.525996 
L 117.818182 109.909495 
L 118.758221 115.037793 
L 119.384913 118.521368 
L 120.324952 122.247607 
L 120.951644 123.477104 
L 121.26499 123.601132 
L 121.578337 123.266795 
L 121.891683 122.727542 
L 122.205029 121.886307 
L 123.145068 118.068395 
L 124.085106 113.673482 
L 125.338491 107.466679 
L 125.965184 105.120928 
L 126.591876 103.584056 
L 127.531915 102.219746 
L 128.158607 101.103492 
L 128.7853 99.070507 
L 130.038685 94.379005 
L 130.352031 93.624051 
L 130.665377 93.165686 
L 130.978723 93.052442 
L 131.29207 93.413742 
L 132.545455 95.619287 
L 133.485493 98.520469 
L 134.425532 102.295241 
L 135.052224 104.727273 
L 135.365571 105.875882 
L 135.678917 106.582304 
L 136.305609 107.218622 
L 136.618956 107.32108 
L 137.558994 106.436705 
L 137.87234 106.053835 
L 139.439072 103.427673 
L 139.752418 103.46542 
L 140.065764 103.621804 
L 140.692456 104.533142 
L 141.945841 107.159304 
L 142.572534 107.978969 
L 142.88588 108.119175 
L 143.512573 107.633847 
L 143.825919 107.304903 
L 144.139265 106.749472 
L 144.765957 104.808161 
L 146.019342 100.488743 
L 147.272727 95.915877 
L 148.212766 93.00391 
L 151.972921 80.859929 
L 152.286267 80.013302 
L 152.912959 77.343999 
L 154.166344 70.074866 
L 155.419729 62.390509 
L 156.046422 59.359907 
L 156.98646 56.038107 
L 158.866538 49.944547 
L 159.179884 49.054779 
L 159.49323 48.596414 
L 159.806576 48.537096 
L 160.433269 49.550892 
L 161.059961 52.020671 
L 162.626692 61.096302 
L 163.566731 66.337842 
L 164.193424 69.0395 
L 164.820116 70.78668 
L 165.446809 71.514672 
L 165.760155 71.627915 
L 166.386847 71.439177 
L 166.700193 71.142588 
L 167.326886 71.121017 
L 167.953578 71.374466 
L 168.266925 71.644093 
L 170.147002 74.852649 
L 170.773694 76.610614 
L 171.400387 78.584281 
L 172.027079 81.151126 
L 173.280464 87.374107 
L 174.533849 94.238799 
L 175.160542 96.918887 
L 176.10058 99.507302 
L 177.353965 102.041792 
L 178.60735 103.31443 
L 178.920696 103.611019 
L 179.234043 103.702692 
L 179.547389 103.627196 
L 179.860735 103.373747 
L 180.487427 102.203568 
L 181.427466 98.622927 
L 183.62089 88.371725 
L 184.247582 86.597582 
L 184.874275 85.556824 
L 185.500967 84.990608 
L 186.754352 84.710196 
L 187.067698 84.321934 
L 187.694391 84.01456 
L 188.321083 83.356671 
L 189.261122 82.251202 
L 189.887814 82.003146 
L 190.201161 81.900688 
L 191.141199 81.01092 
L 191.767892 79.150497 
L 192.394584 76.508156 
L 193.334623 72.032355 
L 194.274662 69.028715 
L 194.588008 68.462499 
L 195.2147 68.160518 
L 195.528046 68.268368 
L 195.841393 68.516425 
L 196.154739 68.467892 
L 196.468085 68.807621 
L 197.094778 69.708174 
L 197.72147 70.031726 
L 198.974855 70.775895 
L 199.914894 71.849009 
L 201.481625 74.53449 
L 201.794971 74.66391 
L 202.108317 74.399676 
L 202.421663 73.623152 
L 203.048356 70.20968 
L 204.928433 56.782277 
L 205.555126 54.792432 
L 205.868472 54.42574 
L 206.181818 54.350245 
L 206.495164 54.44731 
L 206.808511 54.959601 
L 207.121857 55.854761 
L 207.748549 58.804476 
L 208.688588 65.270121 
L 209.628627 72.291197 
L 210.255319 76.265492 
L 210.882012 78.158271 
L 211.195358 78.282299 
L 211.508704 78.120523 
L 211.82205 77.592055 
L 212.448743 75.693884 
L 213.388781 72.221094 
L 214.955513 63.878848 
L 215.895551 59.128028 
L 216.522244 57.095043 
L 217.148936 55.70377 
L 217.462282 55.547387 
L 217.775629 55.552779 
L 218.088975 55.692985 
L 218.402321 56.016537 
L 219.34236 57.968633 
L 220.595745 60.697254 
L 221.535783 62.266481 
L 222.162476 62.832697 
L 222.789168 62.649351 
L 223.729207 61.635555 
L 224.042553 61.30661 
L 225.295938 58.712803 
L 226.235977 55.962612 
L 229.056093 47.226711 
L 229.682785 46.250663 
L 230.309478 45.662877 
L 230.93617 45.398643 
L 231.562863 45.107446 
L 231.876209 45.123624 
L 232.502901 44.848605 
L 234.382979 43.737743 
L 235.009671 44.00737 
L 235.636364 43.662248 
L 236.263056 43.139172 
L 237.516441 42.745517 
L 237.829787 42.734732 
L 238.45648 43.527435 
L 239.083172 44.557408 
L 239.709865 45.107446 
L 240.336557 45.296185 
L 240.96325 45.360895 
L 241.589942 45.463353 
L 241.903288 45.641307 
L 243.470019 47.172786 
L 243.783366 47.183571 
L 244.096712 47.081113 
L 244.410058 46.698243 
L 245.03675 45.301577 
L 246.290135 41.791039 
L 246.916828 40.922842 
L 247.230174 40.858131 
L 247.54352 41.176291 
L 247.856867 40.701748 
L 248.170213 41.04687 
L 249.110251 42.966611 
L 250.05029 44.552015 
L 250.676983 45.398643 
L 251.303675 47.124253 
L 253.183752 54.118366 
L 254.750484 61.225722 
L 256.003868 66.170674 
L 256.630561 68.376219 
L 257.257253 69.93466 
L 257.5706 70.3391 
L 257.883946 70.500876 
L 258.510638 70.134184 
L 259.450677 68.791444 
L 259.764023 69.114996 
L 260.077369 70.123399 
L 260.390716 70.446951 
L 260.704062 69.794455 
L 261.017408 70.258212 
L 262.270793 76.206174 
L 265.717602 95.344268 
L 268.851064 110.977217 
L 270.104449 119.330248 
L 271.044487 125.677257 
L 271.984526 130.56289 
L 272.611219 132.60666 
L 272.924565 133.733699 
L 273.237911 133.825372 
L 273.551257 135.038691 
L 273.864603 135.788253 
L 274.804642 132.876286 
L 276.371373 126.976857 
L 276.998066 125.795893 
L 277.624758 125.132611 
L 278.251451 124.663461 
L 278.878143 124.51247 
L 279.504836 124.550218 
L 280.444874 125.375275 
L 281.071567 126.410641 
L 281.698259 128.093111 
L 282.951644 132.854716 
L 283.891683 135.923067 
L 284.518375 137.114816 
L 284.831721 137.454545 
L 285.458414 137.362872 
L 285.77176 136.16573 
L 286.711799 134.639644 
L 287.965184 132.644407 
L 288.591876 131.231564 
L 289.218569 129.058374 
L 290.471954 124.458545 
L 290.7853 123.714376 
L 291.098646 123.347683 
L 291.411992 123.315328 
L 291.725338 123.460927 
L 292.038685 123.892329 
L 292.665377 125.488518 
L 293.605416 127.683279 
L 294.232108 128.70786 
L 294.545455 129.074552 
L 295.798839 129.592235 
L 296.112186 129.538309 
L 296.425532 129.328001 
L 297.052224 128.271065 
L 297.678917 126.421426 
L 298.618956 122.506449 
L 299.87234 117.944367 
L 301.125725 114.20195 
L 302.37911 109.192289 
L 303.632495 103.147261 
L 304.88588 96.309531 
L 305.825919 89.806138 
L 307.079304 79.614254 
L 308.646035 64.240147 
L 310.212766 48.731227 
L 310.839458 44.395632 
L 312.40619 35.994068 
L 313.032882 31.254033 
L 313.972921 22.232328 
L 314.912959 13.938615 
L 315.226306 12.24536 
L 315.539652 11.209994 
L 315.852998 10.730059 
L 316.166344 10.606031 
L 316.479691 10.746236 
L 317.419729 11.75464 
L 318.98646 13.280726 
L 319.926499 15.017121 
L 320.553191 16.629488 
L 321.49323 18.926707 
L 322.119923 20.140026 
L 322.746615 20.943513 
L 323.686654 21.957309 
L 324 22.51274 
L 324.313346 23.478003 
L 324.626692 24.987912 
L 324.940039 25.926212 
L 326.50677 36.856873 
L 327.446809 46.984047 
L 330.580271 83.20568 
L 332.147002 98.240058 
L 333.087041 104.813553 
L 333.713733 108.307914 
L 334.340426 110.766908 
L 335.280464 113.565632 
L 335.907157 114.789736 
L 337.160542 116.26729 
L 337.473888 117.480609 
L 338.727273 118.995911 
L 339.353965 120.246978 
L 340.920696 124.027142 
L 341.234043 124.42619 
L 341.547389 124.620321 
L 341.860735 124.410012 
L 342.487427 123.121197 
L 343.427466 119.691547 
L 344.367505 116.26729 
L 345.934236 110.858581 
L 346.874275 106.657799 
L 349.067698 95.408979 
L 350.321083 90.933178 
L 351.261122 87.843257 
L 351.887814 84.877365 
L 353.141199 77.441064 
L 354.70793 67.847751 
L 355.961315 61.657125 
L 357.2147 56.426369 
L 358.154739 53.471262 
L 358.781431 52.328046 
L 359.094778 52.155485 
L 359.408124 52.263335 
L 359.72147 52.640812 
L 360.348162 54.032086 
L 361.288201 56.642071 
L 361.914894 58.076484 
L 362.541586 58.917719 
L 362.854932 59.041747 
L 363.481625 58.72898 
L 363.794971 58.448569 
L 364.108317 58.017166 
L 364.421663 57.779895 
L 366.928433 54.193862 
L 367.555126 53.762459 
L 368.181818 53.778637 
L 368.808511 54.123759 
L 369.435203 54.83018 
L 370.061896 55.843976 
L 371.001934 57.990204 
L 371.628627 59.51629 
L 372.568665 60.708039 
L 372.882012 60.85903 
L 374.762089 60.373702 
L 375.075435 60.416843 
L 375.388781 60.718824 
L 375.702128 60.713432 
L 376.015474 61.317395 
L 376.32882 62.293444 
L 378.208897 62.401294 
L 378.522244 62.492967 
L 379.148936 63.075361 
L 380.088975 64.369568 
L 380.715667 65.334831 
L 381.029014 65.502 
L 381.34236 65.399542 
L 381.655706 64.914214 
L 381.969052 64.035231 
L 382.595745 60.853638 
L 383.535783 54.927246 
L 383.84913 53.784029 
L 384.162476 53.207028 
L 384.475822 53.287916 
L 384.789168 54.048263 
L 385.415861 56.620501 
L 386.355899 60.999236 
L 386.982592 62.994473 
L 387.922631 64.229362 
L 388.235977 64.547522 
L 388.549323 64.633802 
L 388.862669 65.070597 
L 389.176015 65.879477 
L 389.489362 65.782411 
L 390.4294 66.78003 
L 393.249516 70.775895 
L 393.876209 72.355907 
L 396.069632 77.861682 
L 397.009671 79.835348 
L 398.263056 82.067856 
L 399.516441 83.739541 
L 401.396518 85.583786 
L 401.709865 85.610749 
L 402.023211 84.445962 
L 402.336557 84.46214 
L 402.649903 84.332719 
L 402.96325 84.068485 
L 403.589942 84.230261 
L 404.216634 84.93129 
L 404.843327 86.398059 
L 405.783366 88.835483 
L 406.410058 89.741428 
L 406.723404 90.011055 
L 407.03675 90.06498 
L 407.976789 89.520334 
L 409.230174 88.33937 
L 409.856867 87.897182 
L 410.170213 87.767762 
L 410.483559 87.816294 
L 411.423598 87.44421 
L 412.05029 86.894172 
L 413.303675 85.168562 
L 413.617021 84.785692 
L 414.243714 83.685615 
L 414.55706 83.308138 
L 415.183752 82.003146 
L 415.810445 81.383005 
L 416.750484 79.145104 
L 417.377176 78.206804 
L 419.257253 75.381117 
L 420.197292 73.283422 
L 421.450677 69.638071 
L 422.390716 66.348627 
L 423.017408 64.817148 
L 423.644101 63.916596 
L 424.270793 63.264099 
L 424.584139 63.140071 
L 424.897485 63.296454 
L 425.210832 63.603829 
L 425.837524 64.563699 
L 426.777563 66.877095 
L 428.030948 70.36067 
L 428.344294 70.695007 
L 428.65764 70.587157 
L 428.970986 70.112614 
L 429.284333 69.233631 
L 429.911025 66.256954 
L 430.537718 62.261088 
L 431.477756 56.253808 
L 432.104449 53.03986 
L 432.731141 51.023053 
L 433.044487 50.516155 
L 433.357834 50.499978 
L 433.67118 50.818137 
L 433.984526 51.37896 
L 434.297872 52.306476 
L 434.924565 55.342471 
L 438.058027 75.04678 
L 438.68472 77.279288 
L 439.938104 81.620276 
L 440.564797 85.222487 
L 442.444874 96.859569 
L 443.071567 99.307779 
L 443.384913 99.847032 
L 443.698259 100.0142 
L 444.011605 100.008808 
L 444.324952 99.814677 
L 444.638298 99.129825 
L 445.891683 94.503033 
L 447.458414 88.107491 
L 448.711799 85.222487 
L 449.338491 84.435177 
L 450.591876 83.351278 
L 451.845261 83.798859 
L 452.471954 84.52685 
L 452.7853 84.936683 
L 453.098646 85.546039 
L 454.665377 87.099088 
L 455.605416 87.573631 
L 455.918762 87.659911 
L 456.232108 87.579023 
L 456.858801 87.945715 
L 457.485493 88.662922 
L 459.992263 90.544915 
L 460.618956 91.445468 
L 460.932302 92.065609 
L 461.558994 94.017705 
L 462.499033 97.86258 
L 463.752418 103.077158 
L 464.692456 105.110142 
L 465.319149 106.096976 
L 466.259188 107.989754 
L 466.88588 109.192289 
L 467.199226 110.033524 
L 468.765957 115.749607 
L 469.39265 117.157057 
L 469.705996 117.405114 
L 470.332689 117.173235 
L 470.646035 117.027637 
L 470.959381 116.644767 
L 472.839458 113.166584 
L 473.466151 112.632724 
L 474.092843 112.152788 
L 474.40619 111.996405 
L 475.032882 111.980227 
L 475.972921 111.11203 
L 476.912959 109.327102 
L 477.539652 107.143127 
L 478.166344 104.619422 
L 479.106383 99.399452 
L 480.359768 89.622792 
L 481.613153 78.260729 
L 482.866538 66.990338 
L 483.49323 62.595425 
L 484.119923 59.343729 
L 484.433269 58.286793 
L 485.373308 56.178313 
L 486 54.377208 
L 487.253385 50.489192 
L 487.880077 49.011639 
L 489.133462 47.334562 
L 489.760155 46.795308 
L 490.386847 46.682065 
L 490.700193 46.822271 
L 491.01354 47.361524 
L 491.326886 48.245899 
L 491.953578 51.502988 
L 494.147002 64.197007 
L 496.027079 72.80888 
L 496.967118 76.087539 
L 497.59381 77.209185 
L 497.907157 77.494989 
L 498.220503 77.484204 
L 499.160542 76.351773 
L 499.473888 75.693884 
L 500.10058 73.143217 
L 500.727273 69.341482 
L 501.353965 64.525952 
L 503.234043 47.933133 
L 503.547389 46.455579 
L 503.860735 45.883971 
L 504.174081 46.369299 
L 504.487427 47.954703 
L 504.800774 50.230351 
L 505.427466 57.041118 
L 506.367505 70.587157 
L 509.187621 114.13724 
L 510.12766 124.523255 
L 510.754352 129.791758 
L 511.381044 133.162091 
L 512.007737 135.16272 
L 512.321083 135.464701 
L 512.634429 135.421561 
L 513.261122 134.003325 
L 513.574468 132.930212 
L 514.201161 129.354963 
L 515.141199 122.565766 
L 516.081238 113.064126 
L 517.334623 97.609131 
L 519.2147 75.262481 
L 520.154739 67.971779 
L 521.094778 63.118501 
L 521.408124 61.899789 
L 522.034816 60.659507 
L 522.348162 59.9423 
L 522.661509 59.60257 
L 522.974855 59.780524 
L 523.288201 60.233497 
L 524.22824 62.261088 
L 527.048356 71.0617 
L 527.361702 71.606345 
L 527.988395 72.048533 
L 528.615087 73.040759 
L 529.241779 74.286433 
L 530.495164 78.222981 
L 532.375242 84.726374 
L 533.31528 87.708444 
L 534.568665 92.966162 
L 538.015474 110.626702 
L 539.582205 116.795758 
L 540.208897 118.391947 
L 540.522244 118.963555 
L 540.83559 119.276322 
L 541.148936 119.37878 
L 541.462282 119.012088 
L 542.088975 117.399721 
L 542.715667 115.388307 
L 543.34236 113.387678 
L 544.282398 110.044309 
L 545.84913 105.503797 
L 547.102515 102.327596 
L 547.729207 101.373118 
L 548.669246 99.038152 
L 549.295938 97.366467 
L 550.235977 93.462275 
L 551.176015 88.608997 
L 551.802708 84.251831 
L 553.056093 73.137824 
L 554.93617 55.779266 
L 555.876209 49.421471 
L 556.189555 47.922348 
L 556.816248 46.288411 
L 557.129594 45.695232 
L 557.44294 45.592774 
L 558.069632 45.592774 
L 558.382979 45.39325 
L 558.696325 45.484923 
L 559.323017 46.342336 
L 559.636364 46.417831 
L 559.94971 46.838449 
L 560.576402 48.391498 
L 561.203095 50.381342 
L 562.45648 55.374826 
L 563.709865 59.564823 
L 564.336557 61.155619 
L 564.96325 62.061565 
L 565.589942 62.56307 
L 566.216634 62.660136 
L 567.470019 62.816519 
L 567.783366 63.118501 
L 568.410058 64.22397 
L 569.03675 65.696131 
L 569.663443 67.853143 
L 571.54352 75.683099 
L 574.363636 84.758729 
L 574.990329 86.883387 
L 577.183752 95.328091 
L 577.497099 96.05069 
L 578.123791 96.638476 
L 578.437137 96.616906 
L 579.06383 95.840381 
L 580.317215 93.106368 
L 580.943907 91.520963 
L 584.390716 83.777288 
L 585.017408 82.386015 
L 586.270793 79.495619 
L 587.210832 76.491979 
L 587.837524 73.984452 
L 589.717602 65.03285 
L 592.224371 54.048263 
L 593.16441 51.152474 
L 593.477756 50.613221 
L 594.104449 50.068575 
L 594.417795 50.14407 
L 595.044487 50.801959 
L 595.357834 51.281895 
L 595.67118 52.177055 
L 596.297872 54.986564 
L 596.924565 58.583382 
L 598.804642 70.436166 
L 599.431335 72.868198 
L 600.371373 75.985081 
L 601.624758 81.05406 
L 603.504836 90.943963 
L 604.131528 93.187256 
L 604.758221 94.330472 
L 605.071567 94.562351 
L 606.011605 94.540781 
L 606.638298 93.990743 
L 607.578337 92.221993 
L 608.831721 88.619782 
L 609.458414 85.891161 
L 610.711799 78.972543 
L 611.651838 75.095313 
L 612.27853 74.205545 
L 612.591876 74.076125 
L 612.905222 74.372714 
L 613.845261 75.661529 
L 614.158607 75.893408 
L 614.7853 75.677706 
L 616.038685 74.281041 
L 617.605416 73.590797 
L 618.232108 73.466769 
L 619.485493 72.02157 
L 621.678917 68.59192 
L 621.992263 68.50564 
L 622.305609 68.138948 
L 622.932302 67.815396 
L 623.245648 67.842358 
L 623.558994 68.014919 
L 625.125725 70.76511 
L 626.692456 74.804116 
L 627.632495 77.209185 
L 629.512573 83.076259 
L 630.139265 85.308767 
L 631.079304 88.571249 
L 632.019342 91.229767 
L 632.646035 92.092572 
L 633.272727 92.798993 
L 633.89942 92.901451 
L 634.526112 92.831349 
L 634.839458 92.852919 
L 635.152805 92.550937 
L 635.466151 92.734283 
L 636.40619 92.949984 
L 637.032882 93.42992 
L 637.972921 94.621669 
L 639.539652 95.597717 
L 640.479691 95.608502 
L 641.106383 96.163933 
L 642.046422 98.142992 
L 642.673114 99.760751 
L 642.98646 100.256864 
L 643.613153 100.424033 
L 643.926499 100.467173 
L 644.239845 100.326967 
L 644.553191 99.836247 
L 644.553191 99.836247 
" style="fill:none;stroke:#ff0000;stroke-linecap:square;stroke-width:2;"/>
   </g>
  </g>
 </g>
 <defs>
  <clipPath id="pe0e394f4bc">
   <rect height="144" width="648" x="0" y="0"/>
  </clipPath>
 </defs>
</svg>
