<?xml version="1.0" encoding="utf-8" standalone="no"?>
<!DOCTYPE svg PUBLIC "-//W3C//DTD SVG 1.1//EN"
  "http://www.w3.org/Graphics/SVG/1.1/DTD/svg11.dtd">
<!-- Created with matplotlib (https://matplotlib.org/) -->
<svg height="216pt" version="1.1" viewBox="0 0 864 216" width="864pt" xmlns="http://www.w3.org/2000/svg" xmlns:xlink="http://www.w3.org/1999/xlink">
 <metadata>
  <rdf:RDF xmlns:cc="http://creativecommons.org/ns#" xmlns:dc="http://purl.org/dc/elements/1.1/" xmlns:rdf="http://www.w3.org/1999/02/22-rdf-syntax-ns#">
   <cc:Work>
    <dc:type rdf:resource="http://purl.org/dc/dcmitype/StillImage"/>
    <dc:date>2021-01-28T00:58:05.321420</dc:date>
    <dc:format>image/svg+xml</dc:format>
    <dc:creator>
     <cc:Agent>
      <dc:title>Matplotlib v3.3.2, https://matplotlib.org/</dc:title>
     </cc:Agent>
    </dc:creator>
   </cc:Work>
  </rdf:RDF>
 </metadata>
 <defs>
  <style type="text/css">*{stroke-linecap:butt;stroke-linejoin:round;}</style>
 </defs>
 <g id="figure_1">
  <g id="patch_1">
   <path d="M 0 216 
L 864 216 
L 864 0 
L 0 0 
z
" style="fill:none;"/>
  </g>
  <g id="axes_1">
   <g id="line2d_1">
    <path clip-path="url(#p6bb416fbc3)" d="M 108 166.425092 
L 110.615625 167.140864 
L 113.23125 168.505816 
L 118.4625 172.112055 
L 121.078125 173.689902 
L 123.69375 174.910019 
L 126.309375 175.83207 
L 128.925 176.507027 
L 131.540625 176.858169 
L 134.15625 176.759298 
L 136.771875 176.220253 
L 144.61875 173.849578 
L 147.234375 172.961574 
L 149.85 171.797631 
L 155.08125 168.915645 
L 157.696875 167.738208 
L 160.3125 167.014455 
L 162.928125 166.716544 
L 165.54375 166.695029 
L 168.159375 166.855903 
L 170.775 167.278333 
L 173.390625 168.14156 
L 176.00625 169.487577 
L 178.621875 170.980042 
L 181.2375 171.877264 
L 183.853125 171.467571 
L 186.46875 169.779466 
L 189.084375 167.660336 
L 191.7 166.14251 
L 194.315625 165.933826 
L 196.93125 167.272142 
L 199.546875 169.978408 
L 202.1625 173.604138 
L 207.39375 181.636166 
L 210.009375 185.440113 
L 212.625 188.997745 
L 215.240625 192.042699 
L 217.85625 192.24 
L 220.471875 189.073563 
L 223.0875 184.917386 
L 225.703125 179.939334 
L 228.31875 174.047221 
L 236.165625 153.956401 
L 238.78125 148.543013 
L 241.396875 144.744365 
L 244.0125 142.760546 
L 246.628125 142.457062 
L 249.24375 143.4621 
L 251.859375 145.353702 
L 254.475 147.845707 
L 257.090625 150.855979 
L 259.70625 154.411811 
L 262.321875 158.477614 
L 267.553125 167.203604 
L 270.16875 171.240452 
L 272.784375 174.742325 
L 275.4 177.281563 
L 278.015625 177.741087 
L 280.63125 174.897473 
L 283.246875 169.03511 
L 285.8625 161.491252 
L 291.09375 145.43456 
L 298.940625 122.057892 
L 304.171875 105.937058 
L 306.7875 98.422927 
L 309.403125 91.611858 
L 314.634375 78.834017 
L 317.25 71.519638 
L 319.865625 62.961534 
L 325.096875 43.817273 
L 327.7125 35.322345 
L 330.328125 29.085423 
L 332.94375 25.92 
L 335.559375 26.180918 
L 338.175 29.733485 
L 340.790625 35.982352 
L 343.40625 43.94038 
L 346.021875 52.352195 
L 348.6375 59.913773 
L 351.253125 65.605334 
L 353.86875 69.039523 
L 356.484375 70.602141 
L 359.1 71.24661 
L 361.715625 72.083621 
L 364.33125 74.037233 
L 366.946875 77.702935 
L 369.5625 83.370937 
L 372.178125 91.111268 
L 374.79375 100.829495 
L 377.409375 112.242367 
L 382.640625 137.267456 
L 385.25625 147.812121 
L 387.871875 153.575792 
L 390.4875 152.642619 
L 393.103125 146.501449 
L 398.334375 130.194947 
L 400.95 123.217298 
L 403.565625 117.665726 
L 406.18125 113.506403 
L 408.796875 110.583449 
L 411.4125 108.743387 
L 414.028125 107.893712 
L 416.64375 108.02005 
L 419.259375 109.179734 
L 421.875 111.476212 
L 424.490625 115.010448 
L 427.10625 119.810235 
L 429.721875 125.751371 
L 437.56875 145.865825 
L 440.184375 150.894153 
L 442.8 153.964626 
L 445.415625 155.055022 
L 448.03125 154.715581 
L 453.2625 152.772177 
L 455.878125 152.299184 
L 458.49375 152.569984 
L 461.109375 153.695088 
L 463.725 155.653868 
L 466.340625 158.29381 
L 471.571875 164.414975 
L 474.1875 167.149839 
L 476.803125 169.261372 
L 479.41875 170.660557 
L 482.034375 171.451402 
L 484.65 171.831988 
L 487.265625 171.977111 
L 489.88125 171.98132 
L 492.496875 171.865343 
L 495.1125 171.608785 
L 497.728125 171.182108 
L 500.34375 170.572423 
L 505.575 168.95364 
L 508.190625 168.13529 
L 510.80625 167.478471 
L 513.421875 167.085626 
L 516.0375 167.001741 
L 518.653125 167.204619 
L 521.26875 167.621035 
L 526.5 168.76486 
L 531.73125 170.129796 
L 534.346875 170.965028 
L 536.9625 171.947975 
L 542.19375 174.287729 
L 547.425 176.642745 
L 550.040625 177.618646 
L 555.271875 179.14532 
L 560.503125 180.699989 
L 565.734375 182.458946 
L 568.35 182.975672 
L 570.965625 182.95145 
L 573.58125 182.418214 
L 576.196875 181.660544 
L 578.8125 181.025789 
L 581.428125 180.745648 
L 584.04375 180.862231 
L 589.275 181.633951 
L 591.890625 181.852277 
L 599.7375 181.9352 
L 602.353125 182.332606 
L 604.96875 183.013569 
L 615.43125 186.318275 
L 623.278125 188.496607 
L 625.89375 188.894996 
L 628.509375 188.941156 
L 633.740625 188.575167 
L 636.35625 188.610724 
L 638.971875 188.943618 
L 641.5875 189.53349 
L 646.81875 190.859153 
L 649.434375 191.176442 
L 652.05 191.092807 
L 654.665625 190.697032 
L 659.896875 189.677136 
L 662.5125 189.311923 
L 665.128125 189.109892 
L 672.975 188.857851 
L 678.20625 188.226522 
L 680.821875 187.880114 
L 683.4375 187.658782 
L 686.053125 187.618137 
L 691.284375 187.973329 
L 696.515625 188.326975 
L 699.13125 188.276198 
L 701.746875 188.014359 
L 704.3625 187.555604 
L 709.59375 186.290055 
L 714.825 185.045158 
L 720.05625 184.116786 
L 725.2875 183.453881 
L 735.75 182.501045 
L 743.596875 181.895032 
L 748.828125 181.921793 
L 756.675 182.213494 
L 761.90625 182.330646 
L 764.521875 182.60964 
L 767.1375 183.140607 
L 774.984375 185.505779 
L 774.984375 185.505779 
" style="fill:none;stroke:#1f77b4;stroke-linecap:square;stroke-width:3;"/>
   </g>
  </g>
 </g>
 <defs>
  <clipPath id="p6bb416fbc3">
   <rect height="166.32" width="669.6" x="108" y="25.92"/>
  </clipPath>
 </defs>
</svg>
