<?xml version="1.0" encoding="utf-8" standalone="no"?>
<!DOCTYPE svg PUBLIC "-//W3C//DTD SVG 1.1//EN"
  "http://www.w3.org/Graphics/SVG/1.1/DTD/svg11.dtd">
<!-- Created with matplotlib (https://matplotlib.org/) -->
<svg height="216pt" version="1.1" viewBox="0 0 864 216" width="864pt" xmlns="http://www.w3.org/2000/svg" xmlns:xlink="http://www.w3.org/1999/xlink">
 <metadata>
  <rdf:RDF xmlns:cc="http://creativecommons.org/ns#" xmlns:dc="http://purl.org/dc/elements/1.1/" xmlns:rdf="http://www.w3.org/1999/02/22-rdf-syntax-ns#">
   <cc:Work>
    <dc:type rdf:resource="http://purl.org/dc/dcmitype/StillImage"/>
    <dc:date>2021-01-28T01:22:11.318662</dc:date>
    <dc:format>image/svg+xml</dc:format>
    <dc:creator>
     <cc:Agent>
      <dc:title>Matplotlib v3.3.2, https://matplotlib.org/</dc:title>
     </cc:Agent>
    </dc:creator>
   </cc:Work>
  </rdf:RDF>
 </metadata>
 <defs>
  <style type="text/css">*{stroke-linecap:butt;stroke-linejoin:round;}</style>
 </defs>
 <g id="figure_1">
  <g id="patch_1">
   <path d="M 0 216 
L 864 216 
L 864 0 
L 0 0 
z
" style="fill:none;"/>
  </g>
  <g id="axes_1">
   <g id="line2d_1">
    <path clip-path="url(#pe7a72d9299)" d="M 108 160.98796 
L 109.961719 158.860235 
L 111.596484 157.398386 
L 113.23125 156.243648 
L 114.539062 155.550439 
L 115.846875 155.066187 
L 117.154687 154.791487 
L 118.4625 154.724139 
L 119.770313 154.858962 
L 121.078125 155.188456 
L 122.712891 155.857685 
L 124.347656 156.78599 
L 126.309375 158.187028 
L 128.925 160.377815 
L 132.194531 163.081603 
L 133.502344 163.904197 
L 134.483203 164.324634 
L 135.464063 164.520447 
L 136.444922 164.445006 
L 137.425781 164.062181 
L 138.406641 163.351974 
L 139.3875 162.311913 
L 140.368359 160.954535 
L 141.676172 158.690334 
L 142.983984 155.965112 
L 144.61875 152.003127 
L 146.580469 146.564141 
L 148.869141 139.438244 
L 151.484766 130.459257 
L 154.754297 118.313327 
L 161.620313 92.358278 
L 163.582031 85.935976 
L 165.216797 81.359102 
L 166.524609 78.347389 
L 167.505469 76.527414 
L 168.486328 75.118713 
L 169.467187 74.144737 
L 170.121094 73.74441 
L 170.775 73.54559 
L 171.428906 73.547861 
L 172.082812 73.748608 
L 172.736719 74.143012 
L 173.717578 75.08186 
L 174.698438 76.407963 
L 175.679297 78.079564 
L 176.987109 80.758642 
L 178.621875 84.63732 
L 184.180078 98.454605 
L 185.487891 101.061708 
L 186.795703 103.207599 
L 187.776563 104.483922 
L 188.757422 105.467332 
L 189.738281 106.16561 
L 190.719141 106.599767 
L 191.7 106.803062 
L 193.007812 106.791952 
L 194.642578 106.504209 
L 196.93125 106.082227 
L 198.239062 106.083054 
L 199.219922 106.291463 
L 200.200781 106.723078 
L 201.181641 107.408841 
L 202.1625 108.37014 
L 203.143359 109.618727 
L 204.451172 111.733494 
L 205.758984 114.345532 
L 207.066797 117.416073 
L 208.701563 121.814301 
L 210.663281 127.741394 
L 213.605859 137.454577 
L 218.510156 153.710771 
L 220.144922 158.434077 
L 221.452734 161.628215 
L 222.433594 163.537581 
L 223.414453 164.92001 
L 224.068359 165.511319 
L 224.722266 165.828717 
L 225.376172 165.881928 
L 226.030078 165.697033 
L 226.683984 165.311671 
L 227.664844 164.455981 
L 229.299609 162.651368 
L 231.261328 160.511847 
L 232.569141 159.377924 
L 233.55 158.753518 
L 234.530859 158.347365 
L 235.511719 158.16824 
L 236.492578 158.21471 
L 237.473438 158.476584 
L 238.454297 158.936124 
L 239.762109 159.813411 
L 241.396875 161.228896 
L 245.974219 165.512638 
L 247.282031 166.352762 
L 248.262891 166.768759 
L 249.24375 166.990047 
L 250.551563 167.008772 
L 252.186328 166.720196 
L 255.128906 166.11341 
L 256.436719 166.127734 
L 257.417578 166.345615 
L 258.398438 166.775877 
L 259.379297 167.440317 
L 260.360156 168.351855 
L 261.341016 169.51427 
L 262.648828 171.441266 
L 264.283594 174.358929 
L 265.918359 177.353517 
L 266.572266 178.11273 
L 266.899219 178.230833 
L 267.226172 178.120742 
L 267.553125 177.785066 
L 268.207031 176.587642 
L 269.187891 174.028468 
L 270.495703 169.927921 
L 272.457422 162.988841 
L 275.073047 152.840983 
L 281.285156 128.224412 
L 282.919922 122.774027 
L 284.227734 119.110706 
L 285.208594 116.86711 
L 286.189453 115.114555 
L 287.170313 113.895322 
L 287.824219 113.393301 
L 288.478125 113.144481 
L 289.132031 113.150094 
L 289.785938 113.40763 
L 290.439844 113.911363 
L 291.09375 114.652577 
L 292.074609 116.184101 
L 293.055469 118.176045 
L 294.363281 121.450617 
L 295.998047 126.33326 
L 297.959766 132.975509 
L 305.152734 158.2115 
L 306.7875 162.844015 
L 308.095312 165.817159 
L 309.076172 167.473456 
L 309.730078 168.258749 
L 310.383984 168.776343 
L 311.037891 169.034675 
L 311.691797 169.061135 
L 312.345703 168.898306 
L 313.326563 168.410284 
L 316.596094 166.47622 
L 317.576953 166.191296 
L 318.557813 166.137489 
L 319.538672 166.33377 
L 320.519531 166.783408 
L 321.500391 167.47621 
L 322.808203 168.736776 
L 324.442969 170.708092 
L 326.731641 173.493941 
L 327.385547 174.045079 
L 328.039453 174.354296 
L 328.693359 174.353203 
L 329.347266 174.009524 
L 330.001172 173.339723 
L 330.982031 171.84013 
L 332.289844 169.225437 
L 334.251562 164.670186 
L 337.848047 156.228496 
L 339.482813 152.900105 
L 340.790625 150.643542 
L 342.098438 148.831538 
L 343.079297 147.799883 
L 344.060156 147.069038 
L 345.041016 146.648673 
L 346.021875 146.541713 
L 347.002734 146.743053 
L 347.983594 147.240684 
L 348.964453 148.01647 
L 349.945312 149.04765 
L 351.253125 150.771848 
L 352.887891 153.388281 
L 354.849609 157.009836 
L 361.061719 168.990885 
L 362.369531 170.943856 
L 363.350391 172.082935 
L 364.33125 172.865792 
L 364.985156 173.166739 
L 365.639063 173.28952 
L 366.292969 173.247102 
L 367.273828 172.929195 
L 368.581641 172.192479 
L 372.505078 169.708394 
L 373.812891 169.157799 
L 375.120703 168.82119 
L 376.428516 168.703565 
L 377.736328 168.794478 
L 379.371094 169.163386 
L 381.332812 169.88714 
L 387.544922 172.468069 
L 389.179688 172.795467 
L 390.814453 172.886103 
L 392.449219 172.766886 
L 394.737891 172.36269 
L 401.603906 170.977261 
L 404.546484 170.678708 
L 407.489062 170.60686 
L 410.431641 170.766818 
L 413.374219 171.15594 
L 420.240234 172.208292 
L 421.875 172.121001 
L 423.182813 171.846462 
L 424.490625 171.369511 
L 426.125391 170.496369 
L 427.760156 169.363887 
L 430.048828 167.495803 
L 434.626172 163.686903 
L 436.587891 162.386193 
L 438.222656 161.583912 
L 439.530469 161.164621 
L 440.838281 160.964621 
L 442.146094 160.996045 
L 443.453906 161.261311 
L 444.761719 161.754374 
L 446.069531 162.459821 
L 447.704297 163.602213 
L 449.666016 165.262003 
L 455.224219 170.176193 
L 456.532031 170.985739 
L 457.839844 171.524858 
L 459.147656 171.763258 
L 460.455469 171.711921 
L 461.763281 171.420905 
L 463.725 170.693154 
L 469.610156 168.283002 
L 472.225781 167.565355 
L 475.495313 166.931475 
L 487.592578 164.959676 
L 491.842969 164.675573 
L 494.458594 164.395679 
L 496.093359 164.031648 
L 497.728125 163.45021 
L 499.362891 162.626646 
L 501.324609 161.345576 
L 504.267188 159.070336 
L 506.882812 157.10969 
L 508.517578 156.117302 
L 509.825391 155.525917 
L 511.133203 155.146374 
L 512.441016 154.988987 
L 513.748828 155.036882 
L 515.710547 155.372958 
L 517.672266 155.707748 
L 518.653125 155.712109 
L 519.633984 155.504044 
L 520.614844 155.006936 
L 521.595703 154.156633 
L 522.576563 152.910107 
L 523.557422 151.249888 
L 524.538281 149.182931 
L 525.846094 145.841012 
L 527.480859 140.854736 
L 529.442578 133.956001 
L 532.058203 123.770539 
L 536.9625 104.393703 
L 538.597266 98.820341 
L 539.905078 95.06595 
L 540.885937 92.791009 
L 541.866797 91.072864 
L 542.520703 90.276081 
L 543.174609 89.783257 
L 543.828516 89.613079 
L 544.482422 89.781086 
L 545.136328 90.299112 
L 545.790234 91.174821 
L 546.444141 92.411356 
L 547.425 94.937944 
L 548.405859 98.246358 
L 549.386719 102.288388 
L 550.694531 108.698552 
L 552.329297 118.058046 
L 554.617969 132.834842 
L 558.541406 158.685693 
L 559.522266 163.913913 
L 560.176172 166.461628 
L 560.503125 167.297502 
L 560.830078 167.768181 
L 561.157031 167.838984 
L 561.483984 167.506303 
L 561.810938 166.799199 
L 562.464844 164.475804 
L 563.445703 159.529613 
L 565.080469 149.551347 
L 568.676953 125.558798 
L 573.908203 90.824185 
L 576.196875 76.91267 
L 578.158594 66.236199 
L 579.793359 58.501913 
L 581.101172 53.205444 
L 582.408984 48.772964 
L 583.716797 45.242664 
L 584.697656 43.194407 
L 585.678516 41.655137 
L 586.659375 40.612817 
L 587.313281 40.185123 
L 587.967188 39.964154 
L 588.621094 39.943202 
L 589.275 40.11456 
L 589.928906 40.470545 
L 590.909766 41.333675 
L 591.890625 42.568709 
L 592.871484 44.150629 
L 594.179297 46.759036 
L 595.487109 49.891498 
L 597.121875 54.47461 
L 598.756641 59.724144 
L 600.718359 66.795736 
L 603.007031 75.942738 
L 605.949609 88.785945 
L 609.873047 107.044348 
L 618.700781 148.46124 
L 620.989453 158.278276 
L 622.624219 164.36276 
L 623.605078 167.204282 
L 624.258984 168.527589 
L 624.912891 169.235444 
L 625.239844 169.328265 
L 625.566797 169.243171 
L 625.89375 168.986781 
L 626.547656 168.017565 
L 627.201563 166.566213 
L 628.182422 163.808606 
L 630.471094 156.362855 
L 632.759766 149.207883 
L 634.394531 144.876696 
L 635.702344 142.063613 
L 636.683203 140.389598 
L 637.664062 139.115895 
L 638.644922 138.256363 
L 639.298828 137.915963 
L 639.952734 137.760727 
L 640.606641 137.787844 
L 641.260547 137.992816 
L 641.914453 138.36958 
L 642.895313 139.240075 
L 643.876172 140.449345 
L 645.183984 142.525761 
L 646.491797 145.042304 
L 648.453516 149.39814 
L 652.703906 159.114422 
L 653.684766 160.867416 
L 654.665625 162.200104 
L 655.319531 162.797051 
L 655.973438 163.130196 
L 656.627344 163.187531 
L 657.28125 162.973195 
L 657.935156 162.507316 
L 658.916016 161.410956 
L 660.223828 159.427098 
L 664.474219 152.374338 
L 665.455078 151.178395 
L 666.435938 150.27756 
L 667.416797 149.709289 
L 668.070703 149.528041 
L 668.724609 149.510433 
L 669.378516 149.65873 
L 670.032422 149.973121 
L 671.013281 150.751861 
L 671.994141 151.88701 
L 672.975 153.358223 
L 674.282812 155.796526 
L 675.590625 158.709906 
L 677.225391 162.881516 
L 681.148828 173.379584 
L 681.802734 174.498433 
L 682.129688 174.833602 
L 682.456641 174.979061 
L 682.783594 174.917779 
L 683.110547 174.650677 
L 683.764453 173.580922 
L 684.418359 171.991426 
L 685.726172 167.985608 
L 688.66875 157.778887 
L 690.957422 150.132073 
L 692.592188 145.308027 
L 693.9 142.015608 
L 695.207813 139.33984 
L 696.188672 137.786618 
L 697.169531 136.648263 
L 698.150391 135.936761 
L 698.804297 135.700475 
L 699.458203 135.652128 
L 700.112109 135.787294 
L 700.766016 136.0997 
L 701.746875 136.882997 
L 702.727734 138.015177 
L 703.708594 139.458488 
L 705.016406 141.795963 
L 706.651172 145.243188 
L 708.939844 150.707582 
L 714.171094 163.47939 
L 715.805859 166.726635 
L 716.786719 168.280273 
L 717.767578 169.440447 
L 718.421484 169.964064 
L 719.075391 170.278465 
L 719.729297 170.389442 
L 720.383203 170.315927 
L 721.364063 169.926631 
L 722.671875 169.074315 
L 725.941406 166.738823 
L 727.249219 166.106441 
L 728.557031 165.752201 
L 729.537891 165.681861 
L 730.845703 165.846313 
L 732.153516 166.285644 
L 733.461328 166.962338 
L 735.096094 168.060617 
L 739.673437 171.373407 
L 740.98125 171.938632 
L 741.962109 172.128765 
L 742.942969 172.093341 
L 743.923828 171.834961 
L 745.231641 171.190881 
L 746.866406 170.045516 
L 753.078516 165.27451 
L 754.713281 164.423129 
L 756.348047 163.841659 
L 757.982813 163.540975 
L 759.617578 163.514252 
L 761.252344 163.739897 
L 762.887109 164.185671 
L 764.848828 164.952612 
L 767.464453 166.233276 
L 773.022656 169.03735 
L 775.311328 169.899375 
L 777.273047 170.418436 
L 777.273047 170.418436 
" style="fill:none;stroke:#ff0000;stroke-linecap:square;stroke-width:5;"/>
   </g>
  </g>
 </g>
 <defs>
  <clipPath id="pe7a72d9299">
   <rect height="166.32" width="669.6" x="108" y="25.92"/>
  </clipPath>
 </defs>
</svg>
