<?xml version="1.0" encoding="utf-8" standalone="no"?>
<!DOCTYPE svg PUBLIC "-//W3C//DTD SVG 1.1//EN"
  "http://www.w3.org/Graphics/SVG/1.1/DTD/svg11.dtd">
<!-- Created with matplotlib (https://matplotlib.org/) -->
<svg height="216pt" version="1.1" viewBox="0 0 864 216" width="864pt" xmlns="http://www.w3.org/2000/svg" xmlns:xlink="http://www.w3.org/1999/xlink">
 <metadata>
  <rdf:RDF xmlns:cc="http://creativecommons.org/ns#" xmlns:dc="http://purl.org/dc/elements/1.1/" xmlns:rdf="http://www.w3.org/1999/02/22-rdf-syntax-ns#">
   <cc:Work>
    <dc:type rdf:resource="http://purl.org/dc/dcmitype/StillImage"/>
    <dc:date>2021-01-28T01:22:14.347788</dc:date>
    <dc:format>image/svg+xml</dc:format>
    <dc:creator>
     <cc:Agent>
      <dc:title>Matplotlib v3.3.2, https://matplotlib.org/</dc:title>
     </cc:Agent>
    </dc:creator>
   </cc:Work>
  </rdf:RDF>
 </metadata>
 <defs>
  <style type="text/css">*{stroke-linecap:butt;stroke-linejoin:round;}</style>
 </defs>
 <g id="figure_1">
  <g id="patch_1">
   <path d="M 0 216 
L 864 216 
L 864 0 
L 0 0 
z
" style="fill:none;"/>
  </g>
  <g id="axes_1">
   <g id="line2d_1">
    <path clip-path="url(#pce3033dc2f)" d="M 108 42.058808 
L 109.961719 50.052942 
L 112.250391 60.444693 
L 114.866016 73.42087 
L 118.4625 92.497798 
L 129.251953 150.529451 
L 131.213672 159.827139 
L 132.521484 165.067997 
L 133.502344 167.986018 
L 134.15625 169.173779 
L 134.483203 169.484444 
L 134.810156 169.591376 
L 135.137109 169.493346 
L 135.464063 169.19798 
L 136.117969 168.081426 
L 136.771875 166.409443 
L 137.752734 163.232631 
L 140.041406 154.654994 
L 142.330078 146.41234 
L 143.964844 141.422736 
L 145.272656 138.182015 
L 146.253516 136.253521 
L 147.234375 134.786192 
L 148.215234 133.795996 
L 148.869141 133.40385 
L 149.523047 133.225015 
L 150.176953 133.256254 
L 150.830859 133.492386 
L 151.484766 133.926425 
L 152.465625 134.929249 
L 153.446484 136.32235 
L 154.427344 138.064222 
L 155.735156 140.847895 
L 157.369922 144.892948 
L 162.601172 158.542997 
L 163.582031 160.416958 
L 164.562891 161.759923 
L 165.216797 162.298456 
L 165.870703 162.523987 
L 166.524609 162.431755 
L 167.178516 162.03601 
L 167.832422 161.367907 
L 168.813281 159.951047 
L 170.121094 157.547449 
L 173.717578 150.585324 
L 175.025391 148.682406 
L 176.00625 147.644627 
L 176.987109 146.989969 
L 177.641016 146.781168 
L 178.294922 146.760883 
L 178.948828 146.931725 
L 179.602734 147.293909 
L 180.583594 148.191031 
L 181.564453 149.498742 
L 182.545313 151.193606 
L 183.853125 154.002574 
L 185.160937 157.358839 
L 186.795703 162.164607 
L 190.719141 174.258566 
L 191.373047 175.5475 
L 191.7 175.933621 
L 192.026953 176.101192 
L 192.353906 176.030595 
L 192.680859 175.722888 
L 193.334766 174.490511 
L 193.988672 172.659384 
L 195.296484 168.044612 
L 198.239062 156.286288 
L 200.527734 147.477024 
L 202.1625 141.919637 
L 203.470313 138.126713 
L 204.778125 135.044181 
L 205.758984 133.254841 
L 206.739844 131.943437 
L 207.39375 131.342029 
L 208.047656 130.960376 
L 208.701563 130.796921 
L 209.355469 130.847706 
L 210.009375 131.106541 
L 210.663281 131.56522 
L 211.644141 132.60604 
L 212.625 134.034802 
L 213.932813 136.465198 
L 215.240625 139.392236 
L 216.875391 143.576063 
L 219.491016 150.974291 
L 223.0875 161.165646 
L 224.722266 165.195018 
L 226.030078 167.833344 
L 227.010938 169.330481 
L 227.664844 170.052144 
L 228.31875 170.535018 
L 228.972656 170.778174 
L 229.626563 170.796187 
L 230.280469 170.617546 
L 231.261328 170.066054 
L 232.569141 169.017702 
L 235.184766 166.834377 
L 236.492578 166.033502 
L 237.473438 165.633499 
L 238.454297 165.423072 
L 239.435156 165.406633 
L 240.416016 165.580106 
L 241.723828 166.086223 
L 243.031641 166.865786 
L 244.666406 168.131023 
L 249.24375 171.947416 
L 250.224609 172.471204 
L 251.205469 172.772736 
L 252.186328 172.819683 
L 253.167188 172.605473 
L 254.148047 172.152018 
L 255.455859 171.249865 
L 257.090625 169.817705 
L 261.667969 165.644946 
L 263.302734 164.493523 
L 264.9375 163.634104 
L 266.245313 163.175527 
L 267.553125 162.924315 
L 268.860937 162.875396 
L 270.16875 163.016652 
L 271.803516 163.434046 
L 273.438281 164.077402 
L 275.726953 165.257982 
L 283.900781 169.860847 
L 285.8625 170.578208 
L 287.824219 171.059237 
L 290.112891 171.36754 
L 294.036328 171.592725 
L 297.305859 171.875383 
L 300.248438 172.368176 
L 305.479688 173.342684 
L 307.114453 173.397987 
L 308.749219 173.205693 
L 310.057031 172.84939 
L 311.691797 172.158561 
L 313.653516 171.038164 
L 317.25 168.607298 
L 319.865625 166.96877 
L 321.827344 166.021471 
L 323.462109 165.495854 
L 324.769922 165.275913 
L 326.077734 165.248026 
L 327.385547 165.415685 
L 328.693359 165.775847 
L 330.328125 166.47814 
L 331.962891 167.422134 
L 334.251562 169.034004 
L 338.501953 172.133153 
L 340.136719 173.014126 
L 341.444531 173.470725 
L 342.752344 173.667552 
L 344.060156 173.605465 
L 345.367969 173.320843 
L 347.329687 172.610157 
L 352.233984 170.63429 
L 354.195703 170.148169 
L 355.830469 169.950638 
L 357.792188 169.955944 
L 360.080859 170.228341 
L 365.312109 171.027449 
L 366.946875 171.029527 
L 368.581641 170.815202 
L 370.216406 170.376947 
L 372.178125 169.598836 
L 375.120703 168.129143 
L 379.044141 166.184342 
L 381.332812 165.297297 
L 383.621484 164.671316 
L 385.910156 164.301893 
L 388.525781 164.122976 
L 404.219531 163.753548 
L 406.508203 164.084043 
L 408.796875 164.660127 
L 415.335938 166.52673 
L 416.64375 166.592088 
L 417.951563 166.44757 
L 419.259375 166.074864 
L 420.567187 165.48034 
L 422.201953 164.472354 
L 424.490625 162.743588 
L 428.087109 159.97446 
L 430.048828 158.772744 
L 431.683594 158.054035 
L 433.318359 157.624404 
L 434.953125 157.471525 
L 436.914844 157.565881 
L 440.184375 157.826065 
L 441.492188 157.705602 
L 442.473047 157.442884 
L 443.453906 156.996516 
L 444.434766 156.345209 
L 445.415625 155.478844 
L 446.723437 153.996003 
L 448.03125 152.176 
L 449.666016 149.524379 
L 452.281641 144.780843 
L 455.878125 138.288035 
L 457.839844 135.201538 
L 459.474609 133.010517 
L 461.109375 131.194687 
L 462.744141 129.720609 
L 465.032813 128.026985 
L 467.321484 126.31014 
L 468.629297 125.06992 
L 469.937109 123.481499 
L 471.244922 121.433069 
L 472.552734 118.840973 
L 473.860547 115.658055 
L 475.168359 111.875917 
L 476.803125 106.35008 
L 478.764844 98.710424 
L 481.053516 88.796855 
L 486.611719 64.196768 
L 488.246484 58.059782 
L 489.554297 53.894673 
L 490.862109 50.542801 
L 491.842969 48.630589 
L 492.823828 47.273378 
L 493.477734 46.686107 
L 494.131641 46.355255 
L 494.785547 46.279166 
L 495.439453 46.452881 
L 496.093359 46.86819 
L 496.747266 47.513748 
L 497.728125 48.881827 
L 498.708984 50.676053 
L 500.016797 53.608649 
L 501.651563 57.875694 
L 506.228906 70.246829 
L 507.536719 73.155204 
L 508.844531 75.570525 
L 510.152344 77.44959 
L 511.133203 78.508771 
L 512.114063 79.292107 
L 513.094922 79.837894 
L 514.402734 80.284071 
L 518.980078 81.463148 
L 519.960938 82.089766 
L 520.941797 82.980309 
L 521.922656 84.176999 
L 522.903516 85.710386 
L 523.884375 87.598902 
L 525.192188 90.678915 
L 526.5 94.385672 
L 528.134766 99.831148 
L 529.769531 106.053776 
L 532.058203 115.762999 
L 535.327734 130.819285 
L 540.232031 153.40971 
L 541.866797 160.035146 
L 543.174609 164.431435 
L 544.155469 166.841041 
L 544.809375 167.859987 
L 545.463281 168.326628 
L 545.790234 168.344797 
L 546.117188 168.223367 
L 546.771094 167.596319 
L 547.425 166.539838 
L 548.405859 164.393169 
L 550.040625 160.096757 
L 552.329297 154.10733 
L 553.637109 151.177033 
L 554.944922 148.785457 
L 555.925781 147.396283 
L 556.906641 146.37706 
L 557.8875 145.736894 
L 558.541406 145.520761 
L 559.195312 145.470615 
L 559.849219 145.582497 
L 560.830078 146.041985 
L 561.810938 146.830243 
L 562.791797 147.918663 
L 564.099609 149.779882 
L 565.407422 152.030792 
L 567.369141 155.935054 
L 572.927344 167.531901 
L 574.235156 169.604188 
L 575.216016 170.78457 
L 576.196875 171.58295 
L 576.850781 171.893191 
L 577.504688 172.034048 
L 578.485547 171.971696 
L 579.466406 171.668086 
L 583.716797 170.011001 
L 584.697656 169.949906 
L 585.678516 170.087472 
L 586.659375 170.429447 
L 587.967188 171.179308 
L 589.601953 172.443718 
L 591.236719 173.661515 
L 591.890625 173.967826 
L 592.544531 174.075671 
L 593.198437 173.924583 
L 593.852344 173.473343 
L 594.50625 172.709178 
L 595.160156 171.646122 
L 596.141016 169.560307 
L 597.448828 166.049592 
L 599.083594 160.816598 
L 601.045313 153.705058 
L 603.987891 142.079701 
L 608.238281 125.219418 
L 610.2 118.321675 
L 611.834766 113.43698 
L 613.142578 110.273571 
L 614.123438 108.409412 
L 615.104297 107.023921 
L 615.758203 106.380482 
L 616.412109 105.967995 
L 617.066016 105.789572 
L 617.719922 105.84584 
L 618.373828 106.134938 
L 619.027734 106.652575 
L 619.681641 107.392159 
L 620.6625 108.898088 
L 621.643359 110.846191 
L 622.951172 114.053462 
L 624.258984 117.847219 
L 626.220703 124.358818 
L 629.163281 135.142078 
L 633.086719 149.425323 
L 635.048437 155.707131 
L 636.35625 159.293637 
L 637.664062 162.2259 
L 638.644922 163.908619 
L 639.625781 165.101116 
L 640.279688 165.619208 
L 640.933594 165.925866 
L 641.5875 166.040248 
L 642.568359 165.911216 
L 643.549219 165.518151 
L 645.183984 164.567985 
L 647.472656 163.260873 
L 648.780469 162.740245 
L 650.088281 162.438334 
L 651.396094 162.341171 
L 653.357813 162.449367 
L 655.646484 162.564893 
L 656.954297 162.392892 
L 657.935156 162.064194 
L 658.916016 161.52664 
L 659.896875 160.763926 
L 661.204687 159.401343 
L 662.5125 157.689726 
L 664.474219 154.65915 
L 668.724609 147.825696 
L 670.359375 145.715526 
L 671.667188 144.426191 
L 672.648047 143.737279 
L 673.628906 143.311415 
L 674.609766 143.16309 
L 675.590625 143.299522 
L 676.571484 143.722579 
L 677.552344 144.426345 
L 678.533203 145.40023 
L 679.841016 147.089514 
L 681.148828 149.177772 
L 682.783594 152.257224 
L 684.745313 156.464446 
L 690.957422 170.385177 
L 692.265234 172.542696 
L 693.246094 173.663213 
L 693.9 174.106362 
L 694.553906 174.282837 
L 695.207813 174.197248 
L 695.861719 173.877624 
L 696.842578 173.057396 
L 698.150391 171.579496 
L 701.746875 167.309334 
L 703.054688 166.1132 
L 704.3625 165.217712 
L 705.670313 164.649103 
L 706.651172 164.441376 
L 707.632031 164.41738 
L 708.612891 164.568679 
L 709.920703 165.020981 
L 711.228516 165.723121 
L 712.863281 166.877529 
L 715.151953 168.806064 
L 718.094531 171.286194 
L 719.729297 172.385163 
L 721.037109 173.009782 
L 722.344922 173.366243 
L 723.652734 173.457523 
L 724.960547 173.321789 
L 726.922266 172.839216 
L 731.499609 171.564878 
L 733.461328 171.299327 
L 735.423047 171.273406 
L 737.711719 171.507471 
L 741.308203 172.178186 
L 744.250781 172.631083 
L 746.2125 172.727793 
L 748.174219 172.617263 
L 750.462891 172.256607 
L 754.713281 171.273992 
L 757.982813 170.635713 
L 760.598438 170.367274 
L 763.214063 170.335567 
L 767.1375 170.571571 
L 770.407031 170.708902 
L 772.695703 170.586245 
L 774.657422 170.280459 
L 776.946094 169.699288 
L 777.273047 169.600195 
L 777.273047 169.600195 
" style="fill:none;stroke:#32cd32;stroke-linecap:square;stroke-width:5;"/>
   </g>
  </g>
 </g>
 <defs>
  <clipPath id="pce3033dc2f">
   <rect height="166.32" width="669.6" x="108" y="25.92"/>
  </clipPath>
 </defs>
</svg>
