<?xml version="1.0" encoding="utf-8" standalone="no"?>
<!DOCTYPE svg PUBLIC "-//W3C//DTD SVG 1.1//EN"
  "http://www.w3.org/Graphics/SVG/1.1/DTD/svg11.dtd">
<!-- Created with matplotlib (https://matplotlib.org/) -->
<svg height="216pt" version="1.1" viewBox="0 0 864 216" width="864pt" xmlns="http://www.w3.org/2000/svg" xmlns:xlink="http://www.w3.org/1999/xlink">
 <metadata>
  <rdf:RDF xmlns:cc="http://creativecommons.org/ns#" xmlns:dc="http://purl.org/dc/elements/1.1/" xmlns:rdf="http://www.w3.org/1999/02/22-rdf-syntax-ns#">
   <cc:Work>
    <dc:type rdf:resource="http://purl.org/dc/dcmitype/StillImage"/>
    <dc:date>2021-01-17T15:28:39.575540</dc:date>
    <dc:format>image/svg+xml</dc:format>
    <dc:creator>
     <cc:Agent>
      <dc:title>Matplotlib v3.3.2, https://matplotlib.org/</dc:title>
     </cc:Agent>
    </dc:creator>
   </cc:Work>
  </rdf:RDF>
 </metadata>
 <defs>
  <style type="text/css">*{stroke-linecap:butt;stroke-linejoin:round;}</style>
 </defs>
 <g id="figure_1">
  <g id="patch_1">
   <path d="M 0 216 
L 864 216 
L 864 0 
L 0 0 
z
" style="fill:none;"/>
  </g>
  <g id="axes_1">
   <g id="patch_2">
    <path clip-path="url(#p3ed08d5fbb)" d="M 142.28352 192.24 
L 142.28352 25.92 
L 210.85056 25.92 
L 210.85056 192.24 
z
" style="fill:#ffa500;opacity:0.1;"/>
   </g>
   <g id="line2d_1">
    <path clip-path="url(#p3ed08d5fbb)" d="M 108 178.877355 
L 108.26784 176.412061 
L 108.53568 175.205466 
L 108.80352 175.328544 
L 109.3392 178.10048 
L 109.60704 179.385234 
L 109.87488 179.86538 
L 110.41056 179.605002 
L 110.6784 179.911328 
L 111.21408 181.142792 
L 111.48192 180.845469 
L 112.0176 177.807147 
L 112.28544 176.291545 
L 112.55328 175.437683 
L 112.82112 175.352658 
L 113.08896 175.867391 
L 113.62464 177.319118 
L 113.89248 177.717683 
L 114.696 178.289923 
L 115.49952 179.731662 
L 116.30304 181.46365 
L 117.3744 184.557921 
L 118.98144 187.104118 
L 119.24928 186.727859 
L 119.78496 184.425677 
L 120.32064 182.38175 
L 120.58848 181.986025 
L 121.392 181.888957 
L 122.46336 180.338454 
L 122.99904 180.507349 
L 123.26688 180.316809 
L 124.33824 178.25833 
L 124.87392 177.843221 
L 125.14176 177.22718 
L 125.94528 174.768042 
L 126.21312 174.6512 
L 126.48096 175.000153 
L 127.28448 176.70934 
L 130.23072 180.338598 
L 130.49856 180.3632 
L 131.03424 180.174342 
L 131.30208 180.321008 
L 131.83776 181.349674 
L 132.90912 184.427938 
L 134.24832 189.40336 
L 134.51616 189.455019 
L 134.784 189.09221 
L 135.31968 187.836759 
L 136.1232 185.143383 
L 136.65888 183.520342 
L 136.92672 183.175519 
L 137.19456 183.212536 
L 137.73024 183.607332 
L 137.99808 183.228177 
L 138.53376 180.832433 
L 139.87296 172.969537 
L 140.40864 169.629948 
L 140.94432 167.57869 
L 141.74784 165.779631 
L 142.01568 165.393594 
L 142.28352 165.44468 
L 142.55136 166.115168 
L 143.08704 169.058413 
L 143.62272 172.249876 
L 144.1584 174.256518 
L 144.42624 174.888774 
L 144.69408 175.2177 
L 144.96192 175.125085 
L 145.4976 173.886419 
L 146.30112 171.567627 
L 146.8368 169.140118 
L 147.37248 166.674721 
L 147.64032 165.996757 
L 147.90816 165.717694 
L 148.176 165.69754 
L 148.44384 165.848236 
L 148.71168 166.243941 
L 148.97952 167.052555 
L 149.78304 170.551917 
L 150.05088 170.168143 
L 150.8544 165.179976 
L 151.12224 164.984495 
L 151.39008 166.238141 
L 151.92576 172.169538 
L 153.26496 189.441567 
L 153.5328 189.626386 
L 154.06848 182.767043 
L 154.60416 172.584589 
L 155.67552 148.693927 
L 155.94336 145.135604 
L 156.2112 143.277293 
L 156.47904 142.993009 
L 156.74688 143.934463 
L 157.28256 148.040736 
L 157.81824 154.191431 
L 159.42528 175.614308 
L 159.69312 176.04476 
L 159.96096 173.381049 
L 160.49664 160.822984 
L 162.9072 95.364571 
L 163.71072 76.543503 
L 165.04992 36.793926 
L 165.31776 33.828766 
L 165.5856 34.073177 
L 165.85344 37.400987 
L 166.38912 50.70907 
L 166.9248 65.671893 
L 167.46048 74.220295 
L 167.72832 75.684053 
L 168.264 77.071805 
L 168.53184 78.90182 
L 168.79968 82.335609 
L 169.33536 94.895651 
L 169.87104 114.689873 
L 170.67456 148.009276 
L 170.9424 153.408303 
L 171.21024 152.534168 
L 171.74592 139.091152 
L 172.2816 124.970466 
L 172.81728 115.873939 
L 173.35296 111.412259 
L 173.6208 110.61634 
L 173.88864 110.734684 
L 174.15648 111.821 
L 174.42432 113.972189 
L 174.96 121.778954 
L 176.56704 153.772537 
L 176.83488 154.793948 
L 177.10272 154.475982 
L 177.6384 152.65553 
L 177.90624 152.21246 
L 178.17408 152.466129 
L 178.44192 153.520052 
L 178.9776 157.827831 
L 180.04896 168.101521 
L 180.3168 169.412185 
L 180.58464 170.152997 
L 180.85248 170.509505 
L 181.12032 170.645447 
L 181.38816 170.649389 
L 181.656 170.54075 
L 181.92384 170.300423 
L 182.45952 169.329627 
L 183.53088 166.431417 
L 183.79872 166.063426 
L 184.06656 165.984848 
L 184.3344 166.17489 
L 184.87008 167.072204 
L 185.6736 168.915003 
L 186.20928 170.618154 
L 187.81632 176.690513 
L 188.61984 178.816464 
L 189.15552 180.464139 
L 189.42336 180.948174 
L 189.6912 180.925484 
L 190.22688 179.716248 
L 190.49472 179.121652 
L 190.76256 178.859234 
L 191.0304 178.968442 
L 191.83392 179.895852 
L 192.63744 179.973528 
L 192.90528 180.345792 
L 193.44096 181.782227 
L 194.51232 184.786434 
L 195.048 186.119822 
L 195.31584 186.493007 
L 195.58368 186.536247 
L 196.11936 186.193412 
L 196.3872 186.22672 
L 196.65504 186.538552 
L 197.7264 188.630115 
L 197.99424 188.551772 
L 198.52992 187.689224 
L 199.0656 186.883556 
L 199.60128 186.623409 
L 200.13696 186.458211 
L 200.67264 185.866824 
L 201.20832 185.335003 
L 201.47616 185.29693 
L 202.01184 185.62965 
L 202.54752 185.960922 
L 202.81536 185.913357 
L 203.0832 185.668084 
L 203.61888 184.675819 
L 204.69024 182.413674 
L 205.49376 181.396129 
L 206.83296 180.279927 
L 207.36864 179.935902 
L 207.90432 179.96097 
L 208.70784 180.234216 
L 209.24352 180.343956 
L 209.51136 180.605299 
L 210.04704 181.809264 
L 210.58272 183.318211 
L 210.85056 183.812499 
L 211.38624 184.203083 
L 211.92192 184.592536 
L 212.4576 185.408715 
L 212.99328 186.60931 
L 214.06464 189.971976 
L 214.33248 190.002091 
L 214.86816 189.430108 
L 215.136 189.511751 
L 215.67168 190.015689 
L 215.93952 189.559568 
L 218.08224 181.917567 
L 218.35008 181.369598 
L 218.61792 181.138839 
L 218.88576 181.265409 
L 219.1536 181.741358 
L 219.68928 183.634762 
L 220.4928 188.296921 
L 220.76064 189.758774 
L 221.02848 190.288493 
L 221.29632 189.639929 
L 222.36768 185.405166 
L 223.1712 182.007991 
L 223.70688 180.947395 
L 224.77824 179.562655 
L 225.04608 179.784413 
L 225.58176 181.33956 
L 225.8496 182.144981 
L 226.11744 182.561596 
L 226.38528 182.575099 
L 226.92096 182.31905 
L 227.45664 182.140331 
L 228.528 180.870896 
L 228.79584 180.99461 
L 229.59936 181.914248 
L 230.13504 182.791973 
L 230.40288 182.703197 
L 230.67072 181.646167 
L 231.74208 174.323868 
L 232.27776 173.100196 
L 232.81344 172.506699 
L 233.08128 172.716569 
L 233.34912 173.60936 
L 233.8848 176.489465 
L 234.15264 176.92509 
L 234.42048 176.041919 
L 235.49184 170.134164 
L 235.75968 166.344235 
L 237.09888 137.947001 
L 237.36672 137.267831 
L 237.63456 138.562046 
L 238.17024 142.38066 
L 238.43808 141.703337 
L 238.70592 137.673325 
L 239.2416 120.675349 
L 240.04512 89.938628 
L 240.5808 77.821356 
L 240.84864 75.800036 
L 241.11648 76.473003 
L 241.38432 79.616282 
L 241.92 92.170084 
L 242.72352 121.122802 
L 243.2592 139.538878 
L 243.79488 150.4408 
L 244.33056 154.816074 
L 244.86624 156.921831 
L 245.40192 158.770879 
L 245.9376 162.171353 
L 246.74112 168.340676 
L 247.00896 169.02176 
L 247.2768 168.987077 
L 248.08032 168.2226 
L 248.88384 167.555778 
L 249.15168 167.649957 
L 249.41952 168.226157 
L 249.9552 170.738076 
L 251.56224 180.533517 
L 252.36576 186.658719 
L 252.6336 188.053272 
L 252.90144 188.679154 
L 253.16928 188.400255 
L 254.50848 184.117619 
L 254.77632 183.939378 
L 255.312 183.875507 
L 255.57984 183.613419 
L 256.11552 182.233441 
L 256.6512 180.567543 
L 256.91904 180.090629 
L 257.18688 180.014175 
L 257.45472 180.350681 
L 259.3296 185.116381 
L 259.86528 187.545935 
L 260.40096 190.362085 
L 260.6688 190.36343 
L 261.74016 185.929511 
L 262.27584 184.891213 
L 262.81152 184.328194 
L 263.07936 184.233913 
L 263.3472 184.37576 
L 263.61504 184.844784 
L 264.15072 186.81571 
L 264.6864 188.914084 
L 264.95424 188.848932 
L 265.48992 186.780017 
L 266.29344 183.950316 
L 267.3648 180.669039 
L 268.16832 178.286794 
L 268.704 177.447297 
L 268.97184 177.376183 
L 269.23968 177.555465 
L 269.50752 177.972645 
L 270.0432 179.401347 
L 271.11456 183.024958 
L 271.3824 183.493768 
L 271.65024 183.653917 
L 272.18592 183.647052 
L 272.45376 183.876864 
L 272.7216 184.422248 
L 273.25728 186.345141 
L 274.0608 189.41134 
L 274.32864 189.990678 
L 274.59648 190.13944 
L 274.86432 189.723196 
L 275.4 187.629063 
L 276.7392 181.113568 
L 277.27488 179.701079 
L 277.54272 179.646209 
L 277.81056 180.101774 
L 278.34624 182.333654 
L 279.4176 187.908408 
L 279.95328 189.537464 
L 280.22112 189.556501 
L 280.48896 188.860671 
L 281.29248 186.025372 
L 281.56032 185.643214 
L 281.82816 185.675259 
L 282.096 186.075399 
L 282.63168 187.564505 
L 283.97088 191.771673 
L 284.23872 192.142067 
L 285.04224 190.306348 
L 285.57792 189.754732 
L 285.84576 189.723272 
L 286.38144 189.989512 
L 286.91712 190.21896 
L 287.18496 190.099691 
L 287.72064 189.421742 
L 288.25632 188.489926 
L 288.792 187.072317 
L 290.1312 182.627837 
L 290.39904 182.291691 
L 290.66688 182.17087 
L 291.20256 182.316213 
L 291.73824 182.80412 
L 292.8096 184.202653 
L 293.07744 184.118044 
L 293.88096 183.375832 
L 294.1488 183.426549 
L 294.41664 183.702093 
L 294.95232 184.71165 
L 296.02368 186.980289 
L 296.29152 187.282101 
L 296.55936 187.348118 
L 296.8272 187.169239 
L 297.36288 186.281203 
L 298.1664 184.70866 
L 298.70208 184.231157 
L 299.23776 184.292405 
L 300.30912 184.776269 
L 300.57696 184.749712 
L 300.8448 184.562634 
L 301.38048 183.754215 
L 302.71968 181.453302 
L 302.98752 181.266543 
L 303.25536 181.406637 
L 303.5232 181.951086 
L 305.13024 187.080099 
L 305.66592 187.89269 
L 305.93376 187.694599 
L 306.73728 185.327299 
L 307.00512 185.05765 
L 307.5408 185.145078 
L 307.80864 184.78512 
L 308.88 181.914843 
L 309.14784 181.862722 
L 309.41568 181.924005 
L 309.68352 181.861528 
L 309.95136 181.492884 
L 310.2192 180.655668 
L 310.48704 179.141773 
L 311.02272 173.677573 
L 311.82624 164.002603 
L 312.09408 162.090302 
L 312.36192 161.013196 
L 312.8976 159.723184 
L 313.43328 156.853691 
L 313.96896 153.914916 
L 314.2368 153.7808 
L 314.50464 154.924861 
L 315.04032 160.415971 
L 315.84384 169.892475 
L 316.11168 171.684437 
L 316.37952 172.507947 
L 316.64736 172.436725 
L 316.9152 171.658554 
L 318.52224 164.671649 
L 319.05792 163.911211 
L 319.5936 163.491958 
L 320.12928 162.498561 
L 320.66496 161.523618 
L 320.9328 161.659935 
L 321.20064 162.425457 
L 322.53984 168.772292 
L 323.07552 169.783785 
L 323.6112 171.614835 
L 324.41472 174.961729 
L 325.75392 178.788665 
L 326.2896 179.93307 
L 327.36096 181.469496 
L 328.16448 183.269799 
L 328.968 185.581668 
L 330.3072 189.847325 
L 330.84288 190.867785 
L 331.11072 191.024647 
L 331.37856 190.923457 
L 331.6464 190.60732 
L 332.18208 189.417817 
L 333.25344 186.419597 
L 334.3248 184.348221 
L 335.39616 181.587504 
L 335.93184 181.10015 
L 338.61024 180.427984 
L 339.14592 180.865703 
L 339.94944 181.678658 
L 340.75296 181.997396 
L 341.0208 182.380074 
L 341.55648 183.89585 
L 342.36 186.63977 
L 342.89568 187.472599 
L 343.96704 188.204949 
L 344.23488 188.257563 
L 344.77056 188.015661 
L 346.3776 186.720643 
L 346.91328 186.217605 
L 347.98464 185.700244 
L 348.25248 185.25061 
L 348.78816 183.688881 
L 349.59168 181.022392 
L 350.12736 179.920844 
L 350.3952 179.676279 
L 350.66304 179.645095 
L 350.93088 179.818321 
L 351.46656 180.673736 
L 352.80576 183.549208 
L 353.34144 184.096602 
L 353.87712 184.272028 
L 354.68064 184.459561 
L 354.94848 184.687925 
L 355.48416 185.659815 
L 356.55552 188.328936 
L 356.82336 188.454242 
L 357.35904 188.38028 
L 357.62688 188.523204 
L 357.89472 188.874807 
L 358.4304 190.078305 
L 359.23392 192.171478 
L 360.30528 189.061473 
L 360.57312 188.755282 
L 361.37664 188.577753 
L 361.64448 188.103467 
L 363.51936 182.846031 
L 364.32288 179.310121 
L 365.1264 175.939154 
L 365.39424 175.262076 
L 365.66208 174.935835 
L 365.92992 174.984073 
L 366.19776 175.375066 
L 366.73344 176.839774 
L 368.34048 182.181806 
L 368.60832 182.574311 
L 368.87616 182.465598 
L 369.94752 180.555099 
L 370.4832 180.430322 
L 370.75104 179.814067 
L 371.28672 176.729615 
L 372.09024 171.585436 
L 372.62592 169.47578 
L 373.1616 168.174682 
L 373.42944 167.982334 
L 373.69728 168.192339 
L 374.5008 169.816305 
L 374.76864 169.812549 
L 375.03648 169.293837 
L 375.57216 167.13942 
L 376.37568 163.33156 
L 376.64352 162.494064 
L 376.91136 162.035423 
L 377.44704 161.861052 
L 377.71488 161.764458 
L 378.25056 161.321807 
L 378.5184 161.335879 
L 378.78624 161.733372 
L 380.39328 165.965995 
L 380.66112 165.922702 
L 380.92896 165.059188 
L 381.46464 160.888931 
L 382.00032 157.141453 
L 382.26816 156.633999 
L 382.536 156.945938 
L 383.07168 158.173428 
L 383.33952 158.619504 
L 383.60736 159.380254 
L 383.8752 161.089297 
L 384.14304 164.211813 
L 384.67872 174.70171 
L 385.2144 187.978839 
L 385.48224 190.611703 
L 386.28576 174.278235 
L 386.82144 166.09295 
L 387.08928 163.351289 
L 387.35712 161.771069 
L 387.62496 161.3507 
L 387.8928 161.919646 
L 388.42848 165.041377 
L 389.232 171.03338 
L 389.49984 171.977387 
L 390.03552 172.571974 
L 390.30336 174.097079 
L 390.5712 177.571147 
L 390.83904 182.766064 
L 391.10688 185.012746 
L 391.37472 177.453185 
L 393.2496 102.775185 
L 394.05312 79.739325 
L 394.5888 72.360246 
L 394.85664 70.936554 
L 395.12448 70.513011 
L 395.39232 70.897403 
L 395.66016 72.209067 
L 395.928 74.736456 
L 396.46368 83.592992 
L 396.99936 93.288074 
L 397.2672 96.070431 
L 397.53504 97.028982 
L 397.80288 96.764883 
L 398.07072 96.201764 
L 398.33856 96.059419 
L 398.6064 96.605161 
L 399.14208 99.107389 
L 399.67776 101.429239 
L 399.9456 101.5337 
L 400.21344 100.116318 
L 400.48128 96.612117 
L 401.01696 83.800381 
L 401.82048 64.174965 
L 402.08832 60.701124 
L 402.35616 58.79641 
L 402.624 57.942133 
L 403.15968 57.397616 
L 403.42752 57.285193 
L 403.69536 57.400618 
L 403.9632 57.97192 
L 404.23104 59.197031 
L 404.76672 63.965347 
L 406.37376 84.462742 
L 407.44512 91.081494 
L 407.9808 97.533762 
L 408.78432 111.973343 
L 409.58784 125.758188 
L 409.85568 128.469913 
L 410.12352 129.999837 
L 410.39136 130.635895 
L 410.92704 131.266766 
L 411.19488 132.233172 
L 411.46272 134.01615 
L 411.9984 139.904066 
L 413.06976 152.899183 
L 413.60544 156.832451 
L 414.14112 158.904928 
L 414.40896 159.163181 
L 414.6768 159.032907 
L 415.21248 158.592404 
L 415.74816 158.721359 
L 416.55168 158.933353 
L 416.81952 159.296766 
L 417.08736 160.086083 
L 417.89088 163.601882 
L 418.15872 164.237419 
L 418.6944 164.84142 
L 418.96224 165.488334 
L 419.49792 168.29942 
L 420.30144 173.249947 
L 420.56928 174.029073 
L 420.83712 174.223744 
L 421.10496 173.911103 
L 421.64064 172.324047 
L 422.44416 169.930853 
L 422.97984 169.140275 
L 423.51552 168.844852 
L 423.78336 168.989997 
L 424.0512 169.436955 
L 424.58688 171.274775 
L 426.7296 180.910415 
L 426.99744 181.54726 
L 427.26528 181.837458 
L 428.0688 181.929489 
L 428.33664 182.19928 
L 428.87232 183.240557 
L 429.67584 184.839466 
L 430.21152 185.925369 
L 430.7472 187.636146 
L 431.28288 189.552764 
L 431.55072 190.050305 
L 431.81856 189.934671 
L 433.4256 186.937173 
L 433.96128 186.753616 
L 434.7648 186.829596 
L 435.30048 187.202751 
L 435.83616 187.752293 
L 436.104 187.872111 
L 436.90752 187.815798 
L 437.17536 188.052793 
L 437.71104 188.863264 
L 437.97888 189.016607 
L 438.24672 188.797362 
L 438.7824 187.97177 
L 439.05024 187.786046 
L 439.31808 187.8518 
L 439.85376 188.494206 
L 440.92512 189.851564 
L 441.4608 190.340078 
L 441.72864 190.413166 
L 441.99648 190.31512 
L 442.26432 190.032591 
L 442.8 189.007096 
L 443.33568 187.919298 
L 444.40704 186.265449 
L 445.4784 182.860468 
L 445.74624 182.709264 
L 446.01408 182.980108 
L 446.54976 184.365361 
L 447.62112 188.211809 
L 448.1568 190.130568 
L 448.42464 189.928661 
L 448.96032 187.154082 
L 450.03168 180.565256 
L 450.56736 178.590161 
L 451.10304 177.772555 
L 451.63872 177.460835 
L 452.1744 177.460777 
L 452.71008 177.965963 
L 454.58496 180.597482 
L 455.12064 180.923213 
L 455.38848 181.279644 
L 456.99552 184.712409 
L 457.79904 186.839806 
L 458.06688 186.413896 
L 459.13824 182.361029 
L 459.67392 181.672093 
L 459.94176 181.588601 
L 460.74528 181.719749 
L 461.01312 181.327045 
L 461.81664 179.090449 
L 462.08448 178.774553 
L 462.888 178.522991 
L 463.15584 178.340336 
L 463.42368 178.381722 
L 463.69152 178.830609 
L 464.49504 180.97026 
L 464.76288 181.330235 
L 465.03072 181.978346 
L 465.29856 183.37758 
L 465.83424 187.86159 
L 466.10208 188.087772 
L 467.17344 179.583707 
L 467.44128 174.670593 
L 468.51264 146.202445 
L 468.78048 143.45987 
L 469.04832 144.080222 
L 469.31616 147.754938 
L 469.85184 158.172325 
L 470.11968 159.102008 
L 470.38752 154.057708 
L 470.9232 132.410379 
L 471.72672 96.032732 
L 472.2624 80.798225 
L 472.53024 77.927581 
L 472.79808 78.397767 
L 473.06592 81.846577 
L 473.6016 95.118811 
L 474.67296 132.896688 
L 475.47648 159.44876 
L 476.01216 168.873145 
L 476.28 171.098281 
L 476.54784 172.214327 
L 476.81568 172.391486 
L 477.08352 171.733151 
L 478.15488 167.241608 
L 478.42272 166.727774 
L 478.69056 166.46933 
L 478.9584 166.503176 
L 479.22624 166.925025 
L 479.76192 169.004133 
L 480.56544 172.506197 
L 480.83328 173.049312 
L 481.10112 173.21914 
L 481.36896 173.005209 
L 481.90464 171.601088 
L 482.17248 170.839746 
L 482.44032 170.475644 
L 482.70816 170.751618 
L 482.976 171.719485 
L 484.3152 179.045965 
L 484.58304 179.148718 
L 484.85088 178.311213 
L 485.38656 174.55647 
L 485.92224 170.826866 
L 486.45792 168.90537 
L 487.26144 167.045109 
L 488.06496 165.102623 
L 488.60064 164.326858 
L 488.86848 163.732433 
L 489.40416 161.531148 
L 490.20768 157.212322 
L 490.47552 156.342611 
L 490.74336 156.014751 
L 491.0112 156.230659 
L 491.54688 157.836443 
L 492.3504 161.445472 
L 492.88608 164.753119 
L 495.0288 180.701686 
L 495.83232 184.190622 
L 497.7072 191.562522 
L 497.97504 192.18576 
L 498.24288 192.24 
L 499.31424 190.136372 
L 500.3856 187.085927 
L 500.65344 186.834742 
L 500.92128 186.951418 
L 501.99264 188.404346 
L 502.79616 188.430232 
L 503.064 188.340668 
L 503.33184 188.033402 
L 504.13536 186.591929 
L 504.67104 186.211877 
L 505.20672 185.830573 
L 505.7424 185.357813 
L 506.01024 185.353089 
L 506.27808 185.567801 
L 507.0816 186.50322 
L 507.88512 186.705793 
L 508.4208 187.281972 
L 508.95648 187.732455 
L 509.22432 187.665871 
L 510.02784 187.204889 
L 510.83136 187.381106 
L 511.0992 187.184276 
L 511.63488 186.168362 
L 512.17056 185.20855 
L 512.70624 184.850024 
L 512.97408 184.686209 
L 513.24192 184.348859 
L 514.31328 182.153439 
L 514.58112 182.024331 
L 514.84896 182.149474 
L 515.38464 182.708826 
L 515.65248 182.827421 
L 515.92032 182.687224 
L 516.456 181.780953 
L 516.99168 180.961983 
L 517.25952 180.91655 
L 517.52736 181.195076 
L 518.06304 182.593319 
L 518.86656 185.221861 
L 519.40224 186.211506 
L 519.67008 186.350134 
L 519.93792 186.220868 
L 520.4736 185.315232 
L 521.00928 184.339133 
L 521.27712 184.117078 
L 521.54496 184.133641 
L 521.8128 184.366932 
L 522.34848 185.274508 
L 523.152 187.324871 
L 523.68768 188.92181 
L 523.95552 189.373959 
L 524.22336 189.283963 
L 525.56256 186.833171 
L 526.09824 186.443819 
L 526.63392 185.53278 
L 528.5088 180.959066 
L 528.77664 180.676002 
L 529.04448 180.555974 
L 529.58016 180.716141 
L 530.38368 181.109504 
L 530.91936 181.407132 
L 531.1872 181.805397 
L 531.72288 183.348507 
L 532.5264 186.156787 
L 532.79424 186.585098 
L 533.06208 186.671788 
L 533.59776 186.307498 
L 534.40128 185.339693 
L 535.2048 183.904092 
L 536.00832 182.52832 
L 536.27616 182.301296 
L 536.544 182.241468 
L 537.8832 182.646109 
L 538.15104 182.899347 
L 538.68672 184.074985 
L 538.95456 184.724304 
L 539.2224 185.019199 
L 539.49024 184.772617 
L 540.29376 183.069644 
L 540.5616 183.07059 
L 540.82944 183.434675 
L 541.9008 185.461667 
L 542.43648 186.708203 
L 542.97216 188.97649 
L 543.50784 191.62535 
L 543.77568 192.16919 
L 544.5792 189.501382 
L 545.38272 187.408461 
L 545.9184 186.794881 
L 547.52544 186.189033 
L 548.86464 186.430698 
L 549.66816 187.34674 
L 549.936 187.226843 
L 550.20384 186.59311 
L 551.2752 182.809433 
L 551.81088 181.800454 
L 552.07872 181.582661 
L 552.34656 181.600206 
L 552.6144 181.882102 
L 553.15008 183.061943 
L 553.68576 184.16089 
L 554.22144 184.537411 
L 554.75712 184.826332 
L 555.82848 185.803768 
L 556.36416 187.037345 
L 556.632 187.739377 
L 556.89984 188.011044 
L 557.16768 187.577071 
L 557.70336 185.867833 
L 557.9712 185.368998 
L 558.23904 185.295231 
L 559.04256 185.988943 
L 559.3104 185.808138 
L 559.84608 184.875832 
L 560.38176 183.636556 
L 561.18528 181.464466 
L 561.45312 181.158103 
L 561.72096 181.286627 
L 561.9888 181.866872 
L 562.52448 184.056761 
L 563.59584 190.170196 
L 563.86368 191.89416 
L 564.13152 191.237921 
L 564.6672 188.117084 
L 565.20288 186.136472 
L 566.0064 184.616577 
L 566.54208 183.834686 
L 566.80992 183.672385 
L 567.07776 183.749011 
L 567.61344 184.483359 
L 568.41696 185.755773 
L 569.22048 186.735673 
L 569.48832 186.898303 
L 569.75616 186.869332 
L 570.55968 186.312075 
L 570.82752 186.379997 
L 571.09536 186.696588 
L 571.63104 188.004701 
L 572.7024 191.312343 
L 572.97024 191.569632 
L 573.23808 191.363029 
L 576.72 186.612891 
L 577.52352 185.645266 
L 578.0592 184.757539 
L 579.3984 181.474266 
L 579.66624 181.315755 
L 580.7376 181.163054 
L 581.54112 180.887063 
L 582.61248 180.738694 
L 583.14816 180.934712 
L 583.68384 181.567547 
L 584.21952 182.719486 
L 585.02304 185.411203 
L 585.55872 187.009755 
L 585.82656 187.307842 
L 586.0944 187.185084 
L 587.4336 185.282114 
L 587.70144 185.349959 
L 588.23712 185.882903 
L 589.30848 187.074289 
L 589.57632 187.195491 
L 589.84416 187.102974 
L 590.37984 186.251787 
L 591.4512 183.79181 
L 592.25472 181.848158 
L 592.52256 181.652935 
L 592.7904 181.82715 
L 593.86176 183.648126 
L 594.39744 183.983309 
L 594.93312 184.823855 
L 595.20096 185.276018 
L 595.4688 185.473855 
L 595.73664 185.329361 
L 596.808 183.628744 
L 597.34368 182.502611 
L 598.41504 179.949048 
L 598.95072 179.038486 
L 599.4864 178.456676 
L 600.02208 177.933486 
L 600.55776 176.847063 
L 601.36128 174.77041 
L 601.62912 174.349717 
L 601.89696 174.147387 
L 602.1648 174.184445 
L 602.43264 174.491868 
L 602.70048 175.101312 
L 603.23616 177.121653 
L 603.77184 179.080647 
L 604.03968 179.358242 
L 604.30752 178.97247 
L 604.8432 176.848879 
L 605.64672 173.615263 
L 605.91456 173.075892 
L 606.1824 172.901135 
L 606.45024 173.065256 
L 607.25376 174.08036 
L 607.5216 173.865598 
L 608.05728 172.244681 
L 608.59296 170.358728 
L 609.39648 168.202339 
L 609.93216 165.745556 
L 610.46784 163.173295 
L 611.00352 161.758053 
L 611.80704 160.48698 
L 612.07488 160.484485 
L 612.34272 161.155185 
L 612.8784 164.53811 
L 613.14624 166.220345 
L 613.41408 166.665443 
L 613.68192 165.223044 
L 614.2176 157.585557 
L 615.5568 133.998102 
L 615.82464 133.271257 
L 616.09248 135.547555 
L 616.36032 141.098663 
L 616.896 160.706276 
L 617.43168 182.576124 
L 617.69952 180.204155 
L 618.2352 162.957735 
L 618.77088 153.441901 
L 619.03872 151.702368 
L 619.5744 150.360393 
L 619.84224 148.985865 
L 620.64576 142.57347 
L 620.9136 142.468784 
L 621.18144 144.251183 
L 621.71712 150.572084 
L 621.98496 152.251746 
L 622.2528 151.939721 
L 622.52064 150.887479 
L 622.78848 151.183675 
L 623.05632 154.499398 
L 623.592 171.200209 
L 623.85984 178.424131 
L 624.12768 171.466663 
L 626.00256 69.499166 
L 626.53824 48.256123 
L 627.07392 34.228156 
L 627.6096 27.171494 
L 627.87744 25.92 
L 628.14528 26.122811 
L 628.41312 27.649852 
L 630.02016 43.156698 
L 630.55584 53.014293 
L 631.35936 69.726916 
L 631.6272 71.061808 
L 631.89504 69.348697 
L 632.43072 59.58426 
L 633.23424 43.40166 
L 633.50208 40.782174 
L 633.76992 40.370174 
L 634.03776 42.145568 
L 634.57344 50.001178 
L 635.10912 57.597544 
L 635.37696 59.59195 
L 635.6448 60.255074 
L 635.91264 59.879617 
L 636.44832 57.498524 
L 636.984 55.188344 
L 637.25184 54.891787 
L 637.51968 55.589306 
L 637.78752 57.499872 
L 638.3232 65.146108 
L 639.12672 83.195028 
L 640.19808 106.030584 
L 641.53728 129.029301 
L 642.07296 135.94667 
L 642.60864 140.436691 
L 643.14432 142.660323 
L 643.94784 144.516158 
L 644.75136 147.851663 
L 645.82272 152.570914 
L 646.62624 156.373577 
L 647.16192 157.380149 
L 647.42976 157.913429 
L 647.6976 158.916786 
L 648.23328 162.540944 
L 648.76896 166.272156 
L 649.0368 167.266855 
L 649.84032 168.394756 
L 650.10816 169.269041 
L 650.64384 172.140225 
L 652.25088 181.491889 
L 652.51872 182.095411 
L 652.78656 182.102244 
L 653.32224 181.689467 
L 653.59008 181.908054 
L 654.3936 183.586994 
L 654.66144 183.706313 
L 655.19712 183.566044 
L 655.7328 183.932374 
L 656.00064 184.07638 
L 656.26848 183.964957 
L 656.80416 183.352134 
L 657.072 183.315674 
L 657.33984 183.666747 
L 657.87552 185.423463 
L 658.94688 189.811394 
L 659.21472 190.462445 
L 659.48256 190.688931 
L 660.55392 190.320086 
L 661.0896 190.352194 
L 661.35744 190.169015 
L 661.89312 189.308836 
L 663.23232 186.152622 
L 663.768 185.49465 
L 664.03584 184.883506 
L 665.1072 181.360144 
L 665.37504 181.199328 
L 665.64288 181.533572 
L 665.91072 182.313135 
L 666.4464 184.7819 
L 667.51776 190.098791 
L 667.7856 190.567409 
L 668.05344 190.403824 
L 668.58912 189.700379 
L 669.1248 189.41215 
L 670.73184 188.957366 
L 670.99968 189.082821 
L 671.53536 189.650132 
L 671.8032 189.560435 
L 672.07104 188.750716 
L 673.1424 183.67447 
L 673.41024 183.168685 
L 673.67808 183.057109 
L 674.74944 183.70759 
L 675.01728 183.998099 
L 675.28512 184.553631 
L 676.62432 188.580274 
L 676.89216 188.831875 
L 677.16 189.238487 
L 677.69568 190.946953 
L 677.96352 191.816291 
L 678.23136 191.180218 
L 678.76704 189.1669 
L 679.57056 187.276849 
L 680.37408 185.631136 
L 681.1776 184.663987 
L 682.24896 183.493782 
L 682.5168 183.642371 
L 682.78464 184.119448 
L 683.32032 185.909255 
L 684.65952 191.702286 
L 684.92736 191.171051 
L 686.26656 184.999593 
L 687.8736 179.713775 
L 688.40928 178.733573 
L 689.48064 177.904642 
L 690.552 176.199303 
L 691.08768 174.803804 
L 691.62336 173.263601 
L 691.8912 172.877838 
L 692.15904 172.860297 
L 692.42688 173.137114 
L 692.96256 174.137228 
L 693.2304 174.886762 
L 693.49824 176.011795 
L 694.03392 179.803625 
L 694.5696 184.430809 
L 694.83744 185.989991 
L 695.10528 186.693384 
L 695.37312 186.766654 
L 695.64096 186.350719 
L 695.9088 185.284635 
L 696.71232 180.174071 
L 696.98016 179.324037 
L 697.248 179.136222 
L 697.51584 179.169635 
L 697.78368 178.776959 
L 698.05152 177.613213 
L 698.5872 173.78152 
L 698.85504 171.086824 
L 699.12288 167.022905 
L 699.65856 153.403669 
L 700.46208 131.937614 
L 700.72992 129.184819 
L 700.99776 129.797803 
L 701.2656 133.721965 
L 702.33696 158.369054 
L 702.6048 154.571459 
L 703.14048 133.669525 
L 703.944 102.029751 
L 704.21184 96.015061 
L 704.47968 93.002542 
L 704.74752 92.850789 
L 705.01536 95.091925 
L 705.55104 104.258722 
L 706.35456 123.93926 
L 707.15808 144.938653 
L 707.42592 149.081078 
L 707.69376 150.810997 
L 707.9616 150.739717 
L 708.49728 149.582429 
L 708.76512 149.848274 
L 709.3008 152.015877 
L 711.44352 162.313126 
L 711.9792 163.278085 
L 712.51488 165.047826 
L 713.85408 171.656775 
L 715.19328 180.564254 
L 715.46112 180.673295 
L 715.72896 180.081422 
L 716.53248 177.677057 
L 717.06816 176.599549 
L 717.336 176.262866 
L 717.60384 176.183662 
L 717.87168 176.490554 
L 718.13952 177.289445 
L 718.6752 180.531112 
L 719.74656 190.08495 
L 720.0144 188.420895 
L 721.3536 175.777817 
L 722.42496 167.260154 
L 722.96064 164.67135 
L 723.22848 164.111536 
L 723.49632 164.021677 
L 723.76416 164.312923 
L 724.56768 166.197008 
L 725.63904 168.904317 
L 726.17472 171.259824 
L 727.78176 179.576831 
L 729.65664 187.645362 
L 730.19232 190.374159 
L 730.46016 190.950829 
L 730.728 190.351299 
L 731.79936 186.166577 
L 733.4064 178.616963 
L 733.94208 177.305505 
L 734.20992 177.076223 
L 734.47776 177.243767 
L 734.7456 177.859568 
L 735.28128 180.316728 
L 737.15616 192.227943 
L 737.69184 188.896717 
L 738.49536 183.520328 
L 739.03104 180.870981 
L 739.56672 179.111301 
L 740.1024 178.074769 
L 740.37024 177.820824 
L 740.63808 177.806731 
L 740.90592 178.107803 
L 741.17376 178.782881 
L 741.70944 181.214166 
L 742.7808 186.793278 
L 743.31648 188.162828 
L 744.12 189.429932 
L 744.38784 189.648265 
L 744.92352 189.680943 
L 746.26272 189.131215 
L 746.53056 188.627373 
L 747.06624 186.712133 
L 747.60192 184.728017 
L 747.86976 184.130002 
L 748.1376 183.88997 
L 748.40544 183.982288 
L 748.94112 184.796237 
L 749.4768 185.662329 
L 749.74464 185.802715 
L 750.01248 185.593756 
L 750.28032 185.014062 
L 751.88736 180.207877 
L 752.95872 178.092631 
L 755.10144 175.195003 
L 755.63712 173.817455 
L 756.44064 171.459864 
L 756.70848 171.001098 
L 756.97632 170.819815 
L 757.24416 170.943844 
L 757.512 171.380317 
L 758.04768 173.026553 
L 758.58336 174.85197 
L 759.11904 175.795907 
L 759.65472 176.457706 
L 759.92256 177.139487 
L 760.45824 179.385783 
L 761.5296 184.173642 
L 761.79744 184.90223 
L 762.06528 185.229487 
L 762.33312 185.054885 
L 762.8688 183.674468 
L 763.40448 182.283384 
L 763.94016 181.383343 
L 764.47584 180.840886 
L 764.74368 180.837177 
L 765.01152 181.122004 
L 765.27936 181.724843 
L 765.81504 183.714975 
L 767.15424 189.912835 
L 767.42208 189.997232 
L 768.76128 186.265371 
L 769.83264 185.680471 
L 770.10048 185.575827 
L 770.36832 185.646643 
L 771.17184 186.49007 
L 771.43968 186.260201 
L 772.2432 184.415731 
L 772.51104 184.340745 
L 773.31456 185.101865 
L 773.5824 184.757235 
L 774.11808 183.884127 
L 774.38592 183.982362 
L 774.9216 184.8199 
L 775.18944 184.696038 
L 775.72512 183.456585 
L 775.99296 183.467983 
L 776.2608 184.388374 
L 776.79648 186.907433 
L 777.06432 185.377779 
L 777.33216 182.164873 
L 777.33216 182.164873 
" style="fill:none;stroke:#1f77b4;stroke-linecap:square;stroke-width:1.5;"/>
   </g>
   <g id="line2d_2">
    <path clip-path="url(#p3ed08d5fbb)" d="M 142.28352 165.44468 
L 142.55136 166.115168 
L 143.08704 169.058413 
L 143.62272 172.249876 
L 144.1584 174.256518 
L 144.42624 174.888774 
L 144.69408 175.2177 
L 144.96192 175.125085 
L 145.4976 173.886419 
L 146.30112 171.567627 
L 146.8368 169.140118 
L 147.37248 166.674721 
L 147.64032 165.996757 
L 147.90816 165.717694 
L 148.176 165.69754 
L 148.44384 165.848236 
L 148.71168 166.243941 
L 148.97952 167.052555 
L 149.78304 170.551917 
L 150.05088 170.168143 
L 150.8544 165.179976 
L 151.12224 164.984495 
L 151.39008 166.238141 
L 151.92576 172.169538 
L 153.26496 189.441567 
L 153.5328 189.626386 
L 154.06848 182.767043 
L 154.60416 172.584589 
L 155.67552 148.693927 
L 155.94336 145.135604 
L 156.2112 143.277293 
L 156.47904 142.993009 
L 156.74688 143.934463 
L 157.28256 148.040736 
L 157.81824 154.191431 
L 159.42528 175.614308 
L 159.69312 176.04476 
L 159.96096 173.381049 
L 160.49664 160.822984 
L 162.9072 95.364571 
L 163.71072 76.543503 
L 165.04992 36.793926 
L 165.31776 33.828766 
L 165.5856 34.073177 
L 165.85344 37.400987 
L 166.38912 50.70907 
L 166.9248 65.671893 
L 167.46048 74.220295 
L 167.72832 75.684053 
L 168.264 77.071805 
L 168.53184 78.90182 
L 168.79968 82.335609 
L 169.33536 94.895651 
L 169.87104 114.689873 
L 170.67456 148.009276 
L 170.9424 153.408303 
L 171.21024 152.534168 
L 171.74592 139.091152 
L 172.2816 124.970466 
L 172.81728 115.873939 
L 173.35296 111.412259 
L 173.6208 110.61634 
L 173.88864 110.734684 
L 174.15648 111.821 
L 174.42432 113.972189 
L 174.96 121.778954 
L 176.56704 153.772537 
L 176.83488 154.793948 
L 177.10272 154.475982 
L 177.6384 152.65553 
L 177.90624 152.21246 
L 178.17408 152.466129 
L 178.44192 153.520052 
L 178.9776 157.827831 
L 180.04896 168.101521 
L 180.3168 169.412185 
L 180.58464 170.152997 
L 180.85248 170.509505 
L 181.12032 170.645447 
L 181.38816 170.649389 
L 181.656 170.54075 
L 181.92384 170.300423 
L 182.45952 169.329627 
L 183.53088 166.431417 
L 183.79872 166.063426 
L 184.06656 165.984848 
L 184.3344 166.17489 
L 184.87008 167.072204 
L 185.6736 168.915003 
L 186.20928 170.618154 
L 187.81632 176.690513 
L 188.61984 178.816464 
L 189.15552 180.464139 
L 189.42336 180.948174 
L 189.6912 180.925484 
L 190.22688 179.716248 
L 190.49472 179.121652 
L 190.76256 178.859234 
L 191.0304 178.968442 
L 191.83392 179.895852 
L 192.63744 179.973528 
L 192.90528 180.345792 
L 193.44096 181.782227 
L 194.51232 184.786434 
L 195.048 186.119822 
L 195.31584 186.493007 
L 195.58368 186.536247 
L 196.11936 186.193412 
L 196.3872 186.22672 
L 196.65504 186.538552 
L 197.7264 188.630115 
L 197.99424 188.551772 
L 198.52992 187.689224 
L 199.0656 186.883556 
L 199.60128 186.623409 
L 200.13696 186.458211 
L 200.67264 185.866824 
L 201.20832 185.335003 
L 201.47616 185.29693 
L 202.01184 185.62965 
L 202.54752 185.960922 
L 202.81536 185.913357 
L 203.0832 185.668084 
L 203.61888 184.675819 
L 204.69024 182.413674 
L 205.49376 181.396129 
L 206.83296 180.279927 
L 207.36864 179.935902 
L 207.90432 179.96097 
L 208.70784 180.234216 
L 209.24352 180.343956 
L 209.51136 180.605299 
L 210.04704 181.809264 
L 210.58272 183.318211 
L 210.58272 183.318211 
" style="fill:none;stroke:#ff0000;stroke-linecap:square;stroke-width:2.5;"/>
   </g>
  </g>
 </g>
 <defs>
  <clipPath id="p3ed08d5fbb">
   <rect height="166.32" width="669.6" x="108" y="25.92"/>
  </clipPath>
 </defs>
</svg>
