<?xml version="1.0" encoding="utf-8" standalone="no"?>
<!DOCTYPE svg PUBLIC "-//W3C//DTD SVG 1.1//EN"
  "http://www.w3.org/Graphics/SVG/1.1/DTD/svg11.dtd">
<!-- Created with matplotlib (https://matplotlib.org/) -->
<svg height="216pt" version="1.1" viewBox="0 0 864 216" width="864pt" xmlns="http://www.w3.org/2000/svg" xmlns:xlink="http://www.w3.org/1999/xlink">
 <metadata>
  <rdf:RDF xmlns:cc="http://creativecommons.org/ns#" xmlns:dc="http://purl.org/dc/elements/1.1/" xmlns:rdf="http://www.w3.org/1999/02/22-rdf-syntax-ns#">
   <cc:Work>
    <dc:type rdf:resource="http://purl.org/dc/dcmitype/StillImage"/>
    <dc:date>2021-01-28T01:22:06.596369</dc:date>
    <dc:format>image/svg+xml</dc:format>
    <dc:creator>
     <cc:Agent>
      <dc:title>Matplotlib v3.3.2, https://matplotlib.org/</dc:title>
     </cc:Agent>
    </dc:creator>
   </cc:Work>
  </rdf:RDF>
 </metadata>
 <defs>
  <style type="text/css">*{stroke-linecap:butt;stroke-linejoin:round;}</style>
 </defs>
 <g id="figure_1">
  <g id="patch_1">
   <path d="M 0 216 
L 864 216 
L 864 0 
L 0 0 
z
" style="fill:none;"/>
  </g>
  <g id="axes_1">
   <g id="patch_2">
    <path clip-path="url(#p51c77999b7)" d="M 304.941176 192.24 
L 304.941176 25.92 
L 466.275388 25.92 
L 466.275388 192.24 
z
" style="fill:#ffa500;opacity:0.15;"/>
   </g>
   <g id="patch_3">
    <path clip-path="url(#p51c77999b7)" d="M 423.105882 192.24 
L 423.105882 25.92 
L 584.440094 25.92 
L 584.440094 192.24 
z
" style="fill:#7fff00;opacity:0.2;"/>
   </g>
   <g id="line2d_1">
    <path clip-path="url(#p51c77999b7)" d="M 108 135.964445 
L 108.551435 142.698688 
L 109.3392 155.487447 
L 111.229835 187.299502 
L 111.387388 188.071676 
L 111.466165 188.033555 
L 111.623718 187.168636 
L 112.0176 182.593899 
L 116.192753 124.52962 
L 119.422588 71.374249 
L 119.974024 66.610107 
L 120.367906 64.636558 
L 120.683012 63.920394 
L 120.919341 63.865869 
L 121.155671 64.199211 
L 121.470776 65.194656 
L 121.943435 67.697909 
L 122.573647 72.467568 
L 123.518965 81.509619 
L 124.936941 97.436502 
L 126.354918 115.879842 
L 129.663529 160.553773 
L 130.372518 166.863127 
L 130.923953 169.977875 
L 131.317835 171.195791 
L 131.632941 171.650335 
L 131.948047 171.759038 
L 132.341929 171.602587 
L 133.208471 171.156851 
L 133.602353 171.258075 
L 133.996235 171.66708 
L 134.468894 172.596377 
L 135.020329 174.246925 
L 135.886871 177.704913 
L 136.910965 181.689236 
L 137.383624 182.701907 
L 137.698729 182.883447 
L 137.935059 182.751255 
L 138.250165 182.267983 
L 138.8016 180.89917 
L 139.668141 178.767772 
L 140.062024 178.261859 
L 140.377129 178.184267 
L 140.613459 178.341816 
L 140.928565 178.854429 
L 141.322447 179.974703 
L 141.873882 182.289622 
L 142.661647 185.642522 
L 142.897976 185.932475 
L 143.055529 185.748627 
L 143.291859 184.856328 
L 143.685741 181.97822 
L 144.315953 175.233485 
L 147.073129 143.224609 
L 147.624565 139.942496 
L 148.018447 138.772151 
L 148.254776 138.559912 
L 148.412329 138.620395 
L 148.648659 139.003891 
L 148.963765 140.027443 
L 149.436424 142.506828 
L 150.145412 147.669731 
L 151.563388 158.142781 
L 152.114824 160.592589 
L 152.508706 161.560507 
L 152.902588 161.982858 
L 153.296471 162.062409 
L 154.005459 162.14297 
L 154.320565 162.446254 
L 154.635671 163.046024 
L 155.029553 164.299797 
L 155.502212 166.609632 
L 156.132424 171.010199 
L 156.998965 178.909249 
L 157.865506 186.553149 
L 158.101835 187.437388 
L 158.180612 187.477723 
L 158.338165 187.146481 
L 158.574494 185.783557 
L 159.125929 180.603778 
L 160.543906 166.739573 
L 161.174118 162.622354 
L 161.646776 160.829881 
L 161.961882 160.315363 
L 162.198212 160.294737 
L 162.434541 160.584247 
L 162.749647 161.436147 
L 163.143529 163.198561 
L 163.694965 166.791867 
L 164.482729 173.593246 
L 165.979482 186.984273 
L 166.215812 187.721303 
L 166.294588 187.74023 
L 166.452141 187.430278 
L 166.688471 186.2528 
L 167.239906 181.909029 
L 168.500329 171.917515 
L 169.130541 168.662359 
L 169.524424 167.493668 
L 169.839529 167.086265 
L 170.075859 167.09659 
L 170.312188 167.37662 
L 170.627294 168.157673 
L 171.099953 170.138069 
L 171.730165 174.020542 
L 173.463247 185.76863 
L 173.699576 186.134112 
L 173.857129 186.021852 
L 174.093459 185.378626 
L 174.566118 183.033337 
L 175.668988 177.301035 
L 176.141647 176.01033 
L 176.456753 175.730109 
L 176.693082 175.845756 
L 176.929412 176.241165 
L 177.323294 177.480065 
L 177.953506 180.496708 
L 178.426165 182.515244 
L 178.662494 182.863658 
L 178.820047 182.687052 
L 179.056376 181.723545 
L 179.371482 179.227512 
L 179.922918 172.53796 
L 180.868235 157.749318 
L 182.837647 126.549164 
L 183.467859 120.083172 
L 183.861741 117.759283 
L 184.176847 117.00379 
L 184.3344 117.010182 
L 184.491953 117.274887 
L 184.728282 118.150149 
L 185.122165 120.824627 
L 185.594824 125.803712 
L 186.303812 135.938788 
L 189.139765 179.763685 
L 189.612424 183.267726 
L 189.848753 183.978195 
L 190.006306 184.059623 
L 190.163859 183.876316 
L 190.478965 182.973132 
L 191.581835 179.297261 
L 191.975718 178.81543 
L 192.212047 178.800471 
L 192.448376 178.980768 
L 192.842259 179.660642 
L 193.472471 181.408809 
L 194.260235 183.575493 
L 194.654118 184.076156 
L 194.890447 184.083093 
L 195.126776 183.867993 
L 195.520659 183.103701 
L 196.465976 180.437069 
L 197.096188 178.99666 
L 197.568847 178.381857 
L 197.962729 178.200502 
L 198.356612 178.281328 
L 198.908047 178.674862 
L 199.617035 179.162298 
L 200.010918 179.165141 
L 200.326024 178.948663 
L 200.719906 178.388364 
L 201.271341 177.164491 
L 202.925647 173.18833 
L 203.477082 172.548776 
L 203.949741 172.349018 
L 204.579953 172.381291 
L 205.131388 172.348124 
L 205.525271 172.069172 
L 205.919153 171.44801 
L 206.391812 170.181224 
L 207.022024 167.707756 
L 209.070212 158.868583 
L 209.621647 157.544666 
L 210.251859 156.617967 
L 210.882071 155.716813 
L 211.275953 154.714877 
L 211.669835 153.039374 
L 212.142494 149.824986 
L 212.693929 144.191926 
L 213.402918 134.148982 
L 214.348235 117.168364 
L 216.632753 74.404115 
L 217.262965 66.90906 
L 217.735624 63.686608 
L 218.050729 62.784632 
L 218.208282 62.705378 
L 218.365835 62.86489 
L 218.602165 63.526404 
L 218.996047 65.61635 
L 219.547482 70.020976 
L 220.807906 80.457571 
L 221.201788 82.161147 
L 221.438118 82.606259 
L 221.595671 82.650325 
L 221.753224 82.493668 
L 221.989553 81.898076 
L 222.383435 80.059878 
L 223.013647 75.704451 
L 223.801412 70.427813 
L 224.195294 69.021272 
L 224.431624 68.824987 
L 224.589176 69.008825 
L 224.825506 69.79614 
L 225.140612 71.848081 
L 225.534494 76.043925 
L 226.085929 84.766586 
L 226.794918 99.88436 
L 228.055341 132.470357 
L 229.552094 170.182789 
L 229.945976 176.258606 
L 230.182306 177.360672 
L 230.339859 176.777403 
L 230.576188 174.246202 
L 231.127624 164.498835 
L 232.230494 145.068035 
L 232.781929 138.967741 
L 233.175812 136.635635 
L 233.412141 136.072125 
L 233.569694 136.036805 
L 233.727247 136.264099 
L 233.963576 137.072383 
L 234.357459 139.545734 
L 234.908894 144.92669 
L 235.775435 156.180965 
L 237.272188 175.780349 
L 237.744847 179.447574 
L 238.059953 180.516952 
L 238.217506 180.630105 
L 238.375059 180.506074 
L 238.690165 179.762205 
L 239.635482 177.133306 
L 239.871812 176.95177 
L 240.108141 177.064587 
L 240.344471 177.486348 
L 240.659576 178.524131 
L 241.132235 180.979757 
L 242.077553 186.39008 
L 242.235106 186.512929 
L 242.392659 186.140223 
L 242.628988 184.686948 
L 243.022871 180.597169 
L 243.810635 169.643155 
L 246.173929 135.621273 
L 246.961694 127.727554 
L 247.591906 123.387673 
L 248.143341 120.998652 
L 248.616 119.878048 
L 249.009882 119.500693 
L 249.324988 119.50987 
L 249.640094 119.760359 
L 250.033976 120.375998 
L 250.506635 121.52255 
L 251.136847 123.729757 
L 251.845835 127.199212 
L 252.6336 132.388747 
L 253.500141 139.713749 
L 254.681788 151.869247 
L 257.123859 177.696623 
L 257.596518 180.590627 
L 257.911624 181.422786 
L 258.069176 181.457437 
L 258.226729 181.245265 
L 258.541835 180.188516 
L 259.014494 177.560949 
L 260.826353 166.564446 
L 261.377788 164.546342 
L 261.850447 163.540515 
L 262.165553 163.252323 
L 262.480659 163.26545 
L 262.795765 163.569108 
L 263.189647 164.330337 
L 263.741082 166.023859 
L 264.450071 169.031837 
L 266.892141 180.179193 
L 267.3648 181.158134 
L 267.758682 181.481545 
L 268.073788 181.45835 
L 268.467671 181.174371 
L 270.200753 179.567364 
L 270.594635 179.578574 
L 270.988518 179.789878 
L 271.539953 180.392034 
L 272.327718 181.670933 
L 273.273035 183.163147 
L 273.745694 183.55802 
L 274.139576 183.601487 
L 274.533459 183.378444 
L 275.084894 182.714577 
L 276.581647 180.671614 
L 276.975529 180.481456 
L 277.369412 180.534019 
L 277.763294 180.838666 
L 278.235953 181.505627 
L 279.811482 184.069395 
L 280.047812 184.077268 
L 280.284141 183.89603 
L 280.599247 183.361806 
L 281.071906 182.048467 
L 282.804988 176.681545 
L 283.198871 176.265992 
L 283.4352 176.260698 
L 283.671529 176.449963 
L 283.986635 177.00522 
L 284.459294 178.423635 
L 285.562165 182.236749 
L 285.719718 182.346696 
L 285.877271 182.212388 
L 286.1136 181.49914 
L 286.428706 179.606028 
L 286.901365 175.165309 
L 287.689129 165.321693 
L 289.894871 136.457506 
L 290.525082 131.382319 
L 290.918965 129.658326 
L 291.155294 129.235716 
L 291.312847 129.220103 
L 291.4704 129.419974 
L 291.706729 130.121796 
L 292.021835 131.787909 
L 292.494494 135.721508 
L 293.124706 143.116777 
L 294.385129 161.460583 
L 295.330447 174.009666 
L 295.803106 178.18264 
L 296.118212 179.606557 
L 296.354541 179.870313 
L 296.512094 179.697323 
L 296.748424 179.025289 
L 297.299859 176.443454 
L 298.087624 172.945229 
L 298.481506 171.970998 
L 298.796612 171.684585 
L 299.032941 171.770152 
L 299.269271 172.110849 
L 299.663153 173.216275 
L 300.135812 175.319699 
L 300.923576 180.073932 
L 301.790118 184.980625 
L 302.105224 185.722363 
L 302.262776 185.723653 
L 302.420329 185.467692 
L 302.735435 184.28863 
L 303.286871 180.915956 
L 305.256282 167.908439 
L 305.965271 164.788864 
L 306.516706 163.188186 
L 306.989365 162.419194 
L 307.304471 162.216682 
L 307.619576 162.257799 
L 307.934682 162.534512 
L 308.328565 163.195926 
L 308.88 164.65506 
L 309.588988 167.258078 
L 311.164518 173.298283 
L 311.479624 173.793315 
L 311.715953 173.816646 
L 311.952282 173.48747 
L 312.267388 172.450344 
L 312.661271 170.181607 
L 313.212706 165.361888 
L 313.921694 156.915253 
L 314.867012 142.780067 
L 316.206212 118.979445 
L 318.411953 79.377663 
L 319.120941 70.758605 
L 319.5936 67.253957 
L 319.908706 66.066221 
L 320.145035 65.801815 
L 320.302588 65.922881 
L 320.538918 66.539449 
L 320.854024 68.13001 
L 321.326682 71.955693 
L 322.035671 79.975917 
L 323.6112 98.497934 
L 324.162635 102.560863 
L 324.635294 104.557402 
L 324.9504 105.181413 
L 325.265506 105.348082 
L 325.580612 105.192441 
L 326.525929 104.418657 
L 326.762259 104.515138 
L 326.998588 104.846137 
L 327.313694 105.726679 
L 327.707576 107.630523 
L 328.180235 111.167719 
L 328.810447 117.914205 
L 329.676988 130.17266 
L 332.434165 171.979057 
L 332.828047 174.703539 
L 333.064376 175.390789 
L 333.221929 175.453963 
L 333.379482 175.234451 
L 333.694588 174.134569 
L 334.482353 169.875768 
L 335.033788 167.457574 
L 335.427671 166.508759 
L 335.742776 166.285129 
L 335.979106 166.427355 
L 336.294212 167.001447 
L 336.688094 168.249282 
L 337.397082 171.445997 
L 338.3424 175.559234 
L 338.736282 176.506829 
L 339.051388 176.807782 
L 339.287718 176.791778 
L 339.602824 176.538299 
L 340.469365 175.702904 
L 340.705694 175.74579 
L 340.942024 176.004463 
L 341.257129 176.746359 
L 341.651012 178.386317 
L 342.123671 181.436516 
L 343.226541 190.114862 
L 343.305318 189.98416 
L 343.462871 188.961227 
L 343.856753 183.974156 
L 344.723294 169.099085 
L 347.480471 118.977052 
L 347.953129 114.626968 
L 348.268235 113.138279 
L 348.504565 112.808545 
L 348.662118 112.965369 
L 348.898447 113.753334 
L 349.213553 115.781715 
L 349.686212 120.664175 
L 350.3952 131.041127 
L 353.152376 175.377067 
L 353.546259 178.275779 
L 353.861365 179.196976 
L 354.018918 179.228389 
L 354.255247 178.872807 
L 354.727906 177.449168 
L 355.279341 176.018547 
L 355.594447 175.746374 
L 355.830776 175.879141 
L 356.067106 176.313302 
L 356.460988 177.680903 
L 357.012424 180.68831 
L 357.800188 185.14544 
L 358.036518 185.561702 
L 358.194071 185.358146 
L 358.4304 184.308026 
L 358.824282 181.053945 
L 359.690824 171.203998 
L 360.793694 159.327166 
L 361.423906 154.764602 
L 361.817788 153.118876 
L 362.132894 152.53627 
L 362.369224 152.532369 
L 362.605553 152.890649 
L 362.920659 153.901452 
L 363.393318 156.436403 
L 364.023529 161.301626 
L 365.283953 173.435733 
L 366.150494 180.93275 
L 366.623153 183.486754 
L 366.938259 184.20143 
L 367.095812 184.246209 
L 367.332141 183.980782 
L 367.726024 182.945992 
L 368.907671 179.48352 
L 369.301553 178.943521 
L 369.616659 178.803874 
L 369.931765 178.911809 
L 370.325647 179.349784 
L 370.877082 180.376621 
L 372.295059 183.273179 
L 372.767718 183.705546 
L 373.1616 183.759343 
L 373.555482 183.575459 
L 374.185694 182.97816 
L 375.603671 181.559099 
L 376.312659 181.174777 
L 376.942871 181.059024 
L 377.573082 181.159147 
L 378.203294 181.478855 
L 379.069835 182.211985 
L 379.936376 182.896866 
L 380.330259 182.959665 
L 380.645365 182.801442 
L 381.039247 182.282619 
L 381.511906 181.1669 
L 382.142118 178.984225 
L 384.269082 170.88176 
L 384.741741 169.954279 
L 385.135624 169.616025 
L 385.450729 169.653333 
L 385.765835 169.968263 
L 386.159718 170.740337 
L 386.711153 172.452061 
L 387.498918 175.790507 
L 388.680565 180.819036 
L 389.153224 182.026209 
L 389.468329 182.399298 
L 389.704659 182.446131 
L 390.019765 182.233253 
L 390.413647 181.635067 
L 391.516518 179.303526 
L 392.304282 177.950341 
L 393.092047 177.048024 
L 395.612894 174.862902 
L 396.479435 174.323493 
L 398.291294 173.457906 
L 398.763953 172.727891 
L 399.315388 171.360005 
L 400.024376 168.900923 
L 401.442353 163.861178 
L 401.915012 162.900855 
L 402.308894 162.544093 
L 402.624 162.54392 
L 403.017882 162.819416 
L 403.726871 163.398831 
L 403.9632 163.330472 
L 404.199529 162.978686 
L 404.514635 161.920273 
L 404.908518 159.451223 
L 405.381176 154.708088 
L 406.011388 145.741115 
L 406.956706 128.562662 
L 408.847341 93.498409 
L 409.398776 87.23948 
L 409.713882 85.353873 
L 409.950212 84.905862 
L 410.107765 85.105324 
L 410.344094 86.186723 
L 410.6592 89.12234 
L 411.053082 95.155486 
L 411.604518 107.564567 
L 412.392282 131.048837 
L 413.810259 174.780016 
L 414.046588 177.693365 
L 414.125365 177.777424 
L 414.282918 176.542968 
L 414.598024 170.030537 
L 415.385788 145.879728 
L 418.064188 61.194644 
L 418.851953 43.160247 
L 419.482165 33.174464 
L 419.954824 28.511847 
L 420.348706 26.446775 
L 420.585035 25.961537 
L 420.742588 25.936662 
L 420.900141 26.140102 
L 421.136471 26.853362 
L 421.530353 29.053724 
L 422.003012 33.193801 
L 422.633224 40.912069 
L 423.420988 53.502529 
L 424.445082 73.621579 
L 426.178165 112.981416 
L 428.620235 167.976787 
L 429.171671 177.023892 
L 429.486776 179.435333 
L 429.565553 179.545533 
L 429.644329 179.444506 
L 429.801882 178.648079 
L 430.116988 175.247426 
L 430.904753 162.879548 
L 431.771294 150.516077 
L 432.322729 145.188893 
L 432.716612 142.941236 
L 433.031718 142.132668 
L 433.189271 142.05716 
L 433.346824 142.195718 
L 433.583153 142.790682 
L 433.898259 144.260014 
L 434.370918 147.724994 
L 435.079906 154.98171 
L 436.497882 170.09075 
L 436.891765 172.029746 
L 437.128094 172.255114 
L 437.285647 172.00065 
L 437.521976 171.070759 
L 437.915859 168.426594 
L 439.412612 157.242617 
L 439.806494 156.121834 
L 440.042824 156.017354 
L 440.200376 156.193416 
L 440.436706 156.826681 
L 440.751812 158.34397 
L 441.224471 161.956484 
L 441.854682 168.847724 
L 443.272659 186.081593 
L 443.351435 186.254284 
L 443.430212 186.18153 
L 443.587765 185.324238 
L 443.902871 181.610268 
L 444.769412 167.188525 
L 445.872282 149.988618 
L 446.502494 143.274606 
L 446.975153 140.408894 
L 447.290259 139.62186 
L 447.447812 139.564461 
L 447.605365 139.724934 
L 447.841694 140.357321 
L 448.1568 141.878523 
L 448.629459 145.407039 
L 449.338447 152.735207 
L 451.622965 178.301332 
L 452.016847 180.300367 
L 452.253176 180.768599 
L 452.410729 180.787162 
L 452.647059 180.44719 
L 453.040941 179.244037 
L 454.065035 175.878932 
L 454.458918 175.299948 
L 454.695247 175.216438 
L 454.931576 175.330915 
L 455.246682 175.774537 
L 455.719341 176.974598 
L 456.507106 179.828048 
L 457.216094 182.175971 
L 457.609976 182.824113 
L 457.846306 182.872494 
L 458.082635 182.651738 
L 458.397741 181.980992 
L 458.949176 180.091355 
L 460.524706 174.291893 
L 461.076141 173.143189 
L 461.470024 172.719576 
L 461.785129 172.617944 
L 462.100235 172.715954 
L 462.494118 173.0938 
L 463.045553 174.019031 
L 463.833318 175.871091 
L 465.408847 179.676648 
L 466.039059 180.661725 
L 466.590494 181.173917 
L 467.220706 181.452522 
L 468.875012 181.991729 
L 469.662776 182.617657 
L 470.686871 183.411478 
L 471.080753 183.468471 
L 471.474635 183.270301 
L 471.868518 182.782237 
L 472.419953 181.64789 
L 473.365271 178.991264 
L 474.389365 176.314955 
L 474.9408 175.411141 
L 475.334682 175.098192 
L 475.649788 175.069452 
L 475.964894 175.242235 
L 476.358776 175.735901 
L 476.831435 176.699375 
L 477.540424 178.719466 
L 478.9584 182.917159 
L 479.431059 183.620073 
L 479.746165 183.754389 
L 480.061271 183.62832 
L 480.455153 183.174939 
L 481.242918 181.782625 
L 482.030682 180.518571 
L 482.582118 180.014121 
L 483.054776 179.886512 
L 483.527435 180.012184 
L 484.236424 180.501253 
L 485.024188 181.001785 
L 485.418071 181.043966 
L 485.811953 180.869797 
L 486.284612 180.35511 
L 486.914824 179.23876 
L 489.120565 174.907587 
L 489.750776 174.281808 
L 490.380988 173.97581 
L 491.168753 173.870729 
L 492.586729 173.708121 
L 494.083482 173.438333 
L 494.634918 173.599893 
L 495.186353 174.015382 
L 495.895341 174.888957 
L 496.998212 176.284321 
L 497.392094 176.456769 
L 497.7072 176.364615 
L 498.022306 176.039709 
L 498.416188 175.308866 
L 499.0464 173.538506 
L 500.779482 168.225185 
L 501.330918 167.353996 
L 501.7248 167.086885 
L 502.118682 167.074242 
L 503.379106 167.350109 
L 503.694212 167.02579 
L 504.009318 166.366368 
L 504.4032 165.00173 
L 504.954635 162.096151 
L 505.7424 156.468322 
L 507.475482 143.622741 
L 508.184471 139.975465 
L 508.893459 137.42732 
L 509.917553 134.011733 
L 510.390212 131.547201 
L 510.941647 127.244229 
L 511.493082 121.097687 
L 512.202071 110.5613 
L 513.304941 90.173268 
L 514.722918 64.605603 
L 515.353129 56.858907 
L 515.825788 53.489573 
L 516.140894 52.543392 
L 516.298447 52.464978 
L 516.456 52.644002 
L 516.692329 53.375833 
L 517.007435 55.147175 
L 517.480094 59.212093 
L 518.346635 69.125276 
L 519.370729 80.162331 
L 520.000941 84.58795 
L 520.4736 86.486774 
L 520.867482 87.31315 
L 521.340141 87.777033 
L 521.891576 88.296086 
L 522.206682 88.912343 
L 522.600565 90.287685 
L 522.994447 92.53446 
L 523.467106 96.552008 
L 524.097318 104.180598 
L 524.885082 116.818999 
L 526.224282 142.764595 
L 527.721035 170.929697 
L 528.193694 176.711149 
L 528.5088 178.242135 
L 528.587576 178.260858 
L 528.745129 177.874819 
L 528.981459 176.400741 
L 529.454118 171.584799 
L 530.556988 159.89616 
L 531.108424 156.279004 
L 531.502306 154.962072 
L 531.738635 154.69233 
L 531.896188 154.724748 
L 532.132518 155.079686 
L 532.447624 156.088834 
L 532.920282 158.607862 
L 533.550494 163.394764 
L 535.598682 180.411305 
L 535.992565 181.780461 
L 536.228894 182.062851 
L 536.465224 181.998593 
L 536.780329 181.545763 
L 537.646871 180.040983 
L 537.961976 179.915019 
L 538.198306 180.056789 
L 538.513412 180.571922 
L 538.986071 181.937323 
L 539.695059 184.055724 
L 539.852612 184.166865 
L 540.010165 184.01116 
L 540.246494 183.19233 
L 540.5616 181.00937 
L 541.034259 175.895514 
L 541.822024 164.444374 
L 544.736753 119.158509 
L 545.209412 115.485175 
L 545.603294 113.977861 
L 545.839624 113.792806 
L 545.997176 113.971165 
L 546.233506 114.683361 
L 546.548612 116.427475 
L 547.021271 120.574229 
L 547.651482 128.360687 
L 548.833129 146.567235 
L 550.172329 166.215672 
L 550.802541 172.587104 
L 551.196424 174.918053 
L 551.511529 175.768007 
L 551.747859 175.878898 
L 551.984188 175.642401 
L 552.378071 174.783517 
L 553.323388 172.598558 
L 553.717271 172.173898 
L 554.111153 172.075849 
L 554.741365 172.271413 
L 555.135247 172.284536 
L 555.450353 172.036279 
L 555.765459 171.444439 
L 556.159341 170.134515 
L 556.710776 167.280176 
L 557.734871 160.245567 
L 558.601412 154.940051 
L 559.074071 153.108773 
L 559.467953 152.379198 
L 559.704282 152.323646 
L 559.940612 152.56275 
L 560.255718 153.33819 
L 560.6496 155.00871 
L 561.201035 158.508102 
L 561.9888 165.264361 
L 563.958212 183.029055 
L 564.273318 184.198494 
L 564.509647 184.368723 
L 564.6672 184.155034 
L 564.982306 183.117471 
L 565.691294 179.495825 
L 566.479059 175.961066 
L 566.951718 174.702289 
L 567.3456 174.238152 
L 567.581929 174.213422 
L 567.897035 174.459348 
L 568.290918 175.168001 
L 568.842353 176.748752 
L 570.811765 183.068403 
L 571.205647 183.484011 
L 571.520753 183.514424 
L 571.914635 183.252996 
L 572.623624 182.37282 
L 573.411388 181.516981 
L 573.884047 181.284309 
L 574.356706 181.297156 
L 574.908141 181.573006 
L 576.72 182.767919 
L 577.192659 182.725308 
L 577.744094 182.419826 
L 578.610635 181.599262 
L 579.713506 180.621784 
L 580.343718 180.345142 
L 580.973929 180.312466 
L 581.840471 180.531487 
L 582.707012 180.697209 
L 583.258447 180.570804 
L 583.809882 180.184157 
L 584.440094 179.449307 
L 586.330729 177.005711 
L 586.882165 176.724297 
L 587.354824 176.710931 
L 587.985035 176.939102 
L 588.851576 177.264654 
L 589.245459 177.197385 
L 589.639341 176.887898 
L 590.112 176.153553 
L 590.742212 174.637382 
L 592.396518 170.305418 
L 592.869176 169.724148 
L 593.184282 169.606224 
L 593.499388 169.705403 
L 593.893271 170.094767 
L 595.153694 171.598159 
L 595.390024 171.475736 
L 595.626353 171.084126 
L 595.941459 170.082873 
L 596.335341 168.035307 
L 596.886776 163.871846 
L 597.910871 153.911596 
L 599.013741 143.724483 
L 599.565176 140.266032 
L 599.959059 138.895469 
L 600.195388 138.600528 
L 600.352941 138.643357 
L 600.589271 139.084207 
L 600.904376 140.396277 
L 601.298259 143.200713 
L 601.849694 149.1276 
L 602.716235 161.626333 
L 603.504 172.195048 
L 603.819106 174.283822 
L 603.976659 174.525497 
L 604.134212 174.187797 
L 604.370541 172.678848 
L 604.764424 168.198676 
L 605.709741 153.674879 
L 606.812612 138.000377 
L 607.5216 130.810828 
L 608.073035 127.150089 
L 608.545694 125.222454 
L 609.097129 123.88163 
L 609.727341 122.438504 
L 610.121224 120.940171 
L 610.593882 118.026055 
L 611.145318 112.783655 
L 611.854306 103.399342 
L 613.902494 74.34752 
L 614.375153 70.974665 
L 614.690259 69.938458 
L 614.847812 69.795236 
L 615.005365 69.896746 
L 615.241694 70.485433 
L 615.5568 71.997797 
L 616.108235 76.081727 
L 617.132329 83.998849 
L 617.526212 85.427896 
L 617.683765 85.575602 
L 617.841318 85.456964 
L 618.077647 84.766643 
L 618.392753 82.910655 
L 618.865412 78.396147 
L 620.598494 59.39498 
L 620.834824 58.662306 
L 620.992376 58.639675 
L 621.149929 59.017035 
L 621.386259 60.367145 
L 621.701365 63.66506 
L 622.174024 71.731727 
L 622.804235 87.498622 
L 623.749553 118.098981 
L 625.482635 175.075465 
L 625.718965 177.190698 
L 625.797741 176.839943 
L 625.955294 174.647459 
L 626.349176 163.881617 
L 628.712471 88.818945 
L 629.185129 81.423999 
L 629.500235 78.819827 
L 629.736565 78.092569 
L 629.894118 78.17078 
L 630.051671 78.677416 
L 630.366776 80.874783 
L 630.760659 85.524925 
L 631.390871 96.096519 
L 633.911718 142.243688 
L 634.541929 149.031319 
L 635.172141 153.612305 
L 636.826447 164.156201 
L 637.535435 171.355141 
L 638.953412 187.159683 
L 639.032188 187.062007 
L 639.189741 186.080295 
L 639.504847 181.990401 
L 640.292612 167.602534 
L 642.183247 132.402669 
L 642.892235 123.097404 
L 643.443671 118.371649 
L 643.837553 116.431737 
L 644.152659 115.711221 
L 644.388988 115.620754 
L 644.625318 115.880709 
L 644.940424 116.706619 
L 645.413082 118.767864 
L 646.200847 123.529754 
L 647.855153 133.756986 
L 648.879247 138.51351 
L 650.533553 145.910996 
L 651.478871 151.478491 
L 652.818071 160.996181 
L 653.999718 168.821438 
L 654.551153 171.237467 
L 654.945035 172.176407 
L 655.260141 172.408913 
L 655.496471 172.293806 
L 655.811576 171.805039 
L 656.284235 170.541969 
L 658.017318 165.29451 
L 658.489976 164.656727 
L 658.805082 164.52457 
L 659.120188 164.633123 
L 659.514071 165.09802 
L 659.986729 166.096618 
L 660.616941 168.036171 
L 661.956141 173.194314 
L 662.743906 175.765053 
L 663.295341 176.906724 
L 663.689224 177.327282 
L 664.083106 177.44981 
L 664.555765 177.312161 
L 665.973741 176.67246 
L 666.4464 176.814777 
L 666.919059 177.223638 
L 667.549271 178.127753 
L 669.203576 180.785618 
L 669.676235 181.072654 
L 670.070118 181.060395 
L 670.542776 180.798731 
L 672.039529 179.74637 
L 672.433412 179.796511 
L 672.827294 180.076051 
L 673.299953 180.713879 
L 674.008941 182.144432 
L 674.875482 183.871001 
L 675.269365 184.195465 
L 675.505694 184.142396 
L 675.8208 183.744739 
L 676.214682 182.750645 
L 676.844894 180.339121 
L 678.577976 173.200715 
L 679.129412 171.835523 
L 679.602071 171.217609 
L 679.917176 171.097768 
L 680.232282 171.20214 
L 680.626165 171.617716 
L 681.1776 172.62132 
L 683.147012 176.701066 
L 683.619671 177.032509 
L 684.013553 177.064602 
L 684.643765 176.842663 
L 685.352753 176.615013 
L 685.825412 176.710282 
L 686.219294 177.019402 
L 686.691953 177.694134 
L 687.322165 179.04688 
L 688.976471 182.900194 
L 689.370353 183.259246 
L 689.685459 183.296216 
L 690.079341 183.07148 
L 690.709553 182.351078 
L 691.497318 181.503636 
L 691.969976 181.288778 
L 692.363859 181.324247 
L 692.915294 181.642735 
L 693.860612 182.281451 
L 694.254494 182.263425 
L 694.5696 182.035788 
L 694.963482 181.477367 
L 695.593694 180.124677 
L 696.617788 177.919919 
L 697.090447 177.400197 
L 697.405553 177.327923 
L 697.720659 177.488597 
L 698.114541 177.993797 
L 698.823529 179.42002 
L 699.374965 180.305652 
L 699.611294 180.399516 
L 699.847624 180.236712 
L 700.162729 179.572032 
L 700.556612 178.057274 
L 701.186824 174.563071 
L 702.368471 167.949118 
L 702.841129 166.421452 
L 703.156235 165.994705 
L 703.392565 166.022889 
L 703.628894 166.35772 
L 703.944 167.26112 
L 704.416659 169.389783 
L 705.125647 172.59855 
L 705.361976 172.905182 
L 705.519529 172.695465 
L 705.755859 171.639498 
L 706.070965 168.79047 
L 706.543624 161.841945 
L 707.252612 147.365822 
L 708.355482 119.672631 
L 710.167341 73.981841 
L 710.718776 65.275994 
L 711.112659 62.112415 
L 711.348988 61.628859 
L 711.506541 61.921887 
L 711.742871 63.285103 
L 712.057976 66.767123 
L 712.530635 75.159004 
L 713.239624 92.854536 
L 715.051482 140.936417 
L 715.602918 149.399699 
L 715.918024 151.706708 
L 716.154353 152.164635 
L 716.311906 151.914221 
L 716.548235 150.838466 
L 716.942118 147.749167 
L 718.123765 137.773593 
L 718.438871 136.570978 
L 718.6752 136.291269 
L 718.832753 136.414088 
L 719.069082 137.06217 
L 719.384188 138.764492 
L 719.856847 142.934872 
L 720.487059 150.827396 
L 722.377694 176.185988 
L 722.614024 177.116622 
L 722.771576 177.117942 
L 722.929129 176.637939 
L 723.244235 174.500533 
L 723.874447 167.846257 
L 724.819765 158.404716 
L 725.292424 155.496306 
L 725.686306 154.30877 
L 725.922635 154.16031 
L 726.080188 154.293679 
L 726.316518 154.831929 
L 726.631624 156.146308 
L 727.104282 159.252442 
L 727.734494 165.057585 
L 728.837365 177.710923 
L 729.703906 186.93083 
L 730.019012 188.371076 
L 730.097788 188.372769 
L 730.255341 187.940564 
L 730.570447 185.897361 
L 731.988424 175.201114 
L 732.461082 173.43185 
L 732.776188 172.988227 
L 732.933741 172.999743 
L 733.170071 173.313889 
L 733.485176 174.283891 
L 733.879059 176.344922 
L 734.430494 180.606808 
L 735.375812 188.432738 
L 735.454588 188.539507 
L 735.533365 188.435132 
L 735.690918 187.611547 
L 736.006024 184.262225 
L 736.715012 173.544501 
L 739.550965 128.147639 
L 740.1024 123.462397 
L 740.496282 121.83493 
L 740.732612 121.602948 
L 740.890165 121.762383 
L 741.126494 122.465661 
L 741.4416 124.23346 
L 741.914259 128.480853 
L 742.544471 136.477757 
L 743.647341 153.874979 
L 745.222871 178.117783 
L 745.774306 183.925294 
L 746.089412 185.443875 
L 746.246965 185.522694 
L 746.404518 185.178074 
L 746.719624 183.605482 
L 748.216376 174.675434 
L 748.689035 173.387351 
L 749.004141 173.077917 
L 749.240471 173.136313 
L 749.4768 173.440457 
L 749.791906 174.216012 
L 750.264565 176.124257 
L 750.894776 179.882375 
L 752.312753 189.075147 
L 752.391529 189.032191 
L 752.549082 188.527243 
L 752.864188 186.257297 
L 753.573176 178.653962 
L 755.463812 157.549619 
L 756.094024 152.941973 
L 756.487906 151.31314 
L 756.724235 150.890848 
L 756.881788 150.859003 
L 757.039341 151.034096 
L 757.275671 151.692381 
L 757.590776 153.310343 
L 758.063435 157.241571 
L 758.693647 164.748573 
L 759.717741 177.203659 
L 759.954071 178.13224 
L 760.032847 178.098979 
L 760.1904 177.483345 
L 760.426729 175.29852 
L 760.820612 169.254069 
L 761.687153 151.360669 
L 763.183906 120.328398 
L 763.814118 111.650634 
L 764.208 108.692375 
L 764.444329 107.975035 
L 764.601882 107.956971 
L 764.759435 108.308655 
L 764.995765 109.518824 
L 765.310871 112.34469 
L 765.783529 118.868087 
L 766.492518 132.396974 
L 768.698259 177.659647 
L 768.934588 179.365485 
L 769.013365 179.528944 
L 769.092141 179.480576 
L 769.249694 178.788397 
L 769.5648 175.609801 
L 771.455435 152.001915 
L 771.849318 150.072651 
L 772.085647 149.607919 
L 772.2432 149.583503 
L 772.400753 149.780839 
L 772.637082 150.473838 
L 773.030965 152.591964 
L 773.5824 157.205726 
L 774.448941 166.85399 
L 775.866918 182.644048 
L 776.2608 185.094697 
L 776.497129 185.632355 
L 776.654682 185.576943 
L 776.891012 184.990795 
L 777.363671 182.885091 
L 777.678776 181.384924 
L 777.678776 181.384924 
" style="fill:none;stroke:#1f77b4;stroke-linecap:square;stroke-width:1.5;"/>
   </g>
   <g id="line2d_2">
    <path clip-path="url(#p51c77999b7)" d="M 304.941176 169.643734 
L 305.728941 165.700737 
L 306.359153 163.568849 
L 306.831812 162.613271 
L 307.225694 162.244247 
L 307.5408 162.225036 
L 307.855906 162.443743 
L 308.249788 163.036804 
L 308.722447 164.179871 
L 309.352659 166.318404 
L 311.322071 173.605108 
L 311.5584 173.837582 
L 311.715953 173.816646 
L 311.952282 173.48747 
L 312.267388 172.450344 
L 312.661271 170.181607 
L 313.212706 165.361888 
L 313.921694 156.915253 
L 314.867012 142.780067 
L 316.206212 118.979445 
L 318.411953 79.377663 
L 319.120941 70.758605 
L 319.5936 67.253957 
L 319.908706 66.066221 
L 320.145035 65.801815 
L 320.302588 65.922881 
L 320.538918 66.539449 
L 320.854024 68.13001 
L 321.326682 71.955693 
L 322.035671 79.975917 
L 323.6112 98.497934 
L 324.162635 102.560863 
L 324.635294 104.557402 
L 324.9504 105.181413 
L 325.265506 105.348082 
L 325.580612 105.192441 
L 326.525929 104.418657 
L 326.762259 104.515138 
L 326.998588 104.846137 
L 327.313694 105.726679 
L 327.707576 107.630523 
L 328.180235 111.167719 
L 328.810447 117.914205 
L 329.676988 130.17266 
L 332.434165 171.979057 
L 332.828047 174.703539 
L 333.064376 175.390789 
L 333.221929 175.453963 
L 333.379482 175.234451 
L 333.694588 174.134569 
L 334.482353 169.875768 
L 335.033788 167.457574 
L 335.427671 166.508759 
L 335.742776 166.285129 
L 335.979106 166.427355 
L 336.294212 167.001447 
L 336.688094 168.249282 
L 337.397082 171.445997 
L 338.3424 175.559234 
L 338.736282 176.506829 
L 339.051388 176.807782 
L 339.287718 176.791778 
L 339.602824 176.538299 
L 340.469365 175.702904 
L 340.705694 175.74579 
L 340.942024 176.004463 
L 341.257129 176.746359 
L 341.651012 178.386317 
L 342.123671 181.436516 
L 343.226541 190.114862 
L 343.305318 189.98416 
L 343.462871 188.961227 
L 343.856753 183.974156 
L 344.723294 169.099085 
L 347.480471 118.977052 
L 347.953129 114.626968 
L 348.268235 113.138279 
L 348.504565 112.808545 
L 348.662118 112.965369 
L 348.898447 113.753334 
L 349.213553 115.781715 
L 349.686212 120.664175 
L 350.3952 131.041127 
L 353.152376 175.377067 
L 353.546259 178.275779 
L 353.861365 179.196976 
L 354.018918 179.228389 
L 354.255247 178.872807 
L 354.727906 177.449168 
L 355.279341 176.018547 
L 355.594447 175.746374 
L 355.830776 175.879141 
L 356.067106 176.313302 
L 356.460988 177.680903 
L 357.012424 180.68831 
L 357.800188 185.14544 
L 358.036518 185.561702 
L 358.194071 185.358146 
L 358.4304 184.308026 
L 358.824282 181.053945 
L 359.690824 171.203998 
L 360.793694 159.327166 
L 361.423906 154.764602 
L 361.817788 153.118876 
L 362.132894 152.53627 
L 362.369224 152.532369 
L 362.605553 152.890649 
L 362.920659 153.901452 
L 363.393318 156.436403 
L 364.023529 161.301626 
L 365.283953 173.435733 
L 366.150494 180.93275 
L 366.623153 183.486754 
L 366.938259 184.20143 
L 367.095812 184.246209 
L 367.332141 183.980782 
L 367.726024 182.945992 
L 368.907671 179.48352 
L 369.301553 178.943521 
L 369.616659 178.803874 
L 369.931765 178.911809 
L 370.325647 179.349784 
L 370.877082 180.376621 
L 372.295059 183.273179 
L 372.767718 183.705546 
L 373.1616 183.759343 
L 373.555482 183.575459 
L 374.185694 182.97816 
L 375.603671 181.559099 
L 376.312659 181.174777 
L 376.942871 181.059024 
L 377.573082 181.159147 
L 378.203294 181.478855 
L 379.069835 182.211985 
L 379.936376 182.896866 
L 380.330259 182.959665 
L 380.645365 182.801442 
L 381.039247 182.282619 
L 381.511906 181.1669 
L 382.142118 178.984225 
L 384.269082 170.88176 
L 384.741741 169.954279 
L 385.135624 169.616025 
L 385.450729 169.653333 
L 385.765835 169.968263 
L 386.159718 170.740337 
L 386.711153 172.452061 
L 387.498918 175.790507 
L 388.680565 180.819036 
L 389.153224 182.026209 
L 389.468329 182.399298 
L 389.704659 182.446131 
L 390.019765 182.233253 
L 390.413647 181.635067 
L 391.516518 179.303526 
L 392.304282 177.950341 
L 393.092047 177.048024 
L 395.612894 174.862902 
L 396.479435 174.323493 
L 398.291294 173.457906 
L 398.763953 172.727891 
L 399.315388 171.360005 
L 400.024376 168.900923 
L 401.442353 163.861178 
L 401.915012 162.900855 
L 402.308894 162.544093 
L 402.624 162.54392 
L 403.017882 162.819416 
L 403.726871 163.398831 
L 403.9632 163.330472 
L 404.199529 162.978686 
L 404.514635 161.920273 
L 404.908518 159.451223 
L 405.381176 154.708088 
L 406.011388 145.741115 
L 406.956706 128.562662 
L 408.847341 93.498409 
L 409.398776 87.23948 
L 409.713882 85.353873 
L 409.950212 84.905862 
L 410.107765 85.105324 
L 410.344094 86.186723 
L 410.6592 89.12234 
L 411.053082 95.155486 
L 411.604518 107.564567 
L 412.392282 131.048837 
L 413.810259 174.780016 
L 414.046588 177.693365 
L 414.125365 177.777424 
L 414.282918 176.542968 
L 414.598024 170.030537 
L 415.385788 145.879728 
L 418.064188 61.194644 
L 418.851953 43.160247 
L 419.482165 33.174464 
L 419.954824 28.511847 
L 420.348706 26.446775 
L 420.585035 25.961537 
L 420.742588 25.936662 
L 420.900141 26.140102 
L 421.136471 26.853362 
L 421.530353 29.053724 
L 422.003012 33.193801 
L 422.633224 40.912069 
L 423.420988 53.502529 
L 424.445082 73.621579 
L 426.178165 112.981416 
L 428.620235 167.976787 
L 429.171671 177.023892 
L 429.486776 179.435333 
L 429.565553 179.545533 
L 429.644329 179.444506 
L 429.801882 178.648079 
L 430.116988 175.247426 
L 430.904753 162.879548 
L 431.771294 150.516077 
L 432.322729 145.188893 
L 432.716612 142.941236 
L 433.031718 142.132668 
L 433.189271 142.05716 
L 433.346824 142.195718 
L 433.583153 142.790682 
L 433.898259 144.260014 
L 434.370918 147.724994 
L 435.079906 154.98171 
L 436.497882 170.09075 
L 436.891765 172.029746 
L 437.128094 172.255114 
L 437.285647 172.00065 
L 437.521976 171.070759 
L 437.915859 168.426594 
L 439.412612 157.242617 
L 439.806494 156.121834 
L 440.042824 156.017354 
L 440.200376 156.193416 
L 440.436706 156.826681 
L 440.751812 158.34397 
L 441.224471 161.956484 
L 441.854682 168.847724 
L 443.272659 186.081593 
L 443.351435 186.254284 
L 443.430212 186.18153 
L 443.587765 185.324238 
L 443.902871 181.610268 
L 444.769412 167.188525 
L 445.872282 149.988618 
L 446.502494 143.274606 
L 446.975153 140.408894 
L 447.290259 139.62186 
L 447.447812 139.564461 
L 447.605365 139.724934 
L 447.841694 140.357321 
L 448.1568 141.878523 
L 448.629459 145.407039 
L 449.338447 152.735207 
L 451.622965 178.301332 
L 452.016847 180.300367 
L 452.253176 180.768599 
L 452.410729 180.787162 
L 452.647059 180.44719 
L 453.040941 179.244037 
L 454.065035 175.878932 
L 454.458918 175.299948 
L 454.695247 175.216438 
L 454.931576 175.330915 
L 455.246682 175.774537 
L 455.719341 176.974598 
L 456.507106 179.828048 
L 457.216094 182.175971 
L 457.609976 182.824113 
L 457.846306 182.872494 
L 458.082635 182.651738 
L 458.397741 181.980992 
L 458.949176 180.091355 
L 460.524706 174.291893 
L 461.076141 173.143189 
L 461.470024 172.719576 
L 461.785129 172.617944 
L 462.100235 172.715954 
L 462.494118 173.0938 
L 463.045553 174.019031 
L 463.833318 175.871091 
L 465.408847 179.676648 
L 466.039059 180.661725 
L 466.590494 181.173917 
L 467.220706 181.452522 
L 468.875012 181.991729 
L 469.662776 182.617657 
L 470.686871 183.411478 
L 471.080753 183.468471 
L 471.474635 183.270301 
L 471.868518 182.782237 
L 472.419953 181.64789 
L 473.365271 178.991264 
L 474.389365 176.314955 
L 474.9408 175.411141 
L 475.334682 175.098192 
L 475.649788 175.069452 
L 475.964894 175.242235 
L 476.358776 175.735901 
L 476.831435 176.699375 
L 477.540424 178.719466 
L 478.9584 182.917159 
L 479.431059 183.620073 
L 479.746165 183.754389 
L 480.061271 183.62832 
L 480.455153 183.174939 
L 481.242918 181.782625 
L 482.030682 180.518571 
L 482.582118 180.014121 
L 483.054776 179.886512 
L 483.527435 180.012184 
L 484.236424 180.501253 
L 485.024188 181.001785 
L 485.418071 181.043966 
L 485.811953 180.869797 
L 486.284612 180.35511 
L 486.914824 179.23876 
L 489.120565 174.907587 
L 489.750776 174.281808 
L 490.380988 173.97581 
L 491.168753 173.870729 
L 492.586729 173.708121 
L 494.083482 173.438333 
L 494.634918 173.599893 
L 495.186353 174.015382 
L 495.895341 174.888957 
L 496.998212 176.284321 
L 497.392094 176.456769 
L 497.7072 176.364615 
L 498.022306 176.039709 
L 498.416188 175.308866 
L 499.0464 173.538506 
L 500.779482 168.225185 
L 501.330918 167.353996 
L 501.7248 167.086885 
L 502.118682 167.074242 
L 503.379106 167.350109 
L 503.694212 167.02579 
L 503.694212 167.02579 
" style="fill:none;stroke:#ff0000;stroke-linecap:square;stroke-width:2.5;"/>
   </g>
   <g id="line2d_3">
    <path clip-path="url(#p51c77999b7)" d="M 466.275388 180.918934 
L 466.826824 181.308311 
L 467.535812 181.525732 
L 468.638682 181.857857 
L 469.347671 182.340279 
L 470.765647 183.440183 
L 471.159529 183.450939 
L 471.553412 183.196298 
L 471.947294 182.650184 
L 472.498729 181.450686 
L 473.6016 178.304882 
L 474.468141 176.156017 
L 475.019576 175.324854 
L 475.413459 175.07209 
L 475.728565 175.093727 
L 476.043671 175.3169 
L 476.437553 175.86982 
L 476.988988 177.098149 
L 477.855529 179.739079 
L 478.879624 182.747618 
L 479.352282 183.543432 
L 479.667388 183.746274 
L 479.982494 183.682289 
L 480.376376 183.286646 
L 481.006588 182.223554 
L 482.030682 180.518571 
L 482.582118 180.014121 
L 483.054776 179.886512 
L 483.527435 180.012184 
L 484.236424 180.501253 
L 485.024188 181.001785 
L 485.418071 181.043966 
L 485.811953 180.869797 
L 486.284612 180.35511 
L 486.914824 179.23876 
L 489.120565 174.907587 
L 489.750776 174.281808 
L 490.380988 173.97581 
L 491.168753 173.870729 
L 492.586729 173.708121 
L 494.083482 173.438333 
L 494.634918 173.599893 
L 495.186353 174.015382 
L 495.895341 174.888957 
L 496.998212 176.284321 
L 497.392094 176.456769 
L 497.7072 176.364615 
L 498.022306 176.039709 
L 498.416188 175.308866 
L 499.0464 173.538506 
L 500.779482 168.225185 
L 501.330918 167.353996 
L 501.7248 167.086885 
L 502.118682 167.074242 
L 503.379106 167.350109 
L 503.694212 167.02579 
L 504.009318 166.366368 
L 504.4032 165.00173 
L 504.954635 162.096151 
L 505.7424 156.468322 
L 507.475482 143.622741 
L 508.184471 139.975465 
L 508.893459 137.42732 
L 509.917553 134.011733 
L 510.390212 131.547201 
L 510.941647 127.244229 
L 511.493082 121.097687 
L 512.202071 110.5613 
L 513.304941 90.173268 
L 514.722918 64.605603 
L 515.353129 56.858907 
L 515.825788 53.489573 
L 516.140894 52.543392 
L 516.298447 52.464978 
L 516.456 52.644002 
L 516.692329 53.375833 
L 517.007435 55.147175 
L 517.480094 59.212093 
L 518.346635 69.125276 
L 519.370729 80.162331 
L 520.000941 84.58795 
L 520.4736 86.486774 
L 520.867482 87.31315 
L 521.340141 87.777033 
L 521.891576 88.296086 
L 522.206682 88.912343 
L 522.600565 90.287685 
L 522.994447 92.53446 
L 523.467106 96.552008 
L 524.097318 104.180598 
L 524.885082 116.818999 
L 526.224282 142.764595 
L 527.721035 170.929697 
L 528.193694 176.711149 
L 528.5088 178.242135 
L 528.587576 178.260858 
L 528.745129 177.874819 
L 528.981459 176.400741 
L 529.454118 171.584799 
L 530.556988 159.89616 
L 531.108424 156.279004 
L 531.502306 154.962072 
L 531.738635 154.69233 
L 531.896188 154.724748 
L 532.132518 155.079686 
L 532.447624 156.088834 
L 532.920282 158.607862 
L 533.550494 163.394764 
L 535.598682 180.411305 
L 535.992565 181.780461 
L 536.228894 182.062851 
L 536.465224 181.998593 
L 536.780329 181.545763 
L 537.646871 180.040983 
L 537.961976 179.915019 
L 538.198306 180.056789 
L 538.513412 180.571922 
L 538.986071 181.937323 
L 539.695059 184.055724 
L 539.852612 184.166865 
L 540.010165 184.01116 
L 540.246494 183.19233 
L 540.5616 181.00937 
L 541.034259 175.895514 
L 541.822024 164.444374 
L 544.736753 119.158509 
L 545.209412 115.485175 
L 545.603294 113.977861 
L 545.839624 113.792806 
L 545.997176 113.971165 
L 546.233506 114.683361 
L 546.548612 116.427475 
L 547.021271 120.574229 
L 547.651482 128.360687 
L 548.833129 146.567235 
L 550.172329 166.215672 
L 550.802541 172.587104 
L 551.196424 174.918053 
L 551.511529 175.768007 
L 551.747859 175.878898 
L 551.984188 175.642401 
L 552.378071 174.783517 
L 553.323388 172.598558 
L 553.717271 172.173898 
L 554.111153 172.075849 
L 554.741365 172.271413 
L 555.135247 172.284536 
L 555.450353 172.036279 
L 555.765459 171.444439 
L 556.159341 170.134515 
L 556.710776 167.280176 
L 557.734871 160.245567 
L 558.601412 154.940051 
L 559.074071 153.108773 
L 559.467953 152.379198 
L 559.704282 152.323646 
L 559.940612 152.56275 
L 560.255718 153.33819 
L 560.6496 155.00871 
L 561.201035 158.508102 
L 561.9888 165.264361 
L 563.958212 183.029055 
L 564.273318 184.198494 
L 564.509647 184.368723 
L 564.6672 184.155034 
L 564.982306 183.117471 
L 565.691294 179.495825 
L 566.479059 175.961066 
L 566.951718 174.702289 
L 567.3456 174.238152 
L 567.581929 174.213422 
L 567.897035 174.459348 
L 568.290918 175.168001 
L 568.842353 176.748752 
L 570.811765 183.068403 
L 571.205647 183.484011 
L 571.520753 183.514424 
L 571.914635 183.252996 
L 572.623624 182.37282 
L 573.411388 181.516981 
L 573.884047 181.284309 
L 574.356706 181.297156 
L 574.908141 181.573006 
L 576.72 182.767919 
L 577.192659 182.725308 
L 577.744094 182.419826 
L 578.610635 181.599262 
L 579.713506 180.621784 
L 580.343718 180.345142 
L 580.973929 180.312466 
L 581.840471 180.531487 
L 582.707012 180.697209 
L 583.258447 180.570804 
L 583.809882 180.184157 
L 584.361318 179.554621 
L 584.361318 179.554621 
" style="fill:none;stroke:#32cd32;stroke-linecap:square;stroke-width:2.5;"/>
   </g>
   <g id="line2d_4"/>
  </g>
 </g>
 <defs>
  <clipPath id="p51c77999b7">
   <rect height="166.32" width="669.6" x="108" y="25.92"/>
  </clipPath>
 </defs>
</svg>
