<?xml version="1.0" encoding="utf-8" standalone="no"?>
<!DOCTYPE svg PUBLIC "-//W3C//DTD SVG 1.1//EN"
  "http://www.w3.org/Graphics/SVG/1.1/DTD/svg11.dtd">
<!-- Created with matplotlib (https://matplotlib.org/) -->
<svg height="291.6pt" version="1.1" viewBox="0 0 516.6 291.6" width="516.6pt" xmlns="http://www.w3.org/2000/svg" xmlns:xlink="http://www.w3.org/1999/xlink">
 <metadata>
  <rdf:RDF xmlns:cc="http://creativecommons.org/ns#" xmlns:dc="http://purl.org/dc/elements/1.1/" xmlns:rdf="http://www.w3.org/1999/02/22-rdf-syntax-ns#">
   <cc:Work>
    <dc:type rdf:resource="http://purl.org/dc/dcmitype/StillImage"/>
    <dc:date>2021-01-06T02:18:18.516570</dc:date>
    <dc:format>image/svg+xml</dc:format>
    <dc:creator>
     <cc:Agent>
      <dc:title>Matplotlib v3.3.2, https://matplotlib.org/</dc:title>
     </cc:Agent>
    </dc:creator>
   </cc:Work>
  </rdf:RDF>
 </metadata>
 <defs>
  <style type="text/css">*{stroke-linecap:butt;stroke-linejoin:round;}</style>
 </defs>
 <g id="figure_1">
  <g id="patch_1">
   <path d="M 0 291.6 
L 516.6 291.6 
L 516.6 0 
L 0 0 
z
" style="fill:none;"/>
  </g>
  <g id="axes_1">
   <g id="line2d_1">
    <path clip-path="url(#pf442cc4975)" d="M 7.2 34.975826 
L 7.5348 34.31278 
L 7.8696 34.134135 
L 8.2044 34.933742 
L 8.5392 34.932883 
L 8.874 34.627985 
L 9.2088 35.522926 
L 9.5436 35.087479 
L 9.8784 34.433021 
L 10.2132 36.434186 
L 10.548 36.800923 
L 10.8828 34.222598 
L 11.2176 34.049107 
L 11.5524 35.881075 
L 11.8872 35.414709 
L 12.222 34.443328 
L 12.5568 34.729331 
L 13.2264 33.240911 
L 13.5612 34.243211 
L 13.896 34.172784 
L 14.2308 33.71243 
L 14.5656 34.605654 
L 14.9004 34.986992 
L 15.2352 35.141588 
L 15.57 36.557863 
L 15.9048 36.976133 
L 16.2396 36.494307 
L 16.5744 37.226064 
L 16.9092 36.763992 
L 17.244 34.883069 
L 17.5788 34.855585 
L 17.9136 35.128705 
L 18.2484 33.676358 
L 18.5832 32.882763 
L 18.918 33.103492 
L 19.2528 32.780557 
L 19.5876 33.17306 
L 19.9224 34.322227 
L 20.592 34.603936 
L 20.9268 35.262689 
L 21.5964 35.346858 
L 21.9312 36.140453 
L 22.266 36.377501 
L 22.6008 36.21861 
L 22.9356 36.37836 
L 23.2704 36.116405 
L 23.6052 35.566728 
L 23.94 35.412132 
L 24.2748 35.103798 
L 24.6096 34.61596 
L 25.2792 34.268118 
L 25.614 33.891075 
L 26.6184 33.748503 
L 27.6228 34.558416 
L 28.2924 34.611666 
L 28.6272 34.395231 
L 29.2968 34.64688 
L 29.6316 34.452775 
L 30.3012 36.893681 
L 30.9708 34.853867 
L 31.3056 36.122417 
L 31.6404 36.676387 
L 31.9752 35.220604 
L 32.31 34.48713 
L 32.6448 34.220022 
L 32.9796 33.596483 
L 33.3144 34.346275 
L 33.6492 35.482559 
L 33.984 35.549551 
L 34.3188 35.984998 
L 34.6536 36.648045 
L 35.3232 36.054566 
L 35.658 36.133582 
L 36.3276 34.484553 
L 36.6624 34.677799 
L 37.332 34.39609 
L 37.6668 34.459646 
L 38.3364 32.734178 
L 38.6712 32.58817 
L 39.006 32.662033 
L 39.3408 32.863867 
L 41.0148 36.64375 
L 41.3496 36.880798 
L 42.0192 37.520656 
L 42.6888 37.080056 
L 43.3584 34.971532 
L 43.6932 35.254959 
L 44.028 34.667492 
L 44.3628 32.357993 
L 44.6976 31.924265 
L 45.0324 33.449616 
L 45.3672 33.463358 
L 45.702 32.757368 
L 46.0368 33.246064 
L 46.3716 33.246064 
L 46.7064 33.083738 
L 47.0412 34.011316 
L 47.376 34.308485 
L 47.7108 34.204562 
L 48.3804 36.120699 
L 48.7152 36.622279 
L 49.05 37.679546 
L 49.3848 38.081497 
L 49.7196 37.326551 
L 50.0544 36.890246 
L 50.3892 36.660069 
L 50.724 36.142171 
L 51.3936 35.689547 
L 52.0632 34.181373 
L 52.398 33.84126 
L 53.0676 32.934295 
L 53.4024 32.646574 
L 53.7372 32.199962 
L 54.072 32.062543 
L 54.7416 32.228304 
L 55.746 33.931442 
L 56.4156 37.219193 
L 56.7504 36.849879 
L 57.0852 37.067173 
L 57.42 38.604548 
L 57.7548 38.95239 
L 58.0896 38.522097 
L 58.4244 39.039136 
L 58.7592 39.058031 
L 59.094 38.510073 
L 59.4288 38.644056 
L 59.7636 38.045425 
L 60.4332 34.042236 
L 61.4376 26.956566 
L 62.1072 24.123157 
L 62.442 24.552591 
L 62.7768 26.83976 
L 63.4464 33.987268 
L 64.116 41.984198 
L 64.4508 44.928402 
L 64.7856 45.960762 
L 65.1204 45.063244 
L 65.4552 42.767487 
L 66.1248 37.152201 
L 66.7944 34.530073 
L 67.1292 34.96552 
L 68.1336 43.63065 
L 68.4684 45.398203 
L 68.8032 45.10447 
L 69.138 41.769481 
L 69.8076 30.607618 
L 70.4772 17.99169 
L 70.812 14.002243 
L 71.1468 12.093836 
L 71.4816 12.284505 
L 72.1512 15.109325 
L 72.486 18.048376 
L 72.8208 23.313243 
L 73.8252 48.149161 
L 74.16 55.829168 
L 74.4948 60.917967 
L 74.8296 63.063422 
L 75.1644 62.64 
L 75.4992 59.241455 
L 76.1688 45.433417 
L 76.8384 31.214839 
L 77.1732 26.669703 
L 77.508 25.322997 
L 77.8428 24.531978 
L 78.1776 23.053865 
L 78.5124 22.413148 
L 78.8472 22.599523 
L 79.182 23.493606 
L 79.5168 26.174136 
L 80.5212 38.215481 
L 80.856 39.891134 
L 81.1908 40.163396 
L 81.5256 39.843897 
L 81.8604 38.919753 
L 82.53 36.014199 
L 82.8648 35.471394 
L 83.1996 35.878498 
L 84.204 38.900858 
L 84.5388 38.143336 
L 85.5432 31.98868 
L 85.878 31.056807 
L 86.2128 31.003557 
L 86.8824 32.497989 
L 87.552 34.176219 
L 87.8868 34.597924 
L 88.5564 34.991286 
L 88.8912 34.934601 
L 89.226 34.607372 
L 89.5608 34.499154 
L 90.5652 35.254959 
L 91.9044 36.088062 
L 92.2392 36.023647 
L 92.574 35.692123 
L 92.9088 35.01877 
L 93.5784 33.261524 
L 93.9132 33.207415 
L 94.9176 33.652309 
L 96.2568 36.316521 
L 96.5916 36.570746 
L 96.9264 36.204868 
L 97.2612 35.5882 
L 97.596 35.508325 
L 98.2656 35.936042 
L 98.6004 35.83899 
L 99.27 35.406979 
L 99.6048 35.395813 
L 99.9396 35.132141 
L 100.944 33.673781 
L 101.9484 34.10751 
L 102.618 35.172508 
L 102.9528 35.642309 
L 103.2876 35.771998 
L 103.6224 35.55814 
L 103.9572 35.129564 
L 104.292 34.92773 
L 105.6312 35.879357 
L 105.966 35.939478 
L 106.9704 35.297044 
L 107.3052 34.802335 
L 107.64 34.80577 
L 107.9748 35.039383 
L 108.3096 34.858161 
L 109.314 33.140423 
L 109.6488 33.057113 
L 110.3184 33.201403 
L 110.6532 33.594765 
L 111.3228 34.98098 
L 111.6576 35.226616 
L 112.3272 35.455075 
L 113.3316 35.014476 
L 115.0056 36.27186 
L 115.6752 36.585347 
L 116.01 36.314803 
L 116.3448 35.547833 
L 117.0144 33.208274 
L 117.3492 32.521179 
L 117.684 32.485965 
L 119.0232 34.402961 
L 120.0276 36.009905 
L 120.3624 36.125852 
L 120.6972 35.792611 
L 121.3668 34.853008 
L 121.7016 34.612525 
L 122.0364 34.541239 
L 122.3712 34.746508 
L 123.3756 35.865615 
L 123.7104 35.858744 
L 124.38 35.485995 
L 125.0496 35.297902 
L 126.054 35.750526 
L 127.0584 35.192262 
L 127.728 34.476824 
L 128.0628 34.006163 
L 128.3976 33.731325 
L 128.7324 33.701265 
L 130.7412 34.415844 
L 131.4108 34.519767 
L 131.7456 34.563569 
L 132.0804 34.458787 
L 132.4152 34.511178 
L 133.0848 35.232628 
L 134.0892 36.747673 
L 134.424 36.759698 
L 134.7588 36.301062 
L 135.7632 34.329098 
L 136.098 34.007881 
L 136.4328 33.852426 
L 136.7676 33.903099 
L 138.4416 35.340846 
L 139.1112 35.513479 
L 139.446 35.478265 
L 139.7808 35.224899 
L 140.4504 34.470811 
L 141.12 34.415844 
L 141.4548 34.4794 
L 142.4592 35.059996 
L 143.1288 34.801476 
L 143.7984 34.518049 
L 144.1332 34.518049 
L 146.4768 35.358882 
L 147.816 35.363176 
L 148.4856 34.872762 
L 148.8204 34.622831 
L 149.49 34.554122 
L 150.4944 34.832395 
L 151.164 35.234346 
L 151.8336 35.811506 
L 152.5032 35.757397 
L 152.838 35.609672 
L 154.8468 34.027635 
L 155.8512 33.950337 
L 156.186 34.009599 
L 158.1948 35.205145 
L 158.8644 35.478265 
L 159.534 35.292749 
L 161.5428 34.600501 
L 162.2124 34.719884 
L 163.8864 35.555563 
L 164.556 35.5882 
L 165.5604 35.577894 
L 166.23 35.248088 
L 166.5648 35.13987 
L 167.904 34.299038 
L 168.5736 34.30505 
L 169.2432 34.475965 
L 169.578 34.500872 
L 169.9128 34.279284 
L 170.2476 33.802611 
L 170.9172 33.421273 
L 171.5868 32.55811 
L 171.9216 32.60363 
L 172.2564 33.493418 
L 172.926 35.825248 
L 173.5956 37.790341 
L 174.2652 38.667246 
L 174.6 38.982451 
L 174.9348 38.520379 
L 175.6044 36.090639 
L 176.274 34.620255 
L 176.9436 32.774545 
L 177.2784 32.581299 
L 177.948 33.744208 
L 178.2828 33.887639 
L 178.6176 33.576729 
L 178.9524 32.982391 
L 179.2872 32.746202 
L 179.9568 33.149871 
L 180.2916 33.161036 
L 180.6264 33.426427 
L 181.296 35.507466 
L 182.3004 38.437928 
L 182.6352 38.701601 
L 182.97 38.342593 
L 183.9744 35.685252 
L 184.644 34.585041 
L 185.3136 33.732184 
L 185.6484 33.495136 
L 186.6528 33.385201 
L 187.3224 33.594765 
L 187.6572 33.565563 
L 187.992 33.65145 
L 188.6616 34.299897 
L 188.9964 34.698412 
L 189.666 34.985274 
L 190.3356 36.004752 
L 190.6704 36.251247 
L 191.34 36.448787 
L 191.6748 36.273578 
L 192.0096 35.88451 
L 192.3444 35.811506 
L 192.6792 35.594212 
L 193.014 34.848714 
L 193.3488 33.756232 
L 193.6836 33.051101 
L 194.0184 33.191955 
L 195.0228 34.450199 
L 195.6924 35.415567 
L 196.362 36.403267 
L 197.0316 36.637738 
L 197.3664 36.538968 
L 198.036 35.3606 
L 198.7056 34.156465 
L 199.3752 33.298455 
L 199.71 33.236617 
L 200.7144 33.539797 
L 201.0492 33.850708 
L 201.7188 34.759391 
L 202.7232 35.747091 
L 203.7276 36.187691 
L 204.3972 36.038248 
L 205.0668 35.632002 
L 205.7364 35.172508 
L 206.406 35.187967 
L 207.0756 34.608231 
L 207.7452 33.913405 
L 208.08 33.969232 
L 208.4148 34.281001 
L 208.7496 34.427009 
L 209.4192 33.687523 
L 209.754 33.745067 
L 210.4236 34.220022 
L 211.0932 34.763686 
L 211.428 34.828101 
L 211.7628 35.210298 
L 212.4324 36.304497 
L 212.7672 36.480565 
L 213.102 36.402408 
L 215.4456 34.173643 
L 216.1152 34.22861 
L 216.45 34.146159 
L 217.4544 35.053125 
L 218.124 35.802917 
L 218.4588 35.752244 
L 219.4632 34.758533 
L 220.4676 34.516332 
L 221.1372 34.808347 
L 221.8068 34.82896 
L 222.1416 34.951778 
L 222.4764 34.911411 
L 223.146 34.216586 
L 224.82 34.659763 
L 225.4896 35.619119 
L 225.8244 35.814942 
L 226.1592 35.613107 
L 226.494 35.215451 
L 226.8288 35.070302 
L 227.4984 35.455934 
L 227.8332 35.528938 
L 228.168 35.432745 
L 229.5072 34.121252 
L 230.1768 34.411549 
L 230.8464 34.19855 
L 231.1812 34.360876 
L 231.8508 34.966379 
L 232.1856 35.250665 
L 232.5204 35.264407 
L 232.8552 34.975826 
L 233.19 34.986992 
L 234.1944 36.051989 
L 234.5292 36.177384 
L 234.864 36.100086 
L 235.5336 35.656051 
L 236.2032 35.308209 
L 237.5424 33.328516 
L 237.8772 33.391213 
L 238.8816 34.16076 
L 239.5512 34.545533 
L 240.2208 34.923435 
L 241.2252 35.838131 
L 241.56 35.997022 
L 241.8948 35.959232 
L 242.5644 35.344281 
L 243.234 34.67694 
L 243.9036 34.579029 
L 244.2384 34.659763 
L 245.2428 35.212874 
L 245.5776 35.210298 
L 247.5864 34.255235 
L 248.9256 34.521485 
L 249.2604 34.768839 
L 249.93 35.425015 
L 250.9344 36.041683 
L 251.604 36.000457 
L 251.9388 35.829542 
L 253.278 34.417562 
L 253.6128 34.341122 
L 255.2868 35.086621 
L 255.9564 34.299897 
L 256.2912 33.908252 
L 256.626 33.699547 
L 256.9608 33.727031 
L 257.6304 34.076591 
L 259.3044 35.210298 
L 259.974 35.298761 
L 260.9784 35.189685 
L 261.9828 35.590777 
L 263.322 35.23864 
L 264.6612 34.080885 
L 264.996 34.178796 
L 266.0004 35.327104 
L 266.67 35.987574 
L 267.3396 36.01334 
L 267.6744 35.913712 
L 268.344 35.30735 
L 269.3484 34.060272 
L 270.018 33.679793 
L 270.3528 33.831813 
L 271.0224 34.474247 
L 272.0268 35.005887 
L 272.6964 35.07202 
L 273.7008 34.749085 
L 274.3704 34.944907 
L 275.7096 35.32281 
L 276.3792 35.092633 
L 276.714 34.951778 
L 277.3836 34.909694 
L 278.7228 34.472529 
L 279.3924 34.738779 
L 280.062 34.565287 
L 280.7316 35.053984 
L 281.0664 35.379495 
L 281.4012 35.530656 
L 281.736 35.333116 
L 282.0708 34.999016 
L 282.4056 34.846137 
L 282.7404 34.974968 
L 283.41 35.564152 
L 283.7448 35.576176 
L 284.7492 35.211157 
L 286.0884 34.132417 
L 286.758 34.344558 
L 288.432 36.025365 
L 288.7668 35.985857 
L 289.1016 35.77028 
L 289.7712 34.528356 
L 290.4408 33.351705 
L 291.1104 32.829513 
L 291.4452 32.980674 
L 291.78 33.513172 
L 292.7844 35.757397 
L 293.454 36.540686 
L 293.7888 36.696141 
L 294.4584 36.390384 
L 295.4628 35.979844 
L 296.1324 35.095209 
L 296.802 34.182231 
L 297.1368 33.898805 
L 297.4716 33.804329 
L 297.8064 33.904817 
L 298.8108 34.594489 
L 299.1456 34.840125 
L 299.4804 34.946625 
L 300.15 34.419279 
L 300.4848 34.205421 
L 300.8196 34.184808 
L 301.1544 34.287872 
L 301.4892 34.646021 
L 302.1588 35.652615 
L 302.4936 35.87678 
L 302.8284 35.89224 
L 303.1632 35.607095 
L 304.8372 33.354282 
L 305.172 33.435015 
L 305.5068 33.831813 
L 306.1764 35.228334 
L 306.5112 35.532374 
L 306.846 35.428451 
L 307.5156 35.04883 
L 308.1852 34.887363 
L 308.52 35.033371 
L 309.8592 36.578476 
L 310.194 36.680682 
L 311.1984 36.462529 
L 311.5332 36.216892 
L 312.5376 34.898528 
L 312.8724 34.072296 
L 314.2116 32.526332 
L 314.5464 31.677769 
L 315.216 29.648262 
L 315.5508 29.627649 
L 315.8856 30.633384 
L 317.2248 37.767151 
L 317.8944 40.19088 
L 318.2292 40.795523 
L 318.564 40.628044 
L 318.8988 39.691018 
L 319.5684 37.141035 
L 319.9032 37.09208 
L 320.238 38.373513 
L 321.2424 44.643257 
L 321.5772 43.897759 
L 321.912 41.237841 
L 322.5816 33.306185 
L 323.9208 16.27567 
L 324.2556 14.435972 
L 324.5904 14.273646 
L 324.9252 15.013991 
L 325.26 17.031475 
L 325.5948 21.33355 
L 327.6036 56.254308 
L 327.9384 58.632517 
L 328.2732 58.55436 
L 328.608 55.507092 
L 330.282 29.004969 
L 330.6168 27.07509 
L 330.9516 26.195608 
L 331.2864 24.86522 
L 331.6212 24.13604 
L 331.956 24.651361 
L 332.2908 25.793657 
L 332.6256 27.812858 
L 333.63 37.209745 
L 333.9648 38.506637 
L 334.2996 38.721355 
L 334.6344 38.648351 
L 334.9692 38.005058 
L 335.6388 35.520349 
L 335.9736 35.137294 
L 336.3084 35.878498 
L 336.978 38.182844 
L 337.3128 38.388972 
L 337.6476 37.76801 
L 338.3172 34.469953 
L 338.9868 31.566975 
L 339.3216 31.019875 
L 339.6564 31.322197 
L 340.9956 34.803194 
L 341.3304 35.175943 
L 341.6652 35.217169 
L 342.6696 34.922577 
L 343.3392 35.231769 
L 344.0088 35.856167 
L 344.3436 35.820954 
L 344.6784 35.496301 
L 345.348 34.480259 
L 345.6828 34.385783 
L 346.0176 34.447622 
L 346.3524 34.381489 
L 347.022 33.760527 
L 347.3568 33.339681 
L 347.6916 33.118093 
L 348.0264 33.457346 
L 348.696 34.529215 
L 349.0308 34.865891 
L 349.7004 36.407561 
L 350.0352 36.745097 
L 350.7048 37.000181 
L 351.0396 36.926318 
L 351.3744 36.710742 
L 351.7092 36.162784 
L 352.044 35.217169 
L 352.3788 34.635714 
L 353.3832 35.581329 
L 353.718 35.415567 
L 354.0528 34.951778 
L 354.3876 34.829819 
L 354.7224 35.22404 
L 355.0572 35.826107 
L 355.392 36.15763 
L 355.7268 35.894816 
L 357.7356 33.162754 
L 358.0704 33.063125 
L 358.74 33.22631 
L 359.4096 33.250358 
L 359.7444 33.755374 
L 360.414 36.000457 
L 360.7488 36.515779 
L 361.0836 36.252965 
L 361.7532 34.445045 
L 362.088 33.94003 
L 362.4228 33.700406 
L 362.7576 33.896228 
L 363.762 36.380077 
L 364.0968 36.589642 
L 364.4316 36.368053 
L 365.436 34.51719 
L 365.7708 34.505166 
L 366.4404 35.461088 
L 366.7752 35.443051 
L 367.11 35.256677 
L 367.4448 34.901964 
L 368.1144 33.932301 
L 368.4492 33.839543 
L 369.4536 34.872762 
L 370.1232 35.176802 
L 371.1276 34.691541 
L 372.4668 35.692123 
L 372.8016 35.419003 
L 373.4712 34.361735 
L 373.806 34.0388 
L 374.1408 33.954631 
L 375.48 34.894234 
L 376.1496 35.97555 
L 376.4844 36.286461 
L 377.154 36.539827 
L 377.4888 36.335416 
L 378.4932 34.463082 
L 378.828 34.334251 
L 379.1628 34.336828 
L 380.1672 34.672646 
L 381.1716 33.633414 
L 381.5064 33.785434 
L 382.176 34.55584 
L 382.8456 35.516914 
L 383.1804 35.592495 
L 384.5196 34.906258 
L 385.1892 35.050548 
L 385.524 35.186249 
L 385.8588 35.097786 
L 386.5284 34.777428 
L 388.2024 34.66148 
L 388.872 35.220604 
L 389.2068 35.279007 
L 390.8808 34.533509 
L 391.2156 34.590194 
L 391.8852 35.054842 
L 392.5548 35.699853 
L 392.8896 35.888804 
L 393.2244 35.888804 
L 393.5592 35.72476 
L 394.8984 34.404679 
L 395.2332 34.347134 
L 395.9028 34.679517 
L 396.5724 35.150177 
L 396.9072 35.141588 
L 397.5768 34.683811 
L 398.2464 34.293026 
L 398.5812 34.189102 
L 398.916 34.207998 
L 399.2508 34.374618 
L 400.2552 35.440475 
L 400.59 35.552987 
L 401.9292 35.524644 
L 402.264 35.250665 
L 402.9336 34.452775 
L 403.6032 34.226893 
L 404.2728 34.16076 
L 404.9424 34.411549 
L 407.9556 35.766845 
L 408.6252 35.813224 
L 408.96 35.589918 
L 409.9644 34.577311 
L 410.2992 34.354864 
L 410.634 34.29732 
L 412.308 34.694117 
L 412.9776 34.898528 
L 415.3212 35.157048 
L 415.9908 35.318515 
L 417.9996 34.766262 
L 419.6736 34.923435 
L 420.0084 34.877057 
L 420.3432 34.976685 
L 420.678 35.194838 
L 421.0128 35.204286 
L 422.0172 34.343699 
L 423.0216 34.318792 
L 423.3564 34.444187 
L 424.026 34.425291 
L 424.3608 34.583323 
L 424.6956 34.576452 
L 425.0304 34.181373 
L 425.3652 34.083462 
L 425.7 34.528356 
L 426.0348 35.403543 
L 426.3696 36.678964 
L 426.7044 37.281031 
L 427.0392 37.098951 
L 427.374 36.502896 
L 427.7088 35.540962 
L 428.0436 35.370906 
L 428.3784 35.836413 
L 428.7132 35.857026 
L 429.3828 35.343422 
L 429.7176 35.179378 
L 430.0524 34.67694 
L 430.3872 33.752797 
L 430.722 33.312197 
L 431.3916 33.961502 
L 432.0612 33.756232 
L 432.396 33.896228 
L 433.0656 35.082326 
L 433.4004 34.827242 
L 434.07 34.06972 
L 434.4048 34.15303 
L 435.4092 35.053125 
L 436.0788 35.762551 
L 437.0832 36.543263 
L 437.418 36.451364 
L 437.7528 36.102663 
L 438.4224 35.033371 
L 438.7572 34.694117 
L 439.092 34.519767 
L 439.7616 34.519767 
L 440.4312 34.223457 
L 441.1008 34.267259 
L 441.7704 34.637432 
L 442.1052 34.926871 
L 442.44 35.378636 
L 443.1096 35.495442 
L 443.4444 35.057419 
L 443.7792 33.860156 
L 444.4488 32.869879 
L 444.7836 32.710989 
L 445.4532 35.017911 
L 445.788 35.283302 
L 446.7924 36.699577 
L 447.1272 36.664363 
L 447.7968 36.827548 
L 448.1316 36.660928 
L 448.4664 36.306215 
L 449.4708 34.147018 
L 450.1404 33.265818 
L 450.4752 33.070855 
L 450.81 33.21858 
L 453.1536 35.83126 
L 453.4884 35.796905 
L 454.4928 35.209439 
L 455.4972 34.495719 
L 456.1668 34.841843 
L 456.5016 35.002451 
L 457.506 35.052266 
L 458.1756 34.880492 
L 458.8452 34.776569 
L 459.18 34.682093 
L 459.8496 34.907976 
L 460.1844 34.765404 
L 460.5192 34.463941 
L 460.854 34.547251 
L 461.5236 35.415567 
L 461.8584 35.654333 
L 462.528 35.539245 
L 462.8628 35.4817 
L 463.1976 35.234346 
L 464.202 34.128982 
L 464.5368 33.94003 
L 465.2064 33.924571 
L 465.5412 34.140147 
L 466.5456 35.43618 
L 466.8804 35.757397 
L 467.2152 35.74022 
L 467.8848 35.372624 
L 468.5544 35.1476 
L 469.224 35.345999 
L 469.5588 35.266124 
L 470.5632 34.341981 
L 471.2328 34.438174 
L 471.9024 34.604795 
L 472.2372 34.511178 
L 472.572 34.651174 
L 473.5764 36.383513 
L 474.246 35.8158 
L 474.9156 35.425874 
L 475.5852 35.093492 
L 476.5896 34.029353 
L 477.594 33.665192 
L 477.9288 33.349987 
L 478.2636 33.321645 
L 479.268 34.078308 
L 479.6028 34.323086 
L 480.6072 35.833837 
L 480.942 36.096651 
L 482.9508 35.833837 
L 483.2856 35.657769 
L 484.29 34.386642 
L 485.2944 34.200268 
L 486.2988 34.389219 
L 486.9684 35.001593 
L 487.3032 35.169072 
L 487.9728 35.822671 
L 488.3076 35.902546 
L 488.9772 35.575317 
L 489.9816 34.670928 
L 490.986 34.513755 
L 492.3252 35.108951 
L 492.9948 34.690682 
L 493.6644 34.230328 
L 494.334 33.964938 
L 494.6688 33.988127 
L 495.0036 34.179655 
L 496.008 35.102939 
L 496.3428 35.354588 
L 497.0124 35.450781 
L 497.682 35.385507 
L 499.356 35.002451 
L 499.6908 34.932883 
L 500.3604 35.369189 
L 500.6952 35.31508 
L 501.03 35.092633 
L 502.3692 34.856444 
L 504.378 34.709577 
L 505.7172 34.606513 
L 506.7216 34.395231 
L 507.3912 34.513755 
L 508.0608 35.025641 
L 509.0652 35.857885 
L 509.0652 35.857885 
" style="fill:none;stroke:#1f77b4;stroke-linecap:square;stroke-width:1.5;"/>
   </g>
  </g>
  <g id="axes_2">
   <g id="line2d_2">
    <path clip-path="url(#p689891ce0c)" d="M 7.2 90.415826 
L 7.5348 89.75278 
L 7.8696 89.574135 
L 8.2044 90.373742 
L 8.5392 90.372883 
L 8.874 90.067985 
L 9.2088 90.962926 
L 9.5436 90.527479 
L 9.8784 89.873021 
L 10.2132 91.874186 
L 10.548 92.240923 
L 10.8828 89.662598 
L 11.2176 89.489107 
L 11.5524 91.321075 
L 11.8872 90.854709 
L 12.222 89.883328 
L 12.5568 90.169331 
L 13.2264 88.680911 
L 13.5612 89.683211 
L 13.896 89.612784 
L 14.2308 89.15243 
L 14.5656 90.045654 
L 14.9004 90.426992 
L 15.2352 90.581588 
L 15.57 91.997863 
L 15.9048 92.416133 
L 16.2396 91.934307 
L 16.5744 92.666064 
L 16.9092 92.203992 
L 17.244 90.323069 
L 17.5788 90.295585 
L 17.9136 90.568705 
L 18.2484 89.116358 
L 18.5832 88.322763 
L 18.918 88.543492 
L 19.2528 88.220557 
L 19.5876 88.61306 
L 19.9224 89.762227 
L 20.592 90.043936 
L 20.9268 90.702689 
L 21.5964 90.786858 
L 21.9312 91.580453 
L 22.266 91.817501 
L 22.6008 91.65861 
L 22.9356 91.81836 
L 23.2704 91.556405 
L 23.6052 91.006728 
L 23.94 90.852132 
L 24.2748 90.543798 
L 24.6096 90.05596 
L 25.2792 89.708118 
L 25.614 89.331075 
L 26.6184 89.188503 
L 27.6228 89.998416 
L 28.2924 90.051666 
L 28.6272 89.835231 
L 29.2968 90.08688 
L 29.6316 89.892775 
L 30.3012 92.333681 
L 30.9708 90.293867 
L 31.3056 91.562417 
L 31.6404 92.116387 
L 31.9752 90.660604 
L 32.31 89.92713 
L 32.6448 89.660022 
L 32.9796 89.036483 
L 33.3144 89.786275 
L 33.6492 90.922559 
L 33.984 90.989551 
L 34.3188 91.424998 
L 34.6536 92.088045 
L 35.3232 91.494566 
L 35.658 91.573582 
L 36.3276 89.924553 
L 36.6624 90.117799 
L 37.332 89.83609 
L 37.6668 89.899646 
L 38.3364 88.174178 
L 38.6712 88.02817 
L 39.006 88.102033 
L 39.3408 88.303867 
L 41.0148 92.08375 
L 41.3496 92.320798 
L 42.0192 92.960656 
L 42.6888 92.520056 
L 43.3584 90.411532 
L 43.6932 90.694959 
L 44.028 90.107492 
L 44.3628 87.797993 
L 44.6976 87.364265 
L 45.0324 88.889616 
L 45.3672 88.903358 
L 45.702 88.197368 
L 46.0368 88.686064 
L 46.3716 88.686064 
L 46.7064 88.523738 
L 47.0412 89.451316 
L 47.376 89.748485 
L 47.7108 89.644562 
L 48.3804 91.560699 
L 48.7152 92.062279 
L 49.05 93.119546 
L 49.3848 93.521497 
L 49.7196 92.766551 
L 50.0544 92.330246 
L 50.3892 92.100069 
L 50.724 91.582171 
L 51.3936 91.129547 
L 52.0632 89.621373 
L 52.398 89.28126 
L 53.0676 88.374295 
L 53.4024 88.086574 
L 53.7372 87.639962 
L 54.072 87.502543 
L 54.7416 87.668304 
L 55.746 89.371442 
L 56.4156 92.659193 
L 56.7504 92.289879 
L 57.0852 92.507173 
L 57.42 94.044548 
L 57.7548 94.39239 
L 58.0896 93.962097 
L 58.4244 94.479136 
L 58.7592 94.498031 
L 59.094 93.950073 
L 59.4288 94.084056 
L 59.7636 93.485425 
L 60.4332 89.482236 
L 61.4376 82.396566 
L 62.1072 79.563157 
L 62.442 79.992591 
L 62.7768 82.27976 
L 63.4464 89.427268 
L 64.116 97.424198 
L 64.4508 100.368402 
L 64.7856 101.400762 
L 65.1204 100.503244 
L 65.4552 98.207487 
L 66.1248 92.592201 
L 66.7944 89.970073 
L 67.1292 90.40552 
L 68.1336 99.07065 
L 68.4684 100.838203 
L 68.8032 100.54447 
L 69.138 97.209481 
L 69.8076 86.047618 
L 70.4772 73.43169 
L 70.812 69.442243 
L 71.1468 67.533836 
L 71.4816 67.724505 
L 72.1512 70.549325 
L 72.486 73.488376 
L 72.8208 78.753243 
L 73.8252 103.589161 
L 74.16 111.269168 
L 74.4948 116.357967 
L 74.8296 118.503422 
L 75.1644 118.08 
L 75.4992 114.681455 
L 76.1688 100.873417 
L 76.8384 86.654839 
L 77.1732 82.109703 
L 77.508 80.762997 
L 77.8428 79.971978 
L 78.1776 78.493865 
L 78.5124 77.853148 
L 78.8472 78.039523 
L 79.182 78.933606 
L 79.5168 81.614136 
L 80.5212 93.655481 
L 80.856 95.331134 
L 81.1908 95.603396 
L 81.5256 95.283897 
L 81.8604 94.359753 
L 82.53 91.454199 
L 82.8648 90.911394 
L 83.1996 91.318498 
L 84.204 94.340858 
L 84.5388 93.583336 
L 85.5432 87.42868 
L 85.878 86.496807 
L 86.2128 86.443557 
L 86.8824 87.937989 
L 87.552 89.616219 
L 87.8868 90.037924 
L 88.5564 90.431286 
L 88.8912 90.374601 
L 89.226 90.047372 
L 89.5608 89.939154 
L 90.5652 90.694959 
L 91.9044 91.528062 
L 92.2392 91.463647 
L 92.574 91.132123 
L 92.9088 90.45877 
L 93.5784 88.701524 
L 93.9132 88.647415 
L 94.9176 89.092309 
L 96.2568 91.756521 
L 96.5916 92.010746 
L 96.9264 91.644868 
L 97.2612 91.0282 
L 97.596 90.948325 
L 98.2656 91.376042 
L 98.6004 91.27899 
L 99.27 90.846979 
L 99.6048 90.835813 
L 99.9396 90.572141 
L 100.944 89.113781 
L 101.9484 89.54751 
L 102.618 90.612508 
L 102.9528 91.082309 
L 103.2876 91.211998 
L 103.6224 90.99814 
L 103.9572 90.569564 
L 104.292 90.36773 
L 105.6312 91.319357 
L 105.966 91.379478 
L 106.9704 90.737044 
L 107.3052 90.242335 
L 107.64 90.24577 
L 107.9748 90.479383 
L 108.3096 90.298161 
L 109.314 88.580423 
L 109.6488 88.497113 
L 110.3184 88.641403 
L 110.6532 89.034765 
L 111.3228 90.42098 
L 111.6576 90.666616 
L 112.3272 90.895075 
L 113.3316 90.454476 
L 115.0056 91.71186 
L 115.6752 92.025347 
L 116.01 91.754803 
L 116.3448 90.987833 
L 117.0144 88.648274 
L 117.3492 87.961179 
L 117.684 87.925965 
L 119.0232 89.842961 
L 120.0276 91.449905 
L 120.3624 91.565852 
L 120.6972 91.232611 
L 121.3668 90.293008 
L 121.7016 90.052525 
L 122.0364 89.981239 
L 122.3712 90.186508 
L 123.3756 91.305615 
L 123.7104 91.298744 
L 124.38 90.925995 
L 125.0496 90.737902 
L 126.054 91.190526 
L 127.0584 90.632262 
L 127.728 89.916824 
L 128.0628 89.446163 
L 128.3976 89.171325 
L 128.7324 89.141265 
L 130.7412 89.855844 
L 131.4108 89.959767 
L 131.7456 90.003569 
L 132.0804 89.898787 
L 132.4152 89.951178 
L 133.0848 90.672628 
L 134.0892 92.187673 
L 134.424 92.199698 
L 134.7588 91.741062 
L 135.7632 89.769098 
L 136.098 89.447881 
L 136.4328 89.292426 
L 136.7676 89.343099 
L 138.4416 90.780846 
L 139.1112 90.953479 
L 139.446 90.918265 
L 139.7808 90.664899 
L 140.4504 89.910811 
L 141.12 89.855844 
L 141.4548 89.9194 
L 142.4592 90.499996 
L 143.1288 90.241476 
L 143.7984 89.958049 
L 144.1332 89.958049 
L 146.4768 90.798882 
L 147.816 90.803176 
L 148.4856 90.312762 
L 148.8204 90.062831 
L 149.49 89.994122 
L 150.4944 90.272395 
L 151.164 90.674346 
L 151.8336 91.251506 
L 152.5032 91.197397 
L 152.838 91.049672 
L 154.8468 89.467635 
L 155.8512 89.390337 
L 156.186 89.449599 
L 158.1948 90.645145 
L 158.8644 90.918265 
L 159.534 90.732749 
L 161.5428 90.040501 
L 162.2124 90.159884 
L 163.8864 90.995563 
L 164.556 91.0282 
L 165.5604 91.017894 
L 166.23 90.688088 
L 166.5648 90.57987 
L 167.904 89.739038 
L 168.5736 89.74505 
L 169.2432 89.915965 
L 169.578 89.940872 
L 169.9128 89.719284 
L 170.2476 89.242611 
L 170.9172 88.861273 
L 171.5868 87.99811 
L 171.9216 88.04363 
L 172.2564 88.933418 
L 172.926 91.265248 
L 173.5956 93.230341 
L 174.2652 94.107246 
L 174.6 94.422451 
L 174.9348 93.960379 
L 175.6044 91.530639 
L 176.274 90.060255 
L 176.9436 88.214545 
L 177.2784 88.021299 
L 177.948 89.184208 
L 178.2828 89.327639 
L 178.2828 89.327639 
" style="fill:none;stroke:#1f77b4;stroke-linecap:square;stroke-width:1.5;"/>
   </g>
  </g>
  <g id="axes_3">
   <g id="line2d_3">
    <path clip-path="url(#p723de8439c)" d="M 110.988 145.205663 
L 111.3228 145.86098 
L 111.6576 146.106616 
L 112.3272 146.335075 
L 113.3316 145.894476 
L 115.0056 147.15186 
L 115.6752 147.465347 
L 116.01 147.194803 
L 116.3448 146.427833 
L 117.0144 144.088274 
L 117.3492 143.401179 
L 117.684 143.365965 
L 119.0232 145.282961 
L 120.0276 146.889905 
L 120.3624 147.005852 
L 120.6972 146.672611 
L 121.3668 145.733008 
L 121.7016 145.492525 
L 122.0364 145.421239 
L 122.3712 145.626508 
L 123.3756 146.745615 
L 123.7104 146.738744 
L 124.38 146.365995 
L 125.0496 146.177902 
L 126.054 146.630526 
L 127.0584 146.072262 
L 127.728 145.356824 
L 128.0628 144.886163 
L 128.3976 144.611325 
L 128.7324 144.581265 
L 130.7412 145.295844 
L 131.4108 145.399767 
L 131.7456 145.443569 
L 132.0804 145.338787 
L 132.4152 145.391178 
L 133.0848 146.112628 
L 134.0892 147.627673 
L 134.424 147.639698 
L 134.7588 147.181062 
L 135.7632 145.209098 
L 136.098 144.887881 
L 136.4328 144.732426 
L 136.7676 144.783099 
L 138.4416 146.220846 
L 139.1112 146.393479 
L 139.446 146.358265 
L 139.7808 146.104899 
L 140.4504 145.350811 
L 141.12 145.295844 
L 141.4548 145.3594 
L 142.4592 145.939996 
L 143.1288 145.681476 
L 143.7984 145.398049 
L 144.1332 145.398049 
L 146.4768 146.238882 
L 147.816 146.243176 
L 148.4856 145.752762 
L 148.8204 145.502831 
L 149.49 145.434122 
L 150.4944 145.712395 
L 151.164 146.114346 
L 151.8336 146.691506 
L 152.5032 146.637397 
L 152.838 146.489672 
L 154.8468 144.907635 
L 155.8512 144.830337 
L 156.186 144.889599 
L 158.1948 146.085145 
L 158.8644 146.358265 
L 159.534 146.172749 
L 161.5428 145.480501 
L 162.2124 145.599884 
L 163.8864 146.435563 
L 164.556 146.4682 
L 165.5604 146.457894 
L 166.23 146.128088 
L 166.5648 146.01987 
L 167.904 145.179038 
L 168.5736 145.18505 
L 169.2432 145.355965 
L 169.578 145.380872 
L 169.9128 145.159284 
L 170.2476 144.682611 
L 170.9172 144.301273 
L 171.5868 143.43811 
L 171.9216 143.48363 
L 172.2564 144.373418 
L 172.926 146.705248 
L 173.5956 148.670341 
L 174.2652 149.547246 
L 174.6 149.862451 
L 174.9348 149.400379 
L 175.6044 146.970639 
L 176.274 145.500255 
L 176.9436 143.654545 
L 177.2784 143.461299 
L 177.948 144.624208 
L 178.2828 144.767639 
L 178.6176 144.456729 
L 178.9524 143.862391 
L 179.2872 143.626202 
L 179.9568 144.029871 
L 180.2916 144.041036 
L 180.6264 144.306427 
L 181.296 146.387466 
L 182.3004 149.317928 
L 182.6352 149.581601 
L 182.97 149.222593 
L 183.9744 146.565252 
L 184.644 145.465041 
L 185.3136 144.612184 
L 185.6484 144.375136 
L 186.6528 144.265201 
L 187.3224 144.474765 
L 187.6572 144.445563 
L 187.992 144.53145 
L 188.6616 145.179897 
L 188.9964 145.578412 
L 189.666 145.865274 
L 190.3356 146.884752 
L 190.6704 147.131247 
L 191.34 147.328787 
L 191.6748 147.153578 
L 192.0096 146.76451 
L 192.3444 146.691506 
L 192.6792 146.474212 
L 193.014 145.728714 
L 193.3488 144.636232 
L 193.6836 143.931101 
L 194.0184 144.071955 
L 195.0228 145.330199 
L 195.6924 146.295567 
L 196.362 147.283267 
L 197.0316 147.517738 
L 197.3664 147.418968 
L 198.036 146.2406 
L 198.7056 145.036465 
L 199.3752 144.178455 
L 199.71 144.116617 
L 200.7144 144.419797 
L 201.0492 144.730708 
L 201.7188 145.639391 
L 202.7232 146.627091 
L 203.7276 147.067691 
L 204.3972 146.918248 
L 205.0668 146.512002 
L 205.7364 146.052508 
L 206.406 146.067967 
L 207.0756 145.488231 
L 207.7452 144.793405 
L 208.08 144.849232 
L 208.4148 145.161001 
L 208.7496 145.307009 
L 209.4192 144.567523 
L 209.754 144.625067 
L 210.4236 145.100022 
L 211.0932 145.643686 
L 211.428 145.708101 
L 211.7628 146.090298 
L 212.4324 147.184497 
L 212.7672 147.360565 
L 213.102 147.282408 
L 215.4456 145.053643 
L 216.1152 145.10861 
L 216.45 145.026159 
L 217.4544 145.933125 
L 218.124 146.682917 
L 218.4588 146.632244 
L 219.4632 145.638533 
L 220.4676 145.396332 
L 221.1372 145.688347 
L 221.8068 145.70896 
L 222.1416 145.831778 
L 222.4764 145.791411 
L 223.146 145.096586 
L 224.82 145.539763 
L 225.4896 146.499119 
L 225.8244 146.694942 
L 226.1592 146.493107 
L 226.494 146.095451 
L 226.8288 145.950302 
L 227.4984 146.335934 
L 227.8332 146.408938 
L 228.168 146.312745 
L 229.5072 145.001252 
L 230.1768 145.291549 
L 230.8464 145.07855 
L 231.1812 145.240876 
L 231.8508 145.846379 
L 232.1856 146.130665 
L 232.5204 146.144407 
L 232.8552 145.855826 
L 233.19 145.866992 
L 234.1944 146.931989 
L 234.5292 147.057384 
L 234.864 146.980086 
L 235.5336 146.536051 
L 236.2032 146.188209 
L 237.5424 144.208516 
L 237.8772 144.271213 
L 238.8816 145.04076 
L 239.5512 145.425533 
L 240.2208 145.803435 
L 241.2252 146.718131 
L 241.56 146.877022 
L 241.8948 146.839232 
L 242.5644 146.224281 
L 243.234 145.55694 
L 243.9036 145.459029 
L 244.2384 145.539763 
L 245.2428 146.092874 
L 245.5776 146.090298 
L 247.5864 145.135235 
L 248.9256 145.401485 
L 249.2604 145.648839 
L 249.93 146.305015 
L 250.9344 146.921683 
L 251.604 146.880457 
L 251.9388 146.709542 
L 253.278 145.297562 
L 253.6128 145.221122 
L 255.2868 145.966621 
L 255.9564 145.179897 
L 256.2912 144.788252 
L 256.626 144.579547 
L 256.9608 144.607031 
L 257.6304 144.956591 
L 259.3044 146.090298 
L 259.974 146.178761 
L 260.9784 146.069685 
L 261.9828 146.470777 
L 263.322 146.11864 
L 264.6612 144.960885 
L 264.996 145.058796 
L 266.0004 146.207104 
L 266.67 146.867574 
L 267.3396 146.89334 
L 267.6744 146.793712 
L 268.344 146.18735 
L 269.3484 144.940272 
L 270.018 144.559793 
L 270.3528 144.711813 
L 271.0224 145.354247 
L 272.0268 145.885887 
L 272.6964 145.95202 
L 273.7008 145.629085 
L 274.3704 145.824907 
L 275.7096 146.20281 
L 276.3792 145.972633 
L 276.714 145.831778 
L 277.3836 145.789694 
L 278.7228 145.352529 
L 279.3924 145.618779 
L 280.062 145.445287 
L 280.7316 145.933984 
L 281.0664 146.259495 
L 281.4012 146.410656 
L 281.736 146.213116 
L 282.0708 145.879016 
L 282.0708 145.879016 
" style="fill:none;stroke:#1f77b4;stroke-linecap:square;stroke-width:1.5;"/>
   </g>
  </g>
  <g id="axes_4">
   <g id="line2d_4">
    <path clip-path="url(#pb9b05c912f)" d="M 214.776 201.02013 
L 215.4456 200.493643 
L 216.1152 200.54861 
L 216.45 200.466159 
L 217.4544 201.373125 
L 218.124 202.122917 
L 218.4588 202.072244 
L 219.4632 201.078533 
L 220.4676 200.836332 
L 221.1372 201.128347 
L 221.8068 201.14896 
L 222.1416 201.271778 
L 222.4764 201.231411 
L 223.146 200.536586 
L 224.82 200.979763 
L 225.4896 201.939119 
L 225.8244 202.134942 
L 226.1592 201.933107 
L 226.494 201.535451 
L 226.8288 201.390302 
L 227.4984 201.775934 
L 227.8332 201.848938 
L 228.168 201.752745 
L 229.5072 200.441252 
L 230.1768 200.731549 
L 230.8464 200.51855 
L 231.1812 200.680876 
L 231.8508 201.286379 
L 232.1856 201.570665 
L 232.5204 201.584407 
L 232.8552 201.295826 
L 233.19 201.306992 
L 234.1944 202.371989 
L 234.5292 202.497384 
L 234.864 202.420086 
L 235.5336 201.976051 
L 236.2032 201.628209 
L 237.5424 199.648516 
L 237.8772 199.711213 
L 238.8816 200.48076 
L 239.5512 200.865533 
L 240.2208 201.243435 
L 241.2252 202.158131 
L 241.56 202.317022 
L 241.8948 202.279232 
L 242.5644 201.664281 
L 243.234 200.99694 
L 243.9036 200.899029 
L 244.2384 200.979763 
L 245.2428 201.532874 
L 245.5776 201.530298 
L 247.5864 200.575235 
L 248.9256 200.841485 
L 249.2604 201.088839 
L 249.93 201.745015 
L 250.9344 202.361683 
L 251.604 202.320457 
L 251.9388 202.149542 
L 253.278 200.737562 
L 253.6128 200.661122 
L 255.2868 201.406621 
L 255.9564 200.619897 
L 256.2912 200.228252 
L 256.626 200.019547 
L 256.9608 200.047031 
L 257.6304 200.396591 
L 259.3044 201.530298 
L 259.974 201.618761 
L 260.9784 201.509685 
L 261.9828 201.910777 
L 263.322 201.55864 
L 264.6612 200.400885 
L 264.996 200.498796 
L 266.0004 201.647104 
L 266.67 202.307574 
L 267.3396 202.33334 
L 267.6744 202.233712 
L 268.344 201.62735 
L 269.3484 200.380272 
L 270.018 199.999793 
L 270.3528 200.151813 
L 271.0224 200.794247 
L 272.0268 201.325887 
L 272.6964 201.39202 
L 273.7008 201.069085 
L 274.3704 201.264907 
L 275.7096 201.64281 
L 276.3792 201.412633 
L 276.714 201.271778 
L 277.3836 201.229694 
L 278.7228 200.792529 
L 279.3924 201.058779 
L 280.062 200.885287 
L 280.7316 201.373984 
L 281.0664 201.699495 
L 281.4012 201.850656 
L 281.736 201.653116 
L 282.0708 201.319016 
L 282.4056 201.166137 
L 282.7404 201.294968 
L 283.41 201.884152 
L 283.7448 201.896176 
L 284.7492 201.531157 
L 286.0884 200.452417 
L 286.758 200.664558 
L 288.432 202.345365 
L 288.7668 202.305857 
L 289.1016 202.09028 
L 289.7712 200.848356 
L 290.4408 199.671705 
L 291.1104 199.149513 
L 291.4452 199.300674 
L 291.78 199.833172 
L 292.7844 202.077397 
L 293.454 202.860686 
L 293.7888 203.016141 
L 294.4584 202.710384 
L 295.4628 202.299844 
L 296.1324 201.415209 
L 296.802 200.502231 
L 297.1368 200.218805 
L 297.4716 200.124329 
L 297.8064 200.224817 
L 298.8108 200.914489 
L 299.1456 201.160125 
L 299.4804 201.266625 
L 300.15 200.739279 
L 300.4848 200.525421 
L 300.8196 200.504808 
L 301.1544 200.607872 
L 301.4892 200.966021 
L 302.1588 201.972615 
L 302.4936 202.19678 
L 302.8284 202.21224 
L 303.1632 201.927095 
L 304.8372 199.674282 
L 305.172 199.755015 
L 305.5068 200.151813 
L 306.1764 201.548334 
L 306.5112 201.852374 
L 306.846 201.748451 
L 307.5156 201.36883 
L 308.1852 201.207363 
L 308.52 201.353371 
L 309.8592 202.898476 
L 310.194 203.000682 
L 311.1984 202.782529 
L 311.5332 202.536892 
L 312.5376 201.218528 
L 312.8724 200.392296 
L 314.2116 198.846332 
L 314.5464 197.997769 
L 315.216 195.968262 
L 315.5508 195.947649 
L 315.8856 196.953384 
L 317.2248 204.087151 
L 317.8944 206.51088 
L 318.2292 207.115523 
L 318.564 206.948044 
L 318.8988 206.011018 
L 319.5684 203.461035 
L 319.9032 203.41208 
L 320.238 204.693513 
L 321.2424 210.963257 
L 321.5772 210.217759 
L 321.912 207.557841 
L 322.5816 199.626185 
L 323.9208 182.59567 
L 324.2556 180.755972 
L 324.5904 180.593646 
L 324.9252 181.333991 
L 325.26 183.351475 
L 325.5948 187.65355 
L 327.6036 222.574308 
L 327.9384 224.952517 
L 328.2732 224.87436 
L 328.608 221.827092 
L 330.282 195.324969 
L 330.6168 193.39509 
L 330.9516 192.515608 
L 331.2864 191.18522 
L 331.6212 190.45604 
L 331.956 190.971361 
L 332.2908 192.113657 
L 332.6256 194.132858 
L 333.63 203.529745 
L 333.9648 204.826637 
L 334.2996 205.041355 
L 334.6344 204.968351 
L 334.9692 204.325058 
L 335.6388 201.840349 
L 335.9736 201.457294 
L 336.3084 202.198498 
L 336.978 204.502844 
L 337.3128 204.708972 
L 337.6476 204.08801 
L 338.3172 200.789953 
L 338.9868 197.886975 
L 339.3216 197.339875 
L 339.6564 197.642197 
L 340.9956 201.123194 
L 341.3304 201.495943 
L 341.6652 201.537169 
L 342.6696 201.242577 
L 343.3392 201.551769 
L 344.0088 202.176167 
L 344.3436 202.140954 
L 344.6784 201.816301 
L 345.348 200.800259 
L 345.6828 200.705783 
L 346.0176 200.767622 
L 346.3524 200.701489 
L 347.022 200.080527 
L 347.3568 199.659681 
L 347.6916 199.438093 
L 348.0264 199.777346 
L 348.696 200.849215 
L 349.0308 201.185891 
L 349.7004 202.727561 
L 350.0352 203.065097 
L 350.7048 203.320181 
L 351.0396 203.246318 
L 351.3744 203.030742 
L 351.7092 202.482784 
L 352.044 201.537169 
L 352.3788 200.955714 
L 353.3832 201.901329 
L 353.718 201.735567 
L 354.0528 201.271778 
L 354.3876 201.149819 
L 354.7224 201.54404 
L 355.0572 202.146107 
L 355.392 202.47763 
L 355.7268 202.214816 
L 357.7356 199.482754 
L 358.0704 199.383125 
L 358.74 199.54631 
L 359.4096 199.570358 
L 359.7444 200.075374 
L 360.414 202.320457 
L 360.7488 202.835779 
L 361.0836 202.572965 
L 361.7532 200.765045 
L 362.088 200.26003 
L 362.4228 200.020406 
L 362.7576 200.216228 
L 363.762 202.700077 
L 364.0968 202.909642 
L 364.4316 202.688053 
L 365.436 200.83719 
L 365.7708 200.825166 
L 366.4404 201.781088 
L 366.7752 201.763051 
L 367.11 201.576677 
L 367.4448 201.221964 
L 368.1144 200.252301 
L 368.4492 200.159543 
L 369.4536 201.192762 
L 370.1232 201.496802 
L 371.1276 201.011541 
L 372.4668 202.012123 
L 372.8016 201.739003 
L 373.4712 200.681735 
L 373.806 200.3588 
L 374.1408 200.274631 
L 375.48 201.214234 
L 376.1496 202.29555 
L 376.4844 202.606461 
L 377.154 202.859827 
L 377.4888 202.655416 
L 378.4932 200.783082 
L 378.828 200.654251 
L 379.1628 200.656828 
L 380.1672 200.992646 
L 381.1716 199.953414 
L 381.5064 200.105434 
L 382.176 200.87584 
L 382.8456 201.836914 
L 383.1804 201.912495 
L 384.5196 201.226258 
L 385.1892 201.370548 
L 385.524 201.506249 
L 385.8588 201.417786 
L 385.8588 201.417786 
" style="fill:none;stroke:#1f77b4;stroke-linecap:square;stroke-width:1.5;"/>
   </g>
  </g>
  <g id="axes_5">
   <g id="line2d_5">
    <path clip-path="url(#pb5df6ddc4f)" d="M 318.564 262.388044 
L 318.8988 261.451018 
L 319.5684 258.901035 
L 319.9032 258.85208 
L 320.238 260.133513 
L 321.2424 266.403257 
L 321.5772 265.657759 
L 321.912 262.997841 
L 322.5816 255.066185 
L 323.9208 238.03567 
L 324.2556 236.195972 
L 324.5904 236.033646 
L 324.9252 236.773991 
L 325.26 238.791475 
L 325.5948 243.09355 
L 327.6036 278.014308 
L 327.9384 280.392517 
L 328.2732 280.31436 
L 328.608 277.267092 
L 330.282 250.764969 
L 330.6168 248.83509 
L 330.9516 247.955608 
L 331.2864 246.62522 
L 331.6212 245.89604 
L 331.956 246.411361 
L 332.2908 247.553657 
L 332.6256 249.572858 
L 333.63 258.969745 
L 333.9648 260.266637 
L 334.2996 260.481355 
L 334.6344 260.408351 
L 334.9692 259.765058 
L 335.6388 257.280349 
L 335.9736 256.897294 
L 336.3084 257.638498 
L 336.978 259.942844 
L 337.3128 260.148972 
L 337.6476 259.52801 
L 338.3172 256.229953 
L 338.9868 253.326975 
L 339.3216 252.779875 
L 339.6564 253.082197 
L 340.9956 256.563194 
L 341.3304 256.935943 
L 341.6652 256.977169 
L 342.6696 256.682577 
L 343.3392 256.991769 
L 344.0088 257.616167 
L 344.3436 257.580954 
L 344.6784 257.256301 
L 345.348 256.240259 
L 345.6828 256.145783 
L 346.0176 256.207622 
L 346.3524 256.141489 
L 347.022 255.520527 
L 347.3568 255.099681 
L 347.6916 254.878093 
L 348.0264 255.217346 
L 348.696 256.289215 
L 349.0308 256.625891 
L 349.7004 258.167561 
L 350.0352 258.505097 
L 350.7048 258.760181 
L 351.0396 258.686318 
L 351.3744 258.470742 
L 351.7092 257.922784 
L 352.044 256.977169 
L 352.3788 256.395714 
L 353.3832 257.341329 
L 353.718 257.175567 
L 354.0528 256.711778 
L 354.3876 256.589819 
L 354.7224 256.98404 
L 355.0572 257.586107 
L 355.392 257.91763 
L 355.7268 257.654816 
L 357.7356 254.922754 
L 358.0704 254.823125 
L 358.74 254.98631 
L 359.4096 255.010358 
L 359.7444 255.515374 
L 360.414 257.760457 
L 360.7488 258.275779 
L 361.0836 258.012965 
L 361.7532 256.205045 
L 362.088 255.70003 
L 362.4228 255.460406 
L 362.7576 255.656228 
L 363.762 258.140077 
L 364.0968 258.349642 
L 364.4316 258.128053 
L 365.436 256.27719 
L 365.7708 256.265166 
L 366.4404 257.221088 
L 366.7752 257.203051 
L 367.11 257.016677 
L 367.4448 256.661964 
L 368.1144 255.692301 
L 368.4492 255.599543 
L 369.4536 256.632762 
L 370.1232 256.936802 
L 371.1276 256.451541 
L 372.4668 257.452123 
L 372.8016 257.179003 
L 373.4712 256.121735 
L 373.806 255.7988 
L 374.1408 255.714631 
L 375.48 256.654234 
L 376.1496 257.73555 
L 376.4844 258.046461 
L 377.154 258.299827 
L 377.4888 258.095416 
L 378.4932 256.223082 
L 378.828 256.094251 
L 379.1628 256.096828 
L 380.1672 256.432646 
L 381.1716 255.393414 
L 381.5064 255.545434 
L 382.176 256.31584 
L 382.8456 257.276914 
L 383.1804 257.352495 
L 384.5196 256.666258 
L 385.1892 256.810548 
L 385.524 256.946249 
L 385.8588 256.857786 
L 386.5284 256.537428 
L 388.2024 256.42148 
L 388.872 256.980604 
L 389.2068 257.039007 
L 390.8808 256.293509 
L 391.2156 256.350194 
L 391.8852 256.814842 
L 392.5548 257.459853 
L 392.8896 257.648804 
L 393.2244 257.648804 
L 393.5592 257.48476 
L 394.8984 256.164679 
L 395.2332 256.107134 
L 395.9028 256.439517 
L 396.5724 256.910177 
L 396.9072 256.901588 
L 397.5768 256.443811 
L 398.2464 256.053026 
L 398.5812 255.949102 
L 398.916 255.967998 
L 399.2508 256.134618 
L 400.2552 257.200475 
L 400.59 257.312987 
L 401.9292 257.284644 
L 402.264 257.010665 
L 402.9336 256.212775 
L 403.6032 255.986893 
L 404.2728 255.92076 
L 404.9424 256.171549 
L 407.9556 257.526845 
L 408.6252 257.573224 
L 408.96 257.349918 
L 409.9644 256.337311 
L 410.2992 256.114864 
L 410.634 256.05732 
L 412.308 256.454117 
L 412.9776 256.658528 
L 415.3212 256.917048 
L 415.9908 257.078515 
L 417.9996 256.526262 
L 419.6736 256.683435 
L 420.0084 256.637057 
L 420.3432 256.736685 
L 420.678 256.954838 
L 421.0128 256.964286 
L 422.0172 256.103699 
L 423.0216 256.078792 
L 423.3564 256.204187 
L 424.026 256.185291 
L 424.3608 256.343323 
L 424.6956 256.336452 
L 425.0304 255.941373 
L 425.3652 255.843462 
L 425.7 256.288356 
L 426.0348 257.163543 
L 426.3696 258.438964 
L 426.7044 259.041031 
L 427.0392 258.858951 
L 427.374 258.262896 
L 427.7088 257.300962 
L 428.0436 257.130906 
L 428.3784 257.596413 
L 428.7132 257.617026 
L 429.3828 257.103422 
L 429.7176 256.939378 
L 430.0524 256.43694 
L 430.3872 255.512797 
L 430.722 255.072197 
L 431.3916 255.721502 
L 432.0612 255.516232 
L 432.396 255.656228 
L 433.0656 256.842326 
L 433.4004 256.587242 
L 434.07 255.82972 
L 434.4048 255.91303 
L 435.4092 256.813125 
L 436.0788 257.522551 
L 437.0832 258.303263 
L 437.418 258.211364 
L 437.7528 257.862663 
L 438.4224 256.793371 
L 438.7572 256.454117 
L 439.092 256.279767 
L 439.7616 256.279767 
L 440.4312 255.983457 
L 441.1008 256.027259 
L 441.7704 256.397432 
L 442.1052 256.686871 
L 442.44 257.138636 
L 443.1096 257.255442 
L 443.4444 256.817419 
L 443.7792 255.620156 
L 444.4488 254.629879 
L 444.7836 254.470989 
L 445.4532 256.777911 
L 445.788 257.043302 
L 446.7924 258.459577 
L 447.1272 258.424363 
L 447.7968 258.587548 
L 448.1316 258.420928 
L 448.4664 258.066215 
L 449.4708 255.907018 
L 450.1404 255.025818 
L 450.4752 254.830855 
L 450.81 254.97858 
L 453.1536 257.59126 
L 453.4884 257.556905 
L 454.4928 256.969439 
L 455.4972 256.255719 
L 456.1668 256.601843 
L 456.5016 256.762451 
L 457.506 256.812266 
L 458.1756 256.640492 
L 458.8452 256.536569 
L 459.18 256.442093 
L 459.8496 256.667976 
L 460.1844 256.525404 
L 460.5192 256.223941 
L 460.854 256.307251 
L 461.5236 257.175567 
L 461.8584 257.414333 
L 462.528 257.299245 
L 462.8628 257.2417 
L 463.1976 256.994346 
L 464.202 255.888982 
L 464.5368 255.70003 
L 465.2064 255.684571 
L 465.5412 255.900147 
L 466.5456 257.19618 
L 466.8804 257.517397 
L 467.2152 257.50022 
L 467.8848 257.132624 
L 468.5544 256.9076 
L 469.224 257.105999 
L 469.5588 257.026124 
L 470.5632 256.101981 
L 471.2328 256.198174 
L 471.9024 256.364795 
L 472.2372 256.271178 
L 472.572 256.411174 
L 473.5764 258.143513 
L 474.246 257.5758 
L 474.9156 257.185874 
L 475.5852 256.853492 
L 476.5896 255.789353 
L 477.594 255.425192 
L 477.9288 255.109987 
L 478.2636 255.081645 
L 479.268 255.838308 
L 479.6028 256.083086 
L 480.6072 257.593837 
L 480.942 257.856651 
L 482.9508 257.593837 
L 483.2856 257.417769 
L 484.29 256.146642 
L 485.2944 255.960268 
L 486.2988 256.149219 
L 486.9684 256.761593 
L 487.3032 256.929072 
L 487.9728 257.582671 
L 488.3076 257.662546 
L 488.9772 257.335317 
L 489.6468 256.64994 
L 489.6468 256.64994 
" style="fill:none;stroke:#1f77b4;stroke-linecap:square;stroke-width:1.5;"/>
   </g>
  </g>
 </g>
 <defs>
  <clipPath id="pf442cc4975">
   <rect height="55.44" width="502.2" x="7.2" y="7.2"/>
  </clipPath>
  <clipPath id="p689891ce0c">
   <rect height="55.44" width="502.2" x="7.2" y="62.64"/>
  </clipPath>
  <clipPath id="p723de8439c">
   <rect height="55.44" width="502.2" x="7.2" y="118.08"/>
  </clipPath>
  <clipPath id="pb9b05c912f">
   <rect height="55.44" width="502.2" x="7.2" y="173.52"/>
  </clipPath>
  <clipPath id="pb5df6ddc4f">
   <rect height="55.44" width="502.2" x="7.2" y="228.96"/>
  </clipPath>
 </defs>
</svg>
